<svg xmlns="http://www.w3.org/2000/svg" width="74" height="74" viewBox="0 0 74 74">
  <g id="Group_199" data-name="Group 199" transform="translate(-1963 -1107)">
    <g id="Rectangle_73" data-name="Rectangle 73" transform="translate(1963 1107)" fill="#fff" stroke="#eff1f7" stroke-width="1">
      <rect width="74" height="74" rx="8" stroke="none"/>
      <rect x="0.5" y="0.5" width="73" height="73" rx="7.5" fill="none"/>
    </g>
    <path id="Path_28022" data-name="Path 28022" d="M3368.33,1687.945l-2.948,2.358s-5.305,1.415-7.546,0a33.807,33.807,0,0,1-5.365-5.011s-1.769-5.188-.708-6.957a46.956,46.956,0,0,1,4.009-5.011s3.773-2.535,6.013-2,5.777,1.533,6.19,2.3,2.24,3.42,2.476,3.891,1.12,4.834.825,5.424-.825,3.183-1.71,3.95S3368.33,1687.945,3368.33,1687.945Z" transform="translate(-1361 -526)" fill="#f28f84"/>
    <g id="email_1_" data-name="email (1)" transform="translate(1978 1111.88)">
      <path id="Path_28010" data-name="Path 28010" d="M53.5,13.13,37.087,25,34.394,26.95a4.041,4.041,0,0,1-4.8,0L26.9,25,10.463,13.15a4.849,4.849,0,0,1,3.962-2.03H49.56A4.874,4.874,0,0,1,53.5,13.13Z" transform="translate(-9.546)" fill="#f28f84"/>
      <g id="Group_196" data-name="Group 196" transform="translate(0 13.13)">
        <path id="Path_28011" data-name="Path 28011" d="M.917,34.271,17.352,46.119,1.425,62.047A4.88,4.88,0,0,1,0,58.592V37.121A4.815,4.815,0,0,1,.917,34.271Z" transform="translate(0 -34.251)" fill="#f28f84"/>
        <path id="Path_28012" data-name="Path 28012" d="M331.454,36.917V58.389a4.881,4.881,0,0,1-1.425,3.455L314.1,45.916l16.416-11.868A4.855,4.855,0,0,1,331.454,36.917Z" transform="translate(-286.559 -34.048)" fill="#f28f84"/>
      </g>
      <path id="Path_28013" data-name="Path 28013" d="M151.132,269.652c-1.3,0-1.952-.976-1.952-2.928a4.938,4.938,0,1,0-1.189,3.156,3.479,3.479,0,0,0,3.141,1.724c3.9,0,3.9-3.674,3.9-4.88a10.736,10.736,0,1,0-3.271,7.714.979.979,0,1,0-1.366-1.4h0a8.784,8.784,0,1,1,2.686-6.313C153.084,268.913,152.592,269.652,151.132,269.652Zm-6.832,0a2.928,2.928,0,1,1,2.928-2.928A2.929,2.929,0,0,1,144.3,269.652Z" transform="translate(-121.854 -223.398)" fill="#455a64"/>
      <path id="Path_28014" data-name="Path 28014" d="M42.368,169.4l-2.694,1.952a4.041,4.041,0,0,1-4.8,0L32.179,169.4,16.251,185.323a4.88,4.88,0,0,0,3.455,1.425h4.929a12.674,12.674,0,0,1,25.275,0h4.931a4.881,4.881,0,0,0,3.455-1.425Z" transform="translate(-14.826 -144.397)" fill="#f28f84"/>
      <path id="Path_28015" data-name="Path 28015" d="M40.014,42.351h-3.9a.976.976,0,0,1,0-1.952h3.9a2.931,2.931,0,0,0,2.928-2.928V16a2.931,2.931,0,0,0-2.928-2.928H4.88A2.93,2.93,0,0,0,1.952,16V37.471A2.931,2.931,0,0,0,4.88,40.4h3.9a.976.976,0,0,1,0,1.952H4.88A4.887,4.887,0,0,1,0,37.471V16a4.887,4.887,0,0,1,4.88-4.88H40.015A4.884,4.884,0,0,1,44.894,16V37.471A4.885,4.885,0,0,1,40.014,42.351Z" transform="translate(0 0)"/>
      <path id="Path_28016" data-name="Path 28016" d="M63.067,69.314a5.042,5.042,0,0,1-2.981-.978L44.927,57.388A.976.976,0,1,1,46.069,55.8L61.236,66.757a3.084,3.084,0,0,0,3.656,0L80.06,55.8A.976.976,0,1,1,81.2,57.386L66.037,68.338A5.016,5.016,0,0,1,63.067,69.314Z" transform="translate(-40.618 -40.598)"/>
      <path id="Path_28017" data-name="Path 28017" d="M45.494,200.934a.975.975,0,0,1-.691-1.665l9.76-9.76a.976.976,0,0,1,1.38,1.38l-9.76,9.76A.973.973,0,0,1,45.494,200.934Z" transform="translate(-40.614 -162.488)"/>
      <path id="Path_28018" data-name="Path 28018" d="M344.644,200.933a.98.98,0,0,1-.691-.285l-9.76-9.76a.976.976,0,1,1,1.38-1.38l9.76,9.76a.975.975,0,0,1-.689,1.665Z" transform="translate(-304.63 -162.487)"/>
      <path id="Path_28019" data-name="Path 28019" d="M144.373,277.486c-.061,0-.121,0-.182,0A10.736,10.736,0,1,1,155.1,266.748a.976.976,0,1,1-1.952,0,8.786,8.786,0,0,0-8.641-8.782,8.972,8.972,0,0,0-6.252,2.473,8.783,8.783,0,0,0,5.965,15.092,8.539,8.539,0,0,0,6.252-2.471.976.976,0,0,1,1.357,1.4A10.655,10.655,0,0,1,144.373,277.486Z" transform="translate(-121.921 -223.422)"/>
      <path id="Path_28020" data-name="Path 28020" d="M205.228,332.532a4.88,4.88,0,1,1,4.88-4.88A4.887,4.887,0,0,1,205.228,332.532Zm0-7.808a2.928,2.928,0,1,0,2.928,2.928A2.931,2.931,0,0,0,205.228,324.724Z" transform="translate(-182.781 -284.325)"/>
      <path id="Path_28021" data-name="Path 28021" d="M293.295,373.15c-2.444,0-3.9-1.825-3.9-4.88a.976.976,0,0,1,1.952,0c0,1.942.658,2.928,1.952,2.928,1.46,0,1.952-.74,1.952-2.928a.976.976,0,0,1,1.952,0C297.2,369.476,297.2,373.15,293.295,373.15Z" transform="translate(-264.016 -324.944)"/>
    </g>
  </g>
</svg>
