<svg xmlns="http://www.w3.org/2000/svg" width="74" height="74" viewBox="0 0 74 74"><defs><style>.a,.c{fill:#fff;}.a{stroke:#eff1f7;}.b{fill:#1e75ba;}.d{fill:#9fd67b;}.e{stroke:none;}.f{fill:none;}</style></defs><g transform="translate(2341 -490)"><g class="a" transform="translate(-2341 490)"><rect class="e" width="74" height="74" rx="8"/><rect class="f" x="0.5" y="0.5" width="73" height="73" rx="7.5"/></g><g transform="translate(52.131 -64.452)"><path class="b" d="M35.864,31H3.975A3.97,3.97,0,0,0,0,34.974v21.2A3.97,3.97,0,0,0,3.975,60.15H5.3v6.625a1.321,1.321,0,0,0,.822,1.219A1.265,1.265,0,0,0,7.553,67.7L15.22,60.15H35.864a3.97,3.97,0,0,0,3.975-3.975v-21.2A3.97,3.97,0,0,0,35.864,31Z" transform="translate(-2377.131 541.453)"/><g transform="translate(-2369.911 580.29)"><path class="c" d="M100.275,243.649h-7.95a1.325,1.325,0,1,1,0-2.65h7.95a1.325,1.325,0,0,1,0,2.65Z" transform="translate(-91 -230.399)"/><path class="c" d="M104.25,182.324a1.312,1.312,0,0,1-1.325,1.325h-10.6a1.325,1.325,0,1,1,0-2.65h10.6A1.312,1.312,0,0,1,104.25,182.324Z" transform="translate(-91 -175.699)"/><path class="c" d="M114.85,122.324a1.312,1.312,0,0,1-1.325,1.325h-21.2a1.325,1.325,0,1,1,0-2.65h21.2A1.312,1.312,0,0,1,114.85,122.324Z" transform="translate(-91 -120.999)"/></g><path class="d" d="M260.875,211h-15.9A3.979,3.979,0,0,0,241,214.974v10.6a3.979,3.979,0,0,0,3.975,3.975h7.4l.549.549,4.363,4.363a1.325,1.325,0,0,0,2.262-.937v-3.975h1.325a4.056,4.056,0,0,0,4.063-3.975v-10.6A4.056,4.056,0,0,0,260.875,211Z" transform="translate(-2600 375.001)"/><path class="c" d="M331.724,286.388a1.325,1.325,0,0,0-1.874,0l-1.713,1.713-1.325,1.325-1.051-1.051a1.325,1.325,0,1,0-1.874,1.874l1.988,1.988a1.324,1.324,0,0,0,1.874,0l.388-.388,3.587-3.587A1.324,1.324,0,0,0,331.724,286.388Z" transform="translate(-2674.5 306)"/></g></g></svg>