<svg xmlns="http://www.w3.org/2000/svg" width="20.576" height="20.576" viewBox="0 0 20.576 20.576">
  <g id="Group_146" data-name="Group 146" transform="translate(-1255 -51)">
    <path id="settings" d="M20.092,7.945,18.51,7.6A8.606,8.606,0,0,0,18,6.374l.875-1.362a.615.615,0,0,0-.082-.767L16.331,1.781a.615.615,0,0,0-.767-.082L14.2,2.574a8.607,8.607,0,0,0-1.227-.509L12.631.484A.615.615,0,0,0,12.03,0H8.546a.615.615,0,0,0-.6.484L7.6,2.065a8.607,8.607,0,0,0-1.227.509L5.012,1.7a.615.615,0,0,0-.767.082L1.781,4.245a.615.615,0,0,0-.082.767l.875,1.362A8.607,8.607,0,0,0,2.065,7.6L.484,7.945a.615.615,0,0,0-.484.6V12.03a.615.615,0,0,0,.484.6l1.581.344A8.606,8.606,0,0,0,2.574,14.2L1.7,15.564a.615.615,0,0,0,.082.767l2.464,2.464a.615.615,0,0,0,.767.082L6.374,18A8.607,8.607,0,0,0,7.6,18.51l.344,1.581a.615.615,0,0,0,.6.484H12.03a.615.615,0,0,0,.6-.484l.344-1.581A8.606,8.606,0,0,0,14.2,18l1.362.875a.615.615,0,0,0,.767-.082l2.464-2.464a.615.615,0,0,0,.082-.767L18,14.2a8.607,8.607,0,0,0,.509-1.227l1.581-.344a.615.615,0,0,0,.484-.6V8.546A.615.615,0,0,0,20.092,7.945Zm-6.115,2.343A3.689,3.689,0,1,1,10.288,6.6,3.693,3.693,0,0,1,13.977,10.288Zm0,0" transform="translate(1255 51)" fill="#2b2e32"/>
  </g>
</svg>
