<svg xmlns="http://www.w3.org/2000/svg" width="132.628" height="42.813" viewBox="0 0 132.628 42.813"><defs><style>.a{fill:#2277ba;}.b{fill:#252525;}</style></defs><g transform="translate(-803.572 -28.259)"><g transform="translate(803.572 28.259)"><path class="a" d="M803.748,44.719l47.044-16.43h0c.155-.077.31,0,.31.155v42.4a.248.248,0,0,1-.232.232h0l-47.044-2.325a.247.247,0,0,1-.232-.232h0V45.031c-.077-.155.077-.232.155-.31ZM936.2,69.832V49.064h-1.938L930,51.467l.543,1.705,3.488-1.938v18.6Zm-11.315-9.843c-.62,3.875-2.79,7.518-6.82,8.06l-2.17.155v1.938c5.193.233,9.223-2.943,10.618-7.98,1.317-4.65.853-13.408-5.735-13.408-8.138,0-8.99,13.563-.853,13.563a5.664,5.664,0,0,0,4.728-2.325Zm-4.263-9.533c3.41,0,4.185,3.875,4.185,6.665,0,3.72-8.215,5.658-8.215-1.317,0-2.4,1.24-5.348,4.03-5.348Zm-111.68-1.163a.932.932,0,1,0-.543,1.783l17.205,4.96.387-.31,17.127-14.1a.938.938,0,1,0-1.162-1.473l-16.74,13.8Z" transform="translate(-803.572 -28.259)"/><path class="b" d="M928.079,64.742h-6.51V66.6h4.263v6.743c-1.705.93-5.115.7-6.82,0-5.58-2.247-6.045-11.082-2.4-14.8,2.48-2.558,7.208-2.945,10.385-1.473l.62-1.938a13.05,13.05,0,0,0-9.378-.077c-7.982,3.177-8.06,14.881-2.4,18.988,3.332,2.4,8.68,2.17,12.323.7v-10ZM909.246,55.21c-3.177-2.015-10.773-1.24-10.773,4.573,0,4.883,5.27,5.425,7.6,7.13,3.255,2.48,1.783,8.138-4.5,6.9a9.3,9.3,0,0,1-2.868-1.162l-.62,1.938c3.41,2.4,12.013,2.015,12.013-4.573,0-7.052-9.223-5.27-9.223-10.54,0-3.8,5.348-3.953,7.75-2.325l.62-1.938Zm-14.881-.7H891.5c-1.705,4.805-4.805,12.71-6.045,17.748h-.078c-1.473-5.735-3.875-12.168-5.813-17.748h-2.79L875.3,75.592h2.17l1.008-18.6h.077c1.4,5.813,3.952,12.788,5.89,18.523h1.705c2.17-6.045,4.573-12.4,6.355-18.523h.077c0,4.805.62,14.028.853,18.6h2.247l-1.317-21.08Z" transform="translate(-819.709 -34.096)"/></g></g></svg>