<svg xmlns="http://www.w3.org/2000/svg" viewBox="0 0 16 16"><defs><style>.a{fill:#d24103;}.b{fill:#562912;}</style></defs><circle class="a" cx="8" cy="8" r="8" transform="translate(0 0)"/><g transform="translate(4.064 7.261)"><ellipse class="b" cx="0.825" cy="1.181" rx="0.825" ry="1.181"/><g transform="translate(6.223)"><ellipse class="b" cx="0.825" cy="1.181" rx="0.825" ry="1.181"/></g></g><g transform="translate(3.708 5.491)"><path class="b" d="M22.893,31.983a.236.236,0,0,1-.225-.169,2.384,2.384,0,0,0-2.062-1.575A.241.241,0,0,1,20.4,30a.226.226,0,0,1,.244-.206A2.866,2.866,0,0,1,23.118,31.7a.233.233,0,0,1-.15.281Z" transform="translate(-20.4 -29.787)"/><g transform="translate(5.857 0)"><path class="b" d="M51.864,31.983h-.056a.233.233,0,0,1-.15-.281,2.868,2.868,0,0,1,2.456-1.912.226.226,0,0,1,.037.45,2.384,2.384,0,0,0-2.062,1.575A.221.221,0,0,1,51.864,31.983Z" transform="translate(-51.648 -29.787)"/></g></g><g transform="translate(5.992 10.864)"><path class="b" d="M36.226,60.234a.356.356,0,0,1-.244-.094,2.091,2.091,0,0,0-2.774,0,.363.363,0,0,1-.525-.019A.38.38,0,0,1,32.7,59.6a2.684,2.684,0,0,1,1.987-.712,2.754,2.754,0,0,1,1.781.712.379.379,0,0,1,.019.525A.37.37,0,0,1,36.226,60.234Z" transform="translate(-32.587 -58.881)"/></g></svg>