<svg xmlns="http://www.w3.org/2000/svg" xmlns:xlink="http://www.w3.org/1999/xlink" viewBox="0 0 16 16"><defs><style>.a{fill:url(#a);}.b{fill:#562912;}.c{fill:#61c0eb;}</style><linearGradient id="a" x1="0.5" y1="-0.107" x2="0.5" y2="0.91" gradientUnits="objectBoundingBox"><stop offset="0" stop-color="#2a97ff"/><stop offset="0.522" stop-color="#75bebe"/><stop offset="0.808" stop-color="#f6cd0c"/><stop offset="1" stop-color="#ffce00"/></linearGradient></defs><g transform="translate(-1012 -553)"><circle class="a" cx="8" cy="8" r="8" transform="translate(1012 553)"/><g transform="translate(1014.406 557.341)"><g transform="translate(1.467 2.671)"><ellipse class="b" cx="0.827" cy="1.185" rx="0.827" ry="1.185"/><g transform="translate(6.769)"><ellipse class="b" cx="0.827" cy="1.185" rx="0.827" ry="1.185"/></g></g><g transform="translate(2.975 6.394)"><path class="b" d="M34.451,59.956c.207.038.357-.263.226-.47a3.109,3.109,0,0,0-5.3,0c-.132.207,0,.526.226.47a12.228,12.228,0,0,1,2.426-.226A10.752,10.752,0,0,1,34.451,59.956Z" transform="translate(-29.321 -58)"/></g><g transform="translate(0.505 0)"><g transform="translate(7.993 0.019)"><path class="b" d="M60.784,25.808h-.038a3.069,3.069,0,0,1-2.012-1.316.261.261,0,0,1,.451-.263A2.617,2.617,0,0,0,60.822,25.3a.26.26,0,0,1,.226.3A.265.265,0,0,1,60.784,25.808Z" transform="translate(-58.696 -24.096)"/></g><path class="b" d="M16.453,25.727a.264.264,0,0,1-.263-.226.26.26,0,0,1,.226-.3,2.559,2.559,0,0,0,1.636-1.072.261.261,0,0,1,.451.263,3.069,3.069,0,0,1-2.012,1.316C16.491,25.727,16.472,25.727,16.453,25.727Z" transform="translate(-16.187 -23.996)"/></g><g transform="translate(0 5.388)"><path class="c" d="M15.794,54.9a1.147,1.147,0,0,1-2.294,0,6.915,6.915,0,0,1,1-2.162.193.193,0,0,1,.32,0A7.084,7.084,0,0,1,15.794,54.9Z" transform="translate(-13.5 -52.65)"/></g></g></g></svg>