<svg xmlns="http://www.w3.org/2000/svg" viewBox="0 0 16 16">
  <defs>
    <style>.a{fill:#ffce00;}.b{fill:#562912;}</style>
  </defs>
  <g transform="translate(-986 -284)">
    <circle class="a" cx="8" cy="8" r="8" transform="translate(986 284)"/>
    <path class="b"
          d="M60.287,32.785a.142.142,0,0,0,.22-.132h0a1.253,1.253,0,0,0-2.507,0h0a.157.157,0,0,0,.22.132,2.011,2.011,0,0,1,2.067,0Z"
          transform="translate(939.233 258.313)"/>
    <path class="b"
          d="M19.487,32.785a.142.142,0,0,0,.22-.132h0a1.253,1.253,0,0,0-2.507,0h0a.157.157,0,0,0,.22.132,2.011,2.011,0,0,1,2.067,0Z"
          transform="translate(971.06 258.313)"/>
    <path class="b"
          d="M27.6,54.116a6.457,6.457,0,0,1-4.332-1.693.467.467,0,1,1,.638-.682A5.437,5.437,0,0,0,27.6,53.171a5.353,5.353,0,0,0,3.585-1.363.468.468,0,0,1,.616.7A6.256,6.256,0,0,1,27.6,54.116Z"
          transform="translate(966.453 241.649)"/>
  </g>
</svg>
