<svg width="24" height="24" viewBox="0 0 24 24" fill="none" xmlns="http://www.w3.org/2000/svg">
<path d="M5.71796 11.2901H2.49794C2.32061 11.2901 2.18994 11.2527 2.10594 11.1781C2.03127 11.0941 1.99394 10.9634 1.99394 10.7861V9.13404C1.99394 8.95671 2.03127 8.83071 2.10594 8.75604C2.18994 8.67204 2.32061 8.63004 2.49794 8.63004H5.11595C5.46129 8.63004 5.69462 8.57871 5.81596 8.47604C5.93729 8.36404 5.99796 8.13537 5.99796 7.79004V7.48203C5.77396 7.54737 5.51262 7.5987 5.21395 7.63603C4.92462 7.67337 4.59328 7.69204 4.21995 7.69204C2.95994 7.69204 2.0966 7.48203 1.62994 7.06203C1.16327 6.6327 0.929932 6.00269 0.929932 5.17202V3.82801C0.929932 3.39868 0.985932 3.01134 1.09793 2.66601C1.21927 2.32067 1.42927 2.02667 1.72794 1.784C2.03594 1.532 2.45127 1.34067 2.97394 1.21C3.49661 1.07 4.15928 1 4.96195 1C5.82062 1 6.52063 1.07 7.06196 1.21C7.61263 1.34067 8.04197 1.532 8.34997 1.784C8.65797 2.02667 8.86797 2.32067 8.97997 2.66601C9.10131 3.01134 9.16197 3.39868 9.16197 3.82801V8.42004C9.16197 9.26938 8.91464 9.96005 8.41997 10.4921C7.93464 11.0241 7.03396 11.2901 5.71796 11.2901ZM5.99796 4.87802V4.05202C5.99796 3.90268 5.94196 3.78135 5.82996 3.68801C5.71796 3.58535 5.46129 3.53401 5.05995 3.53401C4.63995 3.53401 4.37395 3.58535 4.26195 3.68801C4.14995 3.78135 4.09395 3.90268 4.09395 4.05202V4.87802C4.09395 5.01802 4.14995 5.13936 4.26195 5.24202C4.37395 5.33536 4.63995 5.38202 5.05995 5.38202C5.46129 5.38202 5.71796 5.33536 5.82996 5.24202C5.94196 5.13936 5.99796 5.01802 5.99796 4.87802Z" fill="#5D6164"/>
<path d="M17.343 11.2901H11.155C10.9777 11.2901 10.847 11.2527 10.763 11.1781C10.6883 11.0941 10.651 10.9634 10.651 10.7861V9.09204C10.651 8.91471 10.6883 8.78871 10.763 8.71404C10.847 8.63004 10.9777 8.58804 11.155 8.58804H12.723V3.91202H11.435C11.2577 3.91202 11.127 3.87468 11.043 3.80001C10.9683 3.71601 10.931 3.58535 10.931 3.40801V1.714C10.931 1.53667 10.9683 1.41067 11.043 1.336C11.127 1.252 11.2577 1.21 11.435 1.21H15.495C15.6724 1.21 15.7984 1.252 15.873 1.336C15.957 1.41067 15.999 1.53667 15.999 1.714V8.58804H17.343C17.5204 8.58804 17.6464 8.63004 17.7211 8.71404C17.8051 8.78871 17.8471 8.91471 17.8471 9.09204V10.7861C17.8471 10.9634 17.8051 11.0941 17.7211 11.1781C17.6464 11.2527 17.5204 11.2901 17.343 11.2901Z" fill="#5D6164"/>
<path d="M13.304 20.1393C13.304 20.5686 13.2434 20.9606 13.122 21.3153C13.0007 21.6606 12.7814 21.9593 12.464 22.2113C12.1467 22.454 11.708 22.6453 11.148 22.7853C10.5973 22.9253 9.89268 22.9953 9.03401 22.9953C8.17534 22.9953 7.466 22.9253 6.906 22.7853C6.35533 22.6453 5.92132 22.454 5.60399 22.2113C5.28665 21.9593 5.06265 21.6606 4.93199 21.3153C4.81065 20.9606 4.74998 20.5686 4.74998 20.1393V15.3653C4.74998 14.9359 4.81065 14.5486 4.93199 14.2032C5.06265 13.8486 5.28665 13.5452 5.60399 13.2932C5.92132 13.0412 6.35533 12.8452 6.906 12.7052C7.466 12.5652 8.17534 12.4952 9.03401 12.4952C9.89268 12.4952 10.5973 12.5652 11.148 12.7052C11.708 12.8452 12.1467 13.0412 12.464 13.2932C12.7814 13.5452 13.0007 13.8486 13.122 14.2032C13.2434 14.5486 13.304 14.9359 13.304 15.3653V20.1393ZM7.914 19.6353C7.914 19.8219 7.97934 19.9806 8.11 20.1113C8.25 20.2326 8.55801 20.2933 9.03401 20.2933C9.51001 20.2933 9.81335 20.2326 9.94401 20.1113C10.084 19.9806 10.154 19.8219 10.154 19.6353V15.8693C10.154 15.6919 10.084 15.5426 9.94401 15.4213C9.81335 15.2906 9.51001 15.2253 9.03401 15.2253C8.55801 15.2253 8.25 15.2906 8.11 15.4213C7.97934 15.5426 7.914 15.6919 7.914 15.8693V19.6353Z" fill="#5D6164"/>
<path d="M19.5559 22.7853H16.3359C16.1586 22.7853 16.0279 22.748 15.9439 22.6733C15.8693 22.5893 15.8319 22.4586 15.8319 22.2813V20.6293C15.8319 20.4519 15.8693 20.3259 15.9439 20.2513C16.0279 20.1673 16.1586 20.1253 16.3359 20.1253H18.9539C19.2993 20.1253 19.5326 20.0739 19.6539 19.9713C19.7753 19.8593 19.8359 19.6306 19.8359 19.2853V18.9773C19.6119 19.0426 19.3506 19.0939 19.0519 19.1313C18.7626 19.1686 18.4313 19.1873 18.0579 19.1873C16.7979 19.1873 15.9346 18.9773 15.4679 18.5573C15.0012 18.1279 14.7679 17.4979 14.7679 16.6673V15.3233C14.7679 14.8939 14.8239 14.5066 14.9359 14.1612C15.0572 13.8159 15.2672 13.5219 15.5659 13.2792C15.8739 13.0272 16.2893 12.8359 16.8119 12.7052C17.3346 12.5652 17.9973 12.4952 18.7999 12.4952C19.6586 12.4952 20.3586 12.5652 20.8999 12.7052C21.4506 12.8359 21.88 13.0272 22.188 13.2792C22.496 13.5219 22.706 13.8159 22.818 14.1612C22.9393 14.5066 23 14.8939 23 15.3233V19.9153C23 20.7646 22.7526 21.4553 22.258 21.9873C21.7726 22.5193 20.8719 22.7853 19.5559 22.7853ZM19.8359 16.3733V15.5473C19.8359 15.3979 19.7799 15.2766 19.6679 15.1833C19.5559 15.0806 19.2993 15.0293 18.8979 15.0293C18.4779 15.0293 18.2119 15.0806 18.0999 15.1833C17.9879 15.2766 17.9319 15.3979 17.9319 15.5473V16.3733C17.9319 16.5133 17.9879 16.6346 18.0999 16.7373C18.2119 16.8306 18.4779 16.8773 18.8979 16.8773C19.2993 16.8773 19.5559 16.8306 19.6679 16.7373C19.7799 16.6346 19.8359 16.5133 19.8359 16.3733Z" fill="#5D6164"/>
</svg>
