<svg width="24" height="24" viewBox="0 0 24 24" fill="none" xmlns="http://www.w3.org/2000/svg">
<path fill-rule="evenodd" clip-rule="evenodd" d="M6 17L2 21V6C2 4.4467 3.1805 3.16912 4.69327 3.01549C4.79412 3.00525 4.89645 3 5 3H19.1047C19.3665 3 19.6266 3.04221 19.875 3.125L19.8715 3.12854C21.1033 3.5019 22 4.64623 22 6V14C22 15.6569 20.6569 17 19 17H6ZM4 16.1716V6C4 5.44772 4.44772 5 5 5H15.1716L4 16.1716ZM18 5L8 15H19C19.5523 15 20 14.5523 20 14V6C20 5.44771 19.5523 5 19 5H18Z" fill="#5D6164"/>
</svg>
