<svg width="24" height="24" viewBox="0 0 24 24" fill="none" xmlns="http://www.w3.org/2000/svg">
<path d="M4.9297 4.92896L4.93 4.92867C6.80307 3.05434 9.3484 2 12 2C14.6516 2 17.1969 3.05434 19.07 4.92867L19.0703 4.92896C20.9453 6.80364 22 9.34913 22 12C22 14.6509 20.9453 17.1964 19.0703 19.071L19.07 19.0713C17.1969 20.9457 14.6516 22 12 22C9.3484 22 6.80307 20.9457 4.93 19.0713L4.9297 19.071C3.05472 17.1964 2 14.6509 2 12C2 9.34913 3.05472 6.80364 4.9297 4.92896Z" stroke="#5D6164" stroke-width="2"/>
<path d="M5.97931 11.8837C9.1865 10.4867 11.3246 9.56559 12.3937 9.1206C15.4496 7.84993 16.0838 7.62924 16.498 7.62185C16.5891 7.62031 16.7919 7.64282 16.9243 7.7499C17.0343 7.84013 17.0652 7.96217 17.0807 8.04776C17.0944 8.13335 17.1134 8.32843 17.0979 8.48071C16.9329 10.2201 16.2162 14.441 15.8518 16.3892C15.6988 17.2135 15.3946 17.4899 15.1007 17.5169C14.4613 17.5757 13.9766 17.0948 13.3579 16.6893C12.3902 16.0546 11.8437 15.6596 10.9035 15.0403C9.81727 14.3246 10.5219 13.9312 11.1407 13.2884C11.3022 13.1201 14.1175 10.5601 14.1708 10.3279C14.1777 10.2988 14.1846 10.1905 14.1193 10.1335C14.0557 10.0762 13.9611 10.0958 13.8924 10.1113C13.7944 10.1333 12.2492 11.1556 9.25174 13.1781C8.81346 13.4795 8.41644 13.6265 8.05894 13.6187C7.66706 13.6103 6.91086 13.3967 6.34883 13.2141C5.66133 12.9902 5.11302 12.8718 5.16115 12.4914C5.18521 12.2934 5.45853 12.0908 5.97931 11.8837Z" fill="#5D6164"/>
</svg>
