<svg width="24" height="24" viewBox="0 0 24 24" fill="none" xmlns="http://www.w3.org/2000/svg">
<path fill-rule="evenodd" clip-rule="evenodd" d="M5.63734 5.63554L5.63675 5.63613C3.94928 7.32332 3 9.61446 3 12C3 14.3855 3.94928 16.6767 5.63675 18.3639L5.63734 18.3645C7.32271 20.051 9.61352 21 12 21C14.3865 21 16.6773 20.051 18.3627 18.3645L18.3632 18.3639C20.0507 16.6767 21 14.3855 21 12C21 9.61446 20.0507 7.32332 18.3632 5.63613L18.3627 5.63554C16.6773 3.94905 14.3865 3 12 3C9.61352 3 7.32271 3.94905 5.63734 5.63554ZM19.7773 4.2218C17.7166 2.15964 14.9167 1 12 1C9.08328 1 6.28344 2.15964 4.22266 4.2218C2.16016 6.28395 1 9.0838 1 12C1 14.9162 2.16016 17.716 4.22266 19.7782C6.28344 21.8404 9.08328 23 12 23C14.9167 23 17.7166 21.8404 19.7773 19.7782C21.8398 17.716 23 14.9162 23 12C23 9.0838 21.8398 6.28395 19.7773 4.2218Z" fill="#29A9EB"/>
<path d="M5.97931 11.8836C9.1865 10.4866 11.3246 9.56557 12.3937 9.12059C15.4496 7.84992 16.0838 7.62923 16.498 7.62184C16.5891 7.62029 16.7919 7.64281 16.9243 7.74988C17.0343 7.84012 17.0652 7.96215 17.0807 8.04774C17.0944 8.13334 17.1134 8.32842 17.0979 8.4807C16.9329 10.2201 16.2162 14.441 15.8518 16.3892C15.6988 17.2135 15.3946 17.4899 15.1007 17.5169C14.4613 17.5757 13.9766 17.0948 13.3579 16.6893C12.3902 16.0545 11.8437 15.6596 10.9035 15.0403C9.81727 14.3246 10.5219 13.9312 11.1407 13.2884C11.3022 13.1201 14.1175 10.56 14.1708 10.3278C14.1777 10.2988 14.1846 10.1905 14.1193 10.1334C14.0557 10.0762 13.9611 10.0958 13.8924 10.1113C13.7944 10.1333 12.2492 11.1556 9.25174 13.178C8.81346 13.4795 8.41644 13.6265 8.05894 13.6187C7.66706 13.6103 6.91086 13.3967 6.34883 13.2141C5.66133 12.9902 5.11302 12.8718 5.16115 12.4914C5.18521 12.2934 5.45853 12.0908 5.97931 11.8836Z" fill="#29A9EB"/>
</svg>
