<svg xmlns="http://www.w3.org/2000/svg" width="123.84" height="40.032" viewBox="0 0 2.774 0.896" shape-rendering="geometricPrecision" image-rendering="optimizeQuality" fill-rule="evenodd" xmlns:v="https://vecta.io/nano"><path d="M.004.344L.989 0h0l.007.89L.99.896.005.848 0 .842V.35L.004.344h0zm2.77.524V.434h-.041l-.09.05.012.036.072-.041v.389h.047 0zM2.537.663c-.012.082-.058.157-.142.169L2.35.835v.04c.109.005.192-.062.223-.167.028-.098.018-.281-.119-.281-.17 0-.189.284-.017.284.041 0 .075-.017.1-.048h.002 0zM2.449.464c.071 0 .088.082.088.14 0 .078-.172.118-.173-.027 0-.052.026-.112.085-.113h0zM.112.439C.101.436.09.442.087.453S.09.474.101.477l.36.104.008-.007.358-.296C.835.272.837.26.83.251S.81.242.802.248l-.35.289-.34-.098z" fill="#1e75ba"/><path d="M2.268.641h-.137v.039h.089v.141c-.035.02-.107.015-.143 0C1.959.775 1.95.59 2.026.512c.052-.054.151-.062.217-.03l.013-.04C2.199.415 2.115.418 2.06.44c-.167.066-.168.312-.05.396.069.05.181.045.258.014v-.21h0zM1.874.441c-.066-.042-.226-.027-.225.096 0 .102.111.114.158.149.069.051.037.171-.095.144-.021-.004-.042-.012-.06-.024l-.013.04c.071.05.251.042.251-.096 0-.148-.193-.11-.193-.22 0-.08.112-.082.162-.049l.014-.04h0zM1.563.427h-.06l-.126.372h-.002c-.031-.12-.081-.254-.122-.372h-.059l-.031.441h.046L1.229.48h.002c.029.122.083.267.124.387h.035L1.523.48h.002c-.001.1.013.293.019.389h.047L1.563.427h0z" fill="#4b4b4d"/></svg>