<svg width="24" height="24" viewBox="0 0 24 24" fill="none" xmlns="http://www.w3.org/2000/svg">
<path d="M2.89231 13.2C1.86624 14.7769 1.81218 16.7963 2.75242 18.4258L4.37254 21.2337C4.86947 22.0949 5.99048 22.3575 6.81819 21.8065L-nan -nanL6.81819 21.8065C7.58132 21.2985 7.81266 20.2817 7.34441 19.4935L6.01751 17.2602L3.40243 12.416L2.89231 13.2Z" fill="#5D6164"/>
<path fill-rule="evenodd" clip-rule="evenodd" d="M18.9609 18.1765C19.7604 18.2331 20.2983 17.3731 19.8975 16.679L11.6536 2.4C11.2805 1.75385 10.3568 1.72904 9.94959 2.35423L3.27944 12.6004C2.03197 14.5167 3.30101 17.0682 5.58186 17.2296L18.9609 18.1765ZM10.7364 4.81147L4.95557 13.6916C4.53975 14.3303 4.96276 15.1808 5.72305 15.2346L17.2241 16.0486L10.7364 4.81147ZM18.1655 17.679C18.1652 17.6786 18.165 17.6781 18.1647 17.6777L18.1655 17.679ZM19.1021 16.1815C19.1021 16.1815 19.1021 16.1815 19.1021 16.1815V16.1815Z" fill="#5D6164"/>
<path fill-rule="evenodd" clip-rule="evenodd" d="M17.5709 8.6492C17.2948 8.17091 17.4587 7.55931 17.9369 7.28317L20.535 5.78317C21.0133 5.50703 21.6249 5.67091 21.901 6.1492C22.1772 6.62749 22.0133 7.23908 21.535 7.51522L18.9369 9.01522C18.4587 9.29137 17.8471 9.12749 17.5709 8.6492Z" fill="#5D6164"/>
<path fill-rule="evenodd" clip-rule="evenodd" d="M22.3009 11.1776C22.2654 11.7288 21.7898 12.1468 21.2387 12.1112L19.4396 11.9952C18.8885 11.9597 18.4705 11.4841 18.506 10.9329C18.5416 10.3818 19.0172 9.9638 19.5683 9.99934L21.3674 10.1154C21.9185 10.1509 22.3365 10.6265 22.3009 11.1776Z" fill="#5D6164"/>
<path fill-rule="evenodd" clip-rule="evenodd" d="M17.7462 3.28869C18.2413 3.53348 18.4442 4.13326 18.1994 4.62833L17.4003 6.24439C17.1555 6.73946 16.5557 6.94235 16.0607 6.69756C15.5656 6.45277 15.3627 5.85299 15.6075 5.35792L16.4066 3.74186C16.6514 3.24679 17.2511 3.0439 17.7462 3.28869Z" fill="#5D6164"/>
</svg>
