<svg width="24" height="24" viewBox="0 0 24 24" fill="none" xmlns="http://www.w3.org/2000/svg">
<path d="M13.0344 20.1764C13.047 19.7135 13.2416 19.2742 13.576 18.9538C13.9103 18.6334 14.3575 18.4576 14.8206 18.4647C15.0542 18.4649 15.2854 18.5115 15.5008 18.6016C15.7163 18.6917 15.9118 18.8237 16.076 18.9898C16.2402 19.1559 16.3699 19.3529 16.4575 19.5694C16.5451 19.7859 16.589 20.0176 16.5866 20.2512C16.5841 20.4848 16.5354 20.7155 16.4433 20.9302C16.3511 21.1448 16.2174 21.339 16.0497 21.5017C15.8821 21.6643 15.6839 21.7921 15.4665 21.8777C15.2492 21.9633 15.0171 22.005 14.7836 22.0003C14.5471 22.0016 14.313 21.9546 14.0953 21.8624C13.8776 21.7702 13.6809 21.6347 13.5173 21.4641C13.3536 21.2934 13.2264 21.0913 13.1434 20.8699C13.0604 20.6486 13.0233 20.4126 13.0344 20.1764V20.1764ZM5.38389 16.6597C5.77411 16.6967 6.12799 16.7152 6.48152 16.7711C6.57533 16.7835 6.6614 16.8297 6.72361 16.901C8.0379 18.262 9.73967 19.1848 11.5972 19.5438L11.9881 19.5993C12.1181 19.6182 12.2488 19.6367 12.3791 19.6552V20.5286C11.0081 20.4056 9.67796 19.9979 8.47349 19.3318C7.26902 18.6656 6.21674 17.7555 5.38389 16.6597V16.6597ZM6.33549 16.3484C5.55202 16.2503 4.80634 15.9547 4.1685 15.4893C3.53065 15.0239 3.02157 14.404 2.68909 13.6878C2.36384 13.0147 2.19967 12.2752 2.20959 11.5276C2.21951 10.7801 2.40324 10.0452 2.74624 9.38095C3.08924 8.7167 3.5821 8.14139 4.18584 7.70051C4.78957 7.25964 5.48762 6.9653 6.22475 6.84079C6.67121 6.76673 6.67121 6.76673 6.67121 7.2317C6.68972 8.70206 6.68972 10.1532 6.68972 11.6047V16.0518C6.68972 16.3047 6.68972 16.377 6.56047 16.377C6.48492 16.3727 6.40976 16.3633 6.33549 16.3487V16.3484ZM10.042 15.4632C10.0203 15.4181 9.99544 15.3747 9.96757 15.3332C10.4329 14.9238 10.9171 14.5144 11.3817 14.1049C11.8669 13.6894 12.3038 13.2207 12.6844 12.7076C12.3682 12.7264 12.1254 12.7264 11.9026 12.745C10.6743 12.9119 8.98138 12.0194 8.8137 10.4187C8.77883 10.0653 8.82247 9.70859 8.9415 9.37403C9.06053 9.03946 9.25201 8.73533 9.50225 8.48338C9.75691 8.19434 10.0686 7.96107 10.4177 7.79822C10.7668 7.63536 11.1458 7.54643 11.5309 7.53702C11.9576 7.49331 12.3887 7.53673 12.7981 7.66464C13.2075 7.79254 13.5867 8.00227 13.9127 8.28111C14.4311 8.7535 14.7505 9.40544 14.8059 10.1047C14.9359 10.9979 14.4898 11.705 14.0056 12.3754C13.2948 13.2908 12.4622 14.1048 11.5309 14.7945C11.177 15.074 10.8423 15.3535 10.4884 15.6329C10.4074 15.655 10.3315 15.6929 10.2652 15.7444L10.042 15.4632ZM9.57631 10.1232C9.57968 10.4079 9.63918 10.6892 9.75139 10.951C9.86361 11.2127 10.0263 11.4498 10.2303 11.6485C10.4342 11.8473 10.6753 12.0039 10.9399 12.1094C11.2044 12.2149 11.4871 12.2671 11.7719 12.2632C12.0602 12.2765 12.3482 12.2317 12.6188 12.1314C12.8895 12.0311 13.1372 11.8775 13.3472 11.6796C13.5573 11.4816 13.7254 11.2435 13.8415 10.9793C13.9577 10.7151 14.0195 10.4303 14.0234 10.1417C14.0171 9.55975 13.7806 9.00399 13.3656 8.59599C12.9506 8.18799 12.3909 7.96097 11.8089 7.96461C11.2308 7.96888 10.6765 8.19541 10.2608 8.59727C9.84517 8.99914 9.60007 9.54551 9.57631 10.1232V10.1232ZM16.2752 15.6857C16.517 15.5928 16.7776 15.4995 17.0008 15.4062C17.1401 15.3503 17.2583 15.2519 17.3384 15.1249C17.4186 14.998 17.4567 14.849 17.4473 14.6992C17.4473 12.9126 17.4661 11.108 17.4846 9.32144C17.4846 9.22852 17.4661 9.13524 17.4661 8.96826C16.7028 9.54467 15.9772 10.0844 15.2702 10.6241L15.2517 10.6056C15.5311 10.2702 15.8288 9.93558 16.1075 9.60056C16.6284 8.98643 17.15 8.37229 17.6708 7.77701C17.7542 7.69925 17.8564 7.64458 17.9674 7.61842C18.0783 7.59226 18.1942 7.59551 18.3035 7.62785C18.3439 7.65624 18.376 7.69497 18.3964 7.73998C18.4057 7.8079 18.4057 7.87678 18.3964 7.9447V14.6251C18.3739 14.8153 18.4195 15.0073 18.525 15.1671C18.6305 15.327 18.7891 15.4444 18.9728 15.4985C19.1903 15.5361 19.4027 15.5985 19.6058 15.6846L16.2752 15.6857ZM19.9782 6.70978C19.933 6.70121 19.8899 6.68366 19.8516 6.65816C19.8132 6.63266 19.7804 6.59973 19.755 6.56131C18.4672 4.76308 16.5454 3.52006 14.3773 3.08295C11.0648 2.41292 8.19922 3.32469 5.8534 5.74386C5.48171 6.13477 5.12783 6.46944 4.55072 6.48795C4.40225 6.48795 4.25343 6.56236 4.08575 6.58088C6.28239 3.37954 9.3157 1.79738 13.2042 2.02061C14.7644 2.13052 16.2753 2.61389 17.6097 3.42997C18.944 4.24604 20.0626 5.37092 20.8711 6.70978C20.6615 6.70978 20.4575 6.71817 20.2633 6.71817C20.1662 6.71817 20.0711 6.71607 19.9779 6.70978H19.9782Z" fill="#494D50"/>
</svg>
