<svg xmlns="http://www.w3.org/2000/svg" width="26" height="17.034" viewBox="0 0 26 17.034">
<g transform="translate(0 -88.276)"><path fill="#fab446" d="M26,93.954H0v-5.23a.448.448,0,0,1,.448-.448h25.1a.448.448,0,0,1,.448.448v5.23Z"/><path fill="#73af00" d="M25.552,317.587H.448A.448.448,0,0,1,0,317.139v-5.23H26v5.23A.448.448,0,0,1,25.552,317.587Z" transform="translate(0 -212.277)"/><rect fill="#f5f5f5" width="26" height="5.678" transform="translate(0 93.954)"/><g transform="translate(10.591 94.384)"><path fill="#41479b" d="M210.961,213.372a2.409,2.409,0,1,1,2.409-2.409A2.412,2.412,0,0,1,210.961,213.372Zm0-4.371a1.961,1.961,0,1,0,1.961,1.961A1.963,1.963,0,0,0,210.961,209Z" transform="translate(-208.552 -208.553)"/><circle fill="#41479b" cx="0.273" cy="0.273" r="0.273" transform="translate(2.136 2.136)"/><path fill="#41479b" d="M215.151,253.966l-.694.07-1.491-.07v-.082l1.491-.07.694.07Z" transform="translate(-212.742 -251.516)"/><path fill="#41479b" d="M256,253.966l.694.07,1.491-.07v-.082l-1.491-.07-.694.07Z" transform="translate(-253.591 -251.516)"/><path fill="#41479b" d="M253.883,215.152l-.07-.694.07-1.491h.082l.07,1.491-.07.694Z" transform="translate(-251.515 -212.743)"/><path fill="#41479b" d="M253.883,256l-.07.694.07,1.491h.082l.07-1.491-.07-.694Z" transform="translate(-251.515 -253.592)"/><path fill="#41479b" d="M226.545,226.6l-.54-.441-1-1.1.058-.058,1.1,1,.441.54Z" transform="translate(-224.165 -224.166)"/><path fill="#41479b" d="M255.43,255.489l.441.54,1.1,1,.058-.058-1-1.1-.54-.441Z" transform="translate(-253.049 -253.05)"/><path fill="#41479b" d="M255.43,226.546l.441-.54,1.1-1,.058.058-1,1.1-.54.441Z" transform="translate(-253.049 -224.166)"/><path fill="#41479b" d="M226.545,255.431l-.54.441-1,1.1.058.058,1.1-1,.441-.54Z" transform="translate(-224.165 -253.05)"/><path fill="#41479b" d="M217.983,255.331l-.615.33-1.4.506-.031-.076,1.351-.635.668-.2Z" transform="translate(-215.558 -252.883)"/><path fill="#41479b" d="M255.722,239.7l.668-.2,1.351-.635-.031-.076-1.4.506-.615.33Z" transform="translate(-253.297 -237.252)"/><path fill="#41479b" d="M239.622,217.984l-.33-.615-.506-1.4.076-.031.635,1.351.2.668Z" transform="translate(-237.251 -215.559)"/><path fill="#41479b" d="M255.254,255.723l.2.668.635,1.351.076-.031-.506-1.4-.33-.615Z" transform="translate(-252.882 -253.298)"/><path fill="#41479b" d="M217.952,239.7l-.668-.2-1.351-.635.031-.076,1.4.506.615.33Z" transform="translate(-215.558 -237.252)"/><path fill="#41479b" d="M255.691,255.331l.615.33,1.4.506.031-.076-1.351-.635-.668-.2Z" transform="translate(-253.297 -252.883)"/><path fill="#41479b" d="M255.254,217.953l.2-.668.635-1.351.076.031-.506,1.4-.33.615Z" transform="translate(-252.882 -215.559)"/><path fill="#41479b" d="M239.622,255.692l-.33.615-.506,1.4.076.031.635-1.351.2-.668Z" transform="translate(-237.251 -253.298)"/></g><circle fill="#f5f5f5" cx="0.368" cy="0.368" r="0.368" transform="translate(12.632 96.425)"/><circle fill="#41479b" cx="0.221" cy="0.221" r="0.221" transform="translate(12.779 96.572)"/></g></svg>