<svg width="24" height="24" viewBox="0 0 24 24" fill="none" xmlns="http://www.w3.org/2000/svg">
<path fill-rule="evenodd" clip-rule="evenodd" d="M12 4C7.70191 4 4.63203 7.70667 5.47922 11.7972C5.90372 13.8468 7.57852 15.9164 9.30514 17.5499C10.148 18.3474 10.9638 19.0045 11.5692 19.4622C11.729 19.5831 11.8738 19.6897 12 19.781C12.1262 19.6897 12.2709 19.5831 12.4308 19.4622C13.0361 19.0045 13.8519 18.3474 14.6948 17.5499C16.4215 15.9164 18.0963 13.8468 18.5208 11.7972C19.3681 7.7067 16.2981 4 12 4ZM12.5477 21.8366L12.5499 21.8352L12.5549 21.8319L12.5719 21.8207C12.5863 21.8111 12.6067 21.7975 12.6328 21.7799C12.685 21.7447 12.7599 21.6936 12.8546 21.6274C13.0439 21.4952 13.3126 21.3028 13.637 21.0575C14.2846 20.5679 15.1599 19.8632 16.0693 19.0027C17.8474 17.3205 19.9226 14.8901 20.4792 12.2028C21.5942 6.81962 17.5127 2 12 2C6.48718 2 2.40587 6.81964 3.52078 12.2028C4.07734 14.89 6.15253 17.3205 7.93063 19.0027C8.8401 19.8632 9.71537 20.5679 10.363 21.0575C10.6873 21.3028 10.9561 21.4952 11.1454 21.6274C11.2401 21.6936 11.315 21.7447 11.3672 21.7799C11.3933 21.7975 11.4137 21.8111 11.428 21.8207L11.445 21.8319L11.45 21.8352L11.4516 21.8363C11.452 21.8365 12.5476 21.8367 12.5477 21.8366ZM11.4527 21.8369L12 22.1949L12.5477 21.8366L11.4527 21.8369Z" fill="#696BEF"/>
<path d="M8.22217 6H9.99995V15H8.22217V6Z" fill="#696BEF"/>
<path fill-rule="evenodd" clip-rule="evenodd" d="M11.4999 6V15H13.2777V12H14.8332C15.9378 12 16.8332 11.1046 16.8332 10V8C16.8332 6.89543 15.9378 6 14.8332 6H11.4999ZM15.0554 10H13.2777V8H15.0554V10Z" fill="#696BEF"/>
<path d="M8.22217 6H9.99995V15H8.22217V6Z" stroke="#696BEF"/>
<path fill-rule="evenodd" clip-rule="evenodd" d="M11.4999 6V15H13.2777V12H14.8332C15.9378 12 16.8332 11.1046 16.8332 10V8C16.8332 6.89543 15.9378 6 14.8332 6H11.4999ZM15.0554 10H13.2777V8H15.0554V10Z" stroke="#696BEF"/>
</svg>
