<svg width="24" height="24" viewBox="0 0 24 24" fill="none" xmlns="http://www.w3.org/2000/svg">
<path d="M20 2H4C2.9 2 2 2.9 2 4V22L6 18H20C21.1 18 22 17.1 22 16V4C22 2.9 21.1 2 20 2ZM20 16H6L4 18V4H20V16Z" fill="#494D50"/>
<path d="M14 9V8C14 7.45 13.55 7 13 7H11C10.45 7 10 7.45 10 8V12C10 12.55 10.45 13 11 13H13C13.55 13 14 12.55 14 12V11H12.5V11.5H11.5V8.5H12.5V9H14Z" fill="#494D50"/>
<path d="M19 8.5V7H16C15.45 7 15 7.45 15 8V10C15 10.41 15.34 10.75 15.75 10.75H17.5V11.5H15V13H18C18.55 13 19 12.55 19 12V10.25C19 9.7 18.55 9.25 18 9.25H16.5V8.5H19Z" fill="#494D50"/>
<path d="M8.1 10.9L9 13H7.5L6.65 11H6.5V13H5V7H7.5C8.35 7 9 7.65 9 8.5V9.5C9 10.1 8.6 10.65 8.1 10.9ZM7.5 8.5H6.5V9.5H7.5V8.5Z" fill="#494D50"/>
</svg>
