<svg width="32" height="32" viewBox="0 0 32 32" fill="none" xmlns="http://www.w3.org/2000/svg">
<path d="M5.27272 16.9458L6.30302 15.1518L7.33332 16.9458L8.90908 16.0367L7.87878 14.2428H9.93938V12.4246H7.87878L8.90908 10.6428L7.33332 9.73366L6.30302 11.5155L5.27272 9.73366L3.69696 10.6428L4.72726 12.4246H2.66666V14.2428H4.72726L3.69696 16.0367L5.27272 16.9458ZM13.3939 16.0367L14.9697 16.9458L16 15.1518L17.0303 16.9458L18.6061 16.0367L17.5757 14.2428H19.6364V12.4246H17.5757L18.6061 10.6428L17.0303 9.73366L16 11.5155L14.9697 9.73366L13.3939 10.6428L14.4242 12.4246H12.3636V14.2428H14.4242L13.3939 16.0367ZM29.3333 12.4246H27.2727L28.303 10.6428L26.7273 9.73366L25.697 11.5155L24.6667 9.73366L23.0909 10.6428L24.1212 12.4246H22.0606V14.2428H24.1212L23.0909 16.0367L24.6667 16.9458L25.697 15.1518L26.7273 16.9458L28.303 16.0367L27.2727 14.2428H29.3333V12.4246Z" fill="#3f51b5"/>
<path fill-rule="evenodd" clip-rule="evenodd" d="M2.66666 5.33366C2.66666 3.8609 3.86056 2.66699 5.33332 2.66699H26.6667C28.1394 2.66699 29.3333 3.8609 29.3333 5.33366V7.33366H26.6667V5.33366H5.33332V7.33366H2.66666V5.33366ZM5.33332 23.3027V19.3337H2.66666V29.3646L8.51863 24.0003H26.6667C28.1394 24.0003 29.3333 22.8064 29.3333 21.3337V19.3337H26.6667V21.3337H7.48135L5.33332 23.3027Z" fill="#3f51b5"/>
</svg>
