<svg width="24" height="24" viewBox="0 0 24 24" fill="none" xmlns="http://www.w3.org/2000/svg">
<path d="M7 2.24995L8.26678 1.69432C8.89719 1.41782 9.62549 1.48494 10.1947 1.87202L11.78 2.94995L7 2.24995Z" fill="#5D6164"/>
<path fill-rule="evenodd" clip-rule="evenodd" d="M7.15895 2.61233C7.08786 2.60957 7.01694 2.61062 6.94648 2.61538C6.50728 2.6451 6.0858 2.81937 5.75127 3.11731L2 6.45828V20.4999L9.19239 21.3916C9.77025 21.4633 10.3562 21.4334 10.9238 21.3034L17.9011 19.7055C19.1813 19.4123 19.8362 17.9858 19.2241 16.8239L19.125 16.6357C19.0544 16.5017 18.9768 16.3728 18.8929 16.2493C18.868 16.2498 18.8431 16.25 18.8182 16.25H15.6818C14.2917 16.25 13.06 15.5606 12.2996 14.5H10.6396C9.68625 14.5 8.86542 13.827 8.67845 12.8922L8.47845 11.8922C8.23093 10.6546 9.17752 9.49995 10.4396 9.49995H12.2997C13.0601 8.43931 14.2917 7.75 15.6818 7.75H18.8182C19.5696 7.75 20.2747 7.95141 20.8841 8.304C21.2261 8.05203 21.5438 7.76318 21.8308 7.44028C22.7597 6.3953 22.1517 4.73675 20.7676 4.53963L7.36341 2.63082C7.29527 2.62111 7.22703 2.61498 7.15895 2.61233ZM19.998 6.45022C19.2443 7.12263 18.2653 7.49995 17.2443 7.49995H10.4396C7.91542 7.49995 6.02225 9.80925 6.51729 12.2844L6.71729 13.2844C7.09122 15.1541 8.73288 16.5 10.6396 16.5H15.586C16.3283 16.5 17.0096 16.9111 17.3555 17.5679L17.4546 17.756L10.4773 19.3539C10.1367 19.4319 9.78518 19.4498 9.43846 19.4068L4 18.7325V7.35525L7.08144 4.61084L19.998 6.45022Z" fill="#5D6164"/>
<path d="M12.5 12C12.5 10.2051 13.9178 8.75 15.6667 8.75H16.9333V11.35H15.6667C15.3169 11.35 15.0333 11.641 15.0333 12C15.0333 12.359 15.3169 12.65 15.6667 12.65H16.9333L16.9333 15.25H15.6667C13.9178 15.25 12.5 13.7949 12.5 12Z" fill="#5D6164"/>
<path d="M22 12C22 10.2051 20.5822 8.75 18.8333 8.75H17.5667V11.35H18.8333C19.1831 11.35 19.4667 11.641 19.4667 12C19.4667 12.359 19.1831 12.65 18.8333 12.65H17.5667V15.25H18.8333C20.5822 15.25 22 13.7949 22 12Z" fill="#5D6164"/>
</svg>
