<svg width="24" height="24" viewBox="0 0 24 24" fill="none" xmlns="http://www.w3.org/2000/svg">
<mask id="mask0_6279_21993" style="mask-type:alpha" maskUnits="userSpaceOnUse" x="0" y="0" width="24" height="24">
<rect width="24" height="24" fill="#C4C4C4"/>
</mask>
<g mask="url(#mask0_6279_21993)">
<path d="M7 14C6.45 14 5.97933 13.804 5.588 13.412C5.196 13.0207 5 12.55 5 12C5 11.45 5.196 10.979 5.588 10.587C5.97933 10.1957 6.45 10 7 10C7.55 10 8.02067 10.1957 8.412 10.587C8.804 10.979 9 11.45 9 12C9 12.55 8.804 13.0207 8.412 13.412C8.02067 13.804 7.55 14 7 14ZM7 18C5.33333 18 3.91667 17.4167 2.75 16.25C1.58333 15.0833 1 13.6667 1 12C1 10.3333 1.58333 8.91667 2.75 7.75C3.91667 6.58333 5.33333 6 7 6C8.11667 6 9.12933 6.275 10.038 6.825C10.946 7.375 11.6667 8.1 12.2 9H21L24 12L19.5 16.5L17.5 15L15.5 16.5L13.375 15H12.2C11.6667 15.9 10.946 16.625 10.038 17.175C9.12933 17.725 8.11667 18 7 18ZM7 16C7.93333 16 8.75433 15.7167 9.463 15.15C10.171 14.5833 10.6417 13.8667 10.875 13H14L15.45 14.025L17.5 12.5L19.275 13.875L21.15 12L20.15 11H10.875C10.6417 10.1333 10.171 9.41667 9.463 8.85C8.75433 8.28333 7.93333 8 7 8C5.9 8 4.95833 8.39167 4.175 9.175C3.39167 9.95833 3 10.9 3 12C3 13.1 3.39167 14.0417 4.175 14.825C4.95833 15.6083 5.9 16 7 16Z" fill="#47B38E"/>
</g>
</svg>
