<svg width="48" height="48" viewBox="0 0 48 48" fill="none" xmlns="http://www.w3.org/2000/svg">
<path opacity="0.05" d="M24 48C37.2548 48 48 37.2548 48 24C48 10.7452 37.2548 0 24 0C10.7452 0 0 10.7452 0 24C0 37.2548 10.7452 48 24 48Z" fill="#349EB6"/>
<g clip-path="url(#clip0)">
<path d="M24 21.0859C25.8739 21.0859 27.3984 19.5614 27.3984 17.6875C27.3984 15.8136 25.8739 14.2891 24 14.2891C22.1261 14.2891 20.6016 15.8136 20.6016 17.6875C20.6016 19.5614 22.1261 21.0859 24 21.0859ZM24 15.4609C25.2277 15.4609 26.2266 16.4598 26.2266 17.6875C26.2266 18.9152 25.2277 19.9141 24 19.9141C22.7723 19.9141 21.7734 18.9152 21.7734 17.6875C21.7734 16.4598 22.7723 15.4609 24 15.4609Z" fill="#349EB6"/>
<path d="M30.875 21.0859C32.0596 21.0859 33.0234 20.1221 33.0234 18.9375C33.0234 17.7529 32.0596 16.7891 30.875 16.7891C29.6904 16.7891 28.7266 17.7529 28.7266 18.9375C28.7266 20.1221 29.6904 21.0859 30.875 21.0859ZM30.875 17.9609C31.4135 17.9609 31.8516 18.399 31.8516 18.9375C31.8516 19.476 31.4135 19.9141 30.875 19.9141C30.3365 19.9141 29.8984 19.476 29.8984 18.9375C29.8984 18.399 30.3365 17.9609 30.875 17.9609Z" fill="#349EB6"/>
<path d="M31.3477 22.4141H30.4414C29.3735 22.4141 28.4516 23.045 28.0315 23.9512C27.1666 23.0071 25.9243 22.4141 24.5461 22.4141H23.454C22.0757 22.4141 20.8334 23.0071 19.9685 23.9512C19.5484 23.045 18.6265 22.4141 17.5586 22.4141H16.6523C15.1898 22.4141 14 23.5967 14 25.0504V29.3164C14 29.9475 14.5154 30.4609 15.1489 30.4609H18.732C18.7921 31.1602 19.38 31.7109 20.0946 31.7109H27.9054C28.62 31.7109 29.2079 31.1602 29.268 30.4609H32.8102C33.4663 30.4609 34 29.9293 34 29.2758V25.0504C34 23.5967 32.8102 22.4141 31.3477 22.4141ZM15.1719 25.0504C15.1719 24.2429 15.836 23.5859 16.6523 23.5859H17.5586C18.3749 23.5859 19.0391 24.2429 19.0391 25.0504V25.4516C18.645 26.4775 18.7266 27.0924 18.7266 29.2891H15.1719V25.0504ZM28.1016 30.3429C28.1016 30.4511 28.0136 30.5391 27.9054 30.5391H20.0946C19.9864 30.5391 19.8984 30.4511 19.8984 30.3429V27.1415C19.8984 25.1809 21.4934 23.5859 23.4539 23.5859H24.546C26.5066 23.5859 28.1016 25.1809 28.1016 27.1414V30.3429ZM32.8281 29.2758C32.8281 29.296 33.0466 29.2891 29.2734 29.2891C29.2734 27.0761 29.3543 26.4759 28.9609 25.4516V25.0504C28.9609 24.2429 29.6251 23.5859 30.4414 23.5859H31.3477C32.164 23.5859 32.8281 24.2429 32.8281 25.0504V29.2758Z" fill="#349EB6"/>
<path d="M17.125 21.0859C18.3096 21.0859 19.2734 20.1221 19.2734 18.9375C19.2734 17.7529 18.3096 16.7891 17.125 16.7891C15.9404 16.7891 14.9766 17.7529 14.9766 18.9375C14.9766 20.1221 15.9404 21.0859 17.125 21.0859ZM17.125 17.9609C17.6635 17.9609 18.1016 18.399 18.1016 18.9375C18.1016 19.476 17.6635 19.9141 17.125 19.9141C16.5865 19.9141 16.1484 19.476 16.1484 18.9375C16.1484 18.399 16.5865 17.9609 17.125 17.9609Z" fill="#349EB6"/>
</g>
<defs>
<clipPath id="clip0">
<rect width="20" height="20" fill="white" transform="translate(14 13)"/>
</clipPath>
</defs>
</svg>
