<svg width="32" height="32" viewBox="0 0 32 32" fill="none" xmlns="http://www.w3.org/2000/svg">
<path fill-rule="evenodd" clip-rule="evenodd" d="M5.33332 5.33337C3.86056 5.33337 2.66666 6.52728 2.66666 8.00004V20C2.66666 21.4728 3.86056 22.6667 5.33332 22.6667H6.66666V24C6.66666 25.4667 7.86666 26.6667 9.33332 26.6667H26.6667C28.1333 26.6667 29.3333 25.4667 29.3333 24V12C29.3333 10.5334 28.1333 9.33337 26.6667 9.33337H25.3333V8.00004C25.3333 6.52728 24.1394 5.33337 22.6667 5.33337H5.33332ZM22.6667 9.33337V8.00004L5.33332 8.00004V20H6.66666V12C6.66666 10.5334 7.86666 9.33337 9.33332 9.33337H22.6667ZM18 16L26.6667 12H9.33332L18 16ZM9.33332 14.6667V24H26.6667V14.6667L18 18.6667L9.33332 14.6667Z" fill="#3A73B5"/>
</svg>
