<svg width="24" height="24" viewBox="0 0 24 24" fill="none" xmlns="http://www.w3.org/2000/svg">
<path d="M11.6518 2.66203C10.051 2.77526 8.51263 3.66938 7.65365 5.16088C6.44718 7.24977 6.94304 9.86966 8.68443 11.408L6.99771 14.3129C6.31052 14.3168 5.64676 14.6721 5.27974 15.3125C4.72922 16.2691 5.04157 17.4755 5.99816 18.03C6.95476 18.5805 8.16514 18.2681 8.71567 17.3116C9.08269 16.6712 9.05926 15.9099 8.71567 15.3125L11.3707 10.7521L10.4961 10.2523C9.06316 9.42455 8.57511 7.59336 9.40285 6.16042C10.2306 4.72749 12.0618 4.23943 13.4947 5.06717C14.9277 5.89492 15.4157 7.72611 14.588 9.15905L16.3372 10.1586C17.7154 7.77296 16.8799 4.69625 14.4943 3.31798C13.6001 2.80259 12.6123 2.59565 11.6518 2.66203ZM11.7455 5.66065C11.4878 5.69189 11.234 5.77388 10.9959 5.91054C10.0393 6.46107 9.72692 7.70268 10.2774 8.65927C10.6445 9.29961 11.3082 9.65491 11.9954 9.65882L14.6192 14.2192L15.4938 13.7195C16.9267 12.8917 18.7579 13.3798 19.5857 14.8127C20.4134 16.2456 19.9254 18.0768 18.4924 18.9046C17.0595 19.7323 15.2283 19.2443 14.4006 17.8113L12.6514 18.8109C14.0296 21.1965 17.1063 22.032 19.492 20.6538C21.8776 19.2755 22.7131 16.1988 21.3349 13.8132C20.1284 11.7243 17.6061 10.8262 15.4001 11.5642L13.7134 8.65927C14.057 8.06189 14.0804 7.30052 13.7134 6.66019C13.2995 5.94177 12.5186 5.56304 11.7455 5.66065ZM6.99771 11.3143C4.24116 11.3143 2 13.5555 2 16.312C2 19.0686 4.24116 21.3097 6.99771 21.3097C9.41066 21.3097 11.4371 19.5879 11.9017 17.3116H15.2752C15.6227 17.905 16.2552 18.3111 16.9931 18.3111C18.0981 18.3111 18.9922 17.417 18.9922 16.312C18.9922 15.207 18.0981 14.3129 16.9931 14.3129C16.2552 14.3129 15.6227 14.719 15.2752 15.3125H9.99633V16.312C9.99633 17.9636 8.64929 19.3106 6.99771 19.3106C5.34612 19.3106 3.99908 17.9636 3.99908 16.312C3.99908 14.6604 5.34612 13.3134 6.99771 13.3134V11.3143Z" fill="#687484"/>
</svg>
