<svg width="24" height="24" viewBox="0 0 24 24" fill="none" xmlns="http://www.w3.org/2000/svg">
<path fill-rule="evenodd" clip-rule="evenodd" d="M9.59396 7.9733C9.41371 7.57296 9.22408 7.56485 9.05284 7.55782C8.91261 7.55187 8.75218 7.55224 8.59194 7.55224C8.43152 7.55224 8.17105 7.61244 7.95078 7.85307C7.73034 8.09371 7.10901 8.67538 7.10901 9.85855C7.10901 11.0417 7.97079 12.1849 8.09084 12.3455C8.21107 12.5059 9.75438 15.0114 12.1988 15.9752C14.23 16.7762 14.6433 16.6169 15.0844 16.5769C15.5253 16.5369 16.5071 15.9952 16.7074 15.4337C16.9078 14.8723 16.9078 14.3912 16.8478 14.2906C16.7876 14.1902 16.6274 14.1302 16.3867 14.0099C16.1463 13.8897 14.964 13.3078 14.7436 13.2276C14.5231 13.1474 14.3629 13.1074 14.2024 13.348C14.0422 13.5887 13.5817 14.1302 13.4412 14.2906C13.301 14.4512 13.1608 14.4712 12.9201 14.351C12.6797 14.2304 11.9051 13.9768 10.9864 13.1575C10.2715 12.5201 9.78899 11.733 9.64857 11.4924C9.50834 11.2517 9.63361 11.1216 9.7542 11.0017C9.86217 10.8939 9.99466 10.7209 10.1151 10.5805C10.2349 10.44 10.2751 10.3398 10.3552 10.1796C10.4354 10.019 10.3954 9.87856 10.3352 9.75833C10.2751 9.63811 9.80774 8.44881 9.59396 7.9733Z" fill="#494D50"/>
<path fill-rule="evenodd" clip-rule="evenodd" d="M4.59999 19.51L5.41975 16.551C4.52453 15.2591 3.99999 13.6908 3.99999 12C3.99999 7.58172 7.58171 4 12 4C16.4183 4 20 7.58172 20 12C20 16.4183 16.4183 20 12 20C10.3915 20 8.89388 19.5253 7.63959 18.7083L4.59999 19.51ZM7.34769 20.8537L1.74286 22.3319L3.2588 16.8601C2.45695 15.4203 1.99999 13.7614 1.99999 12C1.99999 6.47715 6.47714 2 12 2C17.5228 2 22 6.47715 22 12C22 17.5228 17.5228 22 12 22C10.3231 22 8.73862 21.5858 7.34769 20.8537Z" fill="#494D50"/>
</svg>
