<svg xmlns="http://www.w3.org/2000/svg" width="145.643" height="148.2" viewBox="0 0 145.643 148.2"><defs><style>.a{fill:#465165;}</style></defs><g transform="translate(-846 -305.967)"><g transform="translate(846 305.967)"><path class="a" d="M23.21,49.2a.615.615,0,0,0,.768-.225c.346-.455.823-.807,1.2-1.24a29.543,29.543,0,0,0,2.685-3.2A36.454,36.454,0,0,0,29.94,40.5c.554-1.141,1.057-2.306,1.6-3.451a1.335,1.335,0,0,1,.429-.467c.535-.385.527-.467.015-.855a3.7,3.7,0,0,1-.879-.876.919.919,0,0,1,0-.769.67.67,0,0,1,.794-.395c.421.137.222-.13.18-.248-.553-1.564-1.192-3.1-1.648-4.693a16.529,16.529,0,0,1-.481-3.261,40.039,40.039,0,0,1-.173-4.551,34.214,34.214,0,0,1,.518-3.845,16.648,16.648,0,0,1,1.349-4.4,35.328,35.328,0,0,1,2.132-3.84A18.453,18.453,0,0,1,36.82,5.244a17.832,17.832,0,0,1,4.3-3.06,21.7,21.7,0,0,1,5.151-1.9A10.635,10.635,0,0,1,47.92.1c.953-.053,1.907-.089,2.861-.1a11.722,11.722,0,0,1,5.664,1.347,4.646,4.646,0,0,0,1.693.415A12.9,12.9,0,0,1,64.6,4.119c.622.451,1.195.973,1.772,1.484a22.9,22.9,0,0,1,4.258,5.1,31.625,31.625,0,0,1,2.538,4.935c.6,1.5,1.238,2.98,1.827,4.482.521,1.328.964,2.688,1.5,4.008.517,1.267,1.123,2.5,1.673,3.751a7.482,7.482,0,0,0,.575,1.358c.2.287-.132.623-.4.769a1.917,1.917,0,0,1-.9.194,21.4,21.4,0,0,1-2.858-.1,33.349,33.349,0,0,1-3.525-.74c-.7-.176-1.359-.48-2.043-.708a.412.412,0,0,0-.581.235c-.661,1.319-1.332,2.633-2.047,3.923a34.22,34.22,0,0,0-2.15,4.583,5.02,5.02,0,0,0-.2,3.132c.252.964.384,1.959.607,2.932.241,1.049.535,2.086.791,3.132.279,1.14.124,1.889-.88,2.241a2.641,2.641,0,0,1-1.4-.052c-1.183-.288-2.346-.657-3.525-.967a.488.488,0,0,0-.618.31c-.636,1.252-1.318,2.482-2,3.708-.971,1.735-1.927,3.48-2.959,5.179a1.886,1.886,0,0,1-1.672.9,7.848,7.848,0,0,1-2.521-.239,9.711,9.711,0,0,1-2.934-1.723c-.577-.462-1.127-.959-1.709-1.415-.309-.242-.487-.035-.608.256-.367.877-.812,1.73-1.09,2.634-.495,1.61-.933,3.241-1.3,4.883a7.012,7.012,0,0,1-.506,1.76.394.394,0,0,0,.06.371c1.181.908,1.585,2.289,2.12,3.564.685,1.633,1.285,3.306,1.848,4.987.551,1.647,1.047,3.315,1.5,4.992.511,1.9.969,3.814,1.406,5.732.378,1.659.727,3.325,1.025,5,.214,1.2.34,2.424.474,3.64q.218,1.977.374,3.961c.088,1.142.139,2.286.19,3.43q.067,1.523.094,3.048.057,2.951.091,5.9c0,.267-.093.538-.073.8a.463.463,0,0,0,.3.322q1.749.311,3.508.569c.61.089,1.225.151,1.84.188,1.738.105,3.476.223,5.216.273,1.1.031,2.2-.046,3.3-.084.533-.019,1.065-.066,1.6-.09.813-.036,1.628-.048,2.44-.1a33.457,33.457,0,0,0,3.806-.314,5.2,5.2,0,0,0,1.925-.968,18.529,18.529,0,0,0,2.229-1.845c1.625-1.571,3.2-3.2,4.807-4.784a17.99,17.99,0,0,1,3.526-2.778,2.719,2.719,0,0,1,.6-.25,4.156,4.156,0,0,0,2.034-1.874c1.046-1.419,2.1-2.835,3.1-4.281,1.234-1.774,2.436-3.57,3.631-5.371.882-1.329,1.717-2.69,2.6-4.021.8-1.215,1.617-2.424,2.466-3.608.609-.85,1.277-1.658,1.931-2.475a1.187,1.187,0,0,1,1.805-.052c.815.868,1.689,1.682,2.567,2.487a1.6,1.6,0,0,1,.2,2.227q-2.509,4.024-5.117,7.985c-.657,1-1.41,1.943-2.1,2.921a.363.363,0,0,0,.014.346,5.192,5.192,0,0,1,1.361,3.514,7.606,7.606,0,0,1-.7,3.738,19.831,19.831,0,0,1-1.912,3.039,13.448,13.448,0,0,1-2.115,2.3,49.653,49.653,0,0,1-4.279,3.211,44.172,44.172,0,0,1-4.629,2.708c-1.982.993-4.027,1.865-6.072,2.726-1.765.743-3.587,1.355-5.347,2.109a23.892,23.892,0,0,0-2.459,1.4c-1.031.6-2.045,1.226-3.1,1.779-2.29,1.2-4.583,2.4-6.908,3.535a32.847,32.847,0,0,1-5.915,2.319.644.644,0,0,0-.234.109,13.263,13.263,0,0,1-5.036,2.41c-.834.219-1.681.39-2.527.563-.492.1-.629.294-.52.794a.793.793,0,0,1,0,.388c-.458,1.462-.955,2.913-1.383,4.384-.415,1.423-.716,2.88-1.152,4.3-.385,1.252-.887,2.469-1.337,3.7a.447.447,0,0,0-.05.165,5.773,5.773,0,0,1-.678,2.34c-.169.476-.583.641-1,.818a18.633,18.633,0,0,1-4.527,1.264c-1.118.168-2.239.321-3.361.469a58.859,58.859,0,0,1-7.5.177c-1.268,0-2.541-.068-3.8-.187-1.455-.137-2.912-.306-4.35-.562a26.118,26.118,0,0,1-6.756-1.976q-1.483-.708-2.98-1.389c-.721-.329-1.484-.581-2.166-.976a5.063,5.063,0,0,1-1.895-2.517,3.656,3.656,0,0,1-.22-1.813,8.521,8.521,0,0,0-.339-1.994c-.027-.144-.114-.3-.084-.427a4.777,4.777,0,0,0-.19-1.953c-.119-.658-.182-1.326-.289-1.987-.186-1.153-.378-2.3-.584-3.453-.166-.926-.357-1.847-.536-2.771-.218-1.126-.445-2.25-.648-3.379-.144-.8-.252-1.611-.382-2.415-.184-1.139-.384-2.276-.557-3.417-.114-.753-.18-1.514-.288-2.268s-.251-1.519-.362-2.281c-.08-.548-.129-1.1-.2-1.65-.123-.993-.251-1.986-.372-2.979-.038-.314-.074-.628-.093-.943-.067-1.112-.126-2.225-.19-3.337-.006-.1.01-.247-.049-.3a1.416,1.416,0,0,1-.324-1.227c.033-.922.053-1.846.1-2.768.051-1.082.123-2.162.184-3.244.063-1.112.1-2.227.195-3.336q.189-2.129.467-4.25c.222-1.678.45-3.357.754-5.021.286-1.568.654-3.122,1.022-4.673.447-1.885.861-3.782,1.42-5.634.453-1.5,1.09-2.945,1.665-4.406q1.059-2.695,2.153-5.376c.349-.853.757-1.682,1.115-2.532a25.442,25.442,0,0,1,2.136-3.98A22.782,22.782,0,0,1,15.1,52.235a9.6,9.6,0,0,1,3.371-1.9c1.233-.42,2.491-.767,3.748-1.111a4.171,4.171,0,0,1,.99-.022m-5.426,78.255a28.567,28.567,0,0,1-1.946-2.432c-.736-1.143-1.351-2.365-1.99-3.568a13.866,13.866,0,0,1-1.3-3.576c-.265-1.219-.528-2.438-.744-3.666-.193-1.1-.334-2.206-.471-3.313-.089-.719-.092-1.45-.2-2.166a12.276,12.276,0,0,1,.109-3.673c.094-.636.045-.817-.541-1.132a3.521,3.521,0,0,1-1.866-2.157,14.276,14.276,0,0,1-.474-3.447c-.019-2.5.089-5,.167-7.5.034-1.113.118-2.225.184-3.337.022-.377.043-.756.1-1.13.179-1.28.357-2.561.562-3.836.2-1.238.355-2.49.668-3.7A53.516,53.516,0,0,1,11.979,72.2a25.6,25.6,0,0,1,3.346-6.57A5.74,5.74,0,0,1,19.9,63.238c.623-.014,1.247,0,1.871,0a6.58,6.58,0,0,1,2.478.567,12.725,12.725,0,0,1,4.941,3.865,14.989,14.989,0,0,1,3.081,6.393c.434,1.921.785,3.861,1.127,5.8.286,1.621.523,3.251.75,4.881q.232,1.67.373,3.353c.093,1.094.162,2.192.184,3.29.017.859-.04,1.721-.087,2.58-.045.817-.087,1.637-.192,2.447-.156,1.2-.322,2.412-.567,3.6-.2.978-.509,1.936-.8,2.895a7.136,7.136,0,0,0-.478,1.291,19.289,19.289,0,0,1-.958,4.287c-.391,1.209-.8,2.411-1.2,3.62-.026.079.045.189.071.284.066-.032.135-.059.2-.1.441-.252.872-.524,1.324-.757a23.443,23.443,0,0,1,4.7-1.986,17.771,17.771,0,0,1,4.691-.748c1.721.016,3.441.1,5.161.184a7.516,7.516,0,0,1,1.407.213c.755.183.966.047.957-.729q-.04-3.372-.095-6.743c-.012-.673-.054-1.347-.092-2.019-.09-1.583-.181-3.166-.282-4.748-.049-.77-.084-1.544-.193-2.307-.188-1.317-.4-2.632-.653-3.938-.318-1.655-.607-3.322-1.043-4.948-.881-3.291-1.807-6.572-2.8-9.829-.556-1.817-1.24-3.6-1.967-5.357a30.09,30.09,0,0,0-1.57-2.9,1.179,1.179,0,0,0-.9-.574c-.578-.106-1.166-.182-1.729-.344A11.042,11.042,0,0,1,33.5,62.614a29.41,29.41,0,0,1-2.716-2.457c-1.029-1.112-1.954-2.325-2.889-3.521-.971-1.242-1.889-2.525-2.855-3.771a12.541,12.541,0,0,0-1.361-1.524,1.008,1.008,0,0,0-.835-.191,6.334,6.334,0,0,0-1.138.634A24.411,24.411,0,0,0,17.087,55.3a31.3,31.3,0,0,0-2.45,2.63c-.8.932-1.569,1.89-2.268,2.9Q11,62.791,9.78,64.852a20.06,20.06,0,0,0-1.429,2.867c-.65,1.649-1.225,3.33-1.782,5.014-.333,1-.61,2.032-.844,3.064-.318,1.4-.571,2.821-.852,4.232S4.3,82.85,4.037,84.266c-.184,1.006-.31,2.023-.475,3.032-.21,1.283-.445,2.562-.649,3.846-.143.9-.257,1.8-.377,2.7-.191,1.434-.434,2.865-.542,4.306a26.913,26.913,0,0,0,.074,3c.058,1.549.113,3.1.19,4.646.036.724.1,1.448.187,2.167.1.871.254,1.736.367,2.605.106.817.17,1.64.288,2.455.168,1.157.377,2.308.554,3.464.167,1.087.286,2.183.476,3.266.287,1.637.623,3.265.927,4.9.259,1.392.495,2.788.752,4.179.273,1.475.583,2.944.833,4.423.221,1.3.4,2.617.564,3.93a10.052,10.052,0,0,0,1.329,3.659.919.919,0,0,0,.378.318c.358.185.74.326,1.095.517a26.111,26.111,0,0,0,2.634,1.431,44.337,44.337,0,0,0,4.914,1.679c1.519.405,3.1.6,4.65.863.546.094,1.1.133,1.652.191,1.211.127,2.42.325,3.634.354,1.25.031,2.505-.1,3.757-.169.848-.049,1.7-.1,2.541-.19,1.2-.133,2.409-.245,3.593-.477,1.6-.314,3.18-.758,4.78-1.092a.894.894,0,0,0,.775-.7c.818-2.466,1.736-4.9,2.48-7.388.51-1.705.8-3.477,1.174-5.222.1-.462.155-.933.242-1.4a1.563,1.563,0,0,1,.135-.317,1.224,1.224,0,0,0-.391-.05c-.845.176-1.681.4-2.529.549-1.53.272-3.065.511-4.6.753-1.626.257-3.249.548-4.883.736-1.419.163-2.851.236-4.279.283a22.5,22.5,0,0,1-2.906-.1,15.623,15.623,0,0,1-2.614-.46c-.858-.235-1.667-.643-2.515-.923a9.468,9.468,0,0,1-4.471-2.579M84.719,111.7c1.137-.607,2.308-1.159,3.4-1.835,1.561-.963,3.084-1.989,4.587-3.041A13.649,13.649,0,0,0,95,104.927a27.914,27.914,0,0,0,2.327-3.051,7.583,7.583,0,0,0,1.361-4.245,6.289,6.289,0,0,0-.268-1.38,2.666,2.666,0,0,0-.136-.364,1.3,1.3,0,0,0-.381.2q-1.368,1.485-2.716,2.989c-.469.52-.939,1.04-1.388,1.577-1.033,1.237-2.032,2.5-3.084,3.724a9.061,9.061,0,0,1-4.849,3.074,1.365,1.365,0,0,1-1.486-.4,1.041,1.041,0,0,1,.023-1.289c.436-.655.93-1.273,1.414-1.9A6.214,6.214,0,0,0,87.1,101.54c.04-.165.078-.448-.252-.381a1.8,1.8,0,0,0-.727.266,39.329,39.329,0,0,0-3.128,2.486c-1.682,1.578-3.268,3.258-4.914,4.874a12.055,12.055,0,0,1-1.562,1.309c-.693.481-1.483.827-2.15,1.337a3.33,3.33,0,0,1-2.08.641c-1,.019-2,.054-3,.093-.424.016-.849.047-1.271.094-1.072.117-2.14.273-3.214.363-.857.072-1.72.064-2.58.1-1.222.056-2.443.129-3.664.184-1.517.068-3.035.157-4.553.179-1.2.017-2.406-.048-3.609-.086-.642-.02-1.285-.046-1.926-.095q-2.262-.173-4.522-.373c-.975-.085-1.949-.261-2.924-.262a22.847,22.847,0,0,0-5.311.256,21.114,21.114,0,0,0-7.8,3.653,3.066,3.066,0,0,1-1.439.444.582.582,0,0,1-.6-.566,1.418,1.418,0,0,1,.333-.908c.593-.538,1.273-.979,1.9-1.48a1.031,1.031,0,0,0,.342-.5c.277-1.042.478-2.106.792-3.136a49.98,49.98,0,0,0,1.632-6.194,1.32,1.32,0,0,0-.268-.853c-.054-.08-.441.031-.659.105-.395.134-.767.342-1.167.455-1.4.393-2.81.741-4.207,1.139a24.039,24.039,0,0,1-5.175.813,16.832,16.832,0,0,1-5.895-.538.4.4,0,0,0-.563.355,19.2,19.2,0,0,0-.094,2.112c.012.614.115,1.227.177,1.84.094.928.14,1.864.292,2.782.24,1.45.523,2.893.838,4.329a20.819,20.819,0,0,0,4.589,9.233,7.291,7.291,0,0,0,3.063,2.084,16.94,16.94,0,0,1,3.032,1.245,5.789,5.789,0,0,0,3.032.708,41.616,41.616,0,0,0,6.385-.277c.709-.087,1.418-.183,2.123-.295.89-.14,1.775-.312,2.666-.448.723-.111,1.453-.169,2.174-.289,1-.167,2-.361,3-.558s1.988-.381,2.968-.628c.854-.216,1.682-.535,2.533-.768,1.878-.514,3.772-.975,5.644-1.509a36.944,36.944,0,0,0,6.73-2.609c1.981-1.014,3.982-1.991,5.935-3.057,1.153-.629,2.228-1.4,3.341-2.1a6.377,6.377,0,0,1,2.187-1.155c.382-.07.757.037,1.158-.19a15.815,15.815,0,0,1,2.107-.888c1.787-.693,3.582-1.364,5.366-2.065.844-.332,1.669-.713,2.55-1.118M60.63,21.653c.29.2.58.4.869.608a31.9,31.9,0,0,0,6.571,3.555c1.6.647,3.211,1.281,4.819,1.914.06.024.149-.023.224-.037a.6.6,0,0,0-.06-.164c-.208-.274-.431-.537-.633-.814a22.773,22.773,0,0,1-2.4-4.383c-.748-1.716-1.427-3.463-2.194-5.17-.544-1.211-1.14-2.4-1.789-3.56A18.543,18.543,0,0,0,63.366,9.8c-.788-.827-1.531-1.705-2.387-2.455-1.1-.964-2.289-1.828-3.448-2.724a12.806,12.806,0,0,0-3.454-1.93,10.921,10.921,0,0,0-2.78-.611,14.435,14.435,0,0,0-4.554.276,18.969,18.969,0,0,0-5.2,1.994A18.359,18.359,0,0,0,38.13,6.836a18.688,18.688,0,0,0-3.31,4.192,24.938,24.938,0,0,0-1.662,3.238,19.932,19.932,0,0,0-.965,3.385,28.715,28.715,0,0,0-.543,3.84,18.926,18.926,0,0,0,.268,4.7,30.247,30.247,0,0,0,.738,3.389c.532,1.736,1.168,3.442,1.8,5.147a1.348,1.348,0,0,0,.592.623,10.916,10.916,0,0,0,3.871,1.033c.876.127,1.76.2,2.643.277.093.008.291-.136.285-.194-.116-1.084-.2-2.175-.4-3.246a9.216,9.216,0,0,1-.065-3.251,10.056,10.056,0,0,1,1.868-4.643,3,3,0,0,1,2.249-1.2,3.223,3.223,0,0,1,2.252.763,17.463,17.463,0,0,1,2.426,2.344,13.07,13.07,0,0,1,1.2,2.157.949.949,0,0,0,.144.162c.045-.059.114-.113.13-.179a10.815,10.815,0,0,1,.273-1.15c.582-1.567,1.207-3.117,1.783-4.685.463-1.259.84-2.551,1.331-3.8a7.025,7.025,0,0,1,1.03-1.81c.417-.52,1.7-.071,1.929.688a4.141,4.141,0,0,0,1.085,1.559c.462.513,1,.957,1.552,1.477M63.623,34c.43-.8.842-1.617,1.293-2.409.612-1.074,1.255-2.13,1.879-3.2a.513.513,0,0,0-.289-.8c-.841-.38-1.707-.72-2.5-1.18A32.282,32.282,0,0,1,60,23.869a21.429,21.429,0,0,1-3.009-2.957c-.07-.083-.146-.161-.219-.241a1.91,1.91,0,0,0-.159.3c-.36,1.083-.694,2.175-1.075,3.25-.746,2.107-1.542,4.2-2.259,6.312a2.665,2.665,0,0,0-.145,1.7,1.006,1.006,0,0,1-.573,1.147c-.359.126-.85-.175-1.1-.623a1.212,1.212,0,0,0-.462-.469,1.591,1.591,0,0,1-.842-1.026,8.927,8.927,0,0,0-3.516-4.887c-.855-.6-1.431-.483-2,.413-.161.256-.283.537-.42.808a8.672,8.672,0,0,0-.96,3.661c-.046,1.733.09,3.471.172,5.206a.974.974,0,0,0,.276.533.547.547,0,0,1-.027.872,2.381,2.381,0,0,1-1.77.566c-1.284,0-2.568-.093-3.851-.173a9.029,9.029,0,0,1-3.5-.931c-.4-.2-.591-.1-.686.347a19.139,19.139,0,0,1-1.7,4.344c-.688,1.421-1.5,2.784-2.327,4.134a13.855,13.855,0,0,1-3.825,4.172c-.222.157-.254.257-.071.455,1.437,1.555,2.849,3.132,4.308,4.665.885.93,1.82,1.816,2.771,2.68,1.169,1.061,2.34,2.129,3.586,3.1a18.331,18.331,0,0,0,2.48,1.451c.179.1.44.149.4-.243a1.9,1.9,0,0,1,.086-.475c.172-.973.3-1.958.525-2.918.349-1.469.755-2.926,1.164-4.381a2.908,2.908,0,0,1,2.258-2.421,3.266,3.266,0,0,1,1.3-.188,14.745,14.745,0,0,1,2.66,1.016,26.368,26.368,0,0,1,2.426,1.484c.95.609,1.229.662,1.841-.452.591-1.076,1.11-2.192,1.7-3.271.909-1.668,1.807-3.345,2.8-4.966a1.666,1.666,0,0,1,2.1-.956c.5.151,1.035.208,1.524.388,1.122.412,2.226.873,3.336,1.316.1.04.2.1.292.145a1.779,1.779,0,0,0-.028-.346c-.26-.936-.555-1.863-.786-2.806a24.9,24.9,0,0,1-.553-2.761,8.4,8.4,0,0,1-.077-2.526A15.592,15.592,0,0,1,63.623,34M30.974,89.477c-.094-1.5-.182-3.01-.283-4.514-.05-.739-.084-1.482-.193-2.213-.187-1.255-.39-2.51-.657-3.75-.3-1.38-.667-2.745-1.018-4.113a16.618,16.618,0,0,0-2.657-5.537,12.642,12.642,0,0,0-2.094-2.438,5.559,5.559,0,0,0-4.647-.852A4.367,4.367,0,0,0,16.47,68.19a21.415,21.415,0,0,0-2.236,4.827,40.08,40.08,0,0,0-1.583,6.918c-.193,1.232-.292,2.481-.377,3.726-.075,1.107-.088,2.218-.1,3.328,0,.626.071,1.252.084,1.879.039,1.842.05,3.685.1,5.527.035,1.253.109,2.506.185,3.758.08,1.318.179,2.636.281,3.953.028.354.062.77.488.855a24.562,24.562,0,0,0,3.405.567,23.985,23.985,0,0,0,3.615-.171,21.568,21.568,0,0,0,3.025-.484c2.088-.511,4.157-1.1,6.235-1.653.426-.113.76-.3.818-.8.119-1.009.281-2.014.364-3.026q.149-1.828.189-3.664c.031-1.387.007-2.775.007-4.256m64.5.889c-.695,1.006-1.374,2.024-2.087,3.017q-2.216,3.085-4.47,6.144a1.294,1.294,0,0,0-.2,1.222,2.6,2.6,0,0,1,.012,1.121,6.654,6.654,0,0,1-1.838,3.166,1.494,1.494,0,0,0-.157.257c.127-.005.282.035.375-.023a15.753,15.753,0,0,0,3.52-3.415c.98-1.169,1.944-2.352,2.948-3.5.8-.913,1.658-1.774,2.467-2.679.187-.209.445-.558.384-.751-.256-.8.187-1.333.594-1.9,1.12-1.547,2.282-3.066,3.354-4.646,1.4-2.06,2.725-4.169,4.088-6.254a.521.521,0,0,0-.1-.74c-.433-.427-.872-.848-1.286-1.293-.262-.281-.486-.292-.714.012-.508.677-1.034,1.342-1.508,2.042q-1.533,2.258-3.02,4.547c-.784,1.2-1.546,2.415-2.364,3.669M64.419,6.451c-.075-.044-.153-.085-.226-.133-.982-.641-1.961-1.286-2.948-1.919-.069-.044-.193,0-.291,0,.04.092.054.216.123.271.5.4,1.054.744,1.513,1.187.879.849,1.723,1.736,2.552,2.635a19.825,19.825,0,0,1,3.174,4.764c.763,1.553,1.522,3.11,2.222,4.692.763,1.725,1.408,3.5,2.2,5.215A29.808,29.808,0,0,0,74.443,26.1c.314.515.675,1,1.025,1.493.047.066.15.091.227.134,0-.115.038-.252-.01-.341-.2-.357-.468-.68-.627-1.051-.413-.967-.78-1.953-1.167-2.931C72.932,20.983,72.016,18.54,71,16.14a39.082,39.082,0,0,0-2.117-4.265,23.02,23.02,0,0,0-4.462-5.424M10.487,91.161c0-.047,0-.094,0-.14.031-.548.072-1.1.084-1.643,0-.106-.111-.214-.172-.322a.913.913,0,0,0-.142.282c-.058.556-.122,1.112-.14,1.67-.045,1.372-.09,2.745-.091,4.118,0,1.233.041,2.466.093,3.7a9.43,9.43,0,0,0,.2,1.787,5.588,5.588,0,0,0,.587,1.248c.048.091.187.135.284.2a1.425,1.425,0,0,0,.041-.354c-.084-.632-.209-1.26-.271-1.893q-.17-1.737-.281-3.48c-.056-.873-.077-1.749-.1-2.624-.015-.721,0-1.443-.007-2.165,0-.1-.058-.192-.089-.382m36.064,19.6c-.174-.031-.346-.074-.522-.091q-.631-.062-1.265-.1c-.924-.062-1.849-.122-2.774-.173-.052,0-.109.089-.164.137.041.046.076.123.124.132a5.135,5.135,0,0,0,.661.1c.593.039,1.188.061,1.782.1.346.022.691.056,1.035.093.849.091,1.7.189,2.545.275.068.007.143-.057.215-.087-.058-.063-.109-.17-.175-.181-.454-.076-.912-.132-1.462-.194m-6.923,35.081c-.493.125-.988.245-1.479.378a1.109,1.109,0,0,0-.252.146c.106.044.22.138.316.122.652-.109,1.305-.217,1.946-.374a13.547,13.547,0,0,0,1.348-.463c.052-.019.088-.084.132-.127a.486.486,0,0,0-.158-.053,1.659,1.659,0,0,0-.308.043c-.484.107-.968.218-1.546.328m-6.97-53.09.072.234c.07-.066.2-.134.2-.2-.014-.56-.049-1.12-.089-1.679,0-.063-.079-.12-.121-.18a.754.754,0,0,0-.058.2C32.656,91.636,32.658,92.147,32.658,92.751Z" transform="translate(0 0)"/><g transform="translate(10 20.508)"><path class="a" d="M879.944,316.846c.069.72.165,1.412.2,2.107a4.725,4.725,0,0,1-.094,1.4,1.408,1.408,0,0,1-1.214.919c-.463.1-.941.133-1.408.22-.151.028-.282.161-.433.193a3.677,3.677,0,0,1-.674.055c-.141,0-.2.046-.193.192a4.421,4.421,0,0,1-.49,2.118c-.211.477-.352.693-1.032.535a1.834,1.834,0,0,0-.544-.047.539.539,0,0,0-.285.166c-.021.02.035.143.077.2.177.255.364.5.544.755.1.145.131.291-.042.406-.4.264-.79.537-1.2.781s-.85.42-1.23.692c-.2.143-.344.327-.607.2-.2-.1-.4-.212-.587-.327-.3-.183-.59-.4-.906-.554-.26-.127-.405-.031-.564.211a8.2,8.2,0,0,1-.519.688c-.206.253-.423.5-.637.742a.362.362,0,0,1-.479.1c-.165-.076-.369-.066-.535-.14a9.105,9.105,0,0,1-.911-.477c-.45-.267-.891-.551-1.332-.832-.171-.109-.152-.267-.068-.416.129-.231.279-.451.4-.685a.638.638,0,0,0,.02-.243c-.073,0-.167-.02-.217.017-.35.258-.7.521-1.032.8a.4.4,0,0,1-.566-.1c-.387-.673-.789-1.339-1.142-2.03a8.745,8.745,0,0,1-.409-1.145.122.122,0,0,1,0-.077c.048-.126.117-.278-.047-.345a1.915,1.915,0,0,0-.5-.086c-.043-.005-.089.04-.135.042-.457.02-.914.033-1.371.054-.674.031-1.348.056-2.02.116-.095.008-.24.188-.25.3a5.724,5.724,0,0,1-.443,1.78,1.477,1.477,0,0,1-1.017,1.02,7.8,7.8,0,0,1-1.209.035c-.06,0-.12,0-.181,0-1.609-.017-3.219-.026-4.828-.055-.923-.017-1.846-.07-2.769-.1-.749-.023-1.5-.051-2.248-.049-1.1,0-2.2.031-3.306.048s-2.188.014-3.28.059c-.627.026-1.251.12-1.875.2-.229.03-.3.224-.316.435-.035.553-.042,1.11-.112,1.659a2.667,2.667,0,0,1-.3,1.265.649.649,0,0,1-1.024.113c-.422-.448-.8-.94-1.194-1.41-.362-.427-.707-.871-1.1-1.265a1.288,1.288,0,0,0-.62-.23,10.754,10.754,0,0,0-2.166-.321,3.164,3.164,0,0,1-.714-.137,1.289,1.289,0,0,1-.7-.6,4.83,4.83,0,0,1-.952-1.926c-.063-.352-.155-.7-.187-1.055-.056-.611-.093-1.226-.1-1.84-.017-.914-.03-1.83,0-2.743.026-.678.129-1.353.2-2.03.051-.5.114-1.005.152-1.51.046-.613.075-1.226.105-1.84a1.128,1.128,0,0,1,1.168-1.121q1.834-.019,3.667-.052a5.209,5.209,0,0,0,.648-.055.2.2,0,0,0,.134-.133,3.084,3.084,0,0,0,0-.541c-.023-.27-.065-.539-.1-.809-.068-.513-.141-1.026-.2-1.54-.042-.337-.058-.678-.107-1.014a14.15,14.15,0,0,0-.281-1.613,1.951,1.951,0,0,0-.465-.731,2.826,2.826,0,0,1-.716-1.15,1.41,1.41,0,0,1,.741-1.747,5.173,5.173,0,0,1,1.93-.568c.65-.1,1.3-.187,1.957-.258.63-.068,1.263-.118,1.9-.156,1.044-.061,2.089-.107,3.134-.157.406-.02.811-.05,1.217-.05q9.5,0,19.01,0c1.24,0,2.479-.036,3.719-.048,1.988-.02,3.975-.045,5.963-.047.691,0,1.384.038,2.072.1.785.075,1.568.189,2.348.307a10.277,10.277,0,0,1,1.429.286,2.089,2.089,0,0,1,1.5,1.477c.21.73.429,1.459.613,2.2a8.772,8.772,0,0,1,.112.961c.06.446.134.891.2,1.337.058.415.114.831.163,1.248q.134,1.145.257,2.292c.027.25.03.5.054.752.066.685.13,1.371.207,2.055s.169,1.391.257,2.086c.028.219.068.436.1.68m-31.289-5.83c1.989.043,3.981-.1,5.967.1.483.048.97.056,1.452.111a1.272,1.272,0,0,1,.747.313,1.543,1.543,0,0,1,.42,1.116c.03.43.027.863.057,1.294.042.6.1,1.2.151,1.793.029.366.092.437.45.428.3-.007.6-.043.907-.047.55-.008,1.1.011,1.651-.007.408-.013.814-.076,1.221-.095a.549.549,0,0,1,.521.577c0,.027.035.084.056.085a3.369,3.369,0,0,1,.5.009c.546.108,1.088.236,1.631.357.042.009.084.022.126.033a.629.629,0,0,0-.058-.124,4.89,4.89,0,0,1-.919-1.426c-.083-.259-.038-.408.213-.5a3.967,3.967,0,0,0,.465-.185c.882-.446,1.76-.9,2.64-1.347.343-.175.714-.075.7.2a.684.684,0,0,0,.266.643,1.117,1.117,0,0,1,.149.194,6.872,6.872,0,0,0,.606.7c.363.328.611.078.7-.223.068-.218-.078-.311-.12-.46-.124-.44-.082-.822.493-.8a5.24,5.24,0,0,1,.8.124c.381.072.759.168,1.143.227.352.054.714.051,1.064.118.136.026.365.2.352.266-.074.35.315.562.232.9-.007.027.039.067.061.1.03-.022.074-.037.088-.067a.532.532,0,0,1,.526-.282c.388-.015.777-.029,1.165-.052.51-.03,1.02-.077,1.531-.1a.566.566,0,0,1,.541.472.463.463,0,0,1-.311.528c-.32.089-.655.124-.983.183-.28.05-.558.112-.84.148-.132.017-.143.023-.084.155.325.716.633,1.44.947,2.161a.406.406,0,0,1-.192.582c-.167.1-.324.216-.484.326s-.133.251.019.335a2.255,2.255,0,0,0,.531.209c.277.07.423.206.375.512a2,2,0,0,0,0,.412.969.969,0,0,0,.046.186c.036-.017.088-.025.106-.053a1.011,1.011,0,0,0,.091-.212c0-.014-.029-.037-.039-.059a.277.277,0,0,1,.23-.419c.25-.026.5-.02.752-.057.491-.074.981-.155,1.466-.26a.4.4,0,0,0,.28-.464c-.053-.695-.131-1.388-.2-2.081-.032-.321-.061-.643-.1-.963-.08-.593-.177-1.183-.254-1.776-.063-.484-.1-.972-.158-1.457-.066-.591-.14-1.181-.2-1.772-.026-.241-.025-.486-.055-.726-.061-.48-.144-.957-.2-1.437-.062-.51-.1-1.024-.159-1.534q-.141-1.124-.31-2.245c-.055-.369-.12-.738-.208-1.1-.1-.427-.23-.849-.36-1.269a.522.522,0,0,0-.436-.4c-.737-.093-1.475-.188-2.214-.256-.6-.055-1.209-.076-1.814-.107-.742-.038-1.484-.074-2.227-.1-.629-.024-1.258-.038-1.887-.052-.878-.02-1.757-.039-2.635-.051q-2.285-.031-4.569-.052c-1.7-.018-3.407-.033-5.111-.052-1.2-.014-2.393-.04-3.589-.048-.457,0-.914.031-1.371.048s-.9.036-1.346.051c-.56.019-1.121.032-1.681.053-.328.012-.656.033-.984.051-.95.051-1.9.1-2.85.156-.493.029-.986.065-1.479.1q-1.286.1-2.571.206c-.581.048-1.165.075-1.74.161-.738.11-1.468.274-2.2.4a3.448,3.448,0,0,0-2.345,1.357,1.414,1.414,0,0,0-.359.742,15.346,15.346,0,0,0,.287,1.782c.085.48.188.958.254,1.441.085.623.139,1.25.212,1.874a3.831,3.831,0,0,0,.11.651c.029.1.154.24.229.236.488-.026.973-.1,1.461-.133.673-.047,1.347-.073,2.02-.106.38-.019.76-.035,1.139-.052.8-.035,1.6-.073,2.407-.1q.93-.034,1.861-.052,1.73-.031,3.46-.052c.576-.007,1.152,0,1.78,0M828.3,316.924c-.017.019-.048.036-.05.056-.054.554-.147,1.109-.149,1.664a24.621,24.621,0,0,0,.188,4.4,4.6,4.6,0,0,0,.932,2.065.41.41,0,0,0,.248.137c.257.033.518.038.777.058a4.682,4.682,0,0,1,.546.054c.483.095.963.211,1.446.3a1.506,1.506,0,0,1,.978.506c.124.159.27.3.4.455.311.377.618.758.927,1.137.03.036.064.069.1.1a.49.49,0,0,0,.057-.131c.055-.477.081-.958.162-1.431A1.28,1.28,0,0,1,836,325.113c.771-.141,1.559-.2,2.341-.266.472-.042.948-.048,1.423-.055,1.506-.022,3.012-.046,4.518-.049,1.016,0,2.032.028,3.048.049.328.007.656.033.985.05.656.034,1.312.093,1.969.1,1.685.014,3.37.007,5.055,0a.5.5,0,0,0,.535-.36c.1-.388.207-.778.279-1.173a6.576,6.576,0,0,1,.07-.8c.09-.283-.019-.312-.235-.295a.611.611,0,0,1-.584-.269,1.432,1.432,0,0,1-.274-.864q.03-.959.1-1.917c.036-.5.09-.991.155-1.483.074-.559.167-1.116.256-1.673.083-.524.165-1.048.26-1.569a.79.79,0,0,0-.337-.834,3.334,3.334,0,0,0-.687-.208c-.7-.117-1.408-.222-2.115-.311-.657-.083-1.317-.161-1.978-.2-.844-.055-1.69-.093-2.536-.1-.775-.009-1.55.03-2.326.046a5.051,5.051,0,0,1-.524,0c-.3-.025-.591-.1-.886-.1-1.153,0-2.307.028-3.46.047-.887.015-1.774.05-2.661.048-1.532,0-3.063-.036-4.6-.045-.448,0-.9.03-1.346.049-.354.015-.708.033-1.062.052-.294.016-.589.023-.881.054a2.722,2.722,0,0,1-1.517-.1.254.254,0,0,0-.382.225c-.019.431-.032.863-.053,1.294-.012.251-.024.5-.052.752-.063.557-.136,1.112-.2,1.72m45.141,2.683c0-.234.023-.447.338-.44a.157.157,0,0,0,.087-.037c.223-.169.448-.335.663-.513a.243.243,0,0,0,.092-.183c-.063-.272-.145-.54-.223-.809s-.171-.516-.23-.781c-.051-.231-.141-.3-.376-.216a2.35,2.35,0,0,1-1.36.179c-.363-.08-.577-.322-.456-.682a7.331,7.331,0,0,1,.335-.815c.077-.161.046-.224-.122-.271-.383-.109-.758-.25-1.144-.349a4.516,4.516,0,0,0-.78-.108c-.143-.011-.242.026-.184.236a1.025,1.025,0,0,1-.621,1.1,1.46,1.46,0,0,0-.639.205.252.252,0,0,1-.19.012,2.07,2.07,0,0,1-1.165-1.016c-.264-.414-.394-.533-.709-.429-.642.212-1.279.439-1.917.663-.277.1-.355.262-.2.5.192.3.42.567.633.848s.235.489.105.7a.835.835,0,0,1-.844.42c-.45-.118-.9-.24-1.35-.351-.3-.075-.4-.006-.473.3-.064.283-.134.565-.192.849a2.36,2.36,0,0,0,.026,1.655c.04.076.044.214.1.232a3.249,3.249,0,0,0,.791.286.9.9,0,0,1,.557.342c.253.334-.328.519-.215.864.012.036-.105.122-.171.174-.035.028-.091.027-.134.047a.709.709,0,0,0-.231.123,5.282,5.282,0,0,0-.436.541.3.3,0,0,0-.034.246c.105.249.243.484.353.731.228.507.444,1.02.674,1.526.022.049.117.111.155.1.634-.21,1.265-.433,1.9-.65a.3.3,0,0,1,.42.274,3.737,3.737,0,0,1-.4,1.405c-.077.108-.169.206-.254.308.1.073.193.153.3.218.4.246.786.5,1.2.722.161.086.353.208.552-.034.359-.437.774-.828,1.136-1.263.181-.218.469-.388.429-.755-.008-.072.139-.2.238-.235a.914.914,0,0,1,.8.3c.049.073.068.176.132.226.243.192.495.375.754.546a.268.268,0,0,0,.239.016c.478-.325.948-.662,1.418-1,.044-.032.105-.115.093-.137-.045-.08-.121-.2-.18-.2a.225.225,0,0,1-.249-.22c-.051-.318-.086-.64-.105-.962a.363.363,0,0,1,.426-.422c.373.034.742.122,1.114.165.165.019.438.044.485-.037a4.538,4.538,0,0,0,.439-1.026c.121-.418.18-.855.266-1.283.091-.451.09-.448-.333-.664a3.646,3.646,0,0,1-.772-.428,4.583,4.583,0,0,1-.546-.732m-15.4-2.089c-.37.024-.387.041-.387.385,0,.971,0,1.942,0,2.913,0,.225-.039.45-.047.675-.007.2.063.343.306.31.156-.021.312-.038.468-.052.407-.036.813-.074,1.221-.1.778-.055,1.556-.1,2.333-.158a2.982,2.982,0,0,0,.358-.068c-.1-.055-.2-.11-.3-.164s-.229-.173-.336-.165c-.431.031-.6-.1-.481-.484a13.068,13.068,0,0,0,.253-1.906,7.711,7.711,0,0,1,.152-.84c.073-.275.19-.539.284-.809.008-.022-.013-.053-.02-.08a4.262,4.262,0,0,0-.593.187,3.791,3.791,0,0,1-1.394.3c-.584.041-1.171.04-1.809.057M833.978,303.2c.228-.112.458-.221.683-.337a1.435,1.435,0,0,0,.186-.135c-.076-.023-.157-.077-.228-.065-.608.1-1.215.205-1.819.328-.153.031-.232.139-.116.315.1.158.168.342.264.506.071.121.145.182.287.036.22-.226.476-.417.742-.649m39.182,12.975.222-.139-.179-.265c-.023.092-.048.184-.068.277a.206.206,0,0,0,.025.127m-17.515-3.689c.1.016.208.034.313.046.006,0,.017-.045.025-.069A1.591,1.591,0,0,0,855.645,312.487Z" transform="translate(-749.494 -272.901)"/><path class="a" d="M1576.535,472.942c-.4-.017-.768-.033-1.139-.052a.564.564,0,0,1-.547-.386.64.64,0,0,1,.173-.668,1.065,1.065,0,0,1,.844-.347,8.162,8.162,0,0,0,1.446-.058,5.234,5.234,0,0,1,.913-.155c.08,0,.161-.035.241-.035.662,0,1.324.005,1.985,0s1.326-.032,1.99-.05c.612-.016,1.224-.026,1.835-.054.442-.02.882-.079,1.324-.1a.71.71,0,0,1,.635.356c.3.454-.1.908-.652.983-.452.062-.9.147-1.352.221a7.338,7.338,0,0,1-.846.133c-1.034.047-2.068.078-3.1.107-.878.024-1.756.033-2.634.054C1577.286,472.9,1576.923,472.924,1576.535,472.942Z" transform="translate(-1458.88 -434.103)"/><path class="a" d="M1434.428,387.863a1.027,1.027,0,0,1-.826.524c-.543.071-1.09.114-1.636.158-.344.028-.69.048-1.035.052-1.994.021-3.989.043-5.983.048a10.419,10.419,0,0,1-1.271-.1.745.745,0,0,1-.637-.776.677.677,0,0,1,.721-.559c.208,0,.415.048.623.047q2.927-.019,5.854-.051c.5-.006,1-.034,1.5-.049.637-.019,1.274-.049,1.911-.044a1.3,1.3,0,0,1,.571.167A.5.5,0,0,1,1434.428,387.863Z" transform="translate(-1314.927 -354.506)"/><path class="a" d="M1035,400.675c-.779.03-1.545.045-2.311.065-.448.012-.9.03-1.344.051-.682.032-1.363.072-2.045.1a.686.686,0,0,1-.317-1.313,2.213,2.213,0,0,1,.6-.175,8.4,8.4,0,0,1,.88-.056c.646-.021,1.292-.034,1.937-.054.431-.013.862-.032,1.293-.051.707-.033,1.415-.074,2.122-.1.654-.025,1.309-.057,1.963-.042a1.594,1.594,0,0,1,.729.217.539.539,0,0,1-.1.951,3.586,3.586,0,0,1-.87.257,7.951,7.951,0,0,1-.931.059C1036.074,400.611,1035.543,400.636,1035,400.675Z" transform="translate(-940.831 -365.873)"/><path class="a" d="M1431.255,484.846c.79,0,1.554-.018,2.318.009a1.62,1.62,0,0,1,.921.2.653.653,0,0,1,.326.437c.064.373-.324.6-.613.647a20.954,20.954,0,0,1-4.06.2,1.4,1.4,0,0,1-1.109-.369.615.615,0,0,1-.125-.647.679.679,0,0,1,.536-.419.133.133,0,0,1,.026,0Z" transform="translate(-1320.461 -447.194)"/><path class="a" d="M1279.873,388.23c.865-.047,1.718-.093,2.57-.107a1.059,1.059,0,0,1,.594.167.554.554,0,0,1-.1,1,2.176,2.176,0,0,1-.791.257c-.714.079-1.432.129-2.149.155a.946.946,0,0,1-.744-.253.687.687,0,0,1,.143-1.025C1279.542,388.349,1279.7,388.3,1279.873,388.23Z" transform="translate(-1178.403 -355.467)"/><path class="a" d="M1683.4,388.958a7.642,7.642,0,0,1,.99.165.557.557,0,0,1,.406.482.585.585,0,0,1-.361.632,2.854,2.854,0,0,1-.92.258,7.925,7.925,0,0,1-1.365,0,1.593,1.593,0,0,1-1.058-.306.56.56,0,0,1-.212-.579.651.651,0,0,1,.548-.494c.4-.051.813-.074,1.22-.107C1682.891,388.99,1683.133,388.975,1683.4,388.958Z" transform="translate(-1559.451 -356.259)"/><path class="a" d="M1077.13,601.2a2.1,2.1,0,0,1-.7,2.569,2.041,2.041,0,0,1-2.514-.008.8.8,0,0,0-.249-.143.883.883,0,0,1-.636-.831,2.41,2.41,0,0,1,.09-1.461,2.367,2.367,0,0,1,.755-.919,2.81,2.81,0,0,0,.471-.471,1.22,1.22,0,0,1,1.648-.184,3.3,3.3,0,0,1,1.14,1.448m-1.561,1.38-.243.325c.223.109.271-.154.422-.206.035-.012.034-.13.05-.2A1.123,1.123,0,0,1,1075.57,602.584Z" transform="translate(-982.909 -555.956)"/><path class="a" d="M1222.217,597.84a2.637,2.637,0,0,1,1.384,2.179,3.762,3.762,0,0,1,0,1.14,1.82,1.82,0,0,1-1.419,1.383,1.936,1.936,0,0,1-1.216-.145,2.111,2.111,0,0,1-1.117-1.409,1.956,1.956,0,0,1,.358-1.712,4.773,4.773,0,0,1,.843-.86c.146-.123.346-.167.469-.353.153-.229.418-.243.7-.223m-.31,3.328.087.171.213-.232-.224.035A.147.147,0,0,0,1221.907,601.168Z" transform="translate(-1122.154 -554.359)"/><path class="a" d="M927.935,604.82a1.764,1.764,0,0,1,1.7.994,2.5,2.5,0,0,1,.472,1.607,2.083,2.083,0,0,1-1.517,1.846,1.94,1.94,0,0,1-2.067-1.123,2.5,2.5,0,0,1,.083-2.242,2.082,2.082,0,0,1,.529-.6A1.472,1.472,0,0,1,927.935,604.82Z" transform="translate(-843.812 -560.978)"/><path class="a" d="M1586.907,632.673a3.351,3.351,0,0,1,2.01-1.209,3.2,3.2,0,0,1,2.026.143,3.328,3.328,0,0,1,1.35,1.233,2.742,2.742,0,0,1,.387,1.972,2.371,2.371,0,0,1-.4.86,3.1,3.1,0,0,1-1.789,1.458,3.441,3.441,0,0,1-2.243-.018,2.239,2.239,0,0,1-1.018-.891,5.011,5.011,0,0,1-.7-1.817,2.018,2.018,0,0,1,.381-1.73m1.1.451a6.1,6.1,0,0,0-.269.584,1.175,1.175,0,0,0-.041,1.057,10.876,10.876,0,0,0,.707.97,1.493,1.493,0,0,0,2.267-.151.789.789,0,0,1,.771-.432c.071.006.186-.1.223-.175a1.523,1.523,0,0,0,.109-1.1,2.726,2.726,0,0,0-.958-1.4,1.792,1.792,0,0,0-.957-.3.651.651,0,0,0-.75.3c-.04.074-.156.108-.239.158C1588.594,632.8,1588.232,632.805,1588,633.124Z" transform="translate(-1469.935 -586.161)"/></g></g><g transform="matrix(-0.643, -0.766, 0.766, -0.643, 997.956, 428.732)"><path class="a" d="M92.651,18.79h8.808a1.653,1.653,0,0,0,1.651-1.651V6.417a2.734,2.734,0,0,0-.806-1.946l-4.084-4A1.638,1.638,0,0,0,97.055,0h-3.3A2.751,2.751,0,0,0,91.7,4.584,2.732,2.732,0,0,0,91,6.417V17.139A1.653,1.653,0,0,0,92.651,18.79Zm8.877-13.539a1.641,1.641,0,0,1,.482,1.166V17.139a.551.551,0,0,1-.55.55H92.651a.551.551,0,0,1-.55-.55V6.417a1.641,1.641,0,0,1,.482-1.166l.005-.005a2.73,2.73,0,0,0,1.164.259H95.5a1.651,1.651,0,1,0,1.557-1.1h-3.3a1.655,1.655,0,0,1-.279-.024l3.193-3.124a.567.567,0,0,1,.779,0Zm-3.922.8a.55.55,0,1,1-.55-.55A.551.551,0,0,1,97.606,6.055ZM93.752,1.1h1.5L92.483,3.808A1.651,1.651,0,0,1,93.752,1.1Z" transform="translate(0 0)"/><path class="a" d="M185.954,391h-4.4a.55.55,0,1,0,0,1.1h4.4a.55.55,0,1,0,0-1.1Z" transform="translate(-86.697 -376.65)"/><path class="a" d="M181,331.551a.551.551,0,0,0,.551.551h4.4a.551.551,0,1,0,0-1.1h-4.4A.551.551,0,0,0,181,331.551Z" transform="translate(-86.697 -318.852)"/></g><g transform="translate(886.879 398.333) rotate(-12)"><path class="a" d="M92.651,18.79h8.808a1.653,1.653,0,0,0,1.651-1.651V6.417a2.734,2.734,0,0,0-.806-1.946l-4.084-4A1.638,1.638,0,0,0,97.055,0h-3.3A2.751,2.751,0,0,0,91.7,4.584,2.732,2.732,0,0,0,91,6.417V17.139A1.653,1.653,0,0,0,92.651,18.79Zm8.877-13.539a1.641,1.641,0,0,1,.482,1.166V17.139a.551.551,0,0,1-.55.55H92.651a.551.551,0,0,1-.55-.55V6.417a1.641,1.641,0,0,1,.482-1.166l.005-.005a2.73,2.73,0,0,0,1.164.259H95.5a1.651,1.651,0,1,0,1.557-1.1h-3.3a1.655,1.655,0,0,1-.279-.024l3.193-3.124a.567.567,0,0,1,.779,0Zm-3.922.8a.55.55,0,1,1-.55-.55A.551.551,0,0,1,97.606,6.055ZM93.752,1.1h1.5L92.483,3.808A1.651,1.651,0,0,1,93.752,1.1Z" transform="translate(0 0)"/><path class="a" d="M185.954,391h-4.4a.55.55,0,1,0,0,1.1h4.4a.55.55,0,1,0,0-1.1Z" transform="translate(-86.697 -376.65)"/><path class="a" d="M181,331.551a.551.551,0,0,0,.551.551h4.4a.551.551,0,1,0,0-1.1h-4.4A.551.551,0,0,0,181,331.551Z" transform="translate(-86.697 -318.852)"/></g></g></svg>