<svg xmlns="http://www.w3.org/2000/svg" width="193.239" height="170.703" viewBox="0 0 193.239 170.703"><defs><style>.a{fill:#465165;}</style></defs><path class="a" d="M33.7,567.792q-9.068.044-18.077.024c-1.34,0-2.681-.056-4.02-.118-1.187-.054-2.38-.093-3.557-.245a14.238,14.238,0,0,1-5.206-1.383,4.42,4.42,0,0,1-2.235-2.906,16.7,16.7,0,0,1-.478-3.338c-.1-2.222-.114-4.449-.129-6.674-.006-1.006.065-2.012.112-3.018.073-1.56.159-3.12.233-4.68.045-.947.074-1.894.121-2.841a15.314,15.314,0,0,0,.1-1.72C.5,539.762.34,538.634.232,537.5a1.119,1.119,0,0,1,.375-1.139c.388-.273.7-.131,1.062.127a1.2,1.2,0,0,0,.823.095c1.239-.223,2.464-.524,3.706-.722,1.5-.24,3.019-.416,4.532-.6.888-.105,1.781-.173,2.674-.238,1.72-.126,3.441-.237,5.161-.357,1.069-.075,2.136-.191,3.205-.228q2.864-.1,5.731-.122c5.056-.049,10.112-.1,15.167-.114,2.185-.007,4.371.066,6.557.112,1.458.031,2.916.075,4.375.117q1.951.055,3.9.118c1.1.036,2.209.071,3.313.119,1.639.072,3.276.171,4.916.231,2.562.092,5.124.208,7.687.227,2.618.019,5.236-.062,7.854-.106,1.93-.033,3.86-.108,5.79-.108,1.969,0,3.939.064,5.908.112q1.716.041,3.431.119c1.462.067,2.924.141,4.384.237,1.564.1,3.127.223,4.69.353,1.25.1,2.5.194,3.745.361a39.321,39.321,0,0,1,4.241.73,4.919,4.919,0,0,1,1.96,1.067,24.053,24.053,0,0,1,2.644,2.72,11.561,11.561,0,0,1,2.121,4.362,20.277,20.277,0,0,1,.591,3.115c.144,1.237.181,2.488.247,3.734.021.393.2.537.58.545,1.3.029,2.6.064,3.9.117,1.678.068,3.355.161,5.034.232q3.077.129,6.154.235c1.6.053,3.191.083,4.787.12q2.6.061,5.2.118c2.028.042,4.057.065,6.085.123,2.17.061,4.342.1,6.507.25,1.517.1,3.031.331,4.532.587,1.054.179,1.3.744,1.228,1.51a1.6,1.6,0,0,1-1.455,1.187c-1.383.082-2.765.173-4.149.232s-2.759.09-4.138.121c-2.008.045-4.017.11-6.026.111-1.91,0-3.821-.067-5.731-.11-1.557-.035-3.113-.088-4.669-.115-2.756-.047-5.511-.074-8.267-.124-1.026-.018-2.053-.055-3.077-.119-1.623-.1-3.245-.23-4.867-.35-.476-.035-.951-.11-1.425-.1a.583.583,0,0,0-.42.361,14.421,14.421,0,0,1-.965,3.731c-.441.862-1.009,1.667-1.379,2.555a6.348,6.348,0,0,1-1.274,2.068,5.341,5.341,0,0,1-3.261,1.515c-1.4.179-2.809.261-4.216.364-.827.061-1.657.1-2.487.118q-3.72.074-7.441.12c-3.621.045-7.241.116-10.862.111-5.469-.007-10.937-.065-16.406-.112-3.4-.029-6.809-.106-10.213-.107-3.07,0-6.141.064-9.211.112-1.458.023-2.916.078-4.375.115q-2.423.062-4.846.119-2.394.059-4.787.118-2.571.061-5.141.121a.627.627,0,0,0-.242.086m-17.843-7.4a12.7,12.7,0,0,1-1.593-.429,10.726,10.726,0,0,1-3.349-1.9,7.9,7.9,0,0,1-2.089-2.788,10.518,10.518,0,0,1-.719-2.657,11.49,11.49,0,0,1,.186-4.443,8.339,8.339,0,0,1,2.515-4.316c.272-.237.331-.476.08-.693a.893.893,0,0,1-.109-1.434c.037-.044-.073-.315-.136-.323-1.03-.138-2.061-.317-3.1-.353a10.624,10.624,0,0,1-4.8-1.1c-.4-.214-.537-.058-.512.331.02.319.113.637.107.954-.024,1.4-.066,2.8-.114,4.2-.024.692-.081,1.383-.114,2.074-.082,1.7-.2,3.394-.227,5.092-.04,2.1-.079,4.21.016,6.309a22.207,22.207,0,0,0,.585,3.821,2.668,2.668,0,0,0,1.766,1.914c2.278.927,4.686.943,7.069,1.153.963.085,1.932.1,2.9.123,1.674.047,3.349.118,5.023.112,2.874-.01,5.747-.069,8.621-.11,2.6-.037,5.2-.073,7.795-.12,1.517-.027,3.034-.078,4.551-.115,1.714-.042,3.427-.077,5.141-.119,1.458-.036,2.916-.08,4.374-.117,1.635-.042,3.27-.116,4.905-.112q17.432.042,34.865.111c2.084.007,4.168-.016,6.251.012a.866.866,0,0,0,1-.684.887.887,0,0,1,.661-.486c3.428-.068,6.861.115,10.281-.259,1.025-.112,2.214.054,2.512-1.385,0-.016.028-.027.04-.042a7.528,7.528,0,0,0,1.455-3.053c.237-1.047.379-2.118.65-3.156.12-.462-.083-.574-.4-.611-.609-.071-1.225-.085-1.837-.128a1.7,1.7,0,0,1-1.426-.692,1.362,1.362,0,0,0-.792-.469,10.959,10.959,0,0,0-1.54-.134,1.078,1.078,0,0,1-.943-.694c-.189-.39,0-.668.224-.97a1.77,1.77,0,0,1,1.592-.568c1.517,0,3.034.064,4.551.108.56.016.84-.189.755-.6-.23-1.1-.435-2.212-.714-3.3a15.335,15.335,0,0,0-2-4.889c-.563-.834-1.142-1.659-1.761-2.451a2.021,2.021,0,0,0-.825-.55c-2.169-.88-4.526-.8-6.778-1.279a29.649,29.649,0,0,0-3.858-.376c-1.263-.1-2.53-.159-3.794-.241-.515-.033-1.03-.072-1.543-.118-1.7-.154-3.407-.328-5.113-.466-1.263-.1-2.529-.164-3.794-.24-1.363-.081-2.727-.152-4.089-.238-1.108-.07-2.215-.167-3.323-.231-1.539-.09-3.079-.188-4.62-.228-.867-.022-1.736.075-2.6.105q-1.98.069-3.961.119c-1.753.044-3.506.077-5.259.12q-2.217.054-4.433.119c-1.085.033-2.169.074-3.254.118-.869.035-1.737.078-2.605.117-1.737.079-3.473.161-5.21.235-1.1.047-2.209.074-3.313.122-.515.023-1.03.066-1.543.117-1.508.152-3.015.313-4.523.47-.754.079-1.509.147-2.261.238-1.233.149-2.464.318-3.7.467-.752.091-1.509.149-2.26.248-.13.017-.242.167-.363.256a2.4,2.4,0,0,1,.268.21,31.092,31.092,0,0,1,3.317,3.523,10.737,10.737,0,0,1,2.086,4.794,10.106,10.106,0,0,1-.144,3.894,9.3,9.3,0,0,1-1.573,3.178,11.379,11.379,0,0,1-3.289,3.117,13.536,13.536,0,0,1-7,1.893c-.908,0-1.815-.072-2.841-.112m1.062-1.769a8.276,8.276,0,0,0,1.365.1,17.215,17.215,0,0,0,2.621-.357,11.142,11.142,0,0,0,3.973-1.509c1.055-.744,1.407-1.388.93-2.344a5.4,5.4,0,0,0-2.5-2.581,1.934,1.934,0,0,0-1.175-.246,10.192,10.192,0,0,0-3.187,1.264c-1.847,1.251-3.827,2.334-5.118,4.259-.233.347-.213.475.188.587.932.26,1.856.546,2.9.821m-5.25-19.17c.872-.125,1.755-.2,2.614-.386a22.491,22.491,0,0,1,5.119-.744,21.346,21.346,0,0,0,2.722-.12c1.754-.2,3.5-.468,5.252-.695q1.964-.254,3.933-.471c1.565-.17,3.131-.343,4.7-.467,1.439-.114,2.883-.162,4.324-.249a1.213,1.213,0,0,0,.356-.145c-.121-.068-.243-.2-.362-.194-1.2.024-2.4.088-3.608.1-3.542.049-7.084.063-10.625.129-1.993.037-3.985.139-5.977.233-1.187.056-2.374.14-3.559.235-1.27.1-2.537.226-3.8.352-1.508.15-3.018.293-4.522.476-1.4.17-2.787.384-4.178.592-.1.016-.193.145-.288.221.091.081.172.211.276.234a20.748,20.748,0,0,0,2.281.468c1.759.2,3.525.327,5.347.425m3.6,1.946c.028-.028.051-.072.084-.081a13.276,13.276,0,0,1,4.436-.371,4.556,4.556,0,0,1,1.568.467c.611.285.653.587.4,1.186a.624.624,0,0,0,.114.546,7.23,7.23,0,0,1,1.5,2.215,6.4,6.4,0,0,1,.573,3.735c-.171.9-.12.853.689,1.4a7.624,7.624,0,0,1,2.615,2.749,5.681,5.681,0,0,0,.466.658q.178-.321.356-.643c.009-.016.026-.028.037-.044A5.731,5.731,0,0,0,29,550.288a7.607,7.607,0,0,0-.983-4,11.972,11.972,0,0,0-4.707-5.187,6.1,6.1,0,0,0-2.64-.83,33.389,33.389,0,0,0-4.343.424,6.3,6.3,0,0,0-3.485,1.258,1.728,1.728,0,0,0-.27.4,2.393,2.393,0,0,0,.525-.087c.69-.279,1.372-.578,2.175-.87m1.475,7.609c-.157-.348-.319-.694-.471-1.043a6.613,6.613,0,0,1-.212-2.968,2.63,2.63,0,0,1,.765-1.975c.052-.046.065-.136.1-.205-.12-.038-.257-.132-.358-.1-.295.086-.573.229-.862.336a8.607,8.607,0,0,0-4.108,2.73,7.771,7.771,0,0,0-1.684,4.666,18.451,18.451,0,0,0,.117,2.25A6.555,6.555,0,0,0,11.5,556.03a1.538,1.538,0,0,0,.248.209,1.906,1.906,0,0,0,.152-.349,9.789,9.789,0,0,1,.374-1.733,6.6,6.6,0,0,1,4.169-4.152c.749-.225.745-.24.3-1m100.037-1.3c-.393-1.309-.7-2.652-1.2-3.918a5.851,5.851,0,0,0-2.355-3.189c-.243-.14-.558-.312-.643-.542-.4-1.093-1.416-.912-2.235-1.132-.082-.022-.191.058-.288.091.076.1.132.238.232.3a8.242,8.242,0,0,1,1.084.639,10.087,10.087,0,0,1,2.787,3.727,26.151,26.151,0,0,1,1.186,3.333c.4,1.517.634,3.074.98,4.605.053.233.319.418.487.626.147-.127.4-.239.42-.382a4.684,4.684,0,0,0,0-1.226c-.126-.942-.3-1.877-.447-2.934M21.168,545.29c-.36-.354-.711-.718-1.088-1.054-.083-.074-.257-.046-.389-.065-.008.148-.068.319-.015.44q.938,2.143,1.911,4.27a1.845,1.845,0,0,0,.325.383c.086-.18.243-.358.248-.54a5.946,5.946,0,0,0-.991-3.435m-3.126,2.182c.361.479.713.964,1.09,1.428.059.073.236.05.359.072a1.1,1.1,0,0,0-.044-.323c-.1-.215-.246-.408-.34-.625-.324-.749-.625-1.507-.954-2.253-.058-.132-.212-.221-.321-.33-.048.1-.15.206-.134.292.1.543.227,1.081.345,1.739m98.622,10.381c.109-.463.237-.923.317-1.392.023-.133-.093-.29-.145-.437-.1.095-.254.175-.279.286-.139.611-.25,1.229-.358,1.847-.012.068.061.15.095.226.077-.051.179-.086.223-.158.055-.089.061-.208.148-.373m-101.1-4.837c.432-.275.869-.544,1.294-.831.087-.059.126-.188.187-.284-.133-.028-.308-.123-.394-.071a17.027,17.027,0,0,0-1.421.949c-.107.08-.118.289-.174.438A2.953,2.953,0,0,0,15.564,553.016Z" transform="translate(0 -471.188)"/><path class="a" d="M198.82,868.03c-2.422.039-4.784.091-7.147.115-4.623.048-9.247.075-13.87.124-1.4.015-2.8.059-4.2.119-1.305.056-2.611.123-3.912.238-1.926.17-3.862.3-5.768.608-1.685.272-3.338.749-5,1.17a.909.909,0,0,0-.554.49c-.284.811-.454.952-1.234.657-.265-.1-.255-.128-.335.159-.154.557-.438,1.077-.618,1.628a3.3,3.3,0,0,0-.13.948c-.03,1.434-.042,2.869-.059,4.3a6.841,6.841,0,0,0,0,.707c.152,1.646.295,3.293.473,4.936a28.982,28.982,0,0,0,1.9,7.408,6.273,6.273,0,0,0,3.9,3.743,45.675,45.675,0,0,0,4.416,1.293c1.071.256,2.185.335,3.28.491,1.393.2,2.785.4,4.179.587.433.059.871.094,1.307.119.848.048,1.7.1,2.546.116,3.267.049,6.534.076,9.8.125,1.321.02,2.642.067,3.962.117q2.783.106,5.564.236c1.384.066,2.766.151,4.149.235,1.187.072,2.372.168,3.559.232,1.7.09,3.394.207,5.092.226s3.427-.062,5.141-.106c1.281-.033,2.563-.077,3.844-.117s2.563-.075,3.844-.119c.967-.033,1.934-.076,2.9-.117l5.505-.236c.868-.038,1.737-.083,2.605-.117q1.745-.066,3.49-.119c1.3-.042,2.6-.085,3.9-.117,1.871-.045,3.742-.079,5.613-.12q2.689-.058,5.377-.118c1.635-.037,3.271-.061,4.905-.126.658-.026,1.312-.146,1.966-.231.086-.011.162-.083.247-.113a11.365,11.365,0,0,0,2-1.947,12.2,12.2,0,0,0,1.419-3.188c.209-1.068.483-2.123.676-3.193.026-.145-.232-.373-.4-.509-.084-.067-.266-.01-.4-.012-2.834-.039-5.669-.089-8.5-.109a1.1,1.1,0,0,1-1-.776c-.1-.208.137-.574.231-.865a1.492,1.492,0,0,1,.137-.251,1.259,1.259,0,0,0-.3-.118q-.682-.074-1.366-.121a1.081,1.081,0,0,1-.976-.93c-.169-.621.28-1,.691-1.351a.736.736,0,0,1,.435-.077q4.217-.006,8.434,0c.852,0,1.7-.01,2.556,0,.448.008.629-.187.616-.627-.016-.57-.025-1.141,0-1.71.067-1.541.06-3.093.256-4.618a12.375,12.375,0,0,1,1.759-5.336,2.272,2.272,0,0,1,2.262-1.159,2.02,2.02,0,0,1,1.533,1.252,7.945,7.945,0,0,1,.783,3.271c.114,1.7.223,3.394.224,5.092a19.918,19.918,0,0,1-.341,2.978c-.1.682,0,.852.677.852,1.494,0,2.988-.01,4.482,0q5.962.05,11.924.12c1.419.018,2.84.043,4.256.127a10.567,10.567,0,0,1,2.209.356,1.85,1.85,0,0,1,1.588,2.007,2.016,2.016,0,0,1-1.853,1.512c-1.167.14-2.338.263-3.51.355-5.761.454-11.534.162-17.3.232-1.064.013-2.131-.05-3.194-.12-.5-.033-.691.244-.8.63a7.856,7.856,0,0,1-1.835,3.561,13.383,13.383,0,0,0-1.244,2.064,12.756,12.756,0,0,1-3.07,3.5,8.368,8.368,0,0,1-3.573,1.33c-1.176.2-2.375.279-3.567.365-1.479.106-2.962.17-4.443.241-1.776.085-3.552.152-5.328.24-1.383.068-2.766.15-4.149.235-1.147.071-2.294.161-3.441.233-1.343.084-2.686.174-4.031.233s-2.68.1-4.021.118q-6.994.074-13.988.115c-1.1.006-2.209-.07-3.313-.112-.986-.037-1.972-.094-2.959-.114-2.441-.049-4.882-.107-7.323-.113-1.792,0-3.585.091-5.377.106q-9.353.074-18.706.115c-1.6.006-3.192-.072-4.787-.111s-3.192-.06-4.787-.124c-1.188-.048-2.376-.12-3.559-.236a19.251,19.251,0,0,1-6.811-1.637,9.188,9.188,0,0,1-3.041-2.573,16.154,16.154,0,0,1-2.733-6.528c-.648-2.64-1.341-5.269-1.951-7.918a32.072,32.072,0,0,1-.516-3.443,19.966,19.966,0,0,1-.121-2.25,6.241,6.241,0,0,1,2.386-5.3,11.242,11.242,0,0,1,2.749-1.459,10.749,10.749,0,0,0,3.374-1.841,7.364,7.364,0,0,1,3.518-1.592c1.666-.32,3.344-.588,5.024-.828,1.163-.166,2.338-.256,3.509-.36,1.444-.129,2.89-.238,4.336-.357,1.426-.117,2.851-.244,4.277-.351q1.808-.136,3.618-.236,2.339-.131,4.68-.236c1.143-.051,2.287-.079,3.431-.121.986-.036,1.972-.09,2.959-.115,1.91-.048,3.82-.1,5.731-.117q8.586-.074,17.173-.115c1.34-.005,2.68.07,4.021.112q1.745.055,3.49.118c1.026.037,2.051.078,3.077.117,1.045.04,2.092.129,3.136.106,1.522-.033,3.041-.146,4.562-.224,1.54-.079,3.08-.168,4.621-.233,1.3-.055,2.6-.1,3.9-.117q6.876-.074,13.752-.115c1.124-.006,2.25.042,3.371.121a17.985,17.985,0,0,1,2.34.329.7.7,0,0,1,.53.97,1.393,1.393,0,0,1-.85.781,29.648,29.648,0,0,1-3.141.265c-1.677.093-3.355.162-5.033.239-.908.042-1.815.09-2.723.116q-2.452.071-4.905.119c-2.205.044-4.41.1-6.616.111-1.517,0-3.035-.057-4.551-.113-1.737-.064-3.473-.173-5.211-.226-1.185-.036-2.373-.037-3.558,0s-2.373.143-3.559.229c-1.544.112-3.087.235-4.631.352l-4.69.354q-2.315.176-4.631.354c-1.446.114-2.89.244-4.336.351-1.739.128-3.48.236-5.22.359-.34.024-.679.076-1.077.116m-31.2,30.672c-.121-.039-.24-.089-.365-.116-1.461-.317-2.938-.572-4.379-.963a9.747,9.747,0,0,1-3.67-1.8,11.235,11.235,0,0,1-3.543-6.248c-.443-1.737-.765-3.508-1.066-5.277a32.257,32.257,0,0,1-.466-3.989c-.078-1.8-.056-3.616,0-5.423a21.265,21.265,0,0,1,.349-2.443c.01-.068.024-.188,0-.2-.1-.043-.249-.107-.309-.063a6.427,6.427,0,0,0-1.148.918,4.982,4.982,0,0,0-1.135,2.821,17.134,17.134,0,0,0,.365,4.8c.266,1.4.684,2.778,1.037,4.165.589,2.311,1.155,4.627,1.778,6.929a9.564,9.564,0,0,0,2.253,4.252c1.66,1.725,3.842,2.282,6.1,2.633.805.125,1.623.167,2.436.244,1.268.119,2.536.239,3.8.344.083.007.176-.113.264-.174-.072-.057-.139-.154-.218-.165-.654-.09-1.31-.163-2.083-.242m14.982-32.8c-.947.039-1.9.06-2.84.124-.736.049-1.47.142-2.2.24-.117.016-.218.158-.326.241a1.15,1.15,0,0,0,.344.1c.653-.028,1.3-.082,1.956-.111,1.052-.047,2.1-.1,3.156-.116,4.269-.049,8.538-.066,12.806-.131,1.58-.024,3.159-.142,4.738-.229,1.246-.069,2.49-.166,3.736-.231,1.716-.089,3.434-.159,5.15-.241a.832.832,0,0,0,.324-.069,2.623,2.623,0,0,0,.35-.244,1.173,1.173,0,0,0-.408-.15c-1.442.066-2.883.182-4.326.221-2.46.066-4.921.08-7.381.127-1.419.027-2.837.073-4.256.117-1.124.034-2.248.076-3.371.118-.986.037-1.972.085-2.959.116-1.458.046-2.916.08-4.492.12m83.7,13.979c0,1.16.013,2.32-.008,3.479-.006.357.06.566.463.6.429.034.776-.125.828-.529a39.014,39.014,0,0,0,.456-4.52c.017-1.6-.2-3.2-.33-4.806-.008-.1-.1-.191-.16-.286-.1.108-.265.2-.3.325A21.265,21.265,0,0,0,266.3,879.885Z" transform="translate(-132.293 -761.369)"/><path class="a" d="M232.684,163.79c1.783-.157,3.507-.32,5.231-.47q1.542-.134,3.087-.236c1.838-.124,3.677-.235,5.516-.357,1.089-.072,2.176-.158,3.264-.234,1.7-.12,3.4-.241,5.1-.353q1.956-.129,3.913-.236c1.56-.085,3.12-.159,4.68-.237s3.119-.18,4.68-.23q2.924-.095,5.849-.12,8.469-.074,16.938-.115c1.537-.006,3.074.068,4.611.112q1.716.049,3.431.118,2.9.113,5.8.236c1.776.075,3.553.149,5.329.238,1.344.067,2.688.151,4.031.235,1.167.073,2.335.14,3.5.239,1.666.142,3.332.293,4.995.473,1.592.173,3.188.339,4.768.6a49.308,49.308,0,0,1,6.445,1.369,4.974,4.974,0,0,1,3.685,4.25c.247,1.374.362,2.774.481,4.167.15,1.757.284,3.518.35,5.28.058,1.558.032,3.12,0,4.679-.01.5.113.677.644.664,1.474-.037,2.949-.026,4.423-.01,2.6.029,5.2.043,7.8.127,1.585.052,3.169.2,4.749.35a34.015,34.015,0,0,1,3.459.481,1.605,1.605,0,0,1,1.355,1.518,1.714,1.714,0,0,1-1.593,1.648c-.039,0-.079,0-.118,0-1.753.039-3.507.073-5.26.12-1.026.028-2.053.127-3.077.1-1.8-.039-3.592-.144-5.388-.225q-2.517-.114-5.034-.236c-.751-.036-1.5-.072-2.251-.12-.414-.026-.6.2-.762.548a3.864,3.864,0,0,1-1.142,1.663c-.3.221-.382.769-.493,1.188-.189.713-.309,1.444-.491,2.159a.9.9,0,0,1-.339.5,7.969,7.969,0,0,1-4.284,1.629c-1.422,0-2.845.146-4.267.219-.927.047-1.855.073-2.782.121-1.4.072-2.805.156-4.208.234s-2.805.162-4.208.235c-1.619.084-3.238.166-4.857.235-1.241.052-2.484.083-3.726.12-1.419.042-2.838.092-4.257.116-2.874.048-5.748.1-8.622.113-1.262.007-2.524-.064-3.785-.112-1.875-.072-3.749-.163-5.624-.232-1.438-.052-2.877-.118-4.316-.112-2.618.011-5.237.108-7.855.1-5.115-.012-10.231-.112-15.346-.092-2.35.009-4.7.246-7.05.327-2.224.077-4.454.191-6.674.094-1.875-.081-3.739-.433-5.606-.678-1.414-.186-2.824-.4-4.239-.585-1.627-.21-3.27-.328-4.883-.614-1.326-.235-2.635-.67-3.239-2.058a13.436,13.436,0,0,1-.592-2.054c-.105-.413-.156-.839-.247-1.256-.013-.061-.158-.152-.163-.148-.108.1-.271.208-.291.333a4.709,4.709,0,0,0,.561,3.5,4.441,4.441,0,0,0,2.2,1.659,20.8,20.8,0,0,0,3.409.738c.5.085,1.047-.055,1.546.041.282.055.511.382.764.586-.226.277-.4.72-.686.8a7.533,7.533,0,0,1-2.273.33,11.389,11.389,0,0,1-2.633-.459,7.215,7.215,0,0,1-3.834-2.534,4.526,4.526,0,0,1-.958-2.548,13.784,13.784,0,0,1,1.119-5.553,4.877,4.877,0,0,0,.04-1.7c-.025-1.35-.08-2.7-.088-4.05a15.2,15.2,0,0,1,.119-2.014c.169-1.318.38-2.631.583-3.944.189-1.217.379-2.435.592-3.648a11.614,11.614,0,0,1,1.05-3.753,4.281,4.281,0,0,1,2.248-1.633,1.1,1.1,0,0,0,.569-.537,1.025,1.025,0,0,1,.876-.732c.863-.134,1.741-.173,2.613-.254.359-.034.716-.078,1.133-.117m10.912,30.2c.475.039.949.1,1.425.115,1.222.049,2.444.085,3.667.121,1.438.042,2.878.129,4.315.107,2.17-.034,4.339-.137,6.508-.227,1.5-.063,3-.171,4.5-.228,1.556-.06,3.113-.134,4.669-.112,2.818.04,5.636.134,8.454.23,1.541.052,3.08.156,4.621.23,1.717.083,3.433.19,5.151.225,1.083.022,2.169-.091,3.254-.1,4.584-.049,9.168-.076,13.752-.125,2.127-.023,4.253-.076,6.38-.115,2.166-.04,4.332-.061,6.5-.124,1.777-.051,3.555-.118,5.328-.24,1.609-.111,3.218-.264,4.817-.473,1.74-.227,3.473-.521,5.2-.83.37-.066.809-.175.94-.656.352-1.289.662-2.592,1.085-3.858.151-.452-.092-.473-.323-.534a4.951,4.951,0,0,0-.951-.125c-1.363-.085-2.726-.173-4.09-.235-1.248-.057-2.5-.088-3.746-.119a1.348,1.348,0,0,1-1.3-1.042,1.648,1.648,0,0,1,1.029-1.43,16.587,16.587,0,0,1,2.389-.347c2.282-.08,4.567-.093,6.851-.132.1,0,.219.036.29-.008a.969.969,0,0,0,.4-.353,2.139,2.139,0,0,0,.128-.712c.086-1.481.2-2.961.23-4.443.039-2.142.012-4.285.005-6.428a1.991,1.991,0,0,0-.1-.487c-.24-.905-1.019-1.01-1.751-1.128-1.609-.259-3.225-.475-4.836-.716-1.813-.271-3.622-.572-5.439-.818-1.684-.228-3.374-.4-5.063-.6-1.785-.2-3.571-.4-5.359-.589-1.247-.131-2.5-.237-3.746-.357-1.626-.156-3.251-.32-4.877-.47-1.366-.126-2.733-.238-4.1-.355-1.386-.119-2.772-.239-4.159-.353q-2.226-.183-4.454-.354c-1.583-.122-3.165-.244-4.749-.352q-1.985-.135-3.972-.236c-1.005-.052-2.012-.088-3.018-.119-1.517-.046-3.034-.118-4.551-.113q-13.953.041-27.906.117c-.593,0-1.186.076-1.779.113-1.937.119-3.874.23-5.81.357-.971.064-1.944.124-2.909.241-1.4.168-2.785.4-4.18.579a20.925,20.925,0,0,0-4.526,1.034,1.584,1.584,0,0,0-1.115,1.115c-.308,1.195-.606,2.4-.825,3.609-.282,1.565-.447,3.151-.728,4.716a29.172,29.172,0,0,0-.457,5.881,1.164,1.164,0,0,0,.772,1.273,2.215,2.215,0,0,1,.939.824.85.85,0,0,1,.033.8,3.183,3.183,0,0,0-.4,2.877c.356,2.173,1.977,3.335,3.9,4.05s3.971.449,5.954.715c.925.124,1.861.158,2.791.245,1.606.151,3.212.313,4.936.47m79.983-26.9c1.33.157,2.665.286,3.99.48,1.381.2,2.754.463,4.13.7a12.9,12.9,0,0,1,3.634.765c.049.024.268-.159.26-.176a3.255,3.255,0,0,0-1.811-2.03,40.6,40.6,0,0,0-7.286-1.616c-1.282-.212-2.579-.339-3.871-.478q-2.405-.259-4.816-.472c-1.125-.1-2.253-.167-3.38-.238q-2.014-.127-4.029-.236-2.486-.129-4.973-.236c-1.972-.085-3.944-.159-5.916-.237-1.025-.041-2.05-.086-3.076-.117-1.516-.046-3.033-.081-4.55-.119-1.556-.04-3.112-.083-4.668-.117-2.047-.044-4.094-.106-6.142-.111-1.6,0-3.19.07-4.786.109a.7.7,0,0,0-.234.005,2.223,2.223,0,0,0-.313.19c.1.053.191.149.289.152,1.713.048,3.427.071,5.139.128,1.855.062,3.709.135,5.562.238,1.623.091,3.244.227,4.865.349,1.524.114,3.046.239,4.57.352,1.146.085,2.293.158,3.44.238.534.037,1.069.068,1.6.119,1.586.152,3.171.319,4.757.468.969.091,1.941.146,2.909.241,1.469.145,2.935.319,4.4.466.929.093,1.864.133,2.79.245,1.435.173,2.863.4,4.3.581C321.4,166.87,322.429,166.975,323.579,167.093Z" transform="translate(-195.649 -142.185)"/><path class="a" d="M243.753,944.9a10.644,10.644,0,0,1,1.056-1.952,20.745,20.745,0,0,1,2.14-1.912,3.03,3.03,0,0,0,.713-.664,4.327,4.327,0,0,1,3.451-2.051,10,10,0,0,1,7.548,2.162,11.043,11.043,0,0,1,4.7,7.266,14.25,14.25,0,0,1,.335,2.8,10.676,10.676,0,0,1-2.131,6.474,9.407,9.407,0,0,1-5.769,3.685,11.9,11.9,0,0,1-7.312-1.011,9.163,9.163,0,0,1-4.409-4.284,10.211,10.211,0,0,1-1-3.95,24.134,24.134,0,0,1-.1-2.84,10.112,10.112,0,0,1,.777-3.724m11.826,13.891a8.559,8.559,0,0,0,3.094-1.516,1.065,1.065,0,0,0,.434-.882,4.016,4.016,0,0,0-1.579-2.922,3.73,3.73,0,0,0-3.439-1.119c-.339.068-.73-.07-1.051.032a8.968,8.968,0,0,0-5.367,4.221c-.12.216-.122.318.108.485a8.968,8.968,0,0,0,3.262,1.516,16.853,16.853,0,0,0,2.574.455,7.663,7.663,0,0,0,1.963-.271m1.887-10.263a4.653,4.653,0,0,1-.217,2.035c-.053.1.1.4.23.49a9.31,9.31,0,0,1,2.915,2.994c.119.193.264.371.4.556a4.6,4.6,0,0,0,.3-.62,8.9,8.9,0,0,0,.619-4.713,16.547,16.547,0,0,0-.848-3.184,10.773,10.773,0,0,0-6.125-5.594,1.387,1.387,0,0,0-.637-.144c-.147.018-.271.22-.406.339.135.077.264.209.4.222,1.039.1,1.3.476,1.04,1.471a.6.6,0,0,0,.169.436,9.06,9.06,0,0,1,2.162,5.711m-7.078-6.96a8.164,8.164,0,0,0-3.273,1.623c-1.62,1.442-2.069,3.4-2.257,5.42a13.787,13.787,0,0,0,.577,5.113,3.607,3.607,0,0,0,.168.4,3.007,3.007,0,0,0,.3-.394,11.942,11.942,0,0,1,.754-1.45,8.5,8.5,0,0,1,2.666-2.708c.094-.052.139-.32.1-.462-.171-.671-.388-1.331-.569-2a4.612,4.612,0,0,1,.6-3.42,4.128,4.128,0,0,1,2.107-2.074c.1-.038.139-.208.206-.317a1.264,1.264,0,0,0-.366-.034,6.578,6.578,0,0,0-1.017.3M255.108,949a5.117,5.117,0,0,0-.088-.788,5.711,5.711,0,0,0-1.653-2.377,4.413,4.413,0,0,1-1.342-1.976c-.014-.062-.286-.129-.4-.087s-.206.213-.294.336a4.143,4.143,0,0,0,.912,5.567,1.665,1.665,0,0,0,2.861-.675m-5.427,2.949c.294-.177.594-.346.88-.536.063-.042.077-.158.114-.24-.08-.032-.191-.115-.235-.088-.358.217-.7.455-1.052.686A.5.5,0,0,0,249.681,951.948Z" transform="translate(-214.298 -827.533)"/><path class="a" d="M1469.826,15.471a7.968,7.968,0,0,1-3.961,3.9,10.169,10.169,0,0,1-5.575,1.031,8.578,8.578,0,0,1-3.549-.806,16,16,0,0,1-2.336-1.465,8.516,8.516,0,0,1-3.081-5.2,15.049,15.049,0,0,1-.223-3.259,8.5,8.5,0,0,1,.576-2.463,21.677,21.677,0,0,1,1.426-3.239A7.834,7.834,0,0,1,1456.49.879,8.312,8.312,0,0,1,1460.557,0a7.718,7.718,0,0,1,4.606,1.694,13.383,13.383,0,0,1,4.259,5.291,10.243,10.243,0,0,1,.872,3.412,15.066,15.066,0,0,1,.1,2.484,23.086,23.086,0,0,1-.564,2.589m-5.9-13.036a8.8,8.8,0,0,0-1.463-.731,6.6,6.6,0,0,0-2.439-.459,18.629,18.629,0,0,0-3.267.9,2.052,2.052,0,0,0-.477.309,4.157,4.157,0,0,1,.523.16c.181.081.441.166.491.31a.714.714,0,0,1-.2.541,1.177,1.177,0,0,1-.509.319,4.483,4.483,0,0,0-3.258,4.461,36.874,36.874,0,0,0,.471,4.047,9.9,9.9,0,0,0,.585,1.817c.037.1.291.235.333.2,1-.743,1.962-1.525,2.963-2.26.791-.581,1.622-1.107,2.436-1.657.09-.06.182-.116.273-.174a1.843,1.843,0,0,0-.242-.241,9.176,9.176,0,0,1-1.414-.976c-.693-.7-.7-1.326.138-1.949a14.322,14.322,0,0,1,4.864-2.175,1.085,1.085,0,0,0,.769-.548c.287-.517.563-.571,1.014-.192.248.208.493.42.745.623a.826.826,0,0,0,.2.088c0-.08.026-.176-.008-.238a1.33,1.33,0,0,0-.29-.408c-.719-.58-1.45-1.144-2.236-1.773m1.18,3.775q-.416.652-.833,1.3c-.212.331-.339.644,0,.991a4.631,4.631,0,0,1,.619.8c1.008,1.631.827,3.046-.992,3.849a31.269,31.269,0,0,1-8.26,2.67c-.331.046-.508.209-.3.55.135.222.3.425.445.641a3.929,3.929,0,0,0,3.3,1.743,8.125,8.125,0,0,0,3.758-1.008,21.658,21.658,0,0,0,3.488-2.084,4.991,4.991,0,0,0,1.459-1.793,5.679,5.679,0,0,0,.151-4.419,8.946,8.946,0,0,0-2-3.234c-.223-.242-.477-.477-.834-.013m-5.073,5.78a3.755,3.755,0,0,1-.35.293c-.786.515-1.582,1.017-2.361,1.543-.115.078-.161.259-.238.393a1.459,1.459,0,0,0,.392-.031c1.823-.669,3.637-1.359,5.464-2.015,1.073-.385,1.432-1.005.982-1.848a3.985,3.985,0,0,0-.64-.967c-.972-.963-.764-1.557.015-2.637.077-.107.145-.222.218-.333-.173-.024-.379-.12-.515-.06-.8.353-1.586.725-2.357,1.13a6.207,6.207,0,0,0-.845.639c.3.256.59.533.911.762.388.278.839.476,1.2.782a.554.554,0,0,1-.014.958c-.6.447-1.2.889-1.862,1.391m8.022,4.247.029-.325a.837.837,0,0,0-.247.076q-1.543,1.093-3.077,2.2a1.731,1.731,0,0,0-.245.269,1.406,1.406,0,0,0,.383-.011A7.76,7.76,0,0,0,1468.056,16.238Z" transform="translate(-1279.904 0)"/><path class="a" d="M1422.312,1217.706a8.259,8.259,0,0,1,3.288-.267,11.672,11.672,0,0,1,3.006.74,15.017,15.017,0,0,1,3.473,2.019.869.869,0,0,0,.7.162,1.644,1.644,0,0,1,2.149.606,16.44,16.44,0,0,1,2.578,6.181,16.019,16.019,0,0,1,.234,3.26,12.214,12.214,0,0,1-1.254,5.252,20.463,20.463,0,0,1-2.778,4.1,12.9,12.9,0,0,1-3.074,2.818,10.77,10.77,0,0,1-4.557,1.671,21.594,21.594,0,0,1-2.438.218,10.816,10.816,0,0,1-6.164-1.758,11.091,11.091,0,0,1-3.423-3.842,33.706,33.706,0,0,1-1.663-3.556,11.4,11.4,0,0,1-.679-5.194,12.442,12.442,0,0,1,1.107-4.077,15.966,15.966,0,0,1,3.952-5.2,15.222,15.222,0,0,1,5.3-3.135.937.937,0,0,1,.236,0m11.679,17.164a1.6,1.6,0,0,1,.127-.242,9.463,9.463,0,0,0,1.735-4.465,7.7,7.7,0,0,0-.856-4.408,12.7,12.7,0,0,0-4.891-5.338,10.585,10.585,0,0,0-5.4-1.752,13.316,13.316,0,0,0-2.142.231c-.132.019-.246.168-.368.258a1.771,1.771,0,0,1,.358.208c.245.232.663.489.656.726a.573.573,0,0,1-.8.435,3.011,3.011,0,0,0-2.83.407,8.858,8.858,0,0,0-3.256,2.8c-1.822,2.624-3.1,5.414-2.834,8.689a8.009,8.009,0,0,0,.647,2.5,8.134,8.134,0,0,0,2.916,3.441,10.647,10.647,0,0,0,5.255,1.963,18.393,18.393,0,0,0,3.731-.217,10.669,10.669,0,0,0,4.2-1.517,10.866,10.866,0,0,0,3.752-3.718m-6.783,7.845c.752-.319,1.521-.6,2.251-.965a11.158,11.158,0,0,0,3.339-2.863c.5-.57.953-1.173,1.414-1.771.058-.075.037-.213.052-.322-.111.047-.261.063-.327.146a11.239,11.239,0,0,1-4.038,3.323,11.677,11.677,0,0,1-4.423,1.258,21.69,21.69,0,0,1-4.372-.034,10,10,0,0,1-4.778-2.095,1.251,1.251,0,0,0-.405-.137,1.286,1.286,0,0,0,.145.446,9.478,9.478,0,0,0,7.449,3.458A30.481,30.481,0,0,0,1427.207,1242.715Z" transform="translate(-1245.13 -1073.767)"/><path class="a" d="M1467.687,619.807c.574-1.021,1.01-1.15,2.18-1.079,1.749.106,3.507.169,5.256.106a19.652,19.652,0,0,0,2.884-.554,8.92,8.92,0,0,1,1.069-.122c.608-.041,1.324.65,1.461,1.475.187,1.129.37,2.262.466,3.4.1,1.178.1,2.364.13,3.547.043,1.458.061,2.917.125,4.373.044.971.127,1.943.235,2.909a2.28,2.28,0,0,1-2.117,2.572c-1.131.176-2.267.317-3.4.476-1.393.2-2.781.431-4.18.578-1.259.132-2.527.185-3.793.24a1.028,1.028,0,0,1-1.019-1c.023-1.478.041-2.957.122-4.432.073-1.33.288-2.653.331-3.982.084-2.6.089-5.2.136-7.793a6.849,6.849,0,0,1,.113-.718m9.91,6.665c-.04-.652-.062-1.306-.123-1.956a9.991,9.991,0,0,0-.255-1.724c-.068-.245-.421-.619-.6-.595-1.6.222-3.2.508-4.791.8a.772.772,0,0,0-.741.87c0,3.089-.06,6.179-.1,9.268a.5.5,0,0,1,0,.176c-.247.574.173.6.54.646.193.025.4-.031.588.01a14.25,14.25,0,0,0,4.57-.144c.929-.1,1.042-.332,1.026-1.327-.03-1.969-.076-3.938-.115-6.025m-7.373,8.553c-.411-.278-.856-.512-.773-1.147.14-1.069.3-2.14.347-3.214.085-1.928.112-3.859.123-5.789.006-1.065-.082-2.129-.1-3.195a1.382,1.382,0,0,1,.18-.686,3.082,3.082,0,0,1,.515-.542l-.921-.055a1.037,1.037,0,0,1-.118,0c-.5-.085-.618.131-.621.616-.015,2.7-.062,5.393-.11,8.089-.009.515-.078,1.029-.113,1.543-.12,1.759-.241,3.519-.351,5.279-.025.4.226.546.594.517.931-.075,1.864-.132,2.791-.24,1.513-.176,3.023-.378,4.532-.588,1-.139,2-.276,2.987-.479.8-.165,1.019-.5,1-1.37-.01-.456-.083-.91-.111-1.367-.084-1.363-.184-2.725-.232-4.089-.064-1.831-.055-3.664-.138-5.493a16.833,16.833,0,0,0-.349-2.447c-.143-.733-.682-.372-1.09-.321-.5.063-.283.362-.2.622a24.186,24.186,0,0,1,.818,5.26c.089.982.108,1.971.122,2.958.02,1.376.016,2.752,0,4.128a1.713,1.713,0,0,1-1.521,1.888c-.53.112-1.079.138-1.61.247a14.766,14.766,0,0,1-4.571.107c-.326-.035-.643-.151-1.083-.23m1.652-13.212q2.066-.413,4.133-.825c.237-.047.7.116.6-.273-.058-.239-.546-.374-.844-.551a.214.214,0,0,0-.116,0,13.2,13.2,0,0,0-4.228,1.3c-.118.055-.19.208-.284.316a1.565,1.565,0,0,0,.352.141A.734.734,0,0,0,1471.875,621.812Z" transform="translate(-1293.927 -545.234)"/><path class="a" d="M1463.189,950.917a11.4,11.4,0,0,1-1.535-7.176,13.409,13.409,0,0,1,1.986-6.125,9.231,9.231,0,0,1,2.771-2.594,10.4,10.4,0,0,1,5.526-1.891,1.413,1.413,0,0,1,1.137.533,1.384,1.384,0,0,0,.571.443,5.9,5.9,0,0,1,3.146,2.838,13.626,13.626,0,0,1,2.16,5.289,8.035,8.035,0,0,1-1.152,6.083c-.388.565-.567,1.274-.954,1.839a10.7,10.7,0,0,1-4.481,3.633,6.4,6.4,0,0,1-6.315-.319,11.288,11.288,0,0,1-2.861-2.554m13.714-4.453a3.474,3.474,0,0,1,.758-2.169.61.61,0,0,0,.117-.471c-.131-.826-.26-1.654-.447-2.468a12.7,12.7,0,0,0-2.41-4.781,3.465,3.465,0,0,0-3.459-1.3,9.322,9.322,0,0,0-4.869,3.641,35.5,35.5,0,0,0-2.085,3.322,7.256,7.256,0,0,0-1.228,4.935,4.071,4.071,0,0,0,2.587,3.159,10.052,10.052,0,0,0,6.408.178,10.312,10.312,0,0,0,3.022-1.527,3.023,3.023,0,0,0,1.606-2.522m-6.842,6.724a12.919,12.919,0,0,0,3.475-1.423c.149-.079.241-.264.359-.4a1.928,1.928,0,0,0-.514.044,11.378,11.378,0,0,1-3.955.837,8.9,8.9,0,0,1-3-.439c-.12-.042-.289.05-.435.08.081.1.14.247.245.3a7.132,7.132,0,0,0,3.826,1m-3.126-16.457c.222-.222.447-.441.665-.667.169-.174.33-.355.495-.533-.268.085-.536.169-.8.255-.017.005-.027.028-.042.04a12.214,12.214,0,0,0-2.943,3.185,16.814,16.814,0,0,0-.779,1.619c-.051.12.07.313.112.472a1.851,1.851,0,0,0,.286-.308c.265-.458.495-.936.772-1.386A9.135,9.135,0,0,1,1466.934,936.732Z" transform="translate(-1289.163 -823.051)"/><path class="a" d="M1458.094,324.449a10.166,10.166,0,0,1-1.205-5.32,4.662,4.662,0,0,1,1.706-3.306c.98-.907,2.229-1.095,3.351-1.619a.94.94,0,0,0,.359-.453c.254-.54.744-.632,1.1-.146.987,1.355,1.964,2.719,2.913,4.1.437.636.4.985-.044,1.329a.754.754,0,0,1-.356.129c-.253.033-.633-.059-.74.076a2.086,2.086,0,0,0-.482,1.08,4.572,4.572,0,0,0,1.041,2.8,3.21,3.21,0,0,0,1.764,1.412c.544.158,1.021-.2.807-.662a.56.56,0,0,1,.275-.847,1.012,1.012,0,0,1,.887.091c1.035.959,2.021,1.972,3.01,2.979.474.483.939.977,1.372,1.5a2.793,2.793,0,0,1-.116,2.27c-.355.407-.713.811-1.085,1.2a1.985,1.985,0,0,1-1.7.5,21.572,21.572,0,0,1-5.836-1.44,13.011,13.011,0,0,1-4.818-2.888,8.719,8.719,0,0,1-2.2-2.788m5.1-9.054c-.233-.307-.429-.33-.832-.151a13.338,13.338,0,0,0-2.375,1.678,1.022,1.022,0,0,0-.489,1.14,16.674,16.674,0,0,0,.585,2.293c.521,1.394,1.074,2.781,1.717,4.122a8.256,8.256,0,0,0,2.851,3.1,12.679,12.679,0,0,0,3.256,1.957c.627.2,1.3.277,1.917.5,1.438.518,2.109.257,2.851-1.134a.823.823,0,0,0-.051-.743c-.83-.968-1.7-1.9-2.57-2.833a.536.536,0,0,0-.856-.014,2.209,2.209,0,0,1-2.64.286,6.079,6.079,0,0,1-2.824-3.4,3.463,3.463,0,0,1,.8-4.271.5.5,0,0,0,.009-.47c-.411-.679-.854-1.338-1.346-2.063m-2.006,10.5a14.991,14.991,0,0,1-2.2-4.686c-.233-.793-.38-1.61-.581-2.413-.021-.085-.148-.144-.226-.216-.04.089-.122.182-.114.267.067.715.124,1.432.235,2.141a9.537,9.537,0,0,0,2.66,5.256,3.356,3.356,0,0,0,.728.445C1461.546,326.444,1461.4,326.2,1461.191,325.894Z" transform="translate(-1285.012 -276.33)"/><path class="a" d="M1570.273,316.372c.079.557.187,1.052.23,1.554.1,1.125.151,2.254.248,3.38.037.432-.055.852-.468.938a.742.742,0,0,1-.821-.683,14.47,14.47,0,0,1-.238-2.258,10.319,10.319,0,0,0-.364-3.1,5.434,5.434,0,0,0-2.124-2.8,8.308,8.308,0,0,0-3.015-1.262c-.22-.051-.52.142-.754.275-.256.145-.459.415-.726.492-.093.027-.383-.338-.446-.563a.877.877,0,0,1,.365-1.01,2.4,2.4,0,0,1,1.72-.391,8.389,8.389,0,0,1,4.928,2.61A6.13,6.13,0,0,1,1570.273,316.372Z" transform="translate(-1377.52 -274.241)"/><path class="a" d="M1554.332,339.833c.069.6.12,1.174.144,1.746.017.427-.4,1.022-.658.921a.873.873,0,0,1-.644-.9,3.648,3.648,0,0,0-.555-2.532,5,5,0,0,0-2.495-1.622,1.281,1.281,0,0,0-.363-.112c-.445,0-.722-.23-.69-.656.03-.4.573-.64,1.029-.478a13.031,13.031,0,0,1,1.764.712,4.552,4.552,0,0,1,2.229,2.216C1554.183,339.343,1554.234,339.577,1554.332,339.833Z" transform="translate(-1366.327 -296.492)"/><path class="a" d="M328.818,210.948a8.428,8.428,0,0,1,3.342,2.674,20.388,20.388,0,0,1,2.011,2.933,11.681,11.681,0,0,1,1.719,4.776,12.186,12.186,0,0,1-1.166,6.388,7.252,7.252,0,0,1-3.232,3.532,15.777,15.777,0,0,1-5.292,1.869,25.288,25.288,0,0,1-3.907.029,6.719,6.719,0,0,1-3.665-1.253,7.648,7.648,0,0,1-2.809-3.718,15.177,15.177,0,0,1-.863-3.779,11.8,11.8,0,0,1,1.137-6.873,10.919,10.919,0,0,1,5.149-5.012,1.052,1.052,0,0,0,.714-1.024,1.812,1.812,0,0,1,1.655-1.45,10.528,10.528,0,0,1,4.284.467c.3.12.595.273.921.44m-7.049,10.529c-.042-.2-.1-.4-.123-.6a3.83,3.83,0,0,1,.9-3.471,3.582,3.582,0,0,1,2.172-1.028,6.553,6.553,0,0,1,3.171.255,4.985,4.985,0,0,1,2.84,6.483.7.7,0,0,0,.273.965,4.03,4.03,0,0,1,1.8,2.446c.018.095.128.171.2.256.079-.087.193-.161.229-.263.141-.395.272-.794.379-1.2a9.063,9.063,0,0,0,.462-3.746,10.983,10.983,0,0,0-1.531-4.078c-1.186-1.891-2.354-3.789-4.466-4.83-.374-.185-.569-.309-.719.236-.185.674-.774.778-1.326.341a1.091,1.091,0,0,0-1.27-.272c-.534.268-1.106.461-1.662.685a10.351,10.351,0,0,0-4.353,3.284,9.589,9.589,0,0,0-1.968,5.077,10.692,10.692,0,0,0,.567,4.708c.24.667.463,1.341.719,2,.043.111.213.173.324.258.046-.079.148-.179.129-.235a2.84,2.84,0,0,1,.228-1.879,8.387,8.387,0,0,1,2.72-4.1.921.921,0,0,0,.3-1.291m7.727,8.671c.324-.167.65-.329.971-.5.914-.487.928-.518.8-1.516-.01-.077.01-.159,0-.235a2.784,2.784,0,0,0-1.735-2.435c-.44-.162-.84-.313-1.265.108a1.169,1.169,0,0,1-.883.362c-.79-.194-1.543-.537-2.32-.788a1.8,1.8,0,0,0-.914-.124,3.947,3.947,0,0,0-2.646,2.611,16.848,16.848,0,0,0-.719,2.882c-.032.152.108.475.217.5a17.209,17.209,0,0,0,2.148.367,13.919,13.919,0,0,0,6.349-1.231m-1.416-11.207c-.908-.686-1.848-1.1-2.94-.373-.1.066-.255.043-.379.08a.98.98,0,0,0-.824,1.032,6.575,6.575,0,0,0,.6,2.468,1.288,1.288,0,0,0,1.033.912,13.782,13.782,0,0,1,1.565.482.832.832,0,0,0,.387.054,2.329,2.329,0,0,0,1.72-2.345A3.352,3.352,0,0,0,328.08,218.941Z" transform="translate(-277.715 -185.243)"/><path class="a" d="M1453.041,1280.167a5.336,5.336,0,0,1-3.3-4.825,6.036,6.036,0,0,1,1.525-3.98,9.418,9.418,0,0,1,3.555-2.655c.366-.157.807-.131,1.189-.261a1.353,1.353,0,0,0,.7-.472c.485-.794.9-1.627,1.356-2.442.055-.1.163-.241.246-.241a3.289,3.289,0,0,1,2.059.4.82.82,0,0,1,.051,1.359c-.552.544-1.137,1.054-1.693,1.593a1.641,1.641,0,0,0-.234.431,1.767,1.767,0,0,0,.418.083,5.555,5.555,0,0,1,3.78,1.552,6.275,6.275,0,0,1,.938.844.816.816,0,0,1,.164.7c-.156.289-.4.582-.877.349a1.271,1.271,0,0,0-.945,0,2.579,2.579,0,0,0-1.735,1.708c-.145.59.51,1.453,1.1,1.328a6.984,6.984,0,0,0,1.339-.462c.751-.329,1.417.026,1.382.837a6.115,6.115,0,0,1-.51,2.8,3.62,3.62,0,0,1-2.507,1.884,4.986,4.986,0,0,1-3.5-.262.964.964,0,0,0-.674-.058,5.609,5.609,0,0,1-3.833-.218m7.4-3.333a2.529,2.529,0,0,1-.529-4.416c.336-.29.729-.514,1.09-.776.189-.137.491-.331.091-.507a7.908,7.908,0,0,0-1.906-.647,2.808,2.808,0,0,0-2.151.626,1.073,1.073,0,0,1-.9-.028.525.525,0,0,1-.246-.848,1.708,1.708,0,0,0,.153-.393,1.9,1.9,0,0,0-.56.036,7.359,7.359,0,0,0-3.967,3.4,3.894,3.894,0,0,0-.15,3.569,4.085,4.085,0,0,0,2.838,2.316c.869.227,1.883.541,2.42-.718a1.078,1.078,0,0,1,.909-.392c.222.023.513.407.58.678.16.653.284.811.978.813.255,0,.511,0,.766,0a2.786,2.786,0,0,0,2.9-2.471c.057-.374-.06-.372-.307-.359C1461.825,1276.753,1461.193,1276.8,1460.443,1276.835Z" transform="translate(-1278.72 -1116.027)"/><path class="a" d="M1520.033,713.677a1.788,1.788,0,0,1-.989,1.759c-.728.326-1.443-.038-1.958-.918a4.2,4.2,0,0,1-.351-.678,1.9,1.9,0,0,1,.959-2.557,1.347,1.347,0,0,1,1.157.136,2.868,2.868,0,0,1,1.067,1.952c.014.086.075.164.115.3m-1.416.649a7.071,7.071,0,0,0-.113-1.259c-.035-.137-.377-.2-.579-.291-.005.218-.084.47,0,.646A3.1,3.1,0,0,0,1518.618,714.326Z" transform="translate(-1337.661 -627.307)"/><path class="a" d="M1508.641,972.683a14.754,14.754,0,0,1,.923-1.56,3.416,3.416,0,0,1,1.772-1.253,2.789,2.789,0,0,1,2.264.1,1.54,1.54,0,0,1,.693,1.387c.046.566.013,1.138.009,1.708a.615.615,0,0,1-.678.682c-.02,0-.039,0-.059,0-.345.021-.776-.075-1.009.1-.206.152-.219.6-.27.923q-.248,1.552-.456,3.111c-.045.334-.071.548.465.393.4-.114,1.005-.292,1.348.208a1.669,1.669,0,0,1,.288.929c-.019.656-.167,1.308-.21,1.965-.044.687-.353.97-1.032.869a3.973,3.973,0,0,0-1.01-.107,2.243,2.243,0,0,1-2.259-.953,11.567,11.567,0,0,1-1.5-2.379,4.877,4.877,0,0,1-.188-2.38c.191-1.244.6-2.455.911-3.738m2.064,7.9c.38.079.757.177,1.14.231.485.068.684-.147.7-.657.021-.555-.289-.536-.662-.52-.255.011-.511,0-.766,0-.571,0-.844-.245-.817-.827.018-.383.167-.757.221-1.141.206-1.449.375-2.9.608-4.349a.806.806,0,0,1,.835-.768,4.516,4.516,0,0,0,1.009-.123.408.408,0,0,0,.251-.3,1.967,1.967,0,0,0-.14-.818.8.8,0,0,0-.518-.388,2.487,2.487,0,0,0-2.5,1.689,20.432,20.432,0,0,0-.932,3.262,5.109,5.109,0,0,0,.022,2.414A8.025,8.025,0,0,0,1510.706,980.587Z" transform="translate(-1329.808 -855.287)"/></svg>