<svg width="24" height="24" viewBox="0 0 24 24" fill="none" xmlns="http://www.w3.org/2000/svg">
<path fill-rule="evenodd" clip-rule="evenodd" d="M12 4C15.64 4 19 5 19.5 8.5C22 8.5 24 12.36 24 15C24 17.76 21.76 20 19 20H6C2.69 20 0 17.31 0 14C0 10.91 2.34 8.36 5.35 8.04C6.6 5.64 9.11 4 12 4ZM8.36311 11H8.0226H7.44887H7.12235L5 17H6.44133L6.80755 15.7637H8.6849L9.05346 17H10.5041L8.36311 11ZM8.38637 14.7624H7.10419L7.74324 12.6051L8.38637 14.7624ZM13.4661 14.886H12.5145V17H11.1525V11H13.4661C13.9232 11 14.3166 11.0852 14.6462 11.2555C14.9758 11.4258 15.2277 11.6607 15.4019 11.9602C15.5791 12.2569 15.6677 12.5975 15.6677 12.9821C15.6677 13.3695 15.5791 13.706 15.4019 13.9918C15.2277 14.2747 14.9758 14.4945 14.6462 14.6511C14.3166 14.8077 13.9232 14.886 13.4661 14.886ZM12.5145 12.0014V13.8846H13.4661C13.6589 13.8846 13.8159 13.8462 13.9372 13.7692C14.0616 13.6923 14.1518 13.5865 14.2078 13.4519C14.2637 13.3146 14.2917 13.1607 14.2917 12.9904C14.2917 12.8173 14.2622 12.6566 14.2031 12.5082C14.1471 12.3571 14.0585 12.2349 13.9372 12.1415C13.819 12.0481 13.662 12.0014 13.4661 12.0014H12.5145ZM16.6426 17H18V11H16.6426V17Z" fill="#5D6164"/>
</svg>
