<svg width="24" height="8" viewBox="0 0 24 8" fill="none" xmlns="http://www.w3.org/2000/svg">
<path d="M2.3401 6.35472H3.60625C3.85496 6.35472 4.03207 6.30573 4.13758 6.20775C4.25063 6.10224 4.30715 5.93267 4.30715 5.69903V5.04335C4.30715 4.80972 4.25063 4.64391 4.13758 4.54594C4.02453 4.44796 3.83988 4.39897 3.58364 4.39897H2.3401C2.2572 4.39897 2.21575 4.44042 2.21575 4.52333V6.23036C2.21575 6.31326 2.2572 6.35472 2.3401 6.35472ZM2.3401 3.23457H3.4932C3.73437 3.23457 3.91148 3.18558 4.02453 3.08761C4.13758 2.98209 4.1941 2.81252 4.1941 2.57889V2.138C4.1941 1.90436 4.13758 1.73856 4.02453 1.64058C3.91902 1.53507 3.74568 1.48231 3.50451 1.48231H2.3401C2.2572 1.48231 2.21575 1.52376 2.21575 1.60667V3.11022C2.21575 3.19312 2.2572 3.23457 2.3401 3.23457ZM0.780029 7.31563V0.521399C0.780029 0.363131 0.859163 0.283997 1.01743 0.283997H3.7306C4.32599 0.283997 4.78572 0.442265 5.1098 0.758801C5.43387 1.07534 5.59591 1.52753 5.59591 2.11539V2.57889C5.59591 3.2195 5.29821 3.63401 4.70282 3.82242C5.00429 3.86764 5.24546 3.992 5.42633 4.19548C5.60721 4.39144 5.69765 4.67406 5.69765 5.04335V5.72164C5.69765 6.3095 5.53561 6.76169 5.21154 7.07823C4.88747 7.39476 4.43151 7.55303 3.84365 7.55303H1.01743C0.859163 7.55303 0.780029 7.4739 0.780029 7.31563Z" fill="#3F4346"/>
<path d="M10.9848 7.55303H7.28811C7.12984 7.55303 7.0507 7.4739 7.0507 7.31563V0.521399C7.0507 0.363131 7.12984 0.283997 7.28811 0.283997H10.9848C11.1355 0.283997 11.2109 0.363131 11.2109 0.521399V1.29013C11.2109 1.4484 11.1355 1.52753 10.9848 1.52753H8.62208C8.53164 1.52753 8.48642 1.56898 8.48642 1.65189V3.12152C8.48642 3.20442 8.53164 3.24587 8.62208 3.24587H10.5552C10.7135 3.24587 10.7926 3.32501 10.7926 3.48328V4.25201C10.7926 4.41028 10.7135 4.48941 10.5552 4.48941H8.62208C8.53164 4.48941 8.48642 4.53086 8.48642 4.61376V6.18514C8.48642 6.26805 8.53164 6.3095 8.62208 6.3095H10.9848C11.1355 6.3095 11.2109 6.38863 11.2109 6.5469V7.31563C11.2109 7.4739 11.1355 7.55303 10.9848 7.55303Z" fill="#3F4346"/>
<path d="M14.7099 7.55303H13.7603C13.5945 7.55303 13.5116 7.4739 13.5116 7.31563V1.65189C13.5116 1.56898 13.4702 1.52753 13.3873 1.52753H12.0985C11.9402 1.52753 11.8611 1.4484 11.8611 1.29013V0.521399C11.8611 0.363131 11.9402 0.283997 12.0985 0.283997H16.3718C16.53 0.283997 16.6092 0.363131 16.6092 0.521399V1.29013C16.6092 1.4484 16.53 1.52753 16.3718 1.52753H15.083C14.9926 1.52753 14.9473 1.56898 14.9473 1.65189V7.31563C14.9473 7.4739 14.8682 7.55303 14.7099 7.55303Z" fill="#3F4346"/>
<path d="M18.2298 7.55303H17.1445C17.0089 7.55303 16.9637 7.4739 17.0089 7.31563L18.7951 0.521399C18.8478 0.363131 18.9609 0.283997 19.1342 0.283997H20.6378C20.8262 0.283997 20.9392 0.363131 20.9769 0.521399L22.7631 7.31563C22.8083 7.4739 22.7631 7.55303 22.6274 7.55303H21.5421C21.4592 7.55303 21.4027 7.53796 21.3726 7.50781C21.3424 7.47013 21.3198 7.40607 21.3047 7.31563L20.9882 6.07209H18.7838L18.4672 7.31563C18.4521 7.40607 18.4258 7.47013 18.3881 7.50781C18.3579 7.53796 18.3052 7.55303 18.2298 7.55303ZM19.869 1.65189L19.0551 4.919H20.7282L19.9142 1.65189H19.869Z" fill="#3F4346"/>
</svg>
