<svg width="40" height="40" viewBox="0 0 40 40" fill="none" xmlns="http://www.w3.org/2000/svg">
<path fill-rule="evenodd" clip-rule="evenodd" d="M22.9474 28.4737C22.9474 31.8579 21.4822 34.8999 19.1516 37H38.0002V33.7368C38.0002 28.214 33.523 23.7368 28.0002 23.7368H21.927C22.5824 25.1808 22.9474 26.7846 22.9474 28.4737Z"/>
<path fill-rule="evenodd" clip-rule="evenodd" d="M17.9474 28.5263C17.9474 32.1016 15.049 35 11.4737 35C10.3203 35 9.2374 34.6984 8.2995 34.1697L17.1171 25.3521C17.6458 26.29 17.9474 27.3729 17.9474 28.5263ZM6.09561 32.131L15.0783 23.1482C14.0481 22.4563 12.808 22.0526 11.4737 22.0526C7.89837 22.0526 5 24.951 5 28.5263C5 29.8606 5.40369 31.1007 6.09561 32.131ZM20.9474 28.5263C20.9474 33.7585 16.7059 38 11.4737 38C6.24151 38 2 33.7585 2 28.5263C2 23.2941 6.24151 19.0526 11.4737 19.0526C16.7059 19.0526 20.9474 23.2941 20.9474 28.5263Z"/>
<circle cx="23.7896" cy="11.4737" r="9.47368"/>
</svg>
