<svg xmlns="http://www.w3.org/2000/svg" width="14.656" height="16.436" viewBox="0 0 14.656 16.436"><g transform="translate(-1.974)"><g transform="translate(1.974)"><path fill="#767f88" d="M14.714,1.78h-.5V1.24a1.2,1.2,0,1,0-2.408,0v.54H10.575V1.24a1.2,1.2,0,1,0-2.408,0v.54H6.931V1.24a1.2,1.2,0,1,0-2.408,0v.54H3.891A1.919,1.919,0,0,0,1.974,3.7V14.519a1.919,1.919,0,0,0,1.917,1.917H14.714a1.919,1.919,0,0,0,1.917-1.917V3.7A1.919,1.919,0,0,0,14.714,1.78Zm-2.227-.54a.529.529,0,1,1,1.055,0V3.448a.529.529,0,1,1-1.055,0Zm-3.644,0a.529.529,0,1,1,1.055,0V3.448a.529.529,0,1,1-1.055,0ZM5.2,1.24a.529.529,0,1,1,1.055,0V3.448a.529.529,0,1,1-1.055,0ZM15.5,14.52a.79.79,0,0,1-.789.789H3.891A.79.79,0,0,1,3.1,14.52V4.6H15.5Z" transform="translate(-1.974)"/><rect fill="#767f88" width="2.072" height="1.844" transform="translate(2.142 6.596)"/><rect fill="#767f88" width="2.073" height="1.844" transform="translate(4.908 6.596)"/><rect fill="#767f88" width="2.072" height="1.844" transform="translate(7.676 6.596)"/><rect fill="#767f88" width="2.073" height="1.844" transform="translate(10.441 6.596)"/><rect fill="#767f88" width="2.072" height="1.843" transform="translate(2.142 9.057)"/><rect fill="#767f88" width="2.073" height="1.843" transform="translate(4.908 9.057)"/><rect fill="#767f88" width="2.072" height="1.843" transform="translate(7.676 9.057)"/><rect fill="#767f88" width="2.073" height="1.843" transform="translate(10.441 9.057)"/><rect fill="#767f88" width="2.072" height="1.843" transform="translate(2.142 11.517)"/><rect fill="#767f88" width="2.073" height="1.843" transform="translate(4.908 11.517)"/><rect fill="#767f88" width="2.072" height="1.843" transform="translate(7.676 11.517)"/><rect fill="#767f88" width="2.073" height="1.843" transform="translate(10.441 11.517)"/></g></g></svg>