<svg width="32" height="32" viewBox="0 0 32 32" fill="none" xmlns="http://www.w3.org/2000/svg">
<mask id="mask0_8104_29976" style="mask-type:alpha" maskUnits="userSpaceOnUse" x="0" y="0" width="32" height="32">
<rect width="32" height="32" fill="#D9D9D9"/>
</mask>
<g mask="url(#mask0_8104_29976)">
<path d="M14.8 25.3334H17.1333V23.6667C18.2444 23.4667 19.2 23.0334 20 22.3667C20.8 21.7001 21.2 20.7112 21.2 19.4001C21.2 18.4667 20.9333 17.6112 20.4 16.8334C19.8666 16.0556 18.8 15.3779 17.2 14.8001C15.8666 14.3556 14.9444 13.9667 14.4333 13.6334C13.9222 13.3001 13.6666 12.8445 13.6666 12.2667C13.6666 11.689 13.8724 11.2334 14.284 10.9001C14.6946 10.5667 15.2888 10.4001 16.0666 10.4001C16.7777 10.4001 17.3333 10.5725 17.7333 10.9174C18.1333 11.2614 18.4222 11.689 18.6 12.2001L20.7333 11.3334C20.4888 10.5556 20.0391 9.87786 19.384 9.30008C18.728 8.7223 18 8.40008 17.2 8.33342V6.66675H14.8666V8.33342C13.7555 8.57786 12.8888 9.06675 12.2666 9.80008C11.6444 10.5334 11.3333 11.3556 11.3333 12.2667C11.3333 13.3112 11.6391 14.1556 12.2506 14.8001C12.8613 15.4445 13.8222 16.0001 15.1333 16.4667C16.5333 16.9779 17.5057 17.4334 18.0506 17.8334C18.5946 18.2334 18.8666 18.7556 18.8666 19.4001C18.8666 20.1334 18.6053 20.6721 18.0826 21.0161C17.5608 21.361 16.9333 21.5334 16.2 21.5334C15.4666 21.5334 14.8168 21.3054 14.2506 20.8494C13.6835 20.3943 13.2666 19.7112 13 18.8001L10.8 19.6667C11.1111 20.7334 11.5946 21.5947 12.2506 22.2507C12.9057 22.9059 13.7555 23.3556 14.8 23.6001V25.3334ZM16 29.3334C14.1555 29.3334 12.4222 28.9832 10.8 28.2827C9.17774 27.5832 7.76663 26.6334 6.56663 25.4334C5.36663 24.2334 4.41685 22.8223 3.71729 21.2001C3.01685 19.5779 2.66663 17.8445 2.66663 16.0001C2.66663 14.1556 3.01685 12.4223 3.71729 10.8001C4.41685 9.17786 5.36663 7.76675 6.56663 6.56675C7.76663 5.36675 9.17774 4.41653 10.8 3.71608C12.4222 3.01653 14.1555 2.66675 16 2.66675C17.8444 2.66675 19.5777 3.01653 21.2 3.71608C22.8222 4.41653 24.2333 5.36675 25.4333 6.56675C26.6333 7.76675 27.5831 9.17786 28.2826 10.8001C28.9831 12.4223 29.3333 14.1556 29.3333 16.0001C29.3333 17.8445 28.9831 19.5779 28.2826 21.2001C27.5831 22.8223 26.6333 24.2334 25.4333 25.4334C24.2333 26.6334 22.8222 27.5832 21.2 28.2827C19.5777 28.9832 17.8444 29.3334 16 29.3334ZM16 26.6667C18.9777 26.6667 21.5 25.6334 23.5666 23.5667C25.6333 21.5001 26.6666 18.9779 26.6666 16.0001C26.6666 13.0223 25.6333 10.5001 23.5666 8.43341C21.5 6.36675 18.9777 5.33341 16 5.33341C13.0222 5.33341 10.5 6.36675 8.43329 8.43341C6.36663 10.5001 5.33329 13.0223 5.33329 16.0001C5.33329 18.9779 6.36663 21.5001 8.43329 23.5667C10.5 25.6334 13.0222 26.6667 16 26.6667Z" fill="#CC5229"/>
</g>
</svg>
