<svg width="18" height="18" viewBox="0 0 18 18" fill="none" xmlns="http://www.w3.org/2000/svg">
<path d="M5.25 8.25V4.5C5.25 2.84315 6.59315 1.5 8.25 1.5H10.5C13.8137 1.5 16.5 4.18629 16.5 7.5V8.25" stroke="#29A653" stroke-width="2" stroke-linecap="round"/>
<path d="M12.25 1.85002C14.2091 2.2477 15.7523 3.79087 16.15 5.75H14.25C13.1454 5.75 12.25 4.85457 12.25 3.75V1.85002Z" stroke="#29A653" stroke-width="2"/>
<path d="M10.8592 11.9634V11.9634C10.8592 11.1552 10.204 10.5 9.3958 10.5L8.95342 10.5C8.12635 10.5 7.45587 11.1705 7.45587 11.9975V11.9975C7.45587 12.8246 8.12635 13.4951 8.95342 13.4951H9.35678C10.1866 13.4951 10.8592 14.1678 10.8592 14.9975V14.9975C10.8592 15.8273 10.1866 16.5 9.35678 16.5H9.06559C8.17657 16.5 7.45588 15.7793 7.45587 14.8903V14.8903" stroke="#29A653" stroke-width="2"/>
<path d="M4.90336 12.0714V12.0714C4.90336 11.2036 4.19981 10.5 3.33193 10.5L3.20168 10.5C2.26187 10.5 1.5 11.2619 1.5 12.2017L1.5 14.7983C1.5 15.7381 2.26187 16.5 3.20168 16.5H3.33193C4.19981 16.5 4.90336 15.7964 4.90336 14.9286V14.9286" stroke="#29A653" stroke-width="2"/>
<path d="M12.9706 9.75V10.0875L14.0735 16.5L14.7353 16.5L15.3971 16.5L16.5 10.0875V9.75" stroke="#29A653" stroke-width="2"/>
</svg>
