<svg width="24" height="24" viewBox="0 0 24 24" fill="none" xmlns="http://www.w3.org/2000/svg">
<path fill-rule="evenodd" clip-rule="evenodd" d="M3 4.66667C3 3.19391 4.19391 2 5.66667 2H14.379C15.0934 2 15.7779 2.28666 16.2792 2.79572L20.2335 6.81186C20.7247 7.31071 21 7.98272 21 8.6828V13H19V9.5H13.5V4H5.66667C5.29848 4 5 4.29848 5 4.66667V13H3V4.66667ZM15.5 4.85499L18.1043 7.5H15.5V4.85499ZM17.5 16.75C17.5 16.3358 17.8358 16 18.25 16C18.6642 16 19 16.3358 19 16.75V17H21V16.75C21 15.2312 19.7688 14 18.25 14C16.7312 14 15.5 15.2312 15.5 16.75V19.25C15.5 20.7688 16.7312 22 18.25 22C19.7688 22 21 20.7688 21 19.25V19H19V19.25C19 19.6642 18.6642 20 18.25 20C17.8358 20 17.5 19.6642 17.5 19.25V16.75ZM12 16C11.4477 16 11 16.4477 11 17V18.95C11 19.5023 11.4477 19.95 12 19.95C12.5523 19.95 13 19.5023 13 18.95V17C13 16.4477 12.5523 16 12 16ZM9 17C9 15.3431 10.3431 14 12 14C13.6569 14 15 15.3431 15 17V18.95C15 20.6069 13.6569 21.95 12 21.95C10.3431 21.95 9 20.6069 9 18.95V17ZM5.5 14H3V22H5.5C7.15685 22 8.5 20.6569 8.5 19V17C8.5 15.3431 7.15685 14 5.5 14ZM5 20V16H5.5C6.05228 16 6.5 16.4477 6.5 17V19C6.5 19.5523 6.05228 20 5.5 20H5Z" fill="#5D6164"/>
</svg>
