<svg width="28" height="25" viewBox="0 0 28 25" fill="none" xmlns="http://www.w3.org/2000/svg">
<path d="M24.6666 0.333328H3.33329C1.86663 0.333328 0.679959 1.53333 0.679959 2.99999L0.666626 19C0.666626 20.4667 1.86663 21.6667 3.33329 21.6667H14V19H3.33329V5.66666L14 12.3333L24.6666 5.66666V12.3333H27.3333V2.99999C27.3333 1.53333 26.1333 0.333328 24.6666 0.333328ZM14 9.66666L3.33329 2.99999H24.6666L14 9.66666Z" fill="#CC5229"/>
<path d="M22.1478 17.2598L18.848 13.96L16.9624 15.8456L20.2622 19.1454L16.9624 22.4452L18.848 24.3309L22.1478 21.031L25.4477 24.3309L27.3333 22.4452L24.0335 19.1454L27.3333 15.8456L25.4477 13.96L22.1478 17.2598Z" fill="#CC5229"/>
</svg>
