<svg width="21" height="20" viewBox="0 0 21 20" fill="none" xmlns="http://www.w3.org/2000/svg">
<path d="M17.6026 2.07544C15.5668 0.806001 12.8868 1.10572 10.4965 2.60845C8.11374 1.10655 5.43207 0.806001 3.39881 2.07544C0.182454 4.08545 -0.20859 9.26284 2.52622 13.6382C4.54205 16.8654 7.69447 18.755 10.5007 18.7201C13.3069 18.755 16.4593 16.8654 18.4752 13.6382C21.2066 9.26284 20.8189 4.08545 17.6026 2.07544ZM4.00488 12.715C3.44082 11.8208 3.01534 10.8464 2.74292 9.82491C2.50069 8.93847 2.40809 8.01781 2.46894 7.10089C2.59098 5.48441 3.24936 4.22493 4.32204 3.5541C5.39471 2.88326 6.81276 2.84424 8.32297 3.44285C8.55253 3.53517 8.77726 3.63908 8.99629 3.75419C8.15689 4.51891 7.42713 5.3959 6.8277 6.36031C5.16722 9.01709 4.66077 11.9744 5.24028 14.3306C4.77863 13.8321 4.365 13.2912 4.00488 12.715ZM18.2593 9.82491C17.9865 10.8463 17.561 11.8206 16.9973 12.715C16.6374 13.2923 16.2237 13.8343 15.7619 14.3339C16.28 12.221 15.928 9.63312 14.6577 7.2055C14.617 7.12431 14.5437 7.06425 14.4561 7.04033C14.3685 7.01641 14.2749 7.03088 14.1986 7.08013L10.2383 9.55508C10.1654 9.60044 10.1136 9.67297 10.0943 9.75662C10.075 9.84028 10.0898 9.92819 10.1354 10.0009L10.7165 10.93C10.7619 11.0029 10.8344 11.0547 10.9181 11.074C11.0018 11.0933 11.0897 11.0785 11.1624 11.0329L13.7295 9.42972C13.8125 9.67879 13.8955 9.92371 13.9578 10.1769C14.2 11.0634 14.2926 11.984 14.2318 12.901C14.1097 14.5183 13.4514 15.7777 12.3787 16.4486C11.8254 16.7868 11.1915 16.9704 10.543 16.9799H10.46C9.81155 16.9706 9.17754 16.787 8.62434 16.4486C7.55084 15.7777 6.89246 14.5183 6.77042 12.901C6.71006 11.984 6.80265 11.0635 7.04439 10.1769C7.60109 8.12628 8.75124 6.28582 10.3504 4.88664C11.0401 4.28097 11.8257 3.79418 12.6751 3.44617C14.1811 2.84756 15.6017 2.88658 16.6752 3.55742C17.7487 4.22825 18.4062 5.48773 18.5283 7.10421C18.59 8.01975 18.4991 8.93918 18.2593 9.82491ZM15.9936 17.9355V17.8201C15.9932 17.8121 15.9962 17.8043 16.0019 17.7985C16.0072 17.7929 16.0148 17.7898 16.0226 17.7902H16.7582C16.766 17.7898 16.7736 17.7929 16.779 17.7985C16.7846 17.8043 16.7876 17.8121 16.7873 17.8201V17.9355C16.7877 17.9436 16.7847 17.9514 16.779 17.9571C16.7736 17.9628 16.766 17.9658 16.7582 17.9654H16.4892V18.6902C16.4896 18.6984 16.4862 18.7063 16.4801 18.7118C16.4747 18.7176 16.4672 18.7209 16.4593 18.7209H16.3207C16.3128 18.7207 16.3054 18.7175 16.2999 18.7118C16.2947 18.7058 16.2917 18.6982 16.2916 18.6902V17.9654H16.0226C16.0148 17.9658 16.0072 17.9628 16.0019 17.9571C15.9961 17.9514 15.9931 17.9436 15.9936 17.9355ZM17.2788 17.8168L17.4838 18.2817L17.6897 17.8168C17.6929 17.8085 17.6987 17.8015 17.7063 17.7969C17.7143 17.7919 17.7236 17.7896 17.7329 17.7902H17.9529C17.9607 17.79 17.9682 17.793 17.9737 17.7985C17.9792 17.804 17.9822 17.8115 17.982 17.8193V18.6919C17.9822 18.6995 17.9795 18.7069 17.9745 18.7126C17.9693 18.718 17.9621 18.721 17.9546 18.7209H17.8226C17.8149 18.721 17.8074 18.718 17.8018 18.7126C17.7966 18.707 17.7936 18.6996 17.7935 18.6919V18.0327L17.5785 18.5117C17.5752 18.5206 17.5694 18.5284 17.5619 18.5341C17.5536 18.5391 17.5441 18.5414 17.5345 18.5408H17.4282C17.4189 18.5413 17.4096 18.539 17.4016 18.5341C17.3941 18.5284 17.3883 18.5206 17.385 18.5117L17.17 18.0327V18.6919C17.1703 18.6997 17.1673 18.7072 17.1617 18.7126C17.1564 18.7179 17.1492 18.7208 17.1418 18.7209H17.0089C17.0014 18.721 16.9942 18.718 16.989 18.7126C16.9837 18.707 16.9808 18.6996 16.9807 18.6919V17.8193C16.9806 17.8114 16.984 17.8038 16.9899 17.7985C16.995 17.793 17.0022 17.79 17.0098 17.7902H17.2364C17.2458 17.7897 17.255 17.792 17.263 17.7969C17.2703 17.8016 17.2759 17.8086 17.2788 17.8168Z" fill="#1BDBDB"/>
</svg>
