<svg width="24" height="24" viewBox="0 0 24 24" fill="none" xmlns="http://www.w3.org/2000/svg">
<path d="M17 8.5C17 9.32843 16.3284 10 15.5 10C14.6716 10 14 9.32843 14 8.5C14 7.67157 14.6716 7 15.5 7C16.3284 7 17 7.67157 17 8.5Z" fill="#5D6164"/>
<path d="M9.45758 11.0009C9.12814 11.0149 8.82678 11.1904 8.65202 11.47L6.15202 15.47C5.85931 15.9383 6.00168 16.5553 6.47002 16.848C6.93835 17.1407 7.5553 16.9983 7.84801 16.53L9.57506 13.7667L11.7 16.6C11.8835 16.8446 12.1687 16.9918 12.4744 16.9997C12.7801 17.0075 13.0725 16.8751 13.2682 16.6402L14.9109 14.669L16.168 16.5547C16.4743 17.0142 17.0952 17.1384 17.5547 16.8321C18.0142 16.5257 18.1384 15.9048 17.8321 15.4453L15.8321 12.4453C15.6571 12.1828 15.3684 12.0183 15.0534 12.0014C14.7383 11.9846 14.4338 12.1174 14.2318 12.3598L12.5413 14.3884L10.3 11.4C10.1022 11.1362 9.78701 10.9869 9.45758 11.0009Z" fill="#5D6164"/>
<path fill-rule="evenodd" clip-rule="evenodd" d="M5 2C3.34315 2 2 3.34315 2 5V19C2 20.6569 3.34315 22 5 22H19C20.6569 22 22 20.6569 22 19V5C22 3.34315 20.6569 2 19 2H5ZM4 5C4 4.44772 4.44772 4 5 4H19C19.5523 4 20 4.44772 20 5V19C20 19.5523 19.5523 20 19 20H5C4.44772 20 4 19.5523 4 19V5Z" fill="#5D6164"/>
</svg>
