<svg width="16" height="16" viewBox="0 0 16 16" fill="none" xmlns="http://www.w3.org/2000/svg">
<path fill-rule="evenodd" clip-rule="evenodd" d="M7.99982 2.66671C5.13444 2.66671 3.08785 5.13782 3.65265 7.86484C3.93565 9.23124 5.05218 10.6109 6.20326 11.7C6.76519 12.2316 7.30904 12.6697 7.71262 12.9748C7.81918 13.0554 7.91568 13.1265 7.99982 13.1874C8.08397 13.1265 8.18046 13.0554 8.28702 12.9748C8.6906 12.6697 9.23446 12.2316 9.79639 11.7C10.9475 10.6109 12.064 9.23123 12.347 7.86483C12.9119 5.13784 10.8652 2.66671 7.99982 2.66671ZM8.36499 14.5578L8.36646 14.5568L8.36979 14.5546L8.38111 14.5472C8.39069 14.5408 8.4043 14.5317 8.4217 14.52C8.45648 14.4965 8.50642 14.4624 8.56955 14.4183C8.69574 14.3302 8.87492 14.2019 9.09117 14.0384C9.5229 13.712 10.1064 13.2422 10.7127 12.6685C11.8981 11.547 13.2816 9.92674 13.6527 8.13525C14.396 4.54645 11.675 1.33337 7.99982 1.33337C4.32462 1.33337 1.60375 4.54647 2.34703 8.13525C2.71806 9.92674 4.10152 11.547 5.28692 12.6685C5.89323 13.2422 6.47675 13.712 6.90847 14.0384C7.12473 14.2019 7.3039 14.3302 7.4301 14.4183C7.49322 14.4624 7.54317 14.4965 7.57795 14.52C7.59534 14.5317 7.60895 14.5408 7.61853 14.5472L7.62985 14.5546L7.63319 14.5568L7.63426 14.5575C7.63451 14.5577 8.36489 14.5579 8.36499 14.5578ZM7.63494 14.558L7.99982 14.7966L8.36499 14.5578L7.63494 14.558Z" fill="#5D6164"/>
<path d="M5.48145 4H6.66663V10H5.48145V4Z" fill="#5D6164"/>
<path fill-rule="evenodd" clip-rule="evenodd" d="M7.66659 4V10H8.85177V8H9.22214C10.3267 8 11.2221 7.10457 11.2221 6C11.2221 4.89543 10.3267 4 9.22214 4H7.66659ZM10.037 6.66667H8.85177V5.33333H10.037V6.66667Z" fill="#5D6164"/>
<path d="M5.48145 4H6.66663V10H5.48145V4Z" stroke="#5D6164"/>
<path fill-rule="evenodd" clip-rule="evenodd" d="M7.66659 4V10H8.85177V8H9.22214C10.3267 8 11.2221 7.10457 11.2221 6C11.2221 4.89543 10.3267 4 9.22214 4H7.66659ZM10.037 6.66667H8.85177V5.33333H10.037V6.66667Z" stroke="#5D6164"/>
</svg>
