<svg width="24" height="24" viewBox="0 0 24 24" fill="none" xmlns="http://www.w3.org/2000/svg">
<path fill-rule="evenodd" clip-rule="evenodd" d="M3 4.66667C3 3.19391 4.19391 2 5.66667 2H14.379C15.0934 2 15.7779 2.28666 16.2792 2.79572L20.2335 6.81186C20.7247 7.31071 21 7.98272 21 8.6828V13H19V9.5H13.5V4H5.66667C5.29848 4 5 4.29848 5 4.66667V13H3V4.66667ZM15.5 4.85499L18.1043 7.5H15.5V4.85499Z" fill="#5D6164"/>
<path d="M9.3 16C9.02388 16 8.80005 16.2238 8.80005 16.4999C8.80005 16.776 9.02389 16.9999 9.30002 16.9999C10.6808 16.9999 11.8 18.1193 11.8 19.4999C11.8 20.8806 10.6808 22 9.30005 22C7.91934 22 6.80005 20.8807 6.80005 19.5V19.4829L8.80005 19.4829V19.5C8.80005 19.7761 9.02391 20 9.30005 20C9.57615 20 9.80005 19.7761 9.80005 19.4999C9.80005 19.2238 9.57614 18.9999 9.30002 18.9999C7.91936 18.9999 6.80005 17.8807 6.80005 16.4999C6.80005 15.1193 7.91931 14 9.3 14C10.6039 14 11.6609 15.057 11.6609 16.3609H9.66091C9.66091 16.1616 9.49932 16 9.3 16Z" fill="#5D6164"/>
<path fill-rule="evenodd" clip-rule="evenodd" d="M12.1001 16.5C12.1001 15.1193 13.2194 14 14.6001 14C15.9808 14 17.1001 15.1193 17.1001 16.5V19.5C17.1001 20.8807 15.9808 22 14.6001 22C13.2194 22 12.1001 20.8807 12.1001 19.5V16.5ZM14.6001 16C14.324 16 14.1001 16.2239 14.1001 16.5V19.5C14.1001 19.7761 14.324 20 14.6001 20C14.8762 20 15.1001 19.7761 15.1001 19.5V16.5C15.1001 16.2239 14.8762 16 14.6001 16Z" fill="#5D6164"/>
<path d="M4.5 19.5C4.5 19.7761 4.27614 20 4 20C3.72386 20 3.5 19.7761 3.5 19.5V18.8001H1.5V19.5C1.5 20.8807 2.61929 22 4 22C5.38071 22 6.5 20.8807 6.5 19.5V14.0001H4.5V19.5Z" fill="#5D6164"/>
<path d="M22.5 22H20.6835L19.5 19.3372V22H17.5V14H19.3165L20.5 16.6628V14H22.5V22Z" fill="#5D6164"/>
</svg>
