<svg width="32" height="32" viewBox="0 0 32 32" fill="none" xmlns="http://www.w3.org/2000/svg">
<path d="M16 21.3334H6.90002L5.33335 22.9001V5.33341H26.6667V14.6667H29.3334V5.33341C29.3334 4.60008 29.0725 3.97208 28.5507 3.44941C28.028 2.92764 27.4 2.66675 26.6667 2.66675H5.33335C4.60002 2.66675 3.97246 2.92764 3.45069 3.44941C2.92802 3.97208 2.66669 4.60008 2.66669 5.33341V29.3334L8.00002 24.0001H16V21.3334Z" fill="#DE8644"/>
<path fill-rule="evenodd" clip-rule="evenodd" d="M23.3334 16.0001C20.0196 16.0001 17.3334 18.6864 17.3334 22.0001C17.3334 25.3138 20.0196 28.0001 23.3334 28.0001C26.6471 28.0001 29.3334 25.3138 29.3334 22.0001C29.3334 18.6864 26.6471 16.0001 23.3334 16.0001ZM22.1335 18.8892C20.8854 19.3709 20 20.5821 20 22.0001C20 23.841 21.4924 25.3334 23.3334 25.3334C23.8143 25.3334 24.2715 25.2315 24.6845 25.0482L22.1335 22.4971V18.8892ZM26.3815 23.3511C26.5648 22.9381 26.6667 22.481 26.6667 22.0001C26.6667 20.5822 25.7814 19.3711 24.5335 18.8893V21.503L26.3815 23.3511Z" fill="#DE8644"/>
</svg>
