<svg width="32" height="32" viewBox="0 0 32 32" fill="none" xmlns="http://www.w3.org/2000/svg">
<mask id="mask0_8104_29966" style="mask-type:alpha" maskUnits="userSpaceOnUse" x="0" y="0" width="32" height="32">
<rect width="32" height="32" fill="#D9D9D9"/>
</mask>
<g mask="url(#mask0_8104_29966)">
<path d="M23.1333 26.6667L18.4333 21.9334L20.3 20.0667L23.1333 22.9001L28.8 17.2334L30.6667 19.1334L23.1333 26.6667ZM6.89999 21.3334H16V24.0001H7.99999L2.66666 29.3334V5.33341C2.66666 4.60008 2.92799 3.97208 3.45066 3.44941C3.97243 2.92764 4.59999 2.66675 5.33332 2.66675H26.6667C27.4 2.66675 28.028 2.92764 28.5507 3.44941C29.0724 3.97208 29.3333 4.60008 29.3333 5.33341V14.6667H26.6667V5.33341H5.33332V22.9001L6.89999 21.3334Z" fill="#29A653"/>
</g>
</svg>
