<svg width="24" height="24" viewBox="0 0 24 24" fill="none" xmlns="http://www.w3.org/2000/svg">
<path fill-rule="evenodd" clip-rule="evenodd" d="M3 4.66667C3 3.19391 4.19391 2 5.66667 2H14.379C15.0934 2 15.7779 2.28666 16.2792 2.79572L20.2335 6.81186C20.7247 7.31071 21 7.98272 21 8.6828V13H19V9.5H13.5V4H5.66667C5.29848 4 5 4.29848 5 4.66667V13H3V4.66667ZM15.5 4.85499L18.1043 7.5H15.5V4.85499Z" fill="#5D6164"/>
<path fill-rule="evenodd" clip-rule="evenodd" d="M5.51724 14H3V22H5V20.25H5.51724C7.1741 20.25 8.51724 18.9069 8.51724 17.25V17C8.51724 15.3431 7.1741 14 5.51724 14ZM5.51724 18.25H5V16H5.51724C6.06953 16 6.51724 16.4477 6.51724 17V17.25C6.51724 17.8023 6.06953 18.25 5.51724 18.25Z" fill="#5D6164"/>
<path fill-rule="evenodd" clip-rule="evenodd" d="M9.44824 14H11.9655C13.6223 14 14.9655 15.3431 14.9655 17V19C14.9655 20.6569 13.6223 22 11.9655 22H9.44824V14ZM11.4482 16V20H11.9655C12.5178 20 12.9655 19.5523 12.9655 19V17C12.9655 16.4477 12.5178 16 11.9655 16H11.4482Z" fill="#5D6164"/>
<path d="M20.9999 14H15.8965V22H17.8965V19.4405H20.4137V17.4405H17.8965V16H20.9999V14Z" fill="#5D6164"/>
</svg>
