<svg width="24" height="24" viewBox="0 0 24 24" fill="none" xmlns="http://www.w3.org/2000/svg">
<path fill-rule="evenodd" clip-rule="evenodd" d="M20 3H4C2.9 3 2.01 3.9 2.01 5L2 17C2 18.1 2.9 19 4 19H12V17H4V7L12 12L20 7V12H22V5C22 3.9 21.1 3 20 3ZM12 10L4 5H20L12 10ZM16.6 14.1669C15.664 14.5282 15 15.4366 15 16.5C15 17.8807 16.1193 19 17.5 19C17.8607 19 18.2036 18.9236 18.5133 18.7861L16.6 16.8728V14.1669ZM18.4 14.1669V16.1272L19.7861 17.5133C19.9236 17.2036 20 16.8607 20 16.5C20 15.4366 19.336 14.5282 18.4 14.1669ZM13 16.5C13 14.0147 15.0147 12 17.5 12C19.9853 12 22 14.0147 22 16.5C22 18.9853 19.9853 21 17.5 21C15.0147 21 13 18.9853 13 16.5Z" fill="#DE8644"/>
</svg>
