<svg xmlns="http://www.w3.org/2000/svg" width="48" height="48" viewBox="0 0 48 48">
<g transform="translate(-978 -400)"><circle opacity="0.05" fill="#fc0" cx="24" cy="24" r="24" transform="translate(978 400)"/><g transform="translate(0.998 -1)"><g transform="translate(989.001 352.003)"><g transform="translate(0 63.997)"><g transform="translate(0 0)"><path fill="#fc0" d="M20.848,65.511a.79.79,0,0,0-.032-.161A1.585,1.585,0,0,0,19.262,64H1.605A1.585,1.585,0,0,0,.051,65.35a.791.791,0,0,0-.032.161A.928.928,0,0,0,0,65.6V76.839a.928.928,0,0,0,.019.092.828.828,0,0,0,.032.162,1.585,1.585,0,0,0,1.554,1.352H12.829a.8.8,0,0,0,0-1.605H2.135l6.138-4.631,1.679,1.26a.8.8,0,0,0,.963,0l1.679-1.26,1.673,1.417a.8.8,0,1,0,.965-1.281l-1.3-1.138,5.332-4v4.408a.8.8,0,0,0,1.605,0V65.6A.928.928,0,0,0,20.848,65.511ZM1.605,75.229V67.207l5.332,4Zm8.829-3.406L2.14,65.6H18.728Z" transform="translate(0 -63.997)"/></g></g></g><g transform="translate(1002 423)"><path fill="#fc0" d="M5.5,0A5.5,5.5,0,1,0,11,5.5,5.5,5.5,0,0,0,5.5,0Zm0,9.838A4.34,4.34,0,1,1,9.838,5.5,4.345,4.345,0,0,1,5.5,9.838Z"/><path fill="#fc0" d="M60.136,41.755H57.882V39.8a.579.579,0,1,0-1.158,0v2.531a.579.579,0,0,0,.579.579h2.833a.579.579,0,1,0,0-1.158Z" transform="translate(-52.345 -36.196)"/></g></g></g></svg>