<svg width="24" height="24" viewBox="0 0 24 24" fill="none" xmlns="http://www.w3.org/2000/svg">
<path d="M20 3H4C2.9 3 2.01 3.9 2.01 5L2 17C2 18.1 2.9 19 4 19H8V17H4V7L12 12L20 7V12H22V5C22 3.9 21.1 3 20 3ZM12 10L4 5H20L12 10Z" fill="#3A73B5"/>
<path d="M17 20C17.9833 20 18.896 19.775 19.738 19.325C20.5793 18.875 21.25 18.2667 21.75 17.5C21.25 16.7333 20.5793 16.125 19.738 15.675C18.896 15.225 17.9833 15 17 15C16.0167 15 15.104 15.225 14.262 15.675C13.4207 16.125 12.75 16.7333 12.25 17.5C12.75 18.2667 13.4207 18.875 14.262 19.325C15.104 19.775 16.0167 20 17 20ZM17 22C15.4 22 13.971 21.5793 12.713 20.738C11.4543 19.896 10.55 18.8167 10 17.5C10.55 16.1833 11.4543 15.104 12.713 14.262C13.971 13.4207 15.4 13 17 13C18.6 13 20.0293 13.4207 21.288 14.262C22.546 15.104 23.45 16.1833 24 17.5C23.45 18.8167 22.546 19.896 21.288 20.738C20.0293 21.5793 18.6 22 17 22ZM17 19C16.5833 19 16.2293 18.854 15.938 18.562C15.646 18.2707 15.5 17.9167 15.5 17.5C15.5 17.0833 15.646 16.7293 15.938 16.438C16.2293 16.146 16.5833 16 17 16C17.4167 16 17.7707 16.146 18.062 16.438C18.354 16.7293 18.5 17.0833 18.5 17.5C18.5 17.9167 18.354 18.2707 18.062 18.562C17.7707 18.854 17.4167 19 17 19Z" fill="#3A73B5"/>
</svg>
