<svg xmlns="http://www.w3.org/2000/svg" width="11.976" height="15.329" viewBox="0 0 11.976 15.329"><defs><style>.a{fill:#1e75ba;}</style></defs><g transform="translate(-56)"><path class="a" d="M174.622,2.522h2.8a.74.74,0,0,0,0-1.48h-.363a1.039,1.039,0,1,0-2.078,0h-.363a.74.74,0,0,0,0,1.48Z" transform="translate(-114.356)"/><path class="a" d="M384.356,106.527a1.091,1.091,0,0,0-1.089,1.092v.31h2.178v-.31A1.091,1.091,0,0,0,384.356,106.527Z" transform="translate(-317.469 -103.338)"/><path class="a" d="M383.5,385.548l.612,1.03a.3.3,0,0,0,.515,0l.612-1.03a1.563,1.563,0,0,0,.219-.761h-2.177A1.563,1.563,0,0,0,383.5,385.548Z" transform="translate(-317.484 -373.267)"/><path class="a" d="M383.267,183.343h2.178v5.133h-2.178Z" transform="translate(-317.469 -177.854)"/><path class="a" d="M65.986,56.415l-.612-1.03a2.311,2.311,0,0,1-.324-1.18V47A1.838,1.838,0,0,1,67.3,45.209a1.511,1.511,0,0,0-1.469-1.169h-1.19a1.639,1.639,0,0,1-1.568,2.1h-2.8a1.639,1.639,0,0,1-1.568-2.1h-1.19A1.512,1.512,0,0,0,56,45.552V56.538a1.512,1.512,0,0,0,1.508,1.512h8.319a1.512,1.512,0,0,0,1.478-1.21,1.047,1.047,0,0,1-1.319-.425Zm-7.612-5.548h4.951a.449.449,0,1,1,0,.9H58.374a.449.449,0,1,1,0-.9Zm-.449-1.048a.449.449,0,0,1,.449-.449h4.434a.449.449,0,1,1,0,.9H58.374A.449.449,0,0,1,57.925,49.82Zm.449,2.545H60a.449.449,0,1,1,0,.9H58.374a.449.449,0,1,1,0-.9Zm4.434,3.892H58.374a.449.449,0,1,1,0-.9h4.434a.449.449,0,1,1,0,.9ZM64,54.759H58.374a.449.449,0,1,1,0-.9H64a.449.449,0,1,1,0,.9Zm0-5.987H58.374a.449.449,0,0,1,0-.9H64a.449.449,0,1,1,0,.9Z" transform="translate(0 -42.722)"/></g></svg>