<svg width="24" height="24" viewBox="0 0 24 24" fill="none" xmlns="http://www.w3.org/2000/svg">
<path d="M3.95455 12.7091L4.72727 11.3636L5.5 12.7091L6.68182 12.0273L5.90909 10.6818H7.45455V9.31819H5.90909L6.68182 7.98182L5.5 7.3L4.72727 8.63637L3.95455 7.3L2.77273 7.98182L3.54545 9.31819H2V10.6818H3.54545L2.77273 12.0273L3.95455 12.7091ZM10.0455 12.0273L11.2273 12.7091L12 11.3636L12.7727 12.7091L13.9545 12.0273L13.1818 10.6818H14.7273V9.31819H13.1818L13.9545 7.98182L12.7727 7.3L12 8.63637L11.2273 7.3L10.0455 7.98182L10.8182 9.31819H9.27273V10.6818H10.8182L10.0455 12.0273ZM22 9.31819H20.4545L21.2273 7.98182L20.0455 7.3L19.2727 8.63637L18.5 7.3L17.3182 7.98182L18.0909 9.31819H16.5455V10.6818H18.0909L17.3182 12.0273L18.5 12.7091L19.2727 11.3636L20.0455 12.7091L21.2273 12.0273L20.4545 10.6818H22V9.31819Z" fill="var(--color-sidenav-menu-link-icon)"/>
<path fill-rule="evenodd" clip-rule="evenodd" d="M2 4C2 2.89543 2.89543 2 4 2H20C21.1046 2 22 2.89543 22 4V5.5H20V4H4V5.5H2V4ZM4 17.4768V14.5H2V22.0232L6.38898 18H20C21.1046 18 22 17.1046 22 16V14.5H20V16H5.61102L4 17.4768Z" fill="var(--color-sidenav-menu-link-icon)"/>
</svg>
