<svg xmlns="http://www.w3.org/2000/svg" width="14.57" height="19.84" viewBox="0 0 14.57 19.84">
  <path id="id-card_1_" data-name="id-card (1)" d="M12.245,2.325H9.61a2.325,2.325,0,1,0-4.65,0H2.325A2.328,2.328,0,0,0,0,4.65V17.515A2.328,2.328,0,0,0,2.325,19.84h9.92a2.328,2.328,0,0,0,2.325-2.325V4.65A2.328,2.328,0,0,0,12.245,2.325Zm-5.735,0a.775.775,0,0,1,1.55,0v1.55H6.51Zm6.51,15.19a.776.776,0,0,1-.775.775H2.325a.776.776,0,0,1-.775-.775V4.65a.776.776,0,0,1,.775-.775H4.96v1.55H9.61V3.875h2.635a.776.776,0,0,1,.775.775ZM9.24,10.684a2.441,2.441,0,1,0-3.909,0,3.643,3.643,0,0,0-1.688,3.073h1.55a2.093,2.093,0,1,1,4.185,0h1.55A3.643,3.643,0,0,0,9.24,10.684ZM6.394,9.223a.891.891,0,1,1,.891.891A.892.892,0,0,1,6.394,9.223ZM3.643,15.19h7.285v1.55H3.643Zm0,0" fill="#465165"/>
</svg>
