<svg width="24" height="24" viewBox="0 0 24 24" fill="none" xmlns="http://www.w3.org/2000/svg">
<path d="M5.6381 14.9077C5.6381 16.1863 4.60549 17.2198 3.32784 17.2198C2.0502 17.2198 1.01758 16.1863 1.01758 14.9077C1.01758 13.629 2.0502 12.5956 3.32784 12.5956H5.6381V14.9077Z" fill="#E01E5A"/>
<path d="M6.79321 14.9077C6.79321 13.629 7.82583 12.5956 9.10348 12.5956C10.3811 12.5956 11.4137 13.629 11.4137 14.9077V20.6879C11.4137 21.9666 10.3811 23 9.10348 23C7.82583 23 6.79321 21.9666 6.79321 20.6879V14.9077Z" fill="#E01E5A"/>
<path d="M9.10348 5.62421C7.82583 5.62421 6.79321 4.59077 6.79321 3.3121C6.79321 2.03344 7.82583 1 9.10348 1C10.3811 1 11.4137 2.03344 11.4137 3.3121V5.62421H9.10348Z" fill="#36C5F0"/>
<path d="M9.10342 6.79776C10.3811 6.79776 11.4137 7.8312 11.4137 9.10986C11.4137 10.3885 10.3811 11.422 9.10342 11.422H3.31026C2.03262 11.422 1 10.3885 1 9.10986C1 7.8312 2.03262 6.79776 3.31026 6.79776H9.10342Z" fill="#36C5F0"/>
<path d="M18.3621 9.10986C18.3621 7.8312 19.3947 6.79776 20.6723 6.79776C21.95 6.79776 22.9826 7.8312 22.9826 9.10986C22.9826 10.3885 21.95 11.422 20.6723 11.422H18.3621V9.10986Z" fill="#2EB67D"/>
<path d="M17.207 9.10988C17.207 10.3885 16.1743 11.422 14.8967 11.422C13.619 11.422 12.5864 10.3885 12.5864 9.10988V3.3121C12.5864 2.03344 13.619 1 14.8967 1C16.1743 1 17.207 2.03344 17.207 3.3121V9.10988Z" fill="#2EB67D"/>
<path d="M14.8967 18.3758C16.1743 18.3758 17.207 19.4093 17.207 20.6879C17.207 21.9666 16.1743 23 14.8967 23C13.619 23 12.5864 21.9666 12.5864 20.6879V18.3758H14.8967Z" fill="#ECB22E"/>
<path d="M14.8967 17.2198C13.619 17.2198 12.5864 16.1863 12.5864 14.9077C12.5864 13.629 13.619 12.5956 14.8967 12.5956H20.6898C21.9675 12.5956 23.0001 13.629 23.0001 14.9077C23.0001 16.1863 21.9675 17.2198 20.6898 17.2198H14.8967Z" fill="#ECB22E"/>
</svg>
