<svg width="48" height="48" viewBox="0 0 48 48" fill="none" xmlns="http://www.w3.org/2000/svg">
<path opacity="0.05" d="M24 48C37.2548 48 48 37.2548 48 24C48 10.7452 37.2548 0 24 0C10.7452 0 0 10.7452 0 24C0 37.2548 10.7452 48 24 48Z" fill="#E4C938"/>
<path d="M30 17.3333H26.3333V16.6667H29C29.3682 16.6667 29.6667 16.3682 29.6667 16V14.6667C29.6667 14.2985 29.3682 14 29 14H26.3333C25.9651 14 25.6667 14.2985 25.6667 14.6667V17.3333H20.6667C18.7117 17.3238 17.0401 18.7373 16.7247 20.6667H15C14.4477 20.6667 14 21.1144 14 21.6667V26.3333C14 26.8856 14.4477 27.3333 15 27.3333H24V33.3333C24.0219 33.7213 24.3526 34.0189 24.7407 34H27.5927C27.9808 34.0189 28.3115 33.7213 28.3333 33.3333V27.3333H33.3333C33.7015 27.3333 34 27.0349 34 26.6667V21.3333C33.9976 19.1252 32.2081 17.3357 30 17.3333ZM26.3333 14.6667H29V16H26.3333V14.6667ZM20.6667 18C22.5068 18.002 23.998 19.4932 24 21.3333V26.6667H23.272C23.3115 26.5599 23.3322 26.4471 23.3333 26.3333V21.6667C23.3333 21.1144 22.8856 20.6667 22.3333 20.6667H17.4C17.7092 19.1099 19.0795 17.9913 20.6667 18ZM17.2403 24.1037L14.6667 26.282V21.9257L17.2403 24.1037ZM17.7563 24.5403L18.0207 24.7637C18.3941 25.0771 18.9386 25.0771 19.312 24.7637L19.5787 24.5397L22.0897 26.6667H15.2437L17.7563 24.5403ZM22.6667 21.9257V26.282L20.093 24.1037L22.6667 21.9257ZM22.3333 21.3333L18.8807 24.2563C18.7567 24.3604 18.5759 24.3604 18.452 24.2563L15 21.3333H22.3333ZM27.6737 33.3073C27.651 33.326 27.622 33.3353 27.5927 33.3333H24.7407C24.7182 33.3318 24.696 33.3287 24.674 33.324C24.67 33.324 24.6677 33.324 24.667 33.3283V27.3333H25.667V32.3333C25.667 32.5174 25.8162 32.6667 26.0003 32.6667C26.1844 32.6667 26.3337 32.5174 26.3337 32.3333V27.3333H27.667L27.6737 33.3073ZM33.3333 26.6667H24.6667V21.3333C24.6656 19.9917 23.9921 18.74 22.873 18H30C31.8401 18.002 33.3313 19.4932 33.3333 21.3333V26.6667Z" fill="#E4C938"/>
<path d="M29.3333 23.3333C28.9651 23.3333 28.6667 23.6318 28.6667 24V25.3333C28.6667 25.7015 28.9651 26 29.3333 26H32C32.3682 26 32.6666 25.7015 32.6666 25.3333V24C32.6666 23.6318 32.3682 23.3333 32 23.3333H29.3333ZM29.3333 25.3333V24H32V25.3333H29.3333Z" fill="#E4C938"/>
</svg>
