<svg width="24" height="24" viewBox="0 0 24 24" fill="none" xmlns="http://www.w3.org/2000/svg">
<path d="M20 3H4C2.9 3 2.01 3.9 2.01 5L2 17C2 18.1 2.9 19 4 19H12V17H4V7L12 12L20 7V12H22V5C22 3.9 21.1 3 20 3ZM12 10L4 5H20L12 10Z" fill="#5D6164"/>
<path fill-rule="evenodd" clip-rule="evenodd" d="M19.25 17.5H15.75V15.5H19.25V17.5Z" fill="#5D6164"/>
<path fill-rule="evenodd" clip-rule="evenodd" d="M17.5 14C16.1193 14 15 15.1193 15 16.5C15 17.8807 16.1193 19 17.5 19C18.8807 19 20 17.8807 20 16.5C20 15.1193 18.8807 14 17.5 14ZM13 16.5C13 14.0147 15.0147 12 17.5 12C19.9853 12 22 14.0147 22 16.5C22 18.9853 19.9853 21 17.5 21C15.0147 21 13 18.9853 13 16.5Z" fill="#5D6164"/>
</svg>
