<svg width="24" height="24" viewBox="0 0 24 24" fill="none" xmlns="http://www.w3.org/2000/svg">
<mask id="mask0_6387_22718" style="mask-type:alpha" maskUnits="userSpaceOnUse" x="0" y="0" width="24" height="24">
<rect width="24" height="24" fill="#1e75ba"/>
</mask>
<g mask="url(#mask0_6387_22718)">
<path fill-rule="evenodd" clip-rule="evenodd" d="M17 21V19H20V5H17V3H22V21H17ZM2 21V3H7V5H4V19H7V21H2ZM7.5 8C7.5 7.44772 7.94772 7 8.5 7H8.70973C10.3823 7 11.8545 8.03628 12.4417 9.55821L12.9791 8.76211C13.7228 7.66034 14.9652 7 16.2945 7H16.5C17.0523 7 17.5 7.44772 17.5 8C17.5 8.55228 17.0523 9 16.5 9H16.2945C15.6298 9 15.0086 9.33017 14.6368 9.88105L13.0684 12.2046L13.3359 13.4274C13.5367 14.3456 14.3498 15 15.2897 15H15.5C16.0523 15 16.5 15.4477 16.5 16C16.5 16.5523 16.0523 17 15.5 17H15.2897C13.6172 17 12.1454 15.9638 11.5583 14.4418L11.0209 15.2379C10.2772 16.3397 9.03479 17 7.70552 17H7.5C6.94772 17 6.5 16.5523 6.5 16C6.5 15.4477 6.94772 15 7.5 15H7.70552C8.37016 15 8.99137 14.6698 9.36322 14.1189L10.9316 11.7954L10.6641 10.5726C10.4632 9.65436 9.65032 9 8.71053 9H8.50085C7.94856 9 7.5 8.55228 7.5 8Z" fill="#1e75ba"/>
</g>
</svg>
