<svg height='300px' width='300px'  fill="#1e75ba" xmlns="http://www.w3.org/2000/svg" data-name="Layer 1" viewBox="0 0 512 512" x="0px" y="0px"><title>Voice File copy</title><path d="M351,488H115.51a36.1,36.1,0,0,1-36-36.12V128a8,8,0,0,0-16,0V451.88a52.12,52.12,0,0,0,52,52.12H351a8,8,0,1,0,0-16Z"></path><path d="M438,83.31,366.12,16.7A32.57,32.57,0,0,0,343.93,8H115.51a52.12,52.12,0,0,0-52,52.12v23.1a8,8,0,0,0,16,0V60.12a36.1,36.1,0,0,1,36-36.12H332.37l1.26,65.26a27,27,0,0,0,26.79,26.32H432.5v336.3a36.1,36.1,0,0,1-36,36.12,8,8,0,0,0,0,16,52.12,52.12,0,0,0,52-52.12V107.35A32.87,32.87,0,0,0,438,83.31ZM360.42,99.58A10.87,10.87,0,0,1,349.63,89l-1.25-64.34a16.62,16.62,0,0,1,6.86,3.83L427.13,95a16.66,16.66,0,0,1,3.44,4.54Z"></path><path d="M261.37,311.33a31.55,31.55,0,0,0,31.51-31.51V229.67a31.51,31.51,0,1,0-63,0v50.15A31.54,31.54,0,0,0,261.37,311.33Zm-15.51-81.66a15.51,15.51,0,1,1,31,0v50.15a15.51,15.51,0,1,1-31,0Z"></path><path d="M217.9,278.24a8,8,0,0,0-8,8c0,23.71,18.73,43.42,43.15,47v17h-9.84a8,8,0,1,0,0,16H280a8,8,0,0,0,0-16H269.05v-17c24.41-3.59,43.14-23.3,43.14-47a8,8,0,0,0-16,0c0,17.42-15.76,31.59-35.14,31.59s-35.15-14.17-35.15-31.59A8,8,0,0,0,217.9,278.24Z"></path></svg>