<svg xmlns="http://www.w3.org/2000/svg" width="15.232" height="12.495" viewBox="0 0 15.232 12.495">
    <g transform="translate(0 -46)">
        <path fill="#687484" d="M0,46v3.57H15.232V46Zm2.678,2.231H1.785v-.893h.893Zm1.785,0H3.57v-.893h.893Zm1.785,0H5.355v-.893h.893Z"/>
        <path fill="#687484" d="M0,204.033H15.232V196H0Zm10.2-6.025.631-.631,2.209,2.209-2.209,2.209-.631-.631,1.578-1.578Zm-1.914-.5.765.459-2.1,3.511-.765-.459ZM4.4,197.377l.631.631-1.578,1.578,1.578,1.578-.631.631L2.19,199.586Z" transform="translate(0 -145.537)"/>
    </g>
</svg>