<svg xmlns="http://www.w3.org/2000/svg" width="152.429" height="199.39" viewBox="0 0 152.429 199.39"><defs><style>.a,.c{fill:#465165;}.b{fill:#fff;}.b,.d{stroke:#465165;}.c{font-size:14px;font-family:'Inter', sans-serif;}.d,.f{fill:none;}.e{stroke:none;}</style></defs><g transform="translate(-865 -628)"><g transform="translate(865 628)"><path class="a" d="M72.778,90.171c-.739.248-1.443.476-2.156.676a4.378,4.378,0,0,1-1.078.2,28.235,28.235,0,0,1-5.862-.352c-.862-.165-1.76-.17-2.6-.394-1.392-.369-2.763-.824-4.12-1.307-.62-.22-1.176-.615-1.781-.883a.721.721,0,0,0-.613.04c-1.018.772-2.016,1.57-3.008,2.376q-1.772,1.44-3.52,2.908c-.672.564-1.339,1.137-1.98,1.737-1.581,1.479-3.2,2.922-4.706,4.478a48.673,48.673,0,0,0-6.985,9A42.364,42.364,0,0,0,30.912,116a19.911,19.911,0,0,0-1.214,4.663,20.552,20.552,0,0,0,.265,4.465c.311,2.766,1.39,5.306,2.223,7.919a42.893,42.893,0,0,1,1.716,6.714c.2,1.368.435,2.732.607,4.1.193,1.544.34,3.095.5,4.644.131,1.3.243,2.6.371,3.9.159,1.61.306,3.221.495,4.828.224,1.905.445,3.813.742,5.708q.548,3.5,1.228,6.977c.3,1.559.751,3.09,1.069,4.646a69.307,69.307,0,0,0,2.426,8.323,1.291,1.291,0,0,1-.018.81.589.589,0,0,1-.532.246,1.116,1.116,0,0,1-.608-.538c-.407-1.122-.8-2.253-1.112-3.4-.646-2.4-1.274-4.8-1.84-7.215-.465-1.986-.861-3.989-1.228-6-.26-1.419-.419-2.856-.625-4.285-.2-1.409-.43-2.814-.606-4.226-.12-.964-.156-1.937-.256-2.9-.15-1.447-.327-2.892-.485-4.338-.054-.493-.083-.989-.125-1.483-.123-1.463-.181-2.935-.383-4.386-.311-2.228-.7-4.446-1.108-6.659a5.138,5.138,0,0,0-.6-1.222c-.615-1.238-1.308-2.446-1.82-3.725a38.747,38.747,0,0,1-1.4-4.326,16.909,16.909,0,0,1-.45-2.881,59.235,59.235,0,0,1-.381-7.517,18.1,18.1,0,0,1,1.871-7.757,19.555,19.555,0,0,1,2.878-4.205c1.74-1.923,3.467-3.859,5.257-5.735,1.692-1.773,3.434-3.5,5.2-5.2C44.5,94.459,46.065,93,47.674,91.6a95.585,95.585,0,0,1,8.009-6.4,15.727,15.727,0,0,0,2.768-3.3,19.253,19.253,0,0,0,2.3-4.509.838.838,0,0,0,.015-.287,2.779,2.779,0,0,0-.454,0c-.631.1-1.286.3-1.742-.367a1.258,1.258,0,0,1-.233-.634c-.057-2.294-.149-4.59-.112-6.883a9.4,9.4,0,0,0-.79-4.221c-1.217-2.552-1.859-5.288-2.816-7.919A33.641,33.641,0,0,0,52.7,53.1a21.463,21.463,0,0,1-2.136-5.32,27.892,27.892,0,0,1-.435-6.86c.036-1.265.349-2.52.455-3.787.1-1.205.105-2.419.133-3.63a28.8,28.8,0,0,0-.479-5.566c-.252-1.462-.4-2.941-.63-4.407-.146-.933-.327-1.863-.539-2.783a8.286,8.286,0,0,0-1.772-2.885,3.4,3.4,0,0,1-.488-.717.765.765,0,0,1,.036-.656.787.787,0,0,1,.685-.206,6.124,6.124,0,0,0,4.343.023A30.663,30.663,0,0,0,54.8,15.228c1.6-.688,3.178-1.418,4.743-2.177a1.9,1.9,0,0,0,.643-.754,7.677,7.677,0,0,0,.472-1.03.882.882,0,0,0,.022-.272c-.1.005-.224-.027-.292.021-.634.453-1.222.981-1.891,1.371-1.626.948-3.248,1.92-4.948,2.719a8.109,8.109,0,0,1-4.567.948,1.484,1.484,0,0,1-.7-.462.866.866,0,0,1,.321-.484,1.678,1.678,0,0,1,.8-.134,9.5,9.5,0,0,0,5.461-1.781c1.583-.947,3.121-1.973,4.639-3.022,1.646-1.137,3.224-2.374,4.873-3.507,1.295-.89,2.623-1.74,3.99-2.514a24.029,24.029,0,0,1,5.991-2.567c1.413-.353,2.829-.717,4.263-.959C80.071.379,81.552.308,83.013.107a8.881,8.881,0,0,1,5.552.877,5.738,5.738,0,0,1,2.166,1.879.637.637,0,0,0,.921.216A7.113,7.113,0,0,1,93.026,2.7a.545.545,0,0,1,.687.488.992.992,0,0,1-.209.584.847.847,0,0,1-.386.383c-.784.237-.232.784-.3,1.182.291.034.582.07.874.1.054.005.11-.036.166-.039.781-.043,1.564-.147,2.342-.112a19.566,19.566,0,0,1,6.542,1.381c1.891.768,3.786,1.529,5.7,2.243a6.778,6.778,0,0,0,1.424.173,1.645,1.645,0,0,1,.6.169c.759.447,1.507.912,2.251,1.383,1.362.863,2.741,1.7,4.07,2.612,1.157.792,2.269,1.653,3.37,2.523a.8.8,0,0,1,.238.718c-.11.214-.456.314-.712.44-.082.041-.236-.033-.3.018-.5.42-.9.084-1.263-.186-.45-.334-.843-.3-1.131.131a13.222,13.222,0,0,0-1.208,2.075,33.069,33.069,0,0,0-1.234,3.415c-.344,1.132-.507,2.322-.887,3.44a24.719,24.719,0,0,1-1.469,3.438c-1.018,1.957-2.1,3.884-3.216,5.784a3.788,3.788,0,0,1-1.3,1.288c-.777.455-1.659.727-2.481,1.11-.23.107-.391.35-.608.5s-.5.374-.676.32a1.044,1.044,0,0,1-.528-.608,3.746,3.746,0,0,1-.034-.81c-.007-.055-.26-.153-.294-.121a4.271,4.271,0,0,0-.444.546,12.464,12.464,0,0,0-1.75,3.2c-.416,1.154-1.025,2.241-1.406,3.4A42.158,42.158,0,0,0,98,49.084c-.384,2.02-.523,4.086-.769,6.132a5.133,5.133,0,0,0-.11.93.616.616,0,0,1-.532.728.865.865,0,0,1-.685-.392,5.134,5.134,0,0,1-.5-1.444c-.2-1.111-.337-2.235-.5-3.353a14.348,14.348,0,0,0-1.183-4.539A7.529,7.529,0,0,0,91.4,44.071c-.167-.11-.526-.175-.641-.077a.64.64,0,0,1-1.091-.237c-.217-.413-.46-.335-.775-.265a2.5,2.5,0,0,0-1.615,1.374,3.011,3.011,0,0,1-.785.886,4.7,4.7,0,0,0-1.424,2.169,12.817,12.817,0,0,0-.971,5.06,25.885,25.885,0,0,0,.022,2.964,15.432,15.432,0,0,0,1.314,5.4.818.818,0,0,1-.045.719c-.836,1.092-1.763,2.117-2.569,3.229a14.9,14.9,0,0,1-4.2,3.9c-2.329,1.456-4.706,2.838-7.1,4.176a23.149,23.149,0,0,1-5.534,2.486c-.964.243-1.92.529-2.9.7a1.619,1.619,0,0,0-1.455,1.367,16.638,16.638,0,0,1-2.73,5.492c-.461.661-1.011,1.258-1.509,1.894-.386.491-.741,1.007-1.135,1.491-.271.333-.111.441.193.6a18.732,18.732,0,0,0,5.388,1.808,36.8,36.8,0,0,0,6.5.636,9.759,9.759,0,0,0,5.747-1.847,8.934,8.934,0,0,0,2.822-2.47,2.992,2.992,0,0,0,.433-1.344c.062-1.081.009-2.167.026-3.251a4.448,4.448,0,0,1,.14-1.292c.092-.283.4-.5.615-.737.018-.02.095.015.117-.005,1.064-.947,2.085-.227,3.015.19a48.757,48.757,0,0,0,5.3,2.325,8.441,8.441,0,0,0,5.92-.247,4.989,4.989,0,0,0,2.3-2.2c.778-1.266,1.505-2.563,2.222-3.865.943-1.714,1.856-3.444,2.777-5.17.554-1.038,1.073-2.1,1.656-3.117a18.623,18.623,0,0,0,1.708-4.878c.4-1.595.822-3.183,1.184-4.785.335-1.484.6-2.984.9-4.476.278-1.378.577-2.751.834-4.132.129-.692.2-1.4.265-2.1a19.78,19.78,0,0,0,.115-2.28c-.025-.868-.173-1.731-.218-2.6a1.331,1.331,0,0,1,.239-.749.571.571,0,0,1,.509-.181.6.6,0,0,1,.329.436,33.174,33.174,0,0,1,.225,4.314c-.1,1.748-.433,3.485-.7,5.222-.169,1.086-.408,2.161-.61,3.242a.316.316,0,0,0,.031.229,16.946,16.946,0,0,1,1.737,3.455c.408.815.881,1.6,1.294,2.41a2.285,2.285,0,0,1-2.049,3.38,12.276,12.276,0,0,0-1.972.131c-.881.153-1.157.993-1.459,1.645-.554,1.2-.95,2.47-1.387,3.72a26.367,26.367,0,0,1-2.6,5.239c-1.315,2.107-2.742,4.143-4.1,6.222-.267.409-.432.884-.666,1.317a.48.48,0,0,1-.682.284,1.405,1.405,0,0,0-1.014.158,8.282,8.282,0,0,1-4.909,1.017A14.7,14.7,0,0,1,82.872,81.2c-.868-.456-1.806-.775-2.7-1.189-.484-.225-.712.073-.814.41a6.245,6.245,0,0,0-.278,1.6,3.864,3.864,0,0,1-.363,1.7,7.884,7.884,0,0,0-.276,1.3,3.223,3.223,0,0,1-.5,1.2,15.748,15.748,0,0,1-5.164,3.964M67.715,6.865c.631-1.014,1.82-1.249,2.328-.131a.827.827,0,0,0,.264.373.705.705,0,0,0,.513.113c.636-.239,1.234-.592,1.882-.78a2.32,2.32,0,0,0,1.614-1.633.93.93,0,0,1,.087-.148,1.216,1.216,0,0,1,1.993-.3,1.2,1.2,0,0,0,.73.278,2.59,2.59,0,0,0,.817-.227,34.811,34.811,0,0,1,6.081-1.615,13.113,13.113,0,0,1,4.164-.258c.1.016.219-.106.329-.164a1.19,1.19,0,0,0-.22-.2,7.29,7.29,0,0,0-3.407-.931,27.652,27.652,0,0,0-3.575.239,34.421,34.421,0,0,0-4.594.753A41.473,41.473,0,0,0,70.8,4.206a35.354,35.354,0,0,0-4.54,2.656c-1,.627-1.946,1.336-2.9,2.037a1.084,1.084,0,0,0-.473.646c-.02.518,1.125,1.128,1.611.895.666-.32,1.33-.644,1.972-1.009a1.16,1.16,0,0,0,.433-.544c.27-.644.5-1.305.807-2.021M60.29,26.932c.041-.167.093-.332.121-.5.167-.994.339-1.988.49-2.984.175-1.157.36-2.313.485-3.475.121-1.127.16-2.262.259-3.391.055-.622.161-1.24.238-1.861a1.937,1.937,0,0,0-.012-.321c-.125.012-.308-.024-.365.045a2.326,2.326,0,0,0-.583.854c-.29,1.339-.52,2.692-.753,4.044-.257,1.49-.473,2.988-.744,4.475-.3,1.667-.613,3.334-.986,4.987-.428,1.9-.968,3.774-1.381,5.676-.225,1.038-1.087,2.042-.32,3.174a4.282,4.282,0,0,0,.658.633,2.972,2.972,0,0,0,.426-.725c.27-1.078.484-2.17.74-3.252.4-1.711.825-3.418,1.235-5.127.17-.707.328-1.417.492-2.249m8.407-.675c.143-1.392.31-2.782.423-4.176.112-1.374.171-2.752.252-4.129.043-.739.108-1.478.118-2.218.019-1.478.028-2.958-.016-4.435-.008-.255-.3-.5-.459-.753-.192.169-.4.327-.573.509a4.047,4.047,0,0,0-.308.422.906.906,0,0,0,.044,1.263,1.52,1.52,0,0,1,.438.788c.041,1.559.1,3.125-.005,4.679a30.392,30.392,0,0,1-.589,3.426c-.222,1.215-.459,2.428-.675,3.644-.234,1.316-.454,2.634-.673,3.952a21.616,21.616,0,0,0-.349,2.363,14.241,14.241,0,0,0,.114,2.337c.061.545.558.483.9.4a.786.786,0,0,0,.419-.582c.085-.878.068-1.766.151-2.644.065-.693.23-1.375.335-2.065.138-.906.261-1.814.452-2.782m10.31-9.819c.1-.632.2-1.265.309-1.9q.268-1.511.557-3.018c.192-1,.55-2-.073-2.968-.114-.178-.292-.424-.451-.433a.712.712,0,0,0-.511.365,9.358,9.358,0,0,0-.5,1.261A31.255,31.255,0,0,0,76.982,18.2c-.045.718-.089,1.437-.122,2.156-.085,1.825-.172,3.651-.235,5.477-.006.179.146.363.225.545.122-.14.317-.263.355-.423.232-.971.436-1.948.633-2.927.248-1.228.5-2.455.712-3.689.162-.942.265-1.894.456-2.9m33.322,3.375c-.029.029-.078.054-.084.087a17.963,17.963,0,0,1-1.479,4.539c-.32.686-.681,1.353-1.009,2.035a1.346,1.346,0,0,0-.056.407c.116-.041.229-.092.347-.122a1.811,1.811,0,0,1,.618-.124c.606.076.856-.294,1.048-.759.209-.506.4-1.018.616-1.523a23.964,23.964,0,0,0,1.74-6.768,3.648,3.648,0,0,1,1.4-2.912.664.664,0,0,0,.011-.631c-.561-.433-1.172-.8-1.769-1.19-.369-.24-.472-.044-.53.3-.1.627-.246,1.247-.361,1.872-.13.7-.287,1.407-.359,2.117-.085.844-.092,1.7-.133,2.667m-8.1-.982c.056.3.185.435.36.088.187-.369.3-.774.465-1.156.415-.972.826-1.947,1.265-2.909.619-1.358,1.217-2.73,1.92-4.045.231-.433.152-.575-.207-.686a23.239,23.239,0,0,0-2.418-.668c-.887-.171-.881-.122-.9.75-.029,1.557-.044,3.115-.13,4.669-.071,1.28-.235,2.555-.358,3.956m-37.066-.859a.7.7,0,0,0,.083-.21c.058-1.245.111-2.49.154-3.736,0-.053-.11-.111-.168-.166-.064.071-.173.134-.185.213-.174,1.1-.35,2.191-.492,3.291-.109.841-.147,1.692-.256,2.533-.187,1.45-.405,2.9-.608,4.345-.165,1.179-.32,2.359-.493,3.536-.2,1.327-.405,2.652-.612,3.977-.15.959-.308,1.917-.457,2.876a4.577,4.577,0,0,0-.191,2.133c.482,1.737.767,3.528,1.147,5.295a1.38,1.38,0,0,0,.256.4,1.382,1.382,0,0,0,.217-.433,3.808,3.808,0,0,0,0-1c-.153-.911-.388-1.81-.513-2.725a14.482,14.482,0,0,1-.084-2.071c0-.583.086-1.165.108-1.749.006-.165-.114-.335-.109-.5q.042-1.539.12-3.076A8.983,8.983,0,0,1,65.2,29.79c.32-1.807.654-3.612.977-5.419.161-.9.322-1.791.462-2.69.185-1.194.349-2.391.521-3.709M83.855,4.594c-.041.8-.074,1.6-.126,2.4-.026.391-.076.782-.136,1.17C83.4,9.416,83.187,10.661,83,11.91c-.175,1.158-.336,2.318-.492,3.478q-.257,1.922-.485,3.847c-.015.125.08.262.124.394a1.247,1.247,0,0,0,.229-.364c.217-1.079.353-2.178.633-3.239a88.887,88.887,0,0,1,2.567-8.938c.137-.363.1-.578-.332-.728a.811.811,0,0,1-.3-1.476,10.351,10.351,0,0,1,1.3-.845,4.387,4.387,0,0,0,.4-.339,1.6,1.6,0,0,0-.54-.115,11.388,11.388,0,0,0-1.694.353c-.219.069-.371.349-.554.656M54.644,42.4c.041.6.067,1.193.127,1.787.051.5.141,1,.217,1.5q.317,2.074.639,4.148a10.007,10.007,0,0,0,.277,1.541c.537,1.654,1.092,3.3,1.7,4.935a22.614,22.614,0,0,0,1.07,2.252c.052.1.218.147.331.219a1.625,1.625,0,0,0,.057-.343c-.034-.739-.077-1.478-.122-2.217,0-.052-.052-.1-.071-.153-.808-2.28-1.671-4.543-2.408-6.846a23.068,23.068,0,0,1-1.206-7.349,2.182,2.182,0,0,0-.123-.52,3.377,3.377,0,0,0-.473.5c-.065.1-.012.279-.012.544m44-33.2a1.555,1.555,0,0,1,1.4,1.156,11,11,0,0,1,.244,2.288c-.02,1.3-.134,2.593-.233,3.887-.055.725-.164,1.446-.235,2.17a.986.986,0,0,0,.08.318c.094-.085.237-.153.274-.258a5.869,5.869,0,0,0,.366-1.257c.191-1.75.315-3.507.511-5.256a22.925,22.925,0,0,1,.515-3.1c.1-.4-.015-.406-.276-.433-.473-.05-.948-.084-1.422-.125-1.4-.123-2.8-.23-4.2-.375-.589-.061-.662.217-.645.707.032.947,0,1.9.016,2.843a1.075,1.075,0,0,0,.155.362,1.372,1.372,0,0,0,.2-.241,14.869,14.869,0,0,1,.877-1.719A1.945,1.945,0,0,1,98.644,9.2m1.964,23.565c.946-.532,1.894-1.059,2.836-1.6a3.742,3.742,0,0,0,1.2-.765,14.359,14.359,0,0,0,1.193-2.136,45.609,45.609,0,0,0,2.04-4.246,22.565,22.565,0,0,0,.764-3.488c.009-.045-.09-.161-.107-.155a.484.484,0,0,0-.249.147c-.18.291-.326.6-.506.893a13.743,13.743,0,0,0-1.738,4.195,22.631,22.631,0,0,1-1.344,3.917c-.491,1.125-1.226,1.237-2.133.554a.589.589,0,0,0-.567.091c-.592.7-1.142,1.443-1.706,2.171-.205.265-.221.442.317.419M63.481,40.678c-.164-.688-.323-1.377-.494-2.063-.048-.191-.131-.373-.2-.559-.138.208-.288.41-.407.629a.569.569,0,0,0-.005.3c.162,1.423.3,2.85.5,4.269.131.956.324,1.9.513,2.85.222,1.11.474,2.214.7,3.323.175.848.329,1.7.509,2.548.024.111.148.2.226.3a2.1,2.1,0,0,0,.241-.353.728.728,0,0,0,.006-.3c-.04-.8-.091-1.6-.118-2.4a7.878,7.878,0,0,0,.022-1.137c-.27-1.454-.585-2.9-.885-4.349-.2-.978-.409-1.955-.613-3.055m18.778-.736.1.552a4.156,4.156,0,0,0,.448-.367,6.789,6.789,0,0,0,.734-.86A22.437,22.437,0,0,0,85.3,36.442c.526-1.135.223-2.41.268-3.624,0-.058-.063-.119-.1-.179a1.51,1.51,0,0,0-.239.16c-.434.427-.859.864-1.3,1.289-.18.175-.5.3-.553.494-.325,1.261-.6,2.535-.875,3.807-.1.472-.167.953-.249,1.552M62.376,72.221c-.164.831-.339,1.659-.48,2.494-.025.149.06.439.151.464a2.538,2.538,0,0,0,1.092.154c1.071-.2,2.134-.45,3.187-.728.552-.146,1.171-.24,1.472-.83.049-.1-.072-.277-.114-.419-.092.044-.219.062-.27.135a1.329,1.329,0,0,1-2.454-.141c-.642-1.13-1.372-2.211-2.071-3.308-.049-.077-.168-.11-.255-.164-.045.083-.123.164-.129.251-.051.656-.087,1.313-.128,2.093m9.757-42.159c.1-.673.212-1.345.305-2.018.169-1.219.335-2.438.49-3.658.094-.741.143-1.488.253-2.226.186-1.246.4-2.489.61-3.73.186-1.085.464-2.161.564-3.253.1-1.118.043-2.252.042-3.379a1.316,1.316,0,0,0-.13-.39,1.573,1.573,0,0,0-.221.49c-.031.447.036.9-.019,1.347-.182,1.451-.4,2.9-.6,4.344-.127.908-.234,1.819-.38,2.724q-.277,1.718-.605,3.427a32.089,32.089,0,0,1-.708,3.386,16.805,16.805,0,0,0-.263,4.238c0,.094.112.195.173.292.062-.074.162-.14.181-.225.1-.433.17-.871.313-1.368M94.471,46.017a8.159,8.159,0,0,1,1.176,3.442c0,.082.147.16.226.24a1.1,1.1,0,0,0,.13-.211c.587-1.72,1.148-3.448,1.764-5.158.274-.762.665-1.482.977-2.232.051-.123-.035-.3-.057-.458a1.329,1.329,0,0,0-.3.223,3.727,3.727,0,0,1-.494.7c-.211.169-.648.379-.768.287-.631-.484-.71.043-.869.413-.127.295-.17.63-.323.907-.317.575-.4,1.4-1.35,1.381-.055,0-.115.261-.112.462m13.562,14.912a1.03,1.03,0,0,0,0-.244c-.371-1.475-1.4-2.6-2.091-3.906a.273.273,0,0,0-.251-.072c-.055.018-.088.142-.108.224-.127.519-.243,1.041-.371,1.56-.283,1.147-.576,2.292-.852,3.44a1.192,1.192,0,0,0,.05.4c.111-.025.222-.048.331-.076.369-.095.738-.186,1.1-.288.768-.214,1.627-.216,2.19-1.042m-41.484,3.8c-.128-.742-.247-1.486-.4-2.224-.023-.112-.188-.2-.287-.292-.059.1-.166.191-.168.288-.013.663-.163,1.188-.982,1.2-.063,0-.162.231-.174.361a2.526,2.526,0,0,0,.045.589c.284,1.962.566,3.924.866,5.884a1.871,1.871,0,0,0,.26.514,4.067,4.067,0,0,0,.219-.437,3,3,0,0,0,.125-.5c.206-1.139.456-2.273.592-3.42a12.388,12.388,0,0,0-.1-1.965m10.8-23.442c-.041.6-.065,1.194-.126,1.788-.11,1.074-.267,2.144-.349,3.221a2.274,2.274,0,0,0,.236.937c.193.489.633.181.958.232.066.011.249-.24.251-.373.02-1.212.055-2.427,0-3.637-.087-2.014-.233-4.027-.361-6.039-.024-.372-.074-.743-.124-1.114a.856.856,0,0,0-.108-.231c-.045.09-.126.179-.128.27-.011.661.024,1.323-.013,1.982-.054.949-.156,1.894-.238,2.964m3.927,24.056a1.465,1.465,0,0,0,.171-.175c.088-.125.165-.259.247-.389a5.642,5.642,0,0,0-.568-.1c-.061-.006-.13.073-.194.116-.69.456-1.387.9-2.068,1.373a7.222,7.222,0,0,1-1.809,1.244,3.637,3.637,0,0,0-1.513.96c-.244.221-.558.369-.787.6-.584.6-1.144,1.214-1.695,1.84-.071.081-.029.26-.039.394a1.874,1.874,0,0,0,.3-.122c.554-.342,1.1-.7,1.656-1.037a26.8,26.8,0,0,0,6.3-4.7m14.3-44.859c-.184.537-.379,1.071-.546,1.613a2.045,2.045,0,0,0-.024.517,3.42,3.42,0,0,0,.466-.2.489.489,0,0,0,.163-.234c.494-1.206,1.026-2.4,1.466-3.625a28.807,28.807,0,0,0,1.349-6.124c.022-.169-.109-.358-.168-.538a2.083,2.083,0,0,0-.3.477c-.414,1.363-.815,2.731-1.211,4.1-.381,1.315-.752,2.633-1.189,4.011M81.523,32.332a1.92,1.92,0,0,0,.129.375c.044.077.147.119.224.177.046-.068.135-.139.131-.2a5.1,5.1,0,0,1,.673-2.24c.182-.44.329-.866-.043-1.3a6.524,6.524,0,0,1-.608-.852c-.209-.34-1.487-.623-1.751-.343a.773.773,0,0,0-.214.514,3.865,3.865,0,0,0,.216,1.255c.369.85.823,1.664,1.243,2.615m8.469-9.082a1.9,1.9,0,0,0-.12.317c-.169.891-.309,1.788-.5,2.674-.176.82-.42,1.625-.594,2.445-.039.184.089.4.139.608.113-.157.226-.313.337-.472.01-.014,0-.042,0-.06.367-1.073.745-2.142,1.1-3.219a12.475,12.475,0,0,0,.711-2.392c.148-1.277.11-2.576.151-3.866,0-.1.035-.223-.009-.3s-.169-.144-.258-.213a1.42,1.42,0,0,0-.1.242c-.289,1.371-.575,2.743-.861,4.238m-18.533,32.4-.29-.552c-.026.2-.055.393-.077.59-.009.081,0,.164,0,.245-.08.9-.218,1.808-.227,2.714a18.764,18.764,0,0,0,.226,2.1c.128,1.234.243,2.469.377,3.7.013.118.12.226.183.338a1.618,1.618,0,0,0,.175-.294A6.315,6.315,0,0,0,72.1,61.33c-.226-1.339-.26-2.71-.4-4.065-.051-.5-.159-.993-.24-1.613M73.3,46.078c-.041-.616-.092-1.231-.119-1.848-.018-.407.014-.818-.011-1.224a2.335,2.335,0,0,0-.168-.54,1.774,1.774,0,0,0-.3.528c-.078.467-.073.947-.139,1.416-.15,1.057-.33,2.11-.483,3.166a3.809,3.809,0,0,0-.1,1.291,7.393,7.393,0,0,0,.663,1.679c.087.175.364.256.554.38a1.6,1.6,0,0,0,.22-.55c-.021-1.392-.071-2.783-.112-4.3M62.867,25.459c-1.121,2.264-1.039,4.695-.975,7.121,0,.062.1.121.154.181.069-.065.182-.12.2-.2q.175-.757.314-1.523c.23-1.273.457-2.546.672-3.822q.2-1.178.356-2.362c.1-.738.179-1.479.255-2.219a.9.9,0,0,0-.088-.309c-.091.087-.24.161-.265.264-.22.911-.418,1.828-.623,2.865M79.5,61.972c-.307.731-.616,1.461-.918,2.194a2.319,2.319,0,0,0-.086.361,1.719,1.719,0,0,0,.415-.133,11.324,11.324,0,0,1,1.158-.76.78.78,0,0,0,.475-.908c-.085-.885-.166-1.771-.246-2.656-.045-.493-.065-.989-.134-1.478-.148-1.059-.318-2.114-.481-3.171-.023-.149-.054-.3-.082-.444a1.443,1.443,0,0,0-.279.376q-.45,1.44-.856,2.893c-.029.1.068.255.139.362.02.03.158-.024.243-.033.209-.022.541-.132.605-.045a1.716,1.716,0,0,1,.426.949,16.589,16.589,0,0,1-.38,2.494M67.47,50.558a2.946,2.946,0,0,0,.267.5.468.468,0,0,0,.314.1c.026,0,.08-.15.091-.235a12.709,12.709,0,0,0-1.227-6.462,1.719,1.719,0,0,0-.185-.283c-.06.118-.165.233-.173.354-.055.859-.112,1.718-.125,2.578a7.047,7.047,0,0,0,1.038,3.446M57.221,43.747c-.115-.361-.218-.726-.354-1.079-.035-.09-.173-.141-.263-.21-.04.095-.124.2-.111.283.065.438.149.874.239,1.309.283,1.353.544,2.711.866,4.054.288,1.2.638,2.389.985,3.575.041.14.237.236.361.352a1.087,1.087,0,0,0,.113-.346c-.03-.943-.043-1.889-.131-2.828a3.165,3.165,0,0,0-.374-1.369,10.4,10.4,0,0,1-1.331-3.742M72.195,10.731c.421-.847,1.171-1.549,1.131-2.6a2.855,2.855,0,0,1,.067-.5,1.847,1.847,0,0,0-.574.032c-.527.206-1.038.455-1.556.684a.949.949,0,0,0-.525,1.17c.156.977.313,1.954.48,2.93a1.188,1.188,0,0,0,.154.308c.07-.085.173-.16.2-.257.177-.56.092-1.216.619-1.768M55.871,23.25c-.082.783-.166,1.566-.24,2.349,0,.052.07.111.108.167.044-.07.117-.136.128-.211.13-.887.22-1.782.38-2.663A27.687,27.687,0,0,1,57,19.344a10.82,10.82,0,0,1,2.076-4.227c.093-.1.055-.323.078-.489a1.822,1.822,0,0,0-.363.1c-.374.184-.729.408-1.11.574-.968.421-.892.681-.766,1.635a2.6,2.6,0,0,1,.047.891c-.133.569-.41,1.107-.518,1.679-.228,1.2-.385,2.416-.572,3.748M85.389,39.88a11.688,11.688,0,0,1-.742.975.73.73,0,0,0-.069,1.073.833.833,0,0,1,.121.668c-.405,1.084-.6,2.274-1.546,3.1a1.459,1.459,0,0,0-.392.747c-.308,1.366-.586,2.74-.865,4.113A1.993,1.993,0,0,0,81.9,51c.118-.123.293-.226.344-.373.131-.377.209-.772.3-1.161a22.427,22.427,0,0,1,1.674-4.635,23.752,23.752,0,0,0,1.12-2.718,17.336,17.336,0,0,0,.469-2.01,2.257,2.257,0,0,0,.017-.393,2.1,2.1,0,0,0-.444.17m-33.936,6.2c.164.955.321,1.911.5,2.862.019.1.171.179.262.267a.833.833,0,0,0,.091-.307c-.112-.871-.285-1.736-.352-2.61-.118-1.538-.177-3.08-.252-4.622a6.816,6.816,0,0,1,.033-.711c.033-.59.064-1.179.1-1.769.075-1.182.16-2.363.222-3.545a1.243,1.243,0,0,0-.15-.429,1.671,1.671,0,0,0-.2.512c-.023.708.05,1.425-.025,2.126-.107,1-.437,1.991-.448,2.989-.019,1.7.136,3.408.218,5.235M62.008,47.8a1.331,1.331,0,0,1-.119-.318c-.089-.865-.163-1.732-.254-2.6a2,2,0,0,0-.147-.428c-.113.136-.317.268-.324.409a12.617,12.617,0,0,0,0,1.958c.117,1.1.337,2.2.464,3.3.118,1.025.148,2.061.265,3.086a6.122,6.122,0,0,0,.349,1.2.4.4,0,0,0,.212.19c.025.011.142-.1.159-.165a9.527,9.527,0,0,0-.178-3.625c-.133-.964-.286-1.926-.431-3.011M74.159,58.6a11.541,11.541,0,0,0,.551-1.3c.249-.853.878-1.626.557-2.607-.225-.688-.385-1.39-1.178-1.7-.3-.121-.435-.192-.424.214.012.476-.019.953.007,1.427.07,1.292.157,2.583.249,3.874,0,.057.115.106.238.1M95.023,32.946c.123-.684.251-1.368.363-2.054a1.077,1.077,0,0,0-.058-.34,1.206,1.206,0,0,0-.3.235,12.43,12.43,0,0,1-.7,1.116c-.771.935-1.592,1.83-2.361,2.767-.119.145-.066.432-.093.653a2.1,2.1,0,0,0,.421-.277c.416-.445.878-.833,1.485-.432s.982.177,1.339-.3c.329-.439.095-.844-.1-1.369M81.768,43.256c-.041.044-.109.083-.119.134-.21,1.119-.4,2.241-.622,3.359a.739.739,0,0,1-.915.618c-.118-.043-.232-.1-.347-.144.016.195-.039.443.061.575a2.962,2.962,0,0,1,.422,2.253,6.574,6.574,0,0,0,.229,2.587,1.879,1.879,0,0,0,.187.375,1.373,1.373,0,0,0,.115-.4c-.028-.766-.094-1.532-.112-2.3a7.586,7.586,0,0,1,.48-3.046A18.322,18.322,0,0,0,82.3,42.719a3.463,3.463,0,0,0-.053-.706,4.39,4.39,0,0,0-.346.561,2.656,2.656,0,0,0-.13.681M71.152,39.389c-.043.452-.109.9-.124,1.356-.033,1.061-.047,2.122-.05,3.184,0,.082.142.165.218.247a1.382,1.382,0,0,0,.136-.326,13.352,13.352,0,0,1,.408-2.775c.571-1.537.1-3.028.081-4.538a4.121,4.121,0,0,0-.151-.916c-.026-.107-.152-.189-.232-.283a1.177,1.177,0,0,0-.1.3c-.047,1.229-.086,2.457-.188,3.748m37.434-7.364c.318-.522.626-1.051.957-1.565.2-.309.355-.614-.06-.84-.363-.2-.74-.693-1.176-.131s-.851,1.156-1.243,1.756a.479.479,0,0,0,.089.436,1.66,1.66,0,0,1,.517,1.326c-.007.079.059.164.091.246.081-.052.2-.084.237-.158.187-.33.353-.671.587-1.069M65.2,14.168c.368-.972.738-1.943,1.1-2.917a.867.867,0,0,0,.01-.268c-.084,0-.188-.038-.25,0-.542.323-1.082.652-1.61,1a.49.49,0,0,0-.223.328c.024,1.21.068,2.419.119,3.628,0,.081.1.159.159.238.067-.062.166-.112.2-.189.062-.159.082-.333.131-.5.119-.4.244-.8.367-1.32M99.564,35.155c-.11-.012-.272-.078-.323-.029a4.415,4.415,0,0,0-1.508,2c-.17.691-.229,1.41-.386,2.1-.121.533-.344,1.042-.468,1.575a1.63,1.63,0,0,0,.113.616c.1-.1.246-.19.3-.315.787-1.96,1.561-3.925,2.277-5.95m4.3-2.7c-.736.389-1.488.749-2.2,1.181-.26.158-.581.475-.595.734a5.311,5.311,0,0,1-.509,2.186c-.063.125.039.333.064.5a1.732,1.732,0,0,0,.373-.274c1.029-1.3,2.038-2.622,3.079-3.916.247-.307.134-.393-.215-.413M79.191,35.769c0,.552-.043,1.108.008,1.656.14,1.489.34,2.972.475,4.461.083.92.088,1.847.134,2.77a1.043,1.043,0,0,0,.082.257c.053-.081.143-.158.154-.245.131-.97.259-1.942.369-2.915a1.828,1.828,0,0,0-.01-.873,14.673,14.673,0,0,1-.846-4.068c-.112-.85-.242-1.7-.371-2.546-.009-.056-.081-.1-.123-.154-.039.055-.119.115-.112.163.071.459.157.915.239,1.494M51.7,18.1l.232-.259c-.119-.057-.24-.165-.357-.162-.758.024-1.516.062-2.271.131-.085.008-.247.3-.21.36a5.2,5.2,0,0,1,1.145,2.713c0,.075.156.15.239.225.039-.095.076-.191.119-.284.171-.377.06-.856.5-1.146A1.545,1.545,0,0,0,51.7,18.1m35.347-7a4.732,4.732,0,0,0,.008.61.947.947,0,0,0,.163.3c.066-.086.132-.172.2-.259.266-.359.529-.719.8-1.076.151-.2.431-.386.445-.593a18.89,18.89,0,0,0-.028-2.051c0-.064-.138-.13-.222-.18-.626-.375-1.077-.089-1.123.661-.05.824-.156,1.645-.238,2.59M74.4,61.788c.082.8.159,1.607.252,2.409.009.082.11.153.168.23.065-.07.158-.129.189-.212.294-.777.594-1.552.855-2.341a2.44,2.44,0,0,0,.12-.925c-.039-.521-.15-1.036-.235-1.553-.021-.125-.062-.247-.094-.37-.1.107-.23.2-.279.322-.315.789-.612,1.584-.975,2.439M62.867,66.82c.164.483.314.971.5,1.446a2.013,2.013,0,0,0,.322.434,1.486,1.486,0,0,0,.15-.543c-.095-.687-.239-1.368-.356-2.053-.208-1.22-.4-2.443-.618-3.662-.114-.642-.25-1.281-.412-1.912-.029-.115-.231-.185-.353-.276,0,.132,0,.265,0,.4.008.24.007.482.034.721.159,1.4.317,2.8.494,4.2.048.378.158.749.24,1.246M92.753,30.8a8.693,8.693,0,0,0-.539.943c-.061.142.023.347.042.524.142-.1.331-.163.419-.3.865-1.3,1.782-2.564,2.537-3.922a8.077,8.077,0,0,0,.541-2.163c.015-.07-.061-.16-.095-.24-.08.053-.186.089-.235.162-.072.107-.094.247-.156.363-.816,1.524-1.635,3.046-2.514,4.629m8.1-23.688a2.27,2.27,0,0,1-.368,0c-1.2-.2-2.4-.5-3.612-.584a35.541,35.541,0,0,0-3.75.1c-.105,0-.207.1-.31.15.1.071.206.2.315.2.95.056,1.9.058,2.852.139,1.611.137,3.218.323,4.827.477a1.011,1.011,0,0,0,.352-.106c-.082-.106-.164-.211-.307-.378M84.345,22.759c.041-.065.126-.14.114-.192a3.754,3.754,0,0,0-.172-.479,1.716,1.716,0,0,0-.247.369c-.356,1.038-.632,2.11-1.065,3.114-.407.944.107,1.631.445,2.387.034.077.2.115.3.129.035,0,.119-.125.126-.2.17-1.668.332-3.337.5-5.128M67.04,40.187a3,3,0,0,0,.05.655q.409,1.361.868,2.707c.049.145.2.255.305.381a1.377,1.377,0,0,0,.119-.46c-.193-1.757-.4-3.512-.61-5.267-.007-.058-.074-.155-.113-.155-.084,0-.216.03-.241.087a2.216,2.216,0,0,0-.131.5c-.086.476-.165.954-.247,1.554m26.695,1.78c-.143.7-.3,1.39-.42,2.089a.983.983,0,0,0,.121.495.252.252,0,0,0,.219.1c.057-.011.125-.119.136-.193.13-.826.219-1.659.38-2.478a9.161,9.161,0,0,1,1.231-3.53c.049-.071.105-.226.084-.241a.722.722,0,0,0-.354-.166A1.8,1.8,0,0,0,93.919,39.2c-.043.9-.083,1.8-.185,2.766M78.086,52.092c-.306,1.486-1.39,2.822-.857,4.467a3.47,3.47,0,0,0,.163.361,1.156,1.156,0,0,0,.2-.308c.255-1.02.506-2.041.739-3.066.179-.787.335-1.579.485-2.372.013-.071-.094-.165-.145-.248-.073.063-.181.111-.212.19-.117.3-.208.609-.371.976m5.278,10.432c.043-.084.066-.194.133-.249a1.155,1.155,0,0,0,.377-1.5,11.265,11.265,0,0,1-.392-1.741.984.984,0,0,0-.147-.254,1.4,1.4,0,0,0-.214.25,6.76,6.76,0,0,0-.362,3.487,1.868,1.868,0,0,0,.215.559c.109-.164.219-.327.389-.552m19.515-42.589c.041-.085.127-.177.114-.253a3.854,3.854,0,0,0-.169-.539,1.675,1.675,0,0,0-.246.363c-.277.8-.553,1.605-.8,2.417-.226.744-.424,1.5-.608,2.251-.031.127.077.287.12.432.086-.051.217-.081.252-.156a15.464,15.464,0,0,0,.945-2.11,16.241,16.241,0,0,0,.39-2.407M72.44,15.15c-.166-.157-.2-.163-.24.071-.256,1.427-.506,2.855-.738,4.287-.134.827-.24,1.659-.339,2.491a1.191,1.191,0,0,0,.115.417c.074-.109.193-.209.213-.327q.205-1.175.374-2.357c.211-1.486.411-2.973.616-4.583M66.795,57.738a3.477,3.477,0,0,0-.126-.375c-.067-.146-.154-.282-.233-.423-.085.134-.234.264-.243.4a4.875,4.875,0,0,0,.008,1.419,17.74,17.74,0,0,0,.723,2.078c.041.108.169.183.257.274.035-.038.1-.073.1-.115a4.909,4.909,0,0,0,.106-1.288,11.956,11.956,0,0,0-.593-1.972m31.42-36.7c.072-.358.154-.715.208-1.075a.962.962,0,0,0-.078-.336c-.091.068-.226.117-.265.207A6.5,6.5,0,0,0,97.65,21c-.212,1-1.032,1.869-.659,2.993a2.463,2.463,0,0,0,.236.42c.083-.116.212-.221.243-.349.238-.986.457-1.976.744-3.026M74.281,40.555l.171.54a1.647,1.647,0,0,0,.188-.5c.018-.963.022-1.927,0-2.89a13.2,13.2,0,0,0-.125-1.414c-.015-.118-.127-.223-.194-.334a1.075,1.075,0,0,0-.161.3,4.46,4.46,0,0,0-.119.986c.058,1.067.155,2.131.236,3.319m4.3-34.365c.159-.159.326-.311.474-.48a3.658,3.658,0,0,0,.261-.38,1.754,1.754,0,0,0-.574-.024,7.417,7.417,0,0,0-1.211.477c-.211.107-.484.3-.521.5a5.835,5.835,0,0,0-.018,1.283c0,.084.091.164.14.246a.928.928,0,0,0,.214-.143c.4-.468.783-.942,1.235-1.476M74.711,8.952c.186.268.364.543.564.8a1.012,1.012,0,0,0,.287.181,1.761,1.761,0,0,0,.066-.333c.006-.833.015-1.667-.008-2.5,0-.163-.147-.321-.225-.482-.126.137-.325.256-.365.415a12.2,12.2,0,0,0-.32,1.917M79.8,22.145c-.245.96-.439,1.938-.757,2.874-.17.5.183.547.4.747a2.017,2.017,0,0,0,.344-.611c.151-1.007.265-2.02.375-3.032a2.205,2.205,0,0,0-.071-.53,2.242,2.242,0,0,0-.291.552m-26.265-.368a3.485,3.485,0,0,0,.116-.685c-.023-.842-.068-1.684-.12-2.524a4.272,4.272,0,0,0-.122-.684.886.886,0,0,0-.121-.218c-.081.078-.226.15-.233.234a22.068,22.068,0,0,0-.119,2.217,13.654,13.654,0,0,0,.235,1.738.891.891,0,0,0,.109.231c.065-.082.13-.164.256-.307M92.323,39.451l-.056-.547c-.113.109-.286.2-.327.332a10.234,10.234,0,0,0-.306,1.279c-.114.65-.209,1.3-.279,1.96-.011.108.149.234.23.352.083-.092.22-.175.239-.279.178-.989.336-1.982.5-3.1M54.644,16.745c.082.906.16,1.813.248,2.718A4.794,4.794,0,0,0,55,20a5.737,5.737,0,0,0,.248-.531,1.5,1.5,0,0,0,.007-.3c.079-.661.179-1.321.234-1.984a2.723,2.723,0,0,0-.117-.683,5.185,5.185,0,0,0-.733.249M89.132,37.119c.184-.143.377-.278.548-.435.063-.057.077-.168.113-.254a.986.986,0,0,0-.252-.087c-.273-.017-.607.081-.807-.044-.387-.241-.509.073-.567.252-.115.353-.607.681-.207,1.1.441.466.707.36,1.17-.537M67.04,52.338a3.092,3.092,0,0,0-.248-.324,4.453,4.453,0,0,0-.357-.3,4.246,4.246,0,0,0-.129.435,2.472,2.472,0,0,0,.616,1.944c.052.072.17.1.257.145a1.827,1.827,0,0,0,.1-.236q.111-.383.209-.77c.1-.382.081-.717-.452-.9M87.9,20.3c-.245.815-.52,1.623-.725,2.448a7,7,0,0,0-.126,1.352c0,.1.1.2.16.3.067-.064.176-.118.193-.193.3-1.264.587-2.53.859-3.8.052-.244,0-.47-.362-.1M110.979,15.4a7.293,7.293,0,0,0-.971,2.831c-.025.122.106.275.164.413.105-.11.264-.2.306-.333.224-.682.411-1.376.625-2.061.106-.341.259-.668.357-1.011a1,1,0,0,0-.06-.391c-.1.1-.2.2-.3.3a.453.453,0,0,0-.123.255M63.235,56.388l-.533-.307c-.062.19-.217.406-.171.565.249.869.544,1.725.83,2.583a1.537,1.537,0,0,0,.172.289c.041-.125.133-.257.116-.374-.126-.879-.274-1.756-.415-2.756M81.093,35.953c-.1-.547-.2-1.1-.314-1.64-.016-.077-.128-.134-.2-.2-.055.1-.167.2-.157.3.109,1.008.234,2.014.365,3.019.011.086.1.162.154.243.07-.085.2-.167.2-.254a9.044,9.044,0,0,0-.052-1.464M68.513,67.189a4.06,4.06,0,0,0,.115-.747c-.019-.679-.066-1.358-.125-2.034-.007-.082-.157-.151-.24-.226a.888.888,0,0,0-.112.287c-.008,1.043-.007,2.086,0,3.129a1.057,1.057,0,0,0,.073.266,1.126,1.126,0,0,0,.2-.223,1.425,1.425,0,0,0,.092-.452m33.936-54.555c.061-.032.167-.053.178-.1.213-.888.423-1.777.608-2.672.017-.081-.142-.2-.22-.3-.086.092-.226.172-.25.278-.141.615-.271,1.234-.369,1.857a2.865,2.865,0,0,0,.054.933m2.025,8.9c-.173.378-.356.751-.512,1.136-.038.094.011.223.02.336.082-.067.193-.119.242-.2.531-.943,1.06-1.888,1.568-2.843a1.335,1.335,0,0,0,.042-.5c-.126.1-.294.185-.371.318-.324.557-.621,1.13-.989,1.759M89.746,39.574a1.919,1.919,0,0,0,.007.487c.074.271.193.531.293.795.064-.254.128-.508.19-.763.014-.056.012-.117.025-.173.114-.523.241-1.044.335-1.571.02-.114-.075-.249-.117-.374-.1.063-.258.1-.293.191a12.131,12.131,0,0,0-.44,1.408m10.739-10.739c.072.01.193.049.209.024.089-.144.137-.313.227-.456.369-.584.76-1.156,1.116-1.748a1.327,1.327,0,0,0,.07-.493,1.623,1.623,0,0,0-.377.212,1.841,1.841,0,0,0-.348.466,17.176,17.176,0,0,0-.9,2m-24.24,4.234c-.084-.038-.224-.129-.244-.108-.256.272-.632.531-.7.852a2.943,2.943,0,0,0,.214,1.177c.02.084.114.151.174.226.063-.072.164-.135.183-.217.134-.6.252-1.205.374-1.931m29.947.982c-.286.617-.583,1.23-.848,1.856-.038.089.08.243.126.367a2.053,2.053,0,0,0,.259-.168,3,3,0,0,0,.828-1.985c.051-.35-.157-.29-.364-.071M99.871,22.207a7.517,7.517,0,0,0-.543.938c-.2.489-.343,1-.493,1.509-.021.07.051.168.08.253.082-.049.207-.079.238-.151q.525-1.19,1.016-2.4c.01-.024-.114-.1-.3-.154M56.3,57.431a1.6,1.6,0,0,0-.293.172c.229.657.465,1.313.735,1.954.044.1.251.139.383.206.032-.143.131-.314.085-.424-.263-.624-.562-1.233-.909-1.908M90.85,8.645l.234-.626a2.6,2.6,0,0,0-.822-.1c-.119.022-.249.343-.256.533a5.531,5.531,0,0,0,.11.985,1.423,1.423,0,0,0,.086.253c.093-.065.228-.109.272-.2.125-.252.212-.521.376-.846m1.718,1.6a1.316,1.316,0,0,1,.876-1.169,2.121,2.121,0,0,0,.35-.181c-.121-.1-.232-.271-.364-.29a.79.79,0,0,0-.549.117,1.658,1.658,0,0,0-.678,1.6.825.825,0,0,0,.111.227c.064-.082.128-.164.254-.307m18.84,1.411c-.3-.179-.653-.284-.778.119a5.592,5.592,0,0,0-.135,1.346c0,.076.1.157.158.236a1.531,1.531,0,0,0,.2-.248c.128-.251.244-.508.359-.766a2.086,2.086,0,0,0,.2-.686M93.55,26.932c.086-.209.179-.416.256-.629a1.52,1.52,0,0,0,.047-.292c-.11.03-.277.024-.322.095-.375.6-.736,1.2-1.074,1.821-.042.077.078.242.123.367.1-.068.239-.113.3-.208.218-.356.41-.727.674-1.154m-6.566,2.762c-.061.465-.133.929-.176,1.4-.009.1.086.215.133.323.076-.1.193-.2.22-.311.131-.561.25-1.126.343-1.695.016-.1-.109-.217-.168-.326a1.129,1.129,0,0,0-.2.223c-.051.1-.063.219-.153.391M60.9,35.155a3.2,3.2,0,0,0,.352-.129q-.214-.857-.475-1.7c-.022-.071-.138-.113-.21-.168-.053.1-.17.219-.148.3.143.53.317,1.053.481,1.7m-7-3.437a1.226,1.226,0,0,0-.009-.364c-.025-.077-.136-.126-.209-.188-.05.064-.142.128-.143.192-.011.66-.017,1.32,0,1.98,0,.1.158.189.243.283a.949.949,0,0,0,.109-.289c.011-.5.005-.993.005-1.613M81.154,6.313l-.092-.43a2.542,2.542,0,0,0-.645.333.6.6,0,0,0-.158.522,2.536,2.536,0,0,0,.494.588c.052-.2.093-.406.159-.6a1.754,1.754,0,0,1,.242-.412M67.776,55.9c.123.521.24,1.043.374,1.561.021.082.118.145.18.216.049-.113.15-.232.139-.338-.05-.463-.129-.923-.2-1.384a3.378,3.378,0,0,0-.1-.363c-.109.082-.218.164-.389.307M53.417,42.274c-.082-.273-.16-.547-.249-.817a.163.163,0,0,0-.115-.1c-.042,0-.124.057-.122.085.043.613.089,1.227.156,1.838.007.06.152.1.232.156a.852.852,0,0,0,.092-.246c.012-.265,0-.531,0-.92m27.861,13.01c-.082-.352-.158-.705-.251-1.054-.013-.048-.107-.075-.163-.112-.025.047-.078.1-.072.142.076.617.154,1.233.248,1.847.012.08.115.147.176.22.062-.072.176-.143.177-.216a3.053,3.053,0,0,0-.113-.828M73.606,66.391c-.1.053-.277.087-.295.161-.106.43-.18.868-.254,1.3a1.685,1.685,0,0,0,.006.323,1.218,1.218,0,0,0,.3-.2,1.967,1.967,0,0,0,.244-1.587M59.185,60.807c.16.61.315,1.221.487,1.828.021.075.132.124.2.185-.01-.084-.02-.167-.03-.251a1.64,1.64,0,0,0-.047-.346,8.917,8.917,0,0,0-.61-1.416M73.913,30.369a3.325,3.325,0,0,0-.1-.426.575.575,0,0,0-.215.019c-.005.522,0,1.045.014,1.567,0,.03.129.094.161.076a.273.273,0,0,0,.138-.178c.014-.311.006-.623.006-1.058M60.228,37.3c-.176-.182-.325-.249-.3.1.029.492.075.983.125,1.473.005.051.087.094.134.141.035-.058.1-.115.1-.174a11.843,11.843,0,0,0-.057-1.545m35.409-.921c.17-.17.353-.331.5-.516a.3.3,0,0,0,.031-.277c-.046-.061-.23-.105-.272-.067a8.416,8.416,0,0,0-.742.765,1.041,1.041,0,0,0,.234.272c.016.014.12-.074.245-.176m20.128-20.5a1.124,1.124,0,0,0-.122.25c-.038.175-.052.355-.076.534a3.614,3.614,0,0,0,.44-.323,3.6,3.6,0,0,0,.4-.5,1.547,1.547,0,0,0,.13-.3,1.049,1.049,0,0,0-.409-.017c-.12.046-.2.187-.365.348M54.705,38.53c-.014-.014-.038-.043-.041-.041-.171.111-.489.233-.483.336a3.916,3.916,0,0,0,.256.908c.069-.077.181-.144.2-.231a3.686,3.686,0,0,0,.069-.973m49.4-3.5.26.354c.159-.3.332-.6.466-.911.031-.073-.076-.2-.119-.309a2.07,2.07,0,0,0-.236.224,2.553,2.553,0,0,0-.371.643m.061-7.425a.884.884,0,0,0,.036-.2c-.361-.149-.514.1-.578.371a4.736,4.736,0,0,0-.055.809,4.493,4.493,0,0,0,.407-.493c.076-.122.089-.283.191-.488M95.76,14.413a3.423,3.423,0,0,0-.235.569c-.024.1.061.234.1.352.079-.094.193-.176.23-.284.146-.427.275-.86.392-1.295.02-.075-.044-.174-.07-.262a.992.992,0,0,0-.2.22,3.337,3.337,0,0,0-.217.7m1.9,17.98.129.116c.182-.371.369-.739.538-1.116.015-.034-.073-.139-.135-.174-.032-.018-.143.031-.162.075a5.108,5.108,0,0,0-.37,1.1M60.044,75.78,59.874,75c-.1.092-.28.178-.287.276a3.969,3.969,0,0,0,.076.74.647.647,0,0,0,.381-.232m11.844-6.934a4.954,4.954,0,0,0-.739.4c-.048.036.068.288.108.441a4.311,4.311,0,0,0,.631-.842M77.1,51.111c.039-.247.09-.493.107-.742,0-.042-.133-.094-.205-.142a4.175,4.175,0,0,0-.25.746c-.011.067.225.173.348.138M87.537,39.819a1.817,1.817,0,0,0,.335-.352c.042-.075-.031-.213-.052-.323l-.62.276a1.069,1.069,0,0,0,.337.4M83,55.038a.761.761,0,0,0,0-.24c-.081-.23-.18-.454-.271-.68-.031.223-.066.445-.091.669a2.022,2.022,0,0,0,0,.3c.021.536.215.2.368-.05M69.74,68.784c-.119.208-.242.414-.344.631a2.868,2.868,0,0,0,.277.167c.063-.214.129-.427.186-.642.006-.025-.037-.062-.119-.156m23.2-32.4c.115.167.111.611.462.248.107-.111.055-.376.075-.57a6.153,6.153,0,0,0-.537.322m-23.074,15.1v-.12c-.123.063-.339.114-.35.191a2.259,2.259,0,0,0,.073.6c.092-.124.192-.243.273-.375.027-.044,0-.118,0-.3M68.942,8.338l.031-.582-.291.106a1.194,1.194,0,0,0,.26.477m41.729,19.637-.552.409c.105.027.26.111.306.071a.821.821,0,0,0,.247-.48M66.488,37.058l.077-.537c-.113.061-.324.131-.319.182a.488.488,0,0,0,.242.354m6.873-3.682-.128-.486-.3.355a.888.888,0,0,0,.43.131m5.462-.43.092.307c.051-.041.148-.086.145-.124a4.473,4.473,0,0,0-.083-.49.684.684,0,0,0-.154.307M60.167,64l.075.43.156-.047A.806.806,0,0,0,60.167,64m.491-8.346-.245.064.093.243A.687.687,0,0,0,60.658,55.652Z" transform="translate(-24.337)"/><path class="a" d="M545.4,735.554c.491,1.188.978,2.316,1.474,3.439a5.178,5.178,0,0,0,1.063,2.03c.17.153.068.61.085.928a1.811,1.811,0,0,0,.02.588c.578,1.316,1.242,2.6,1.757,3.936.422,1.1.659,2.262,1.006,3.389.284.923.666,1.819.9,2.754a23,23,0,0,1,.44,2.7c.184,1.464.336,2.932.5,4.4.089.824.165,1.65.247,2.475.164,1.65.406,3.3.469,4.952.062,1.615-.04,3.239-.109,4.857a17.236,17.236,0,0,1-.25,2.474c-.293,1.546-.664,3.077-1,4.616a4.424,4.424,0,0,1-.19,1.025c-.543,1.087-1.115,2.162-1.733,3.209a17.677,17.677,0,0,1-1.159,1.547.661.661,0,0,1-.994.124,1.087,1.087,0,0,0-.851-.153,26.092,26.092,0,0,1-3.571.033c-1.185-.079-2.362-.3-3.539-.479-.872-.132-1.86-.037-2.549-.633-1-.866-2.3-.967-3.414-1.542a22.854,22.854,0,0,1-4.043-2.666c-1.387-1.141-2.722-2.346-4.052-3.554a27.88,27.88,0,0,1-2.073-2.076c-.874-.981-2.119-1.307-3.2-1.911-1.758-.978-3.608-1.8-5.314-2.858-1.793-1.11-3.446-2.443-5.191-3.633-1.267-.864-2.615-1.613-3.87-2.494a6.219,6.219,0,0,0-2.645-.919,5.5,5.5,0,0,1-3.25-2.449c-.469-.638-.9-1.3-1.353-1.954-.073-.105-.153-.205-.23-.308-.094.109-.232.2-.276.331-.454,1.285-.946,2.561-1.324,3.868-.878,3.034-.608,6.158-.611,9.254,0,1.193.139,2.388.235,3.58q.165,2.042.368,4.081c.152,1.529.321,3.056.489,4.583.159,1.446.347,2.89.484,4.338.148,1.563.267,3.129.369,4.7s.121,3.127.265,4.683c.122,1.318.383,2.622.555,3.936a4.321,4.321,0,0,1,.014,1.349.753.753,0,0,1-.613.429.9.9,0,0,1-.564-.562,18.334,18.334,0,0,1-.386-1.99c-.185-1.132-.336-2.271-.537-3.4-.209-1.176-.466-2.343-.692-3.516-.292-1.517-.594-3.032-.853-4.554-.161-.945-.225-1.906-.382-2.852-.246-1.488-.554-2.966-.785-4.455a1.684,1.684,0,0,1,.167-1.1c.255-.383.9-.159.987.315.143.784.261,1.573.372,2.363.292,2.069.573,4.14.868,6.209.011.075.128.136.2.2.055-.08.166-.166.157-.237-.11-.892-.247-1.78-.357-2.672-.1-.782-.148-1.571-.252-2.352-.191-1.431-.411-2.858-.606-4.287-.062-.451-.092-.906-.125-1.36-.086-1.193-.171-2.386-.245-3.58-.088-1.418-.182-2.836-.242-4.255-.062-1.475-.179-2.957-.108-4.428a19.643,19.643,0,0,1,2.072-8.645,9.239,9.239,0,0,1,.94-1.448.75.75,0,0,1,1.259.164,11.421,11.421,0,0,0,2.927,3.179c.171.134.407.484.573-.108.112-.4.535-.564.946-.2.3.263.592.534.906.778.378.3.8.439,1.126-.043a32.07,32.07,0,0,0,1.9-2.9c1.024-1.9,2.042-3.814,2.894-5.8.889-2.064,1.624-4.2,2.344-6.33.686-2.032,1.289-4.093,1.881-6.154.192-.667.2-1.384.349-2.068a3.467,3.467,0,0,0-.245-2.38.473.473,0,0,1,.006-.416c.9-1.066.383-2.177.141-3.287a18.371,18.371,0,0,0-2.69-5.882c-1.252-1.974-2.463-3.975-3.735-5.936a19.468,19.468,0,0,0-1.655-2.136c-.675-.779-1.4-1.512-2.12-2.254a19.482,19.482,0,0,0-6.135-4.443c-3.148-1.391-6.276-2.836-9.351-4.381a30.571,30.571,0,0,1-4.012-2.6,17.569,17.569,0,0,1-2.245-1.988,23.92,23.92,0,0,1-5.047-7.048c-.145-.328-.515-.554-.765-.84-.164-.188-.411-.4-.415-.6a.746.746,0,0,1,.394-.592.839.839,0,0,1,.725.216,9.355,9.355,0,0,1,1.286,1.793,18.644,18.644,0,0,0,2.682,3.98c.711.816,1.438,1.618,2.169,2.416a20.186,20.186,0,0,0,4.863,3.675c1.665.969,3.45,1.733,5.194,2.563.182.087.559.1.646-.005a.97.97,0,0,1,1.347-.166c1.511.81,3.021,1.633,4.458,2.564a21.488,21.488,0,0,1,2.813,2.245c1.82,1.673,3.663,3.331,5.354,5.13a33.038,33.038,0,0,1,4.363,6.1c1.591,2.734,3.171,5.474,4.708,8.238a7.91,7.91,0,0,1,.453,1.651c.205.711.4,1.426.654,2.122a50.4,50.4,0,0,0,3.655,8.547c.988,1.691,2.067,3.337,3.216,4.923a20.925,20.925,0,0,0,2.689,3.053c1.254,1.164,2.645,2.182,3.979,3.26.026.021.094,0,.113.017.305.343.816.6.624,1.18-.111.335-.914.512-1.406.366a10.4,10.4,0,0,1-3.973-2.4,37.726,37.726,0,0,1-2.821-2.818,44.7,44.7,0,0,1-6.487-8.6q-.923-1.734-1.842-3.471c-.027-.051-.07-.093-.1-.144-.1-.191-.189-.384-.283-.576-.078.224-.167.445-.232.672-.291,1.005-.566,2.015-.863,3.018-.442,1.493-.859,3-1.358,4.47-.613,1.809-1.2,3.638-1.979,5.376-.992,2.211-2.128,4.361-3.279,6.5a27.412,27.412,0,0,1-1.946,2.936c-.345.479-.385.682.1,1.024,1.136.807,2.268,1.621,3.428,2.392,2.065,1.374,4.109,2.788,6.24,4.053,1.625.965,3.368,1.735,5.065,2.577,2.29,1.137,4.6,2.232,6.876,3.4a28.884,28.884,0,0,1,5.693,4.193c1.353,1.182,2.75,2.318,4.168,3.422.487.379,1.152.529,1.637.91a5.39,5.39,0,0,0,3.213.874,7.348,7.348,0,0,0,3.3-.254c.335-.13.471-.223.546-.584s.176-.767.721-.824c.139-.015.27-.46.34-.724.537-2.05,1.1-4.094,1.569-6.159.363-1.6.661-3.224.875-4.852.237-1.8.374-3.624.5-5.44a25.4,25.4,0,0,0,.1-4c-.157-1.734-.516-3.452-.834-5.169-.382-2.065-.774-4.13-1.236-6.178-.258-1.146-.661-2.259-1.012-3.383a.657.657,0,0,0-.259-.376c-1.01-.5-1.123-.63-1.792-1.911a4.9,4.9,0,0,0-.639-.78,17.089,17.089,0,0,1-3.161-5.624,14.576,14.576,0,0,1-1.09-5.865,12.1,12.1,0,0,1,.33-1.579c.44-1.924,1.88-3.215,2.994-4.712.3-.4.531-.954,1.207-.547.029.018.2-.12.241-.213,1.071-2.276,2.19-4.533,3.156-6.854a3.054,3.054,0,0,0-.253-1.847c-.862-2.586-1.8-5.147-2.669-7.729a29.407,29.407,0,0,1-1.232-5.2,33.029,33.029,0,0,1-.332-5.986c.033-.893.233-1.78.35-2.671a1.961,1.961,0,0,0-.023-.378,1.166,1.166,0,0,0-.336.15,8.347,8.347,0,0,0-2.923,5.1,10.15,10.15,0,0,0,.219,2.349,17.1,17.1,0,0,1,.23,1.862c0,1.272-.073,2.543-.106,3.815-.012.46-.264.824-.673.77-.391-.052-.545-.392-.458-.907a14.031,14.031,0,0,0-.191-5.65,7.466,7.466,0,0,1,1.289-6.22,14.388,14.388,0,0,1,3.283-3.147,3.273,3.273,0,0,0,.428-.426c.3-.324.655-.6,1.082-.369.457.25.291.661.1,1.033-.167.319-.322.643-.477.968-.04.085-.107.2-.08.268.433,1.149-.559,2.07-.5,3.155a29.932,29.932,0,0,0,.209,3.232c.448,2.68,1.864,4.99,2.983,7.412a19.621,19.621,0,0,1,1.856,5.679,11.565,11.565,0,0,1-.307,4.689,1.433,1.433,0,0,0-.073.459A12.933,12.933,0,0,1,549.42,724a14.772,14.772,0,0,1-1.808,2.745c-.781,1.006-1.65,1.946-2.512,2.887a2.639,2.639,0,0,1-.938.685c-.647.251-.479.7-.435,1.181.088.97.78,1.676,1.064,2.559.158.491.4.956.605,1.493M535.884,781.7a1.853,1.853,0,0,0,.391.237,1.351,1.351,0,0,0,.407,0c-.049-.15-.055-.347-.156-.44-.21-.192-.492-.3-.709-.49-1.5-1.278-2.969-2.582-4.475-3.847a32.9,32.9,0,0,0-5.826-3.681,1.574,1.574,0,0,0-.478-.082,1.51,1.51,0,0,0,.236.5c1.107,1.009,2.212,2.023,3.356,2.989,1.11.937,2.255,1.833,3.4,2.722a14.4,14.4,0,0,0,3.85,2.09M520.6,742.366c.2.3.405.609.614.91.717,1.031,1.435,2.062,2.163,3.085.06.085.2.115.3.171-.009-.128.024-.28-.034-.378-.391-.657-.791-1.31-1.207-1.952a33.39,33.39,0,0,1-3.044-6.275c-.772-2.011-1.4-4.076-2.111-6.112-.053-.152-.222-.264-.337-.395a2.1,2.1,0,0,0-.139.491c-.018.517-.017,1.035,0,1.552a4.3,4.3,0,0,0,.1,1.368,47.2,47.2,0,0,0,3.7,7.534M550,780.965c.418-1.277.928-2.533,1.231-3.837.392-1.693.632-3.422.911-5.14.113-.7.166-1.406.223-2.112.008-.1-.112-.217-.174-.325-.1.083-.248.15-.277.251a6.218,6.218,0,0,0-.133.8c-.2,1.406-.317,2.834-.635,4.214-.492,2.13-1.126,4.228-1.694,6.341a3.858,3.858,0,0,0-.068.537,4.95,4.95,0,0,0,.506-.39c.055-.054.035-.186.111-.343m-3.007-75.052c.327.947.664,1.892.98,2.843.58,1.742,1.143,3.49,1.727,5.231a1.78,1.78,0,0,0,.322.435c.054-.182.184-.38.149-.543a23.216,23.216,0,0,0-.707-2.893c-.65-1.832-1.388-3.633-2.114-5.437a4.365,4.365,0,0,0-.546-.8c.063.346.125.693.188,1.162m1.534,15.894c-.593,1.181-1.189,2.361-1.778,3.544-.12.241-.213.495-.319.742.269-.181.656-.3.787-.552.658-1.272,1.262-2.573,1.849-3.879a2.6,2.6,0,0,0,.075-.836c-.144.222-.29.441-.429.665-.05.08-.083.169-.185.315m-5.093,13.562q-.491-1.851-.981-3.7c-.025-.093-.039-.188-.058-.282a.783.783,0,0,0-.06.272c.156.976.26,1.966.5,2.921.3,1.193.718,2.357,1.094,3.531.03.095.13.167.2.25.014-.076.057-.159.039-.226C543.926,737.251,543.678,736.372,543.433,735.37Z" transform="translate(-418.621 -605.955)"/><path class="a" d="M16.9,1134.357c1.246,1.368,2.466,2.7,3.67,4.048.23.257.431.546.056.891-.344.317-.646.381-.981.016-1.431-1.555-2.907-3.072-4.282-4.674-1.291-1.5-2.526-3.064-3.7-4.663a57.331,57.331,0,0,1-4.309-7.783c-1.1-2.123-2.261-4.214-3.3-6.367a36.427,36.427,0,0,1-2.583-7.088c-.336-1.362-.641-2.737-.852-4.123-.234-1.537-.384-3.091-.495-4.643-.1-1.39-.142-2.788-.122-4.182.021-1.419.123-2.839.239-4.254.133-1.632.27-3.267.5-4.888.321-2.308.671-4.615,1.108-6.9.42-2.2.955-4.385,1.469-6.569.085-.36.349-.674.471-1.029a.54.54,0,0,1,.8-.368c.15.08.2.542.138.792-.365,1.48-.776,2.948-1.169,4.422-.015.057-.029.149,0,.18.526.532.108,1.136.1,1.692-.022,1.419-.162,2.836-.219,4.255-.036.9.02,1.8-.012,2.7-.062,1.726-.159,3.45-.239,5.175-.043.924-.086,1.848-.122,2.772-.045,1.169-.15,2.341-.109,3.508.067,1.894.132,3.8.374,5.674a65.285,65.285,0,0,0,2.153,10.328,45.771,45.771,0,0,0,3.494,9.229c1.268,2.292,2.683,4.51,4.138,6.691,1.124,1.684,2.412,3.26,3.625,4.885.056.075.088.167.162.282M1.955,1099.9a3.156,3.156,0,0,1-.117-.624q.048-3.871.121-7.741c.015-.761.06-1.522.124-2.28.057-.684.175-1.363.234-2.046a8.738,8.738,0,0,0,0-1.226c0-.09-.135-.172-.208-.259-.05.064-.137.124-.145.193-.171,1.567-.354,3.134-.49,4.7-.114,1.313-.23,2.631-.238,3.947-.013,1.987,0,3.979.129,5.96a38.392,38.392,0,0,0,.616,4.9c.384,1.968.929,3.9,1.422,5.85.044.173.216.313.329.469a2.113,2.113,0,0,0,.04-.572c-.432-2.089-.946-4.163-1.3-6.265C2.2,1103.3,2.119,1101.652,1.955,1099.9Z" transform="translate(0 -940.17)"/><path class="a" d="M898.609,571.206c.245-1.064.5-2.065.734-3.069a10.077,10.077,0,0,1,.393-1.739c.3-.694-.2-.9-.579-1.063a13.583,13.583,0,0,0-4.932-1.131c-1.971-.055-3.939-.174-5.91-.23a17.262,17.262,0,0,0-1.972.122c-.089.008-.168.134-.252.206.083.051.166.145.251.147.552.013,1.1.007,1.656.007,1.268,0,2.536-.008,3.8.006a2.449,2.449,0,0,1,.922.138c.168.072.382.4.336.529a1.919,1.919,0,0,1-.546.668c-.066.061-.237.007-.359.01-1.619.04-3.238.076-4.856.125-.9.028-1.806.079-2.71.12a.39.39,0,0,0-.122,0c-.2.083-.389.173-.583.26a2.2,2.2,0,0,0,.615.219c.694.028,1.393-.029,2.085.019,1.383.1,2.767.2,4.138.392a1.216,1.216,0,0,1,.738.761c.1.332-.553.621-1.062.563a27.537,27.537,0,0,0-2.781-.238c-1.312-.014-2.63.163-3.935.081a29.237,29.237,0,0,1-3.732-.6,1.588,1.588,0,0,1-.77-.482A.738.738,0,0,1,879,566.4c.085-.2.36-.329.571-.46.074-.046.21.019.3-.014a1.8,1.8,0,0,0,.329-.2c-.1-.053-.206-.1-.307-.159a.986.986,0,0,1-.194-.123c-.2-.186-.528-.356-.566-.574a.8.8,0,0,1,.423-.63,7.682,7.682,0,0,1,1.691-.5,47.758,47.758,0,0,1,4.909-.72,69.365,69.365,0,0,1,7.062-.117,16.462,16.462,0,0,1,5.164.831c.548.2,1.062.5,1.615.688a1.506,1.506,0,0,0,.918.026,1.455,1.455,0,0,1,1.856.592,4.619,4.619,0,0,1,.421,3.008c-.037.195-.019.4-.043.6-.2,1.613-.391,3.228-.615,4.838a28.826,28.826,0,0,1-.511,2.858c-.08.329-.433.846-.642.836-.424-.019-.641-.461-.559-.926.206-1.18.431-2.357.644-3.536.117-.648.272-1.294.325-1.948.114-1.415.175-2.835.253-4.253.008-.139.036-.318-.035-.41a2.786,2.786,0,0,0-.486-.412c0,.174.009.348,0,.521a10.753,10.753,0,0,1-.1,1.468,45.174,45.174,0,0,1-2.079,7.6,2.172,2.172,0,0,1-.329.716c-.2.214-.561.511-.743.449a.957.957,0,0,1-.495-.743,9.311,9.311,0,0,1,.232-1.857C898.183,572.977,898.407,572.124,898.609,571.206Z" transform="translate(-771.098 -493.769)"/><path class="a" d="M773.718,626.206c.327-1.255.656-2.448.981-3.643a6.581,6.581,0,0,0,.226-.947.841.841,0,0,1,.927-.828c.178-.009.333-.259.521-.358a2.3,2.3,0,0,1,.833-.341c.369-.025.694.523.472.731a6.635,6.635,0,0,0-1.563,3.162c-.622,2.05-1.323,4.076-1.936,6.129-.756,2.533-1.509,5.07-2.165,7.63-.718,2.8-1.353,5.624-1.964,8.451-.251,1.161-.359,2.354-.5,3.537-.145,1.214-.317,2.432-.35,3.651a12.193,12.193,0,0,0,.295,2.511.774.774,0,0,0,.556.485c1.356.043,2.714.051,4.069.012.827-.024,1.652-.141,2.475-.24a.643.643,0,0,1,.767.5c.029.169-.295.5-.526.593a12.279,12.279,0,0,1-1.908.574c-1.338.288-2.679.58-4.033.77a2.235,2.235,0,0,1-1.791-.7,7.157,7.157,0,0,0-1.487-.988,2.571,2.571,0,0,1-1.493-3.282c.541-2.13,1.042-4.271,1.583-6.4.516-2.033,1.031-4.068,1.6-6.087.874-3.111,1.782-6.213,2.7-9.312.549-1.856,1.141-3.7,1.714-5.609m-6.26,27.185a1.62,1.62,0,0,1-.045.287,1.742,1.742,0,0,0,.374,2,1.15,1.15,0,0,0,.321.108,1.01,1.01,0,0,0,.081-.316,6.517,6.517,0,0,1-.108-.866c.061-1.108.162-2.214.23-3.322a2.032,2.032,0,0,0-.111-.529c-.119.138-.31.26-.345.417C767.7,651.864,767.587,652.568,767.459,653.392Z" transform="translate(-671.98 -543.983)"/><path class="a" d="M256.174,809.095a8.324,8.324,0,0,1-1.187.235c-2.253.061-4.518.252-6.757.088-2.255-.165-4.48-.721-6.727-1.05a22.49,22.49,0,0,0-5.061-.37,3.456,3.456,0,0,0-.937.25c-.094.036-.145.215-.183.338a.51.51,0,0,0,.247.136c1.68.292,3.357.612,5.045.852,1.27.181,2.554.276,3.835.374,1.376.105,2.763.1,4.13.269a18.8,18.8,0,0,0,5.064-.153c1.257-.182,2.494-.509,3.75-.7.352-.055.982.022,1.067.219.223.517-.347.692-.705.8a15.858,15.858,0,0,1-3.108.773c-2.085.183-4.185.27-6.277.253-1.914-.016-3.831-.172-5.737-.36-1.767-.175-3.527-.438-5.278-.737a14.712,14.712,0,0,1-2.757-.743,1.009,1.009,0,0,1-.632-1.469,2.761,2.761,0,0,1,1.808-1.19,11.5,11.5,0,0,1,4.325.1c1.569.281,3.147.517,4.726.739,1.36.191,2.724.369,4.092.485a23.443,23.443,0,0,0,3.383.116,22.158,22.158,0,0,0,7.347-1.209,6.68,6.68,0,0,0,.677-.289.653.653,0,0,1,.955.324c.232.414-.23.436-.448.578a9.745,9.745,0,0,1-3.97,1.229C256.651,809.006,256.444,809.054,256.174,809.095Z" transform="translate(-205.126 -707.725)"/><path class="a" d="M893.067,981.638c.726.672.4,1.461.221,2.139a8.833,8.833,0,0,0,.026,3.509c.093.718.164,1.441.278,2.156.242,1.512.482,3.025.769,4.528s.62,2.971.947,4.453c.4,1.816.786,3.637,1.247,5.437.111.435.146.706-.255.945s-.632-.016-.826-.273a21.677,21.677,0,0,1-3-5.2,15.763,15.763,0,0,1-1.1-5.435c-.023-1.108-.173-2.222-.1-3.322.129-1.9.375-3.8.6-5.7.075-.63.251-1.247.356-1.874.071-.429-.213-.631-.558-.8a32.211,32.211,0,0,1-2.983-1.53,17.726,17.726,0,0,1-4.563-4.061c-.25-.32-.552-.7-.27-1.158a.689.689,0,0,1,.45-.33c.183,0,.5.142.532.277a4.973,4.973,0,0,0,2.2,2.623,43.17,43.17,0,0,0,3.9,2.571c.658.4,1.394.677,2.126,1.041m-.46,13.531c.041.044.114.086.118.134a18.563,18.563,0,0,0,1.486,5.21c.05.13.226.213.344.317.034-.139.13-.3.094-.416a46.905,46.905,0,0,1-1.684-7.948,9.145,9.145,0,0,0-.362-1.38c-.016-.058-.084-.1-.128-.151-.038.056-.1.108-.109.167a1.774,1.774,0,0,0,0,.367C892.443,992.662,892.525,993.855,892.607,995.169Z" transform="translate(-775.282 -855.445)"/><path class="a" d="M808.909,953.99c.141-.06.263-.068.361-.121a.57.57,0,0,1,.931.413c.034.2-.293.591-.54.694a3.769,3.769,0,0,1-1.359.26c-1.593.029-3.187.027-4.78.007-1.7-.022-3.4-.06-5.1-.124-1.5-.056-3-.229-4.495-.212a4.288,4.288,0,0,0-2.455.416c-.383.25-.643-.137-.81-.408-.185-.3.145-.806.563-.887a10.253,10.253,0,0,1,1.174-.128c.636-.048,1.274-.124,1.91-.117,1.781.019,3.561.076,5.342.115,2.046.044,4.093.089,6.139.12C806.821,954.033,807.85,954.02,808.909,953.99Z" transform="translate(-693.579 -836.695)"/><path class="a" d="M932.576,846.733c-.464,1.241-.883,2.457-1.335,3.661-.405,1.078-.867,2.135-1.269,3.215a2.894,2.894,0,0,1-3.886,2.049,2.064,2.064,0,0,1-.738-.281c-.243-.18-.127-.759.16-.806a2.87,2.87,0,0,1,1.186-.014c1.18.326,1.745-.116,2.157-1.2,1.14-3,2.219-6.032,3.334-9.045a.71.71,0,0,1,.916-.536c.408.13.5.583.289,1.048C933.115,845.44,932.867,846.074,932.576,846.733Z" transform="translate(-811.661 -740.177)"/></g><g transform="translate(989.227 670.505)"><g transform="translate(0 5.476)"><g class="b" transform="translate(0.201 1.161)"><rect class="e" width="23" height="17" rx="2"/><rect class="f" x="0.5" y="0.5" width="22" height="16" rx="1.5"/></g><text class="c" transform="translate(5.201 15.161)"><tspan x="0" y="0">IP</tspan></text></g><g transform="translate(15.333 0)"><g class="b" transform="translate(-0.131 -0.363)"><circle class="e" cx="6.5" cy="6.5" r="6.5"/><circle class="f" cx="6.5" cy="6.5" r="6"/></g><g transform="translate(4.199 3.779)"><line class="d" y2="4.404" transform="translate(2.202)"/><line class="d" y2="4.404" transform="translate(4.404 2.202) rotate(90)"/></g></g></g></g></svg>