<svg width="400" height="300" viewBox="0 0 400 300" fill="none" xmlns="http://www.w3.org/2000/svg">
<rect x="26.666" y="57.3334" width="114.667" height="59.6667" rx="5.33333" fill="#E2F0FF"/>
<path fill-rule="evenodd" clip-rule="evenodd" d="M40.8891 80.0557C39.9073 80.0557 39.1113 80.8516 39.1113 81.8334V89.8334C39.1113 90.8153 39.9073 91.6112 40.8891 91.6112H41.778V92.5001C41.778 93.4779 42.578 94.2779 43.5558 94.2779H55.1113C56.0891 94.2779 56.8891 93.4779 56.8891 92.5001V84.5001C56.8891 83.5223 56.0891 82.7223 55.1113 82.7223H54.2224V81.8334C54.2224 80.8516 53.4265 80.0557 52.4447 80.0557H40.8891ZM52.4447 82.7223V81.8334L40.8891 81.8334V89.8334H41.778V84.5001C41.778 83.5223 42.578 82.7223 43.5558 82.7223H52.4447ZM49.3336 87.1668L55.1113 84.5001H43.5558L49.3336 87.1668ZM43.5558 86.2779V92.5001H55.1113V86.2779L49.3336 88.9446L43.5558 86.2779Z" fill="#1E75BA"/>
<path d="M64.41 74.7605V73.8789H69.6633V74.7605H67.5454V80.6667H66.5246V74.7605H64.41ZM72.1508 80.7695C71.6735 80.7695 71.257 80.6601 70.9012 80.4414C70.5455 80.2226 70.2693 79.9166 70.0727 79.5233C69.876 79.13 69.7777 78.6704 69.7777 78.1445C69.7777 77.6164 69.876 77.1546 70.0727 76.7591C70.2693 76.3636 70.5455 76.0564 70.9012 75.8377C71.257 75.6189 71.6735 75.5096 72.1508 75.5096C72.628 75.5096 73.0446 75.6189 73.4003 75.8377C73.756 76.0564 74.0322 76.3636 74.2289 76.7591C74.4256 77.1546 74.5239 77.6164 74.5239 78.1445C74.5239 78.6704 74.4256 79.13 74.2289 79.5233C74.0322 79.9166 73.756 80.2226 73.4003 80.4414C73.0446 80.6601 72.628 80.7695 72.1508 80.7695ZM72.1541 79.9376C72.4634 79.9376 72.7197 79.8558 72.923 79.6923C73.1263 79.5288 73.2766 79.3112 73.3738 79.0394C73.4732 78.7676 73.5229 78.4682 73.5229 78.1412C73.5229 77.8164 73.4732 77.5181 73.3738 77.2463C73.2766 76.9723 73.1263 76.7524 72.923 76.5867C72.7197 76.421 72.4634 76.3381 72.1541 76.3381C71.8425 76.3381 71.584 76.421 71.3785 76.5867C71.1752 76.7524 71.0239 76.9723 70.9244 77.2463C70.8272 77.5181 70.7786 77.8164 70.7786 78.1412C70.7786 78.4682 70.8272 78.7676 70.9244 79.0394C71.0239 79.3112 71.1752 79.5288 71.3785 79.6923C71.584 79.8558 71.8425 79.9376 72.1541 79.9376ZM78.0065 75.5758V76.3713H75.2257V75.5758H78.0065ZM75.9714 74.3561H76.9624V79.172C76.9624 79.3642 76.9912 79.5089 77.0486 79.6061C77.1061 79.7012 77.1801 79.7663 77.2707 79.8017C77.3635 79.8348 77.464 79.8514 77.5723 79.8514C77.6518 79.8514 77.7214 79.8459 77.7811 79.8348C77.8408 79.8238 77.8872 79.8149 77.9203 79.8083L78.0993 80.627C78.0418 80.6491 77.9601 80.6712 77.854 80.6933C77.748 80.7176 77.6154 80.7308 77.4563 80.733C77.1956 80.7375 76.9525 80.6911 76.7271 80.5938C76.5017 80.4966 76.3195 80.3464 76.1802 80.1431C76.041 79.9398 75.9714 79.6846 75.9714 79.3774V74.3561ZM80.5843 80.7794C80.2617 80.7794 79.97 80.7198 79.7093 80.6005C79.4485 80.4789 79.2419 80.3033 79.0895 80.0735C78.9392 79.8437 78.8641 79.5619 78.8641 79.2283C78.8641 78.9411 78.9193 78.7046 79.0298 78.519C79.1403 78.3334 79.2894 78.1865 79.4772 78.0782C79.6651 77.9699 79.875 77.8882 80.107 77.8329C80.339 77.7777 80.5754 77.7357 80.8163 77.707C81.1212 77.6716 81.3687 77.6429 81.5587 77.6208C81.7487 77.5965 81.8868 77.5578 81.973 77.5048C82.0592 77.4518 82.1022 77.3656 82.1022 77.2463V77.2231C82.1022 76.9336 82.0205 76.7094 81.857 76.5503C81.6957 76.3912 81.4548 76.3116 81.1344 76.3116C80.8008 76.3116 80.5379 76.3857 80.3456 76.5337C80.1556 76.6795 80.0241 76.8419 79.9512 77.0209L79.0199 76.8088C79.1303 76.4994 79.2916 76.2498 79.5038 76.0597C79.7181 75.8675 79.9645 75.7283 80.2429 75.6421C80.5213 75.5537 80.814 75.5096 81.1212 75.5096C81.3245 75.5096 81.5399 75.5339 81.7675 75.5825C81.9973 75.6289 82.2116 75.715 82.4105 75.841C82.6116 75.9669 82.7762 76.147 82.9043 76.3812C83.0325 76.6132 83.0966 76.9149 83.0966 77.2861V80.6667H82.1288V79.9707H82.089C82.0249 80.0989 81.9288 80.2248 81.8006 80.3486C81.6725 80.4723 81.5079 80.575 81.3068 80.6568C81.1057 80.7386 80.8649 80.7794 80.5843 80.7794ZM80.7997 79.984C81.0737 79.984 81.3079 79.9298 81.5023 79.8216C81.699 79.7133 81.8481 79.5719 81.9498 79.3973C82.0536 79.2206 82.1056 79.0316 82.1056 78.8306V78.1743C82.0702 78.2097 82.0017 78.2428 81.9001 78.2738C81.8006 78.3025 81.6868 78.3279 81.5587 78.35C81.4305 78.3699 81.3057 78.3887 81.1842 78.4063C81.0626 78.4218 80.961 78.4351 80.8792 78.4461C80.687 78.4704 80.5113 78.5113 80.3522 78.5687C80.1954 78.6262 80.0694 78.709 79.9744 78.8173C79.8816 78.9234 79.8352 79.0648 79.8352 79.2416C79.8352 79.4868 79.9258 79.6724 80.107 79.7984C80.2882 79.9221 80.5191 79.984 80.7997 79.984ZM85.4075 73.8789V80.6667H84.4165V73.8789H85.4075ZM89.2903 80.6667V73.8789H93.546V74.7605H90.3145V76.8287H93.324V77.707H90.3145V79.7851H93.5858V80.6667H89.2903ZM94.8345 80.6667V75.5758H95.7857V76.4044H95.8487C95.9548 76.1238 96.1282 75.9051 96.3691 75.7482C96.6099 75.5891 96.8983 75.5096 97.2341 75.5096C97.5744 75.5096 97.8594 75.5891 98.0892 75.7482C98.3212 75.9073 98.4925 76.126 98.603 76.4044H98.656C98.7775 76.1327 98.9709 75.9161 99.236 75.7548C99.5012 75.5913 99.8171 75.5096 100.184 75.5096C100.646 75.5096 101.022 75.6543 101.314 75.9437C101.608 76.2332 101.755 76.6696 101.755 77.2529V80.6667H100.764V77.3457C100.764 77.001 100.67 76.7513 100.482 76.5967C100.294 76.442 100.07 76.3647 99.8094 76.3647C99.4868 76.3647 99.236 76.4641 99.057 76.663C98.8781 76.8596 98.7886 77.1126 98.7886 77.422V80.6667H97.8009V77.2828C97.8009 77.0066 97.7147 76.7845 97.5424 76.6166C97.37 76.4486 97.1457 76.3647 96.8695 76.3647C96.6817 76.3647 96.5083 76.4144 96.3492 76.5138C96.1923 76.611 96.0652 76.7469 95.968 76.9215C95.873 77.096 95.8255 77.2982 95.8255 77.528V80.6667H94.8345ZM104.565 80.7794C104.242 80.7794 103.95 80.7198 103.69 80.6005C103.429 80.4789 103.222 80.3033 103.07 80.0735C102.92 79.8437 102.845 79.5619 102.845 79.2283C102.845 78.9411 102.9 78.7046 103.01 78.519C103.121 78.3334 103.27 78.1865 103.458 78.0782C103.646 77.9699 103.855 77.8882 104.087 77.8329C104.319 77.7777 104.556 77.7357 104.797 77.707C105.102 77.6716 105.349 77.6429 105.539 77.6208C105.729 77.5965 105.867 77.5578 105.953 77.5048C106.04 77.4518 106.083 77.3656 106.083 77.2463V77.2231C106.083 76.9336 106.001 76.7094 105.837 76.5503C105.676 76.3912 105.435 76.3116 105.115 76.3116C104.781 76.3116 104.518 76.3857 104.326 76.5337C104.136 76.6795 104.005 76.8419 103.932 77.0209L103 76.8088C103.111 76.4994 103.272 76.2498 103.484 76.0597C103.699 75.8675 103.945 75.7283 104.223 75.6421C104.502 75.5537 104.795 75.5096 105.102 75.5096C105.305 75.5096 105.52 75.5339 105.748 75.5825C105.978 75.6289 106.192 75.715 106.391 75.841C106.592 75.9669 106.757 76.147 106.885 76.3812C107.013 76.6132 107.077 76.9149 107.077 77.2861V80.6667H106.109V79.9707H106.069C106.005 80.0989 105.909 80.2248 105.781 80.3486C105.653 80.4723 105.488 80.575 105.287 80.6568C105.086 80.7386 104.845 80.7794 104.565 80.7794ZM104.78 79.984C105.054 79.984 105.288 79.9298 105.483 79.8216C105.679 79.7133 105.829 79.5719 105.93 79.3973C106.034 79.2206 106.086 79.0316 106.086 78.8306V78.1743C106.051 78.2097 105.982 78.2428 105.881 78.2738C105.781 78.3025 105.667 78.3279 105.539 78.35C105.411 78.3699 105.286 78.3887 105.165 78.4063C105.043 78.4218 104.941 78.4351 104.86 78.4461C104.667 78.4704 104.492 78.5113 104.333 78.5687C104.176 78.6262 104.05 78.709 103.955 78.8173C103.862 78.9234 103.816 79.0648 103.816 79.2416C103.816 79.4868 103.906 79.6724 104.087 79.7984C104.269 79.9221 104.5 79.984 104.78 79.984ZM108.397 80.6667V75.5758H109.388V80.6667H108.397ZM108.897 74.7903C108.725 74.7903 108.577 74.7329 108.453 74.618C108.332 74.5009 108.271 74.3617 108.271 74.2004C108.271 74.0369 108.332 73.8977 108.453 73.7828C108.577 73.6656 108.725 73.6071 108.897 73.6071C109.07 73.6071 109.217 73.6656 109.338 73.7828C109.462 73.8977 109.524 74.0369 109.524 74.2004C109.524 74.3617 109.462 74.5009 109.338 74.618C109.217 74.7329 109.07 74.7903 108.897 74.7903ZM111.712 73.8789V80.6667H110.721V73.8789H111.712ZM116.86 76.8187L115.962 76.9778C115.925 76.8629 115.865 76.7536 115.783 76.6497C115.704 76.5459 115.595 76.4608 115.458 76.3945C115.321 76.3282 115.15 76.2951 114.945 76.2951C114.664 76.2951 114.43 76.358 114.242 76.484C114.054 76.6077 113.96 76.7679 113.96 76.9646C113.96 77.1347 114.023 77.2717 114.149 77.3756C114.275 77.4794 114.478 77.5645 114.759 77.6308L115.568 77.8164C116.036 77.9246 116.385 78.0915 116.615 78.3168C116.845 78.5422 116.96 78.835 116.96 79.1952C116.96 79.5001 116.871 79.7719 116.695 80.0105C116.52 80.2469 116.276 80.4325 115.962 80.5673C115.651 80.7021 115.289 80.7695 114.878 80.7695C114.308 80.7695 113.843 80.648 113.483 80.4049C113.123 80.1596 112.902 79.8116 112.82 79.3609L113.778 79.215C113.838 79.4647 113.96 79.6536 114.146 79.7818C114.331 79.9078 114.573 79.9707 114.872 79.9707C115.196 79.9707 115.456 79.9033 115.651 79.7685C115.845 79.6316 115.942 79.4647 115.942 79.2681C115.942 79.109 115.883 78.9753 115.763 78.867C115.646 78.7588 115.466 78.677 115.223 78.6218L114.361 78.4328C113.886 78.3246 113.535 78.1522 113.307 77.9158C113.082 77.6794 112.969 77.38 112.969 77.0176C112.969 76.7171 113.053 76.4542 113.221 76.2288C113.389 76.0034 113.621 75.8277 113.917 75.7018C114.213 75.5736 114.552 75.5096 114.935 75.5096C115.485 75.5096 115.918 75.6289 116.234 75.8675C116.55 76.1039 116.759 76.421 116.86 76.8187Z" fill="#1E75BA"/>
<path d="M69.1922 99.8258C68.3892 99.8258 67.6733 99.6781 67.0445 99.3827C66.4195 99.0872 65.9233 98.68 65.5558 98.1611C65.1884 97.6421 64.9971 97.0474 64.982 96.377H67.3683C67.3949 96.8277 67.5843 97.1933 67.9365 97.4736C68.2888 97.7539 68.7074 97.894 69.1922 97.894C69.5786 97.894 69.9195 97.8088 70.2149 97.6383C70.5142 97.4641 70.7471 97.2236 70.9138 96.9167C71.0843 96.6061 71.1695 96.2501 71.1695 95.8486C71.1695 95.4395 71.0824 95.0796 70.9081 94.769C70.7377 94.4584 70.5009 94.216 70.1979 94.0417C69.8949 93.8675 69.5483 93.7785 69.1581 93.7747C68.8172 93.7747 68.4858 93.8448 68.1638 93.9849C67.8456 94.1251 67.5975 94.3164 67.4195 94.5588L65.232 94.1667L65.7831 88.0304H72.8968V90.0417H67.8115L67.5104 92.9565H67.5786C67.7831 92.6686 68.0918 92.43 68.5047 92.2406C68.9176 92.0512 69.3797 91.9565 69.8911 91.9565C70.5918 91.9565 71.2168 92.1213 71.7661 92.4508C72.3153 92.7804 72.749 93.233 73.0672 93.8088C73.3854 94.3808 73.5426 95.0399 73.5388 95.7861C73.5426 96.5702 73.3608 97.2671 72.9933 97.877C72.6297 98.483 72.1202 98.9603 71.4649 99.3088C70.8134 99.6535 70.0558 99.8258 69.1922 99.8258ZM79.8172 99.9224C78.8399 99.9186 77.999 99.6781 77.2945 99.2008C76.5937 98.7236 76.0539 98.0323 75.6752 97.127C75.3002 96.2217 75.1146 95.1327 75.1183 93.8599C75.1183 92.591 75.3058 91.5096 75.6808 90.6156C76.0596 89.7217 76.5994 89.0417 77.3002 88.5758C78.0047 88.1061 78.8437 87.8713 79.8172 87.8713C80.7907 87.8713 81.6278 88.1061 82.3286 88.5758C83.0331 89.0455 83.5748 89.7274 83.9536 90.6213C84.3324 91.5114 84.5199 92.591 84.5161 93.8599C84.5161 95.1364 84.3267 96.2274 83.9479 97.1327C83.5729 98.038 83.035 98.7292 82.3343 99.2065C81.6335 99.6838 80.7945 99.9224 79.8172 99.9224ZM79.8172 97.8827C80.4839 97.8827 81.0161 97.5474 81.4138 96.877C81.8115 96.2065 82.0085 95.2008 82.0047 93.8599C82.0047 92.9774 81.9138 92.2425 81.732 91.6554C81.5539 91.0683 81.3002 90.627 80.9706 90.3315C80.6449 90.0361 80.2604 89.8883 79.8172 89.8883C79.1543 89.8883 78.624 90.2198 78.2263 90.8827C77.8286 91.5455 77.6278 92.538 77.624 93.8599C77.624 94.7539 77.713 95.5001 77.8911 96.0986C78.0729 96.6933 78.3286 97.1402 78.6581 97.4395C78.9877 97.7349 79.374 97.8827 79.8172 97.8827ZM88.4862 97.1554L88.4919 94.252H88.8442L91.6396 90.9395H94.4181L90.6624 95.3258H90.0885L88.4862 97.1554ZM86.2931 99.6667V88.0304H88.7135V99.6667H86.2931ZM91.7476 99.6667L89.1794 95.8656L90.7931 94.1554L94.5828 99.6667H91.7476Z" fill="#1E75BA"/>
<rect x="258.666" y="118" width="114.667" height="59" rx="5.33333" fill="#F9EAE5"/>
<path d="M287.111 140.389H272.889C271.911 140.389 271.12 141.189 271.12 142.167L271.111 152.833C271.111 153.811 271.911 154.611 272.889 154.611H280V152.833H272.889V143.944L280 148.389L287.111 143.944V148.389H288.889V142.167C288.889 141.189 288.089 140.389 287.111 140.389ZM280 146.611L272.889 142.167H287.111L280 146.611Z" fill="#CC5229"/>
<path d="M285.432 151.673L283.232 149.473L281.975 150.73L284.175 152.93L281.975 155.13L283.232 156.387L285.432 154.187L287.632 156.387L288.889 155.13L286.689 152.93L288.889 150.73L287.632 149.473L285.432 151.673Z" fill="#CC5229"/>
<path d="M302.079 141.333V134.545H306.288V135.427H303.103V137.495H305.986V138.374H303.103V141.333H302.079ZM308.931 141.446C308.609 141.446 308.317 141.386 308.056 141.267C307.796 141.146 307.589 140.97 307.436 140.74C307.286 140.51 307.211 140.229 307.211 139.895C307.211 139.608 307.266 139.371 307.377 139.186C307.487 139 307.636 138.853 307.824 138.745C308.012 138.637 308.222 138.555 308.454 138.5C308.686 138.444 308.922 138.402 309.163 138.374C309.468 138.338 309.716 138.31 309.906 138.287C310.096 138.263 310.234 138.224 310.32 138.171C310.406 138.118 310.449 138.032 310.449 137.913V137.89C310.449 137.6 310.367 137.376 310.204 137.217C310.043 137.058 309.802 136.978 309.481 136.978C309.148 136.978 308.885 137.052 308.693 137.2C308.503 137.346 308.371 137.509 308.298 137.688L307.367 137.475C307.477 137.166 307.639 136.916 307.851 136.726C308.065 136.534 308.311 136.395 308.59 136.309C308.868 136.22 309.161 136.176 309.468 136.176C309.671 136.176 309.887 136.2 310.114 136.249C310.344 136.295 310.559 136.382 310.757 136.508C310.959 136.634 311.123 136.814 311.251 137.048C311.379 137.28 311.444 137.581 311.444 137.953V141.333H310.476V140.637H310.436C310.372 140.766 310.276 140.891 310.148 141.015C310.019 141.139 309.855 141.242 309.654 141.323C309.453 141.405 309.212 141.446 308.931 141.446ZM309.147 140.651C309.421 140.651 309.655 140.596 309.849 140.488C310.046 140.38 310.195 140.239 310.297 140.064C310.401 139.887 310.453 139.698 310.453 139.497V138.841C310.417 138.876 310.349 138.909 310.247 138.94C310.148 138.969 310.034 138.995 309.906 139.017C309.778 139.036 309.653 139.055 309.531 139.073C309.41 139.088 309.308 139.102 309.226 139.113C309.034 139.137 308.858 139.178 308.699 139.235C308.542 139.293 308.416 139.376 308.321 139.484C308.229 139.59 308.182 139.731 308.182 139.908C308.182 140.153 308.273 140.339 308.454 140.465C308.635 140.589 308.866 140.651 309.147 140.651ZM312.764 141.333V136.242H313.755V141.333H312.764ZM313.264 135.457C313.092 135.457 312.944 135.4 312.82 135.285C312.698 135.167 312.638 135.028 312.638 134.867C312.638 134.703 312.698 134.564 312.82 134.449C312.944 134.332 313.092 134.274 313.264 134.274C313.436 134.274 313.583 134.332 313.705 134.449C313.829 134.564 313.89 134.703 313.89 134.867C313.89 135.028 313.829 135.167 313.705 135.285C313.583 135.4 313.436 135.457 313.264 135.457ZM316.079 134.545V141.333H315.088V134.545H316.079ZM319.606 141.436C319.105 141.436 318.673 141.329 318.31 141.115C317.95 140.898 317.672 140.594 317.475 140.203C317.28 139.81 317.183 139.349 317.183 138.821C317.183 138.3 317.28 137.84 317.475 137.442C317.672 137.045 317.946 136.734 318.297 136.511C318.65 136.288 319.064 136.176 319.536 136.176C319.824 136.176 320.102 136.224 320.372 136.319C320.641 136.414 320.883 136.563 321.098 136.766C321.312 136.969 321.481 137.233 321.605 137.558C321.728 137.881 321.79 138.273 321.79 138.735V139.086H317.743V138.344H320.819C320.819 138.083 320.766 137.852 320.66 137.651C320.554 137.448 320.405 137.288 320.213 137.17C320.023 137.053 319.799 136.995 319.543 136.995C319.265 136.995 319.022 137.063 318.814 137.2C318.608 137.335 318.449 137.512 318.337 137.731C318.226 137.947 318.171 138.182 318.171 138.437V139.017C318.171 139.357 318.231 139.646 318.35 139.885C318.471 140.124 318.64 140.306 318.857 140.432C319.074 140.556 319.327 140.617 319.616 140.617C319.804 140.617 319.975 140.591 320.13 140.538C320.284 140.483 320.418 140.401 320.531 140.293C320.643 140.184 320.73 140.051 320.789 139.892L321.727 140.061C321.652 140.337 321.517 140.579 321.323 140.786C321.131 140.992 320.889 141.152 320.597 141.267C320.308 141.38 319.977 141.436 319.606 141.436ZM324.796 141.433C324.385 141.433 324.018 141.328 323.695 141.118C323.375 140.906 323.123 140.604 322.94 140.213C322.758 139.82 322.668 139.348 322.668 138.798C322.668 138.248 322.759 137.777 322.943 137.386C323.128 136.995 323.383 136.695 323.705 136.488C324.028 136.28 324.393 136.176 324.802 136.176C325.118 136.176 325.372 136.229 325.565 136.335C325.759 136.439 325.909 136.561 326.015 136.7C326.124 136.839 326.208 136.962 326.267 137.068H326.327V134.545H327.318V141.333H326.35V140.541H326.267C326.208 140.65 326.121 140.773 326.009 140.912C325.898 141.052 325.746 141.173 325.551 141.277C325.357 141.381 325.105 141.433 324.796 141.433ZM325.014 140.588C325.299 140.588 325.54 140.513 325.737 140.362C325.936 140.21 326.086 139.999 326.188 139.729C326.291 139.46 326.343 139.146 326.343 138.788C326.343 138.434 326.293 138.125 326.191 137.86C326.089 137.595 325.94 137.388 325.744 137.24C325.547 137.092 325.304 137.018 325.014 137.018C324.716 137.018 324.467 137.095 324.269 137.25C324.07 137.405 323.919 137.616 323.818 137.883C323.718 138.15 323.669 138.452 323.669 138.788C323.669 139.128 323.72 139.434 323.821 139.706C323.923 139.978 324.073 140.193 324.272 140.352C324.473 140.509 324.72 140.588 325.014 140.588Z" fill="#CC5229"/>
<path d="M302.276 159.667V157.894L306.418 154.059C306.771 153.718 307.066 153.411 307.305 153.138C307.547 152.866 307.731 152.599 307.856 152.337C307.981 152.072 308.043 151.786 308.043 151.479C308.043 151.138 307.966 150.845 307.81 150.599C307.655 150.349 307.443 150.157 307.174 150.025C306.905 149.888 306.6 149.82 306.259 149.82C305.903 149.82 305.592 149.892 305.327 150.036C305.062 150.18 304.858 150.386 304.714 150.655C304.57 150.924 304.498 151.244 304.498 151.616H302.163C302.163 150.854 302.335 150.193 302.68 149.633C303.024 149.072 303.507 148.638 304.128 148.332C304.75 148.025 305.466 147.871 306.276 147.871C307.11 147.871 307.835 148.019 308.452 148.314C309.074 148.606 309.556 149.011 309.901 149.53C310.246 150.049 310.418 150.644 310.418 151.314C310.418 151.754 310.331 152.188 310.157 152.616C309.986 153.044 309.681 153.519 309.242 154.042C308.803 154.561 308.183 155.184 307.384 155.911L305.685 157.576V157.655H310.572V159.667H302.276ZM314.57 157.155L314.576 154.252H314.928L317.724 150.939H320.502L316.746 155.326H316.172L314.57 157.155ZM312.377 159.667V148.03H314.797V159.667H312.377ZM317.832 159.667L315.263 155.866L316.877 154.155L320.667 159.667H317.832Z" fill="#CC5229"/>
<rect x="142.666" y="118" width="114.667" height="59" rx="5.33333" fill="#DE8644" fill-opacity="0.1"/>
<path d="M171.111 140.389H156.889C155.911 140.389 155.12 141.189 155.12 142.167L155.111 152.833C155.111 153.811 155.911 154.611 156.889 154.611H164V152.833H156.889V143.944L164 148.389L171.111 143.944V148.389H172.889V142.167C172.889 141.189 172.089 140.389 171.111 140.389ZM164 146.611L156.889 142.167H171.111L164 146.611Z" fill="#DE8644"/>
<path d="M173.778 152.833L170.223 149.278V151.944H165.778V153.722H170.223V156.389L173.778 152.833Z" fill="#DE8644"/>
<path d="M189.781 136.329C189.746 136.015 189.6 135.772 189.343 135.599C189.087 135.425 188.765 135.338 188.376 135.338C188.097 135.338 187.856 135.382 187.653 135.47C187.45 135.556 187.292 135.676 187.179 135.828C187.069 135.978 187.013 136.15 187.013 136.342C187.013 136.503 187.051 136.642 187.126 136.76C187.203 136.877 187.304 136.975 187.428 137.054C187.554 137.132 187.688 137.197 187.832 137.25C187.976 137.301 188.114 137.343 188.246 137.376L188.909 137.548C189.126 137.601 189.348 137.673 189.575 137.764C189.803 137.854 190.014 137.974 190.208 138.122C190.403 138.27 190.56 138.453 190.679 138.672C190.801 138.891 190.861 139.153 190.861 139.457C190.861 139.842 190.762 140.183 190.563 140.482C190.366 140.78 190.08 141.015 189.705 141.188C189.331 141.36 188.879 141.446 188.349 141.446C187.841 141.446 187.401 141.365 187.03 141.204C186.659 141.043 186.368 140.814 186.158 140.518C185.948 140.22 185.832 139.866 185.81 139.457H186.838C186.858 139.703 186.937 139.907 187.076 140.071C187.218 140.232 187.398 140.352 187.617 140.432C187.838 140.509 188.08 140.548 188.342 140.548C188.632 140.548 188.889 140.503 189.115 140.412C189.342 140.319 189.521 140.191 189.652 140.028C189.782 139.862 189.847 139.668 189.847 139.447C189.847 139.246 189.79 139.082 189.675 138.954C189.562 138.825 189.409 138.719 189.214 138.635C189.022 138.551 188.804 138.477 188.561 138.413L187.759 138.195C187.216 138.047 186.785 137.829 186.467 137.542C186.151 137.254 185.993 136.874 185.993 136.402C185.993 136.01 186.099 135.669 186.311 135.377C186.523 135.086 186.81 134.859 187.172 134.698C187.535 134.534 187.944 134.453 188.399 134.453C188.858 134.453 189.264 134.533 189.615 134.695C189.969 134.856 190.247 135.078 190.45 135.361C190.654 135.641 190.76 135.964 190.769 136.329H189.781ZM195.231 139.222V136.242H196.225V141.333H195.251V140.452H195.197C195.08 140.724 194.893 140.95 194.634 141.131C194.378 141.31 194.058 141.4 193.676 141.4C193.349 141.4 193.06 141.328 192.808 141.184C192.558 141.038 192.361 140.823 192.218 140.538C192.076 140.253 192.006 139.9 192.006 139.481V136.242H192.997V139.361C192.997 139.708 193.093 139.984 193.285 140.19C193.477 140.395 193.727 140.498 194.034 140.498C194.22 140.498 194.404 140.452 194.588 140.359C194.773 140.266 194.927 140.126 195.048 139.938C195.172 139.75 195.233 139.512 195.231 139.222ZM197.556 143.242V136.242H198.524V137.068H198.607C198.665 136.962 198.747 136.839 198.856 136.7C198.964 136.561 199.114 136.439 199.306 136.335C199.499 136.229 199.753 136.176 200.069 136.176C200.48 136.176 200.847 136.28 201.169 136.488C201.492 136.695 201.745 136.995 201.928 137.386C202.114 137.777 202.207 138.248 202.207 138.798C202.207 139.348 202.115 139.82 201.931 140.213C201.748 140.604 201.496 140.906 201.176 141.118C200.855 141.328 200.49 141.433 200.079 141.433C199.769 141.433 199.516 141.381 199.32 141.277C199.125 141.173 198.973 141.052 198.862 140.912C198.752 140.773 198.667 140.65 198.607 140.541H198.547V143.242H197.556ZM198.528 138.788C198.528 139.146 198.58 139.46 198.683 139.729C198.787 139.999 198.937 140.21 199.134 140.362C199.331 140.513 199.572 140.588 199.857 140.588C200.153 140.588 200.4 140.509 200.599 140.352C200.798 140.193 200.948 139.978 201.05 139.706C201.154 139.434 201.206 139.128 201.206 138.788C201.206 138.452 201.155 138.15 201.053 137.883C200.954 137.616 200.803 137.405 200.602 137.25C200.404 137.095 200.155 137.018 199.857 137.018C199.569 137.018 199.326 137.092 199.128 137.24C198.931 137.388 198.782 137.595 198.68 137.86C198.578 138.125 198.528 138.434 198.528 138.788ZM203.317 143.242V136.242H204.285V137.068H204.368C204.425 136.962 204.508 136.839 204.616 136.7C204.724 136.561 204.875 136.439 205.067 136.335C205.259 136.229 205.513 136.176 205.829 136.176C206.24 136.176 206.607 136.28 206.93 136.488C207.252 136.695 207.505 136.995 207.689 137.386C207.874 137.777 207.967 138.248 207.967 138.798C207.967 139.348 207.875 139.82 207.692 140.213C207.509 140.604 207.257 140.906 206.936 141.118C206.616 141.328 206.25 141.433 205.839 141.433C205.53 141.433 205.277 141.381 205.08 141.277C204.886 141.173 204.733 141.052 204.623 140.912C204.512 140.773 204.427 140.65 204.368 140.541H204.308V143.242H203.317ZM204.288 138.788C204.288 139.146 204.34 139.46 204.444 139.729C204.548 139.999 204.698 140.21 204.895 140.362C205.091 140.513 205.332 140.588 205.617 140.588C205.913 140.588 206.161 140.509 206.36 140.352C206.558 140.193 206.709 139.978 206.81 139.706C206.914 139.434 206.966 139.128 206.966 138.788C206.966 138.452 206.915 138.15 206.814 137.883C206.714 137.616 206.564 137.405 206.363 137.25C206.164 137.095 205.915 137.018 205.617 137.018C205.33 137.018 205.087 137.092 204.888 137.24C204.691 137.388 204.542 137.595 204.44 137.86C204.339 138.125 204.288 138.434 204.288 138.788ZM209.077 141.333V136.242H210.035V137.051H210.088C210.181 136.777 210.345 136.562 210.579 136.405C210.815 136.246 211.083 136.166 211.381 136.166C211.443 136.166 211.516 136.168 211.6 136.173C211.686 136.177 211.753 136.183 211.802 136.189V137.137C211.762 137.126 211.691 137.114 211.59 137.101C211.488 137.085 211.386 137.078 211.285 137.078C211.05 137.078 210.842 137.127 210.658 137.227C210.477 137.324 210.333 137.46 210.227 137.635C210.121 137.807 210.068 138.004 210.068 138.224V141.333H209.077ZM214.671 141.436C214.17 141.436 213.738 141.329 213.375 141.115C213.015 140.898 212.737 140.594 212.54 140.203C212.346 139.81 212.248 139.349 212.248 138.821C212.248 138.3 212.346 137.84 212.54 137.442C212.737 137.045 213.011 136.734 213.362 136.511C213.716 136.288 214.129 136.176 214.602 136.176C214.889 136.176 215.167 136.224 215.437 136.319C215.706 136.414 215.948 136.563 216.163 136.766C216.377 136.969 216.546 137.233 216.67 137.558C216.794 137.881 216.855 138.273 216.855 138.735V139.086H212.809V138.344H215.884C215.884 138.083 215.831 137.852 215.725 137.651C215.619 137.448 215.47 137.288 215.278 137.17C215.088 137.053 214.865 136.995 214.608 136.995C214.33 136.995 214.087 137.063 213.879 137.2C213.674 137.335 213.514 137.512 213.402 137.731C213.291 137.947 213.236 138.182 213.236 138.437V139.017C213.236 139.357 213.296 139.646 213.415 139.885C213.537 140.124 213.706 140.306 213.922 140.432C214.139 140.556 214.392 140.617 214.681 140.617C214.869 140.617 215.04 140.591 215.195 140.538C215.35 140.483 215.483 140.401 215.596 140.293C215.709 140.184 215.795 140.051 215.854 139.892L216.792 140.061C216.717 140.337 216.582 140.579 216.388 140.786C216.196 140.992 215.954 141.152 215.662 141.267C215.373 141.38 215.042 141.436 214.671 141.436ZM221.77 137.485L220.872 137.644C220.834 137.53 220.774 137.42 220.693 137.316C220.613 137.212 220.505 137.127 220.368 137.061C220.231 136.995 220.06 136.962 219.854 136.962C219.573 136.962 219.339 137.025 219.151 137.151C218.964 137.274 218.87 137.435 218.87 137.631C218.87 137.801 218.933 137.938 219.059 138.042C219.185 138.146 219.388 138.231 219.668 138.297L220.477 138.483C220.946 138.591 221.295 138.758 221.525 138.983C221.754 139.209 221.869 139.502 221.869 139.862C221.869 140.167 221.781 140.438 221.604 140.677C221.43 140.914 221.185 141.099 220.872 141.234C220.56 141.369 220.199 141.436 219.788 141.436C219.218 141.436 218.753 141.315 218.392 141.072C218.032 140.826 217.811 140.478 217.73 140.028L218.687 139.882C218.747 140.131 218.87 140.32 219.055 140.448C219.241 140.574 219.483 140.637 219.781 140.637C220.106 140.637 220.366 140.57 220.56 140.435C220.754 140.298 220.852 140.131 220.852 139.935C220.852 139.776 220.792 139.642 220.673 139.534C220.556 139.425 220.376 139.344 220.132 139.288L219.271 139.099C218.796 138.991 218.444 138.819 218.217 138.582C217.991 138.346 217.879 138.047 217.879 137.684C217.879 137.384 217.963 137.121 218.131 136.895C218.299 136.67 218.531 136.494 218.827 136.368C219.123 136.24 219.462 136.176 219.844 136.176C220.394 136.176 220.827 136.295 221.143 136.534C221.459 136.771 221.668 137.088 221.77 137.485ZM226.774 137.485L225.876 137.644C225.838 137.53 225.778 137.42 225.697 137.316C225.617 137.212 225.509 137.127 225.372 137.061C225.235 136.995 225.063 136.962 224.858 136.962C224.577 136.962 224.343 137.025 224.155 137.151C223.968 137.274 223.874 137.435 223.874 137.631C223.874 137.801 223.937 137.938 224.063 138.042C224.188 138.146 224.392 138.231 224.672 138.297L225.481 138.483C225.95 138.591 226.299 138.758 226.528 138.983C226.758 139.209 226.873 139.502 226.873 139.862C226.873 140.167 226.785 140.438 226.608 140.677C226.433 140.914 226.189 141.099 225.876 141.234C225.564 141.369 225.203 141.436 224.792 141.436C224.222 141.436 223.757 141.315 223.396 141.072C223.036 140.826 222.815 140.478 222.733 140.028L223.691 139.882C223.751 140.131 223.874 140.32 224.059 140.448C224.245 140.574 224.487 140.637 224.785 140.637C225.11 140.637 225.37 140.57 225.564 140.435C225.758 140.298 225.856 140.131 225.856 139.935C225.856 139.776 225.796 139.642 225.677 139.534C225.56 139.425 225.379 139.344 225.136 139.288L224.275 139.099C223.8 138.991 223.448 138.819 223.221 138.582C222.995 138.346 222.883 138.047 222.883 137.684C222.883 137.384 222.967 137.121 223.135 136.895C223.302 136.67 223.534 136.494 223.831 136.368C224.127 136.24 224.466 136.176 224.848 136.176C225.398 136.176 225.831 136.295 226.147 136.534C226.463 136.771 226.672 137.088 226.774 137.485ZM230.157 141.436C229.655 141.436 229.223 141.329 228.861 141.115C228.501 140.898 228.222 140.594 228.026 140.203C227.831 139.81 227.734 139.349 227.734 138.821C227.734 138.3 227.831 137.84 228.026 137.442C228.222 137.045 228.496 136.734 228.848 136.511C229.201 136.288 229.614 136.176 230.087 136.176C230.375 136.176 230.653 136.224 230.922 136.319C231.192 136.414 231.434 136.563 231.648 136.766C231.863 136.969 232.032 137.233 232.155 137.558C232.279 137.881 232.341 138.273 232.341 138.735V139.086H228.294V138.344H231.37C231.37 138.083 231.317 137.852 231.211 137.651C231.105 137.448 230.956 137.288 230.763 137.17C230.573 137.053 230.35 136.995 230.094 136.995C229.815 136.995 229.572 137.063 229.365 137.2C229.159 137.335 229 137.512 228.887 137.731C228.777 137.947 228.722 138.182 228.722 138.437V139.017C228.722 139.357 228.781 139.646 228.901 139.885C229.022 140.124 229.191 140.306 229.408 140.432C229.624 140.556 229.877 140.617 230.167 140.617C230.355 140.617 230.526 140.591 230.681 140.538C230.835 140.483 230.969 140.401 231.082 140.293C231.194 140.184 231.28 140.051 231.34 139.892L232.278 140.061C232.203 140.337 232.068 140.579 231.874 140.786C231.681 140.992 231.44 141.152 231.148 141.267C230.858 141.38 230.528 141.436 230.157 141.436ZM235.346 141.433C234.935 141.433 234.569 141.328 234.246 141.118C233.926 140.906 233.674 140.604 233.49 140.213C233.309 139.82 233.219 139.348 233.219 138.798C233.219 138.248 233.31 137.777 233.494 137.386C233.679 136.995 233.933 136.695 234.256 136.488C234.579 136.28 234.944 136.176 235.353 136.176C235.669 136.176 235.923 136.229 236.115 136.335C236.31 136.439 236.46 136.561 236.566 136.7C236.674 136.839 236.758 136.962 236.818 137.068H236.878V134.545H237.869V141.333H236.901V140.541H236.818C236.758 140.65 236.672 140.773 236.559 140.912C236.449 141.052 236.297 141.173 236.102 141.277C235.908 141.381 235.656 141.433 235.346 141.433ZM235.565 140.588C235.85 140.588 236.091 140.513 236.288 140.362C236.487 140.21 236.637 139.999 236.738 139.729C236.842 139.46 236.894 139.146 236.894 138.788C236.894 138.434 236.843 138.125 236.742 137.86C236.64 137.595 236.491 137.388 236.294 137.24C236.098 137.092 235.855 137.018 235.565 137.018C235.267 137.018 235.018 137.095 234.819 137.25C234.621 137.405 234.47 137.616 234.369 137.883C234.269 138.15 234.219 138.452 234.219 138.788C234.219 139.128 234.27 139.434 234.372 139.706C234.474 139.978 234.624 140.193 234.823 140.352C235.024 140.509 235.271 140.588 235.565 140.588Z" fill="#DE8644"/>
<path d="M186.736 159.667L191.56 150.121V150.042H185.941V148.03H194.106V150.07L189.276 159.667H186.736ZM195.229 159.814C194.854 159.814 194.532 159.682 194.263 159.417C193.998 159.148 193.866 158.826 193.866 158.451C193.866 158.08 193.998 157.761 194.263 157.496C194.532 157.231 194.854 157.099 195.229 157.099C195.593 157.099 195.911 157.231 196.184 157.496C196.457 157.761 196.593 158.08 196.593 158.451C196.593 158.701 196.529 158.93 196.4 159.138C196.275 159.343 196.11 159.508 195.905 159.633C195.701 159.754 195.476 159.814 195.229 159.814ZM202.714 159.826C201.911 159.826 201.195 159.678 200.566 159.383C199.941 159.087 199.445 158.68 199.077 158.161C198.71 157.642 198.519 157.047 198.503 156.377H200.89C200.916 156.828 201.106 157.193 201.458 157.474C201.81 157.754 202.229 157.894 202.714 157.894C203.1 157.894 203.441 157.809 203.736 157.638C204.036 157.464 204.269 157.224 204.435 156.917C204.606 156.606 204.691 156.25 204.691 155.849C204.691 155.439 204.604 155.08 204.43 154.769C204.259 154.458 204.022 154.216 203.719 154.042C203.416 153.868 203.07 153.778 202.68 153.775C202.339 153.775 202.007 153.845 201.685 153.985C201.367 154.125 201.119 154.316 200.941 154.559L198.753 154.167L199.305 148.03H206.418V150.042H201.333L201.032 152.957H201.1C201.305 152.669 201.613 152.43 202.026 152.241C202.439 152.051 202.901 151.957 203.413 151.957C204.113 151.957 204.738 152.121 205.288 152.451C205.837 152.78 206.271 153.233 206.589 153.809C206.907 154.381 207.064 155.04 207.06 155.786C207.064 156.57 206.882 157.267 206.515 157.877C206.151 158.483 205.642 158.96 204.986 159.309C204.335 159.653 203.577 159.826 202.714 159.826ZM210.992 157.155L210.998 154.252H211.35L214.146 150.939H216.924L213.168 155.326H212.594L210.992 157.155ZM208.799 159.667V148.03H211.219V159.667H208.799ZM214.253 159.667L211.685 155.866L213.299 154.155L217.089 159.667H214.253Z" fill="#DE8644"/>
<rect x="26.666" y="178.667" width="114.667" height="59" rx="5.33333" fill="#E8F7E8"/>
<path d="M55.1113 201.056H40.8891C39.9113 201.056 39.1202 201.856 39.1202 202.833L39.1113 213.5C39.1113 214.478 39.9113 215.278 40.8891 215.278H48.0002V213.5H40.8891V204.611L48.0002 209.056L55.1113 204.611V209.056H56.8891V202.833C56.8891 201.856 56.0891 201.056 55.1113 201.056ZM48.0002 207.278L40.8891 202.833H55.1113L48.0002 207.278ZM52.7469 217.056L49.6002 213.909L50.8536 212.656L52.738 214.54L56.5069 210.771L57.778 212.024L52.7469 217.056Z" fill="#29A653"/>
<path d="M72.2762 202H70.0787V195.212H72.3458C73.0109 195.212 73.5821 195.348 74.0593 195.62C74.5366 195.889 74.9023 196.277 75.1564 196.783C75.4127 197.287 75.5409 197.891 75.5409 198.596C75.5409 199.303 75.4116 199.911 75.1531 200.419C74.8968 200.927 74.5256 201.318 74.0394 201.592C73.5533 201.864 72.9656 202 72.2762 202ZM71.1029 201.105H72.2198C72.7369 201.105 73.1667 201.008 73.5091 200.813C73.8516 200.617 74.1079 200.333 74.2781 199.962C74.4482 199.588 74.5333 199.133 74.5333 198.596C74.5333 198.064 74.4482 197.612 74.2781 197.241C74.1102 196.869 73.8594 196.588 73.5257 196.395C73.1921 196.203 72.7778 196.107 72.2828 196.107H71.1029V201.105ZM78.929 202.103C78.4274 202.103 77.9955 201.996 77.6331 201.781C77.2729 201.565 76.9945 201.261 76.7979 200.87C76.6034 200.476 76.5062 200.016 76.5062 199.488C76.5062 198.966 76.6034 198.507 76.7979 198.109C76.9945 197.711 77.2685 197.401 77.6198 197.178C77.9734 196.954 78.3866 196.843 78.8594 196.843C79.1467 196.843 79.4251 196.89 79.6946 196.985C79.9642 197.08 80.2062 197.229 80.4205 197.433C80.6348 197.636 80.8039 197.9 80.9276 198.225C81.0513 198.548 81.1132 198.94 81.1132 199.402V199.753H77.0663V199.01H80.1421C80.1421 198.75 80.089 198.519 79.983 198.318C79.8769 198.114 79.7278 197.954 79.5355 197.837C79.3455 197.72 79.1223 197.661 78.866 197.661C78.5876 197.661 78.3446 197.73 78.1369 197.867C77.9314 198.002 77.7723 198.179 77.6596 198.397C77.5491 198.614 77.4939 198.849 77.4939 199.103V199.683C77.4939 200.024 77.5535 200.313 77.6729 200.552C77.7944 200.79 77.9634 200.973 78.18 201.098C78.3965 201.222 78.6495 201.284 78.939 201.284C79.1268 201.284 79.298 201.258 79.4527 201.205C79.6074 201.149 79.741 201.068 79.8537 200.959C79.9664 200.851 80.0526 200.717 80.1122 200.558L81.0502 200.727C80.9751 201.003 80.8403 201.245 80.6459 201.453C80.4536 201.659 80.2117 201.819 79.92 201.934C79.6306 202.046 79.3002 202.103 78.929 202.103ZM83.2037 195.212V202H82.2127V195.212H83.2037ZM84.537 202V196.909H85.528V202H84.537ZM85.0374 196.124C84.8651 196.124 84.717 196.066 84.5933 195.951C84.4718 195.834 84.411 195.695 84.411 195.534C84.411 195.37 84.4718 195.231 84.5933 195.116C84.717 194.999 84.8651 194.94 85.0374 194.94C85.2098 194.94 85.3567 194.999 85.4783 195.116C85.602 195.231 85.6639 195.37 85.6639 195.534C85.6639 195.695 85.602 195.834 85.4783 195.951C85.3567 196.066 85.2098 196.124 85.0374 196.124ZM91.2163 196.909L89.3702 202H88.3096L86.4601 196.909H87.5241L88.8134 200.827H88.8664L90.1524 196.909H91.2163ZM94.1686 202.103C93.667 202.103 93.235 201.996 92.8727 201.781C92.5125 201.565 92.2341 201.261 92.0374 200.87C91.843 200.476 91.7458 200.016 91.7458 199.488C91.7458 198.966 91.843 198.507 92.0374 198.109C92.2341 197.711 92.5081 197.401 92.8594 197.178C93.2129 196.954 93.6261 196.843 94.099 196.843C94.3862 196.843 94.6646 196.89 94.9342 196.985C95.2038 197.08 95.4457 197.229 95.6601 197.433C95.8744 197.636 96.0434 197.9 96.1672 198.225C96.2909 198.548 96.3528 198.94 96.3528 199.402V199.753H92.3059V199.01H95.3817C95.3817 198.75 95.3286 198.519 95.2226 198.318C95.1165 198.114 94.9674 197.954 94.7751 197.837C94.5851 197.72 94.3619 197.661 94.1056 197.661C93.8272 197.661 93.5842 197.73 93.3765 197.867C93.171 198.002 93.0119 198.179 92.8992 198.397C92.7887 198.614 92.7335 198.849 92.7335 199.103V199.683C92.7335 200.024 92.7931 200.313 92.9124 200.552C93.034 200.79 93.203 200.973 93.4195 201.098C93.6361 201.222 93.8891 201.284 94.1785 201.284C94.3664 201.284 94.5376 201.258 94.6923 201.205C94.8469 201.149 94.9806 201.068 95.0933 200.959C95.206 200.851 95.2922 200.717 95.3518 200.558L96.2898 200.727C96.2147 201.003 96.0799 201.245 95.8854 201.453C95.6932 201.659 95.4513 201.819 95.1596 201.934C94.8701 202.046 94.5398 202.103 94.1686 202.103ZM97.4523 202V196.909H98.4102V197.718H98.4632C98.556 197.444 98.7195 197.228 98.9537 197.071C99.1902 196.912 99.4575 196.833 99.7558 196.833C99.8177 196.833 99.8906 196.835 99.9746 196.839C100.061 196.844 100.128 196.849 100.177 196.856V197.804C100.137 197.793 100.066 197.781 99.9646 197.768C99.863 197.752 99.7614 197.744 99.6597 197.744C99.4255 197.744 99.2167 197.794 99.0333 197.893C98.8521 197.991 98.7085 198.127 98.6024 198.301C98.4964 198.473 98.4433 198.67 98.4433 198.891V202H97.4523ZM103.046 202.103C102.545 202.103 102.113 201.996 101.75 201.781C101.39 201.565 101.112 201.261 100.915 200.87C100.721 200.476 100.623 200.016 100.623 199.488C100.623 198.966 100.721 198.507 100.915 198.109C101.112 197.711 101.386 197.401 101.737 197.178C102.091 196.954 102.504 196.843 102.977 196.843C103.264 196.843 103.542 196.89 103.812 196.985C104.081 197.08 104.323 197.229 104.538 197.433C104.752 197.636 104.921 197.9 105.045 198.225C105.169 198.548 105.23 198.94 105.23 199.402V199.753H101.184V199.01H104.259C104.259 198.75 104.206 198.519 104.1 198.318C103.994 198.114 103.845 197.954 103.653 197.837C103.463 197.72 103.24 197.661 102.983 197.661C102.705 197.661 102.462 197.73 102.254 197.867C102.049 198.002 101.889 198.179 101.777 198.397C101.666 198.614 101.611 198.849 101.611 199.103V199.683C101.611 200.024 101.671 200.313 101.79 200.552C101.912 200.79 102.081 200.973 102.297 201.098C102.514 201.222 102.767 201.284 103.056 201.284C103.244 201.284 103.415 201.258 103.57 201.205C103.725 201.149 103.858 201.068 103.971 200.959C104.084 200.851 104.17 200.717 104.229 200.558L105.167 200.727C105.092 201.003 104.957 201.245 104.763 201.453C104.571 201.659 104.329 201.819 104.037 201.934C103.748 202.046 103.417 202.103 103.046 202.103ZM108.236 202.099C107.825 202.099 107.458 201.994 107.135 201.785C106.815 201.572 106.563 201.271 106.38 200.88C106.198 200.486 106.108 200.015 106.108 199.464C106.108 198.914 106.2 198.444 106.383 198.053C106.569 197.661 106.823 197.362 107.145 197.154C107.468 196.947 107.834 196.843 108.242 196.843C108.558 196.843 108.812 196.896 109.005 197.002C109.199 197.106 109.349 197.227 109.455 197.366C109.564 197.506 109.648 197.628 109.707 197.734H109.767V195.212H110.758V202H109.79V201.208H109.707C109.648 201.316 109.561 201.44 109.449 201.579C109.338 201.718 109.186 201.84 108.991 201.944C108.797 202.048 108.545 202.099 108.236 202.099ZM108.454 201.254C108.739 201.254 108.98 201.179 109.177 201.029C109.376 200.876 109.526 200.665 109.628 200.396C109.732 200.126 109.784 199.812 109.784 199.455C109.784 199.101 109.733 198.792 109.631 198.527C109.529 198.261 109.38 198.055 109.184 197.907C108.987 197.759 108.744 197.685 108.454 197.685C108.156 197.685 107.908 197.762 107.709 197.917C107.51 198.071 107.36 198.282 107.258 198.55C107.159 198.817 107.109 199.119 107.109 199.455C107.109 199.795 107.16 200.101 107.261 200.373C107.363 200.644 107.513 200.86 107.712 201.019C107.913 201.176 108.161 201.254 108.454 201.254Z" fill="#29A653"/>
<path d="M70.1001 218.288V216.35L74.958 208.697H76.6285V211.379H75.6398L72.5773 216.225V216.316H79.4807V218.288H70.1001ZM75.6853 220.333V217.697L75.7307 216.839V208.697H78.0376V220.333H75.6853ZM81.5802 220.333L86.404 210.788V210.708H80.7847V208.697H88.9495V210.737L84.1199 220.333H81.5802ZM92.8515 217.822L92.8572 214.919H93.2094L96.0049 211.606H98.7833L95.0276 215.992H94.4537L92.8515 217.822ZM90.6583 220.333V208.697H93.0787V220.333H90.6583ZM96.1128 220.333L93.5447 216.532L95.1583 214.822L98.9481 220.333H96.1128Z" fill="#29A653"/>
<rect x="142.666" y="178.667" width="114.667" height="59" rx="5.33333" fill="#DCEEFA"/>
<path d="M172.88 205.945C172.88 205.305 172.551 204.745 172.045 204.433L164 199.722L155.956 204.433C155.449 204.745 155.111 205.305 155.111 205.945V214.833C155.111 215.811 155.911 216.611 156.889 216.611H171.111C172.089 216.611 172.889 215.811 172.889 214.833L172.88 205.945ZM171.102 205.945V205.953L164 210.389L156.889 205.945L164 201.785L171.102 205.945ZM156.889 214.833V208.025L164 212.487L171.102 208.051L171.111 214.833H156.889Z" fill="#2188BA"/>
<path d="M191.975 198.606C191.975 199.331 191.842 199.954 191.577 200.475C191.312 200.995 190.949 201.395 190.487 201.675C190.027 201.954 189.505 202.093 188.919 202.093C188.331 202.093 187.807 201.954 187.345 201.675C186.885 201.395 186.523 200.994 186.258 200.472C185.993 199.951 185.86 199.329 185.86 198.606C185.86 197.881 185.993 197.259 186.258 196.74C186.523 196.219 186.885 195.819 187.345 195.54C187.807 195.26 188.331 195.119 188.919 195.119C189.505 195.119 190.027 195.26 190.487 195.54C190.949 195.819 191.312 196.219 191.577 196.74C191.842 197.259 191.975 197.881 191.975 198.606ZM190.961 198.606C190.961 198.054 190.871 197.589 190.692 197.211C190.516 196.831 190.273 196.543 189.963 196.349C189.656 196.152 189.308 196.054 188.919 196.054C188.528 196.054 188.179 196.152 187.872 196.349C187.565 196.543 187.322 196.831 187.143 197.211C186.966 197.589 186.878 198.054 186.878 198.606C186.878 199.158 186.966 199.625 187.143 200.005C187.322 200.383 187.565 200.67 187.872 200.866C188.179 201.061 188.528 201.158 188.919 201.158C189.308 201.158 189.656 201.061 189.963 200.866C190.273 200.67 190.516 200.383 190.692 200.005C190.871 199.625 190.961 199.158 190.961 198.606ZM193.172 203.909V196.909H194.14V197.734H194.223C194.28 197.628 194.363 197.506 194.472 197.366C194.58 197.227 194.73 197.106 194.922 197.002C195.115 196.896 195.369 196.843 195.685 196.843C196.096 196.843 196.462 196.947 196.785 197.154C197.108 197.362 197.361 197.661 197.544 198.053C197.73 198.444 197.822 198.914 197.822 199.464C197.822 200.015 197.731 200.486 197.547 200.88C197.364 201.271 197.112 201.572 196.792 201.785C196.471 201.994 196.106 202.099 195.695 202.099C195.385 202.099 195.132 202.048 194.936 201.944C194.741 201.84 194.589 201.718 194.478 201.579C194.368 201.44 194.283 201.316 194.223 201.208H194.163V203.909H193.172ZM194.143 199.455C194.143 199.812 194.195 200.126 194.299 200.396C194.403 200.665 194.553 200.876 194.75 201.029C194.947 201.179 195.188 201.254 195.473 201.254C195.769 201.254 196.016 201.176 196.215 201.019C196.414 200.86 196.564 200.644 196.666 200.373C196.77 200.101 196.822 199.795 196.822 199.455C196.822 199.119 196.771 198.817 196.669 198.55C196.57 198.282 196.419 198.071 196.218 197.917C196.019 197.762 195.771 197.685 195.473 197.685C195.185 197.685 194.942 197.759 194.743 197.907C194.547 198.055 194.398 198.261 194.296 198.527C194.194 198.792 194.143 199.101 194.143 199.455ZM201.127 202.103C200.625 202.103 200.193 201.996 199.831 201.781C199.471 201.565 199.192 201.261 198.996 200.87C198.801 200.476 198.704 200.016 198.704 199.488C198.704 198.966 198.801 198.507 198.996 198.109C199.192 197.711 199.466 197.401 199.818 197.178C200.171 196.954 200.584 196.843 201.057 196.843C201.345 196.843 201.623 196.89 201.893 196.985C202.162 197.08 202.404 197.229 202.618 197.433C202.833 197.636 203.002 197.9 203.126 198.225C203.249 198.548 203.311 198.94 203.311 199.402V199.753H199.264V199.01H202.34C202.34 198.75 202.287 198.519 202.181 198.318C202.075 198.114 201.926 197.954 201.733 197.837C201.543 197.72 201.32 197.661 201.064 197.661C200.786 197.661 200.542 197.73 200.335 197.867C200.129 198.002 199.97 198.179 199.858 198.397C199.747 198.614 199.692 198.849 199.692 199.103V199.683C199.692 200.024 199.751 200.313 199.871 200.552C199.992 200.79 200.161 200.973 200.378 201.098C200.594 201.222 200.847 201.284 201.137 201.284C201.325 201.284 201.496 201.258 201.651 201.205C201.805 201.149 201.939 201.068 202.052 200.959C202.164 200.851 202.251 200.717 202.31 200.558L203.248 200.727C203.173 201.003 203.038 201.245 202.844 201.453C202.652 201.659 202.41 201.819 202.118 201.934C201.828 202.046 201.498 202.103 201.127 202.103ZM205.402 198.977V202H204.411V196.909H205.362V197.738H205.425C205.542 197.468 205.725 197.252 205.975 197.088C206.227 196.925 206.544 196.843 206.926 196.843C207.273 196.843 207.577 196.916 207.838 197.062C208.098 197.205 208.301 197.42 208.444 197.705C208.588 197.99 208.66 198.342 208.66 198.762V202H207.669V198.881C207.669 198.512 207.573 198.224 207.38 198.016C207.188 197.806 206.924 197.701 206.588 197.701C206.358 197.701 206.154 197.751 205.975 197.85C205.798 197.95 205.658 198.096 205.554 198.288C205.452 198.478 205.402 198.708 205.402 198.977ZM212.183 202.103C211.681 202.103 211.249 201.996 210.887 201.781C210.527 201.565 210.248 201.261 210.052 200.87C209.857 200.476 209.76 200.016 209.76 199.488C209.76 198.966 209.857 198.507 210.052 198.109C210.248 197.711 210.522 197.401 210.874 197.178C211.227 196.954 211.64 196.843 212.113 196.843C212.401 196.843 212.679 196.89 212.949 196.985C213.218 197.08 213.46 197.229 213.674 197.433C213.889 197.636 214.058 197.9 214.181 198.225C214.305 198.548 214.367 198.94 214.367 199.402V199.753H210.32V199.01H213.396C213.396 198.75 213.343 198.519 213.237 198.318C213.131 198.114 212.982 197.954 212.789 197.837C212.599 197.72 212.376 197.661 212.12 197.661C211.842 197.661 211.598 197.73 211.391 197.867C211.185 198.002 211.026 198.179 210.914 198.397C210.803 198.614 210.748 198.849 210.748 199.103V199.683C210.748 200.024 210.807 200.313 210.927 200.552C211.048 200.79 211.217 200.973 211.434 201.098C211.65 201.222 211.903 201.284 212.193 201.284C212.381 201.284 212.552 201.258 212.707 201.205C212.861 201.149 212.995 201.068 213.108 200.959C213.22 200.851 213.306 200.717 213.366 200.558L214.304 200.727C214.229 201.003 214.094 201.245 213.9 201.453C213.708 201.659 213.466 201.819 213.174 201.934C212.884 202.046 212.554 202.103 212.183 202.103ZM217.372 202.099C216.961 202.099 216.595 201.994 216.272 201.785C215.952 201.572 215.7 201.271 215.516 200.88C215.335 200.486 215.245 200.015 215.245 199.464C215.245 198.914 215.336 198.444 215.52 198.053C215.705 197.661 215.959 197.362 216.282 197.154C216.605 196.947 216.97 196.843 217.379 196.843C217.695 196.843 217.949 196.896 218.141 197.002C218.336 197.106 218.486 197.227 218.592 197.366C218.7 197.506 218.784 197.628 218.844 197.734H218.904V195.212H219.895V202H218.927V201.208H218.844C218.784 201.316 218.698 201.44 218.585 201.579C218.475 201.718 218.323 201.84 218.128 201.944C217.934 202.048 217.682 202.099 217.372 202.099ZM217.591 201.254C217.876 201.254 218.117 201.179 218.314 201.029C218.513 200.876 218.663 200.665 218.764 200.396C218.868 200.126 218.92 199.812 218.92 199.455C218.92 199.101 218.869 198.792 218.768 198.527C218.666 198.261 218.517 198.055 218.32 197.907C218.124 197.759 217.881 197.685 217.591 197.685C217.293 197.685 217.044 197.762 216.845 197.917C216.647 198.071 216.496 198.282 216.395 198.55C216.295 198.817 216.246 199.119 216.246 199.455C216.246 199.795 216.296 200.101 216.398 200.373C216.5 200.644 216.65 200.86 216.849 201.019C217.05 201.176 217.297 201.254 217.591 201.254Z" fill="#2188BA"/>
<path d="M186.1 218.288V216.35L190.958 208.697H192.628V211.379H191.64L188.577 216.225V216.316H195.481V218.288H186.1ZM191.685 220.333V217.697L191.731 216.839V208.697H194.038V220.333H191.685ZM201.37 220.492C200.567 220.492 199.851 220.345 199.222 220.049C198.597 219.754 198.101 219.347 197.734 218.828C197.366 218.309 197.175 217.714 197.16 217.044H199.546C199.573 217.494 199.762 217.86 200.114 218.14C200.467 218.42 200.885 218.561 201.37 218.561C201.756 218.561 202.097 218.475 202.393 218.305C202.692 218.131 202.925 217.89 203.092 217.583C203.262 217.273 203.347 216.917 203.347 216.515C203.347 216.106 203.26 215.746 203.086 215.436C202.915 215.125 202.679 214.883 202.376 214.708C202.073 214.534 201.726 214.445 201.336 214.441C200.995 214.441 200.664 214.511 200.342 214.652C200.023 214.792 199.775 214.983 199.597 215.225L197.41 214.833L197.961 208.697H205.074V210.708H199.989L199.688 213.623H199.756C199.961 213.335 200.27 213.097 200.682 212.907C201.095 212.718 201.557 212.623 202.069 212.623C202.77 212.623 203.395 212.788 203.944 213.117C204.493 213.447 204.927 213.9 205.245 214.475C205.563 215.047 205.72 215.706 205.717 216.453C205.72 217.237 205.539 217.934 205.171 218.544C204.807 219.15 204.298 219.627 203.643 219.975C202.991 220.32 202.234 220.492 201.37 220.492ZM209.648 217.822L209.654 214.919H210.006L212.802 211.606H215.58L211.824 215.992H211.251L209.648 217.822ZM207.455 220.333V208.697H209.876V220.333H207.455ZM212.91 220.333L210.342 216.532L211.955 214.822L215.745 220.333H212.91Z" fill="#2188BA"/>
<path d="M339.333 200H292.667C289 200 286 203 286 206.667V253.333C286 257 289 260 292.667 260H339.333C343 260 346 257 346 253.333V206.667C346 203 343 200 339.333 200ZM339.333 253.333H292.667V206.667H339.333V253.333Z" fill="#CC5229" fill-opacity="0.2"/>
<path d="M306 230H299.333V246.667H306V230Z" fill="#CC5229" fill-opacity="0.2"/>
<path d="M332.667 213.333H326V246.667H332.667V213.333Z" fill="#CC5229" fill-opacity="0.2"/>
<path d="M319.333 236.667H312.667V246.667H319.333V236.667Z" fill="#CC5229" fill-opacity="0.2"/>
<path d="M319.333 223.333H312.667V230H319.333V223.333Z" fill="#CC5229" fill-opacity="0.2"/>
<path d="M292.667 60H302.667V92.6667H292.667V60ZM311.334 46H320.667V92.6667H311.334V46ZM330 72.6667H339.334V92.6667H330V72.6667Z" fill="#CC5229" fill-opacity="0.2"/>
<path d="M161.468 92.3334V80.697H169.036V82.4641H163.576V85.6231H168.644V87.3902H163.576V90.5663H169.082V92.3334H161.468ZM171.096 92.3334V83.6061H173.062V85.0891H173.164C173.346 84.5891 173.647 84.1989 174.067 83.9186C174.488 83.6345 174.99 83.4925 175.573 83.4925C176.164 83.4925 176.662 83.6364 177.067 83.9243C177.477 84.2084 177.764 84.5966 177.931 85.0891H178.022C178.215 84.6042 178.541 84.2178 178.999 83.93C179.461 83.6383 180.009 83.4925 180.641 83.4925C181.444 83.4925 182.1 83.7463 182.607 84.2538C183.115 84.7614 183.369 85.5019 183.369 86.4754V92.3334H181.306V86.7936C181.306 86.2519 181.162 85.8561 180.874 85.6061C180.586 85.3523 180.234 85.2254 179.817 85.2254C179.321 85.2254 178.933 85.3807 178.653 85.6913C178.376 85.9981 178.238 86.3978 178.238 86.8902V92.3334H176.221V86.7084C176.221 86.2576 176.085 85.8978 175.812 85.6288C175.543 85.3599 175.191 85.2254 174.755 85.2254C174.46 85.2254 174.191 85.3012 173.948 85.4527C173.706 85.6004 173.513 85.8106 173.369 86.0834C173.225 86.3523 173.153 86.6667 173.153 87.0266V92.3334H171.096ZM187.967 92.5095C187.414 92.5095 186.915 92.411 186.472 92.2141C186.033 92.0133 185.684 91.7178 185.427 91.3277C185.173 90.9375 185.046 90.4565 185.046 89.8845C185.046 89.3921 185.137 88.9849 185.319 88.6629C185.501 88.3409 185.749 88.0834 186.063 87.8902C186.378 87.697 186.732 87.5512 187.126 87.4527C187.523 87.3504 187.934 87.2766 188.359 87.2311C188.87 87.1781 189.285 87.1307 189.603 87.0891C189.921 87.0436 190.152 86.9754 190.296 86.8845C190.444 86.7898 190.518 86.644 190.518 86.447V86.4129C190.518 85.9849 190.391 85.6534 190.137 85.4186C189.883 85.1838 189.518 85.0663 189.04 85.0663C188.537 85.0663 188.137 85.1762 187.842 85.3959C187.55 85.6156 187.353 85.875 187.251 86.1743L185.33 85.9016C185.482 85.3713 185.732 84.9281 186.08 84.572C186.429 84.2122 186.855 83.9432 187.359 83.7652C187.862 83.5834 188.419 83.4925 189.029 83.4925C189.45 83.4925 189.868 83.5417 190.285 83.6402C190.701 83.7387 191.082 83.9016 191.427 84.1288C191.772 84.3523 192.048 84.6572 192.256 85.0436C192.469 85.43 192.575 85.9129 192.575 86.4925V92.3334H190.597V91.1345H190.529C190.404 91.3769 190.228 91.6042 190.001 91.8163C189.777 92.0247 189.495 92.1932 189.154 92.322C188.817 92.447 188.421 92.5095 187.967 92.5095ZM188.501 90.9981C188.914 90.9981 189.272 90.9167 189.575 90.7538C189.878 90.5872 190.111 90.3675 190.273 90.0947C190.44 89.822 190.523 89.5247 190.523 89.2027V88.1743C190.459 88.2273 190.349 88.2766 190.194 88.322C190.042 88.3675 189.872 88.4072 189.683 88.4413C189.493 88.4754 189.306 88.5057 189.12 88.5322C188.934 88.5588 188.773 88.5815 188.637 88.6004C188.33 88.6421 188.056 88.7103 187.813 88.805C187.571 88.8997 187.379 89.0322 187.239 89.2027C187.099 89.3694 187.029 89.5853 187.029 89.8504C187.029 90.2292 187.167 90.5152 187.444 90.7084C187.72 90.9016 188.073 90.9981 188.501 90.9981ZM194.643 92.3334V83.6061H196.7V92.3334H194.643ZM195.677 82.3675C195.351 82.3675 195.071 82.2595 194.836 82.0436C194.601 81.8239 194.484 81.5606 194.484 81.2538C194.484 80.9432 194.601 80.68 194.836 80.4641C195.071 80.2444 195.351 80.1345 195.677 80.1345C196.006 80.1345 196.287 80.2444 196.518 80.4641C196.753 80.68 196.87 80.9432 196.87 81.2538C196.87 81.5606 196.753 81.8239 196.518 82.0436C196.287 82.2595 196.006 82.3675 195.677 82.3675ZM200.871 80.697V92.3334H198.815V80.697H200.871ZM209.467 92.5095C208.914 92.5095 208.415 92.411 207.972 92.2141C207.533 92.0133 207.184 91.7178 206.927 91.3277C206.673 90.9375 206.546 90.4565 206.546 89.8845C206.546 89.3921 206.637 88.9849 206.819 88.6629C207.001 88.3409 207.249 88.0834 207.563 87.8902C207.878 87.697 208.232 87.5512 208.626 87.4527C209.023 87.3504 209.434 87.2766 209.859 87.2311C210.37 87.1781 210.785 87.1307 211.103 87.0891C211.421 87.0436 211.652 86.9754 211.796 86.8845C211.944 86.7898 212.018 86.644 212.018 86.447V86.4129C212.018 85.9849 211.891 85.6534 211.637 85.4186C211.383 85.1838 211.018 85.0663 210.54 85.0663C210.037 85.0663 209.637 85.1762 209.342 85.3959C209.05 85.6156 208.853 85.875 208.751 86.1743L206.83 85.9016C206.982 85.3713 207.232 84.9281 207.58 84.572C207.929 84.2122 208.355 83.9432 208.859 83.7652C209.362 83.5834 209.919 83.4925 210.529 83.4925C210.95 83.4925 211.368 83.5417 211.785 83.6402C212.201 83.7387 212.582 83.9016 212.927 84.1288C213.272 84.3523 213.548 84.6572 213.756 85.0436C213.969 85.43 214.075 85.9129 214.075 86.4925V92.3334H212.097V91.1345H212.029C211.904 91.3769 211.728 91.6042 211.501 91.8163C211.277 92.0247 210.995 92.1932 210.654 92.322C210.317 92.447 209.921 92.5095 209.467 92.5095ZM210.001 90.9981C210.414 90.9981 210.772 90.9167 211.075 90.7538C211.378 90.5872 211.611 90.3675 211.773 90.0947C211.94 89.822 212.023 89.5247 212.023 89.2027V88.1743C211.959 88.2273 211.849 88.2766 211.694 88.322C211.542 88.3675 211.372 88.4072 211.183 88.4413C210.993 88.4754 210.806 88.5057 210.62 88.5322C210.434 88.5588 210.273 88.5815 210.137 88.6004C209.83 88.6421 209.556 88.7103 209.313 88.805C209.071 88.8997 208.879 89.0322 208.739 89.2027C208.599 89.3694 208.529 89.5853 208.529 89.8504C208.529 90.2292 208.667 90.5152 208.944 90.7084C209.22 90.9016 209.573 90.9981 210.001 90.9981ZM218.2 87.2197V92.3334H216.143V83.6061H218.109V85.0891H218.211C218.412 84.6004 218.732 84.2122 219.171 83.9243C219.614 83.6364 220.162 83.4925 220.813 83.4925C221.415 83.4925 221.94 83.6213 222.387 83.8788C222.838 84.1364 223.186 84.5095 223.433 84.9981C223.683 85.4868 223.806 86.0796 223.802 86.7766V92.3334H221.745V87.0947C221.745 86.5114 221.594 86.055 221.29 85.7254C220.991 85.3959 220.576 85.2311 220.046 85.2311C219.686 85.2311 219.366 85.3106 219.086 85.4697C218.809 85.625 218.592 85.8504 218.433 86.1459C218.277 86.4413 218.2 86.7993 218.2 87.2197ZM228.404 92.5095C227.851 92.5095 227.353 92.411 226.91 92.2141C226.47 92.0133 226.122 91.7178 225.864 91.3277C225.611 90.9375 225.484 90.4565 225.484 89.8845C225.484 89.3921 225.575 88.9849 225.756 88.6629C225.938 88.3409 226.186 88.0834 226.501 87.8902C226.815 87.697 227.169 87.5512 227.563 87.4527C227.961 87.3504 228.372 87.2766 228.796 87.2311C229.308 87.1781 229.722 87.1307 230.04 87.0891C230.359 87.0436 230.59 86.9754 230.734 86.8845C230.881 86.7898 230.955 86.644 230.955 86.447V86.4129C230.955 85.9849 230.828 85.6534 230.575 85.4186C230.321 85.1838 229.955 85.0663 229.478 85.0663C228.974 85.0663 228.575 85.1762 228.279 85.3959C227.987 85.6156 227.79 85.875 227.688 86.1743L225.768 85.9016C225.919 85.3713 226.169 84.9281 226.518 84.572C226.866 84.2122 227.292 83.9432 227.796 83.7652C228.3 83.5834 228.857 83.4925 229.467 83.4925C229.887 83.4925 230.306 83.5417 230.722 83.6402C231.139 83.7387 231.52 83.9016 231.864 84.1288C232.209 84.3523 232.486 84.6572 232.694 85.0436C232.906 85.43 233.012 85.9129 233.012 86.4925V92.3334H231.035V91.1345H230.967C230.842 91.3769 230.665 91.6042 230.438 91.8163C230.215 92.0247 229.933 92.1932 229.592 92.322C229.254 92.447 228.859 92.5095 228.404 92.5095ZM228.938 90.9981C229.351 90.9981 229.709 90.9167 230.012 90.7538C230.315 90.5872 230.548 90.3675 230.711 90.0947C230.878 89.822 230.961 89.5247 230.961 89.2027V88.1743C230.897 88.2273 230.787 88.2766 230.631 88.322C230.48 88.3675 230.309 88.4072 230.12 88.4413C229.931 88.4754 229.743 88.5057 229.558 88.5322C229.372 88.5588 229.211 88.5815 229.075 88.6004C228.768 88.6421 228.493 88.7103 228.251 88.805C228.008 88.8997 227.817 89.0322 227.677 89.2027C227.537 89.3694 227.467 89.5853 227.467 89.8504C227.467 90.2292 227.605 90.5152 227.881 90.7084C228.158 90.9016 228.51 90.9981 228.938 90.9981ZM237.137 80.697V92.3334H235.08V80.697H237.137ZM240.531 95.6061C240.25 95.6061 239.991 95.5834 239.752 95.5379C239.517 95.4963 239.33 95.447 239.19 95.3902L239.667 93.7879C239.966 93.875 240.233 93.9167 240.468 93.9129C240.703 93.9091 240.909 93.8353 241.087 93.6913C241.269 93.5512 241.423 93.3163 241.548 92.9868L241.724 92.5152L238.559 83.6061H240.741L242.752 90.197H242.843L244.86 83.6061H247.048L243.553 93.3902C243.39 93.8523 243.174 94.2481 242.906 94.5777C242.637 94.911 242.307 95.1648 241.917 95.3391C241.531 95.5171 241.068 95.6061 240.531 95.6061ZM252.829 83.6061V85.197H247.812V83.6061H252.829ZM249.05 81.5152H251.107V89.7084C251.107 89.9849 251.149 90.197 251.232 90.3447C251.319 90.4887 251.433 90.5872 251.573 90.6402C251.713 90.6932 251.869 90.7197 252.039 90.7197C252.168 90.7197 252.285 90.7103 252.391 90.6913C252.501 90.6724 252.585 90.6553 252.641 90.6402L252.988 92.2481C252.878 92.286 252.721 92.3277 252.516 92.3731C252.316 92.4186 252.069 92.4451 251.778 92.4527C251.263 92.4678 250.799 92.3902 250.386 92.2197C249.973 92.0455 249.645 91.7766 249.403 91.4129C249.164 91.0493 249.047 90.5947 249.05 90.0493V81.5152ZM254.549 92.3334V83.6061H256.606V92.3334H254.549ZM255.583 82.3675C255.257 82.3675 254.977 82.2595 254.742 82.0436C254.507 81.8239 254.39 81.5606 254.39 81.2538C254.39 80.9432 254.507 80.68 254.742 80.4641C254.977 80.2444 255.257 80.1345 255.583 80.1345C255.913 80.1345 256.193 80.2444 256.424 80.4641C256.659 80.68 256.776 80.9432 256.776 81.2538C256.776 81.5606 256.659 81.8239 256.424 82.0436C256.193 82.2595 255.913 82.3675 255.583 82.3675ZM262.528 92.5038C261.656 92.5038 260.908 92.3125 260.283 91.93C259.662 91.5474 259.183 91.019 258.846 90.3447C258.513 89.6667 258.346 88.8864 258.346 88.0038C258.346 87.1175 258.516 86.3353 258.857 85.6572C259.198 84.9754 259.679 84.4451 260.3 84.0663C260.925 83.6838 261.664 83.4925 262.516 83.4925C263.225 83.4925 263.852 83.6231 264.397 83.8845C264.946 84.1421 265.384 84.5076 265.71 84.9811C266.035 85.4508 266.221 86 266.266 86.6288H264.3C264.221 86.2084 264.031 85.858 263.732 85.5777C263.437 85.2936 263.041 85.1516 262.545 85.1516C262.124 85.1516 261.755 85.2652 261.437 85.4925C261.119 85.7159 260.871 86.0379 260.692 86.4584C260.518 86.8788 260.431 87.3826 260.431 87.9697C260.431 88.5644 260.518 89.0758 260.692 89.5038C260.867 89.9281 261.111 90.2557 261.425 90.4868C261.744 90.7141 262.117 90.8277 262.545 90.8277C262.848 90.8277 263.119 90.7709 263.357 90.6572C263.6 90.5398 263.802 90.3713 263.965 90.1516C264.128 89.9319 264.24 89.6648 264.3 89.3504H266.266C266.217 89.9678 266.035 90.5152 265.721 90.9925C265.406 91.4659 264.978 91.8372 264.437 92.1061C263.895 92.3713 263.259 92.5038 262.528 92.5038ZM274.853 85.9129L272.978 86.1175C272.925 85.9281 272.832 85.75 272.7 85.5834C272.571 85.4167 272.397 85.2822 272.177 85.18C271.957 85.0777 271.688 85.0266 271.37 85.0266C270.942 85.0266 270.582 85.1194 270.29 85.305C270.003 85.4906 269.861 85.7311 269.864 86.0266C269.861 86.2803 269.953 86.4868 270.143 86.6459C270.336 86.805 270.654 86.9356 271.097 87.0379L272.586 87.3561C273.412 87.5341 274.025 87.8163 274.427 88.2027C274.832 88.5891 275.037 89.0947 275.04 89.7197C275.037 90.269 274.876 90.7538 274.558 91.1743C274.243 91.5909 273.806 91.9167 273.245 92.1516C272.684 92.3864 272.04 92.5038 271.313 92.5038C270.245 92.5038 269.385 92.2803 268.734 91.8334C268.082 91.3826 267.694 90.7557 267.569 89.9527L269.575 89.7595C269.665 90.1534 269.859 90.4508 270.154 90.6516C270.45 90.8523 270.834 90.9527 271.308 90.9527C271.796 90.9527 272.188 90.8523 272.484 90.6516C272.783 90.4508 272.933 90.2027 272.933 89.9072C272.933 89.6572 272.836 89.4508 272.643 89.2879C272.453 89.125 272.158 89 271.756 88.9129L270.268 88.6004C269.431 88.4262 268.811 88.1326 268.41 87.7197C268.008 87.3031 267.809 86.7766 267.813 86.1402C267.809 85.6023 267.955 85.1364 268.251 84.7425C268.55 84.3447 268.965 84.0379 269.495 83.822C270.029 83.6023 270.645 83.4925 271.342 83.4925C272.364 83.4925 273.169 83.7103 273.756 84.1459C274.347 84.5815 274.713 85.1705 274.853 85.9129Z" fill="#3A74B5"/>
</svg>
