<svg width="236" height="191" viewBox="0 0 236 191" fill="none" xmlns="http://www.w3.org/2000/svg">
<rect width="236" height="191" rx="4" fill="#7B7F82" fill-opacity="0.1"/>
<rect x="40" y="47" width="156" height="14" rx="2" fill="#D5D9DC"/>
<path d="M64.5417 73.4583V91.5417H46.4583V73.4583H64.5417ZM64.5417 70.875H46.4583C45.0375 70.875 43.875 72.0375 43.875 73.4583V91.5417C43.875 92.9625 45.0375 94.125 46.4583 94.125H64.5417C65.9625 94.125 67.125 92.9625 67.125 91.5417V73.4583C67.125 72.0375 65.9625 70.875 64.5417 70.875ZM58.2642 82.3192L54.3892 87.3179L51.625 83.9725L47.75 88.9583H63.25L58.2642 82.3192Z" fill="#D5D9DC"/>
<rect x="75" y="67" width="121" height="31" rx="2" fill="#D5D9DC"/>
<rect x="40" y="104" width="156" height="10" rx="2" fill="#D5D9DC"/>
<rect x="40" y="120" width="156" height="4" rx="2" fill="#D5D9DC"/>
<rect x="40" y="130" width="156" height="4" rx="2" fill="#D5D9DC"/>
<rect x="40" y="140" width="156" height="4" rx="2" fill="#D5D9DC"/>
</svg>
