
<svg width="350" height="232" viewBox="0 0 350 232" fill="none" xmlns="http://www.w3.org/2000/svg">
<g clip-path="url(#clip0_1371_81030)">
<rect width="350" height="232" rx="9.6" fill="white"/>
<path d="M0 8C0 3.58172 3.58172 0 8 0H342C346.418 0 350 3.58172 350 8V72C350 89.6731 335.673 104 318 104H32C14.3269 104 0 89.6731 0 72V8Z" fill="#1E75BA"/>
<path d="M39.7049 47.41L38.2949 46L32.2949 52L38.2949 58L39.7049 56.59L35.1249 52L39.7049 47.41Z" fill="white"/>
<rect x="56" y="32" width="40" height="40" rx="20" fill="#7AB4F5"/>
<rect x="104" y="40" width="150" height="24" rx="4" fill="#7AB4F5"/>
<rect x="265" y="38" width="69" height="28" rx="4" fill="#1E75BA"/>
<path d="M274.119 57V46.8182H280.433V48.1406H275.655V51.2429H279.98V52.5604H275.655V57H274.119ZM281.91 57H280.28L283.944 46.8182H285.719L289.383 57H287.752L284.873 48.6676H284.794L281.91 57ZM282.184 53.0128H287.474V54.3054H282.184V53.0128ZM294.118 53.6989H295.629L296.693 55.0859L297.195 55.7024L298.891 57.9148H297.32L296.186 56.4382L295.798 55.9013L294.118 53.6989ZM299.219 51.9091C299.219 52.9962 299.02 53.9309 298.622 54.7131C298.225 55.492 297.679 56.0919 296.987 56.5128C296.297 56.9304 295.513 57.1392 294.635 57.1392C293.753 57.1392 292.966 56.9304 292.274 56.5128C291.584 56.0919 291.041 55.4903 290.643 54.7081C290.245 53.9259 290.046 52.9929 290.046 51.9091C290.046 50.822 290.245 49.889 290.643 49.1101C291.041 48.3279 291.584 47.728 292.274 47.3104C292.966 46.8894 293.753 46.679 294.635 46.679C295.513 46.679 296.297 46.8894 296.987 47.3104C297.679 47.728 298.225 48.3279 298.622 49.1101C299.02 49.889 299.219 50.822 299.219 51.9091ZM297.698 51.9091C297.698 51.0805 297.563 50.3828 297.295 49.8161C297.03 49.246 296.665 48.8151 296.201 48.5234C295.74 48.2285 295.218 48.081 294.635 48.081C294.048 48.081 293.525 48.2285 293.064 48.5234C292.603 48.8151 292.239 49.246 291.97 49.8161C291.705 50.3828 291.573 51.0805 291.573 51.9091C291.573 52.7377 291.705 53.437 291.97 54.0071C292.239 54.5739 292.603 55.0047 293.064 55.2997C293.525 55.5914 294.048 55.7372 294.635 55.7372C295.218 55.7372 295.74 55.5914 296.201 55.2997C296.665 55.0047 297.03 54.5739 297.295 54.0071C297.563 53.437 297.698 52.7377 297.698 51.9091ZM306.737 51.228L305.39 51.4666C305.334 51.2943 305.244 51.1302 305.121 50.9744C305.002 50.8187 304.84 50.6911 304.634 50.5916C304.429 50.4922 304.172 50.4425 303.864 50.4425C303.443 50.4425 303.091 50.5369 302.81 50.7259C302.528 50.9115 302.387 51.1518 302.387 51.4467C302.387 51.7019 302.482 51.9074 302.67 52.0632C302.859 52.219 303.164 52.3466 303.585 52.446L304.798 52.7244C305.501 52.8868 306.025 53.1371 306.369 53.4751C306.714 53.8132 306.886 54.2524 306.886 54.7926C306.886 55.25 306.754 55.6577 306.489 56.0156C306.227 56.3703 305.861 56.6487 305.39 56.8509C304.923 57.053 304.381 57.1541 303.764 57.1541C302.909 57.1541 302.211 56.9718 301.671 56.6072C301.131 56.2393 300.799 55.7173 300.677 55.0412L302.114 54.8224C302.203 55.197 302.387 55.4804 302.665 55.6726C302.944 55.8615 303.307 55.956 303.754 55.956C304.241 55.956 304.631 55.8549 304.923 55.6527C305.214 55.4472 305.36 55.197 305.36 54.902C305.36 54.6634 305.271 54.4628 305.092 54.3004C304.916 54.138 304.646 54.0154 304.281 53.9325L302.989 53.6491C302.276 53.4867 301.749 53.2282 301.408 52.8736C301.07 52.5189 300.901 52.0698 300.901 51.5263C300.901 51.0755 301.027 50.6811 301.278 50.343C301.53 50.005 301.878 49.7415 302.322 49.5526C302.767 49.3603 303.275 49.2642 303.849 49.2642C304.674 49.2642 305.324 49.4432 305.798 49.8011C306.272 50.1558 306.585 50.6314 306.737 51.228Z" fill="white"/>
<path d="M318.47 48L317.53 48.94L320.583 52L317.53 55.06L318.47 56L322.47 52L318.47 48Z" fill="white"/>
<rect x="162" y="120" width="172" height="40" rx="4" fill="#7AB4F5"/>
<rect x="16" y="176" width="132" height="40" rx="4" fill="#E2F0FF"/>
</g>
<defs>
<clipPath id="clip0_1371_81030">
<rect width="350" height="232" rx="9.6" fill="white"/>
</clipPath>
</defs>
</svg>
