<svg xmlns="http://www.w3.org/2000/svg" width="64" height="64" viewBox="0 0 64 64"><defs><style>.a,.f{fill:none;}.a{stroke:#eff1f7;}.b{fill:#efd131;}.b,.c{fill-rule:evenodd;}.c{fill:#0d0d0c;}.c,.d{stroke:#0b0b0b;}.d{fill:#020202;}.e{stroke:none;}</style></defs><g transform="translate(-493 -402)"><g class="a" transform="translate(493 402)"><rect class="e" width="64" height="64" rx="8"/><rect class="f" x="0.5" y="0.5" width="63" height="63" rx="7.5"/></g><g transform="translate(8 3)"><path class="b" d="M630.49,491h-9.876a7.57,7.57,0,0,0-5.512,2.149,7.493,7.493,0,0,0-2.1,5.507v12.19a7.274,7.274,0,0,0,2.2,5.171,7.621,7.621,0,0,0,5.543,2.116h4.97l5.8,6.985h.733l-.032-6.985h4.619a7.672,7.672,0,0,0,5.543-2.116,7.248,7.248,0,0,0,2.166-5.171v-12.19a7.492,7.492,0,0,0-2.1-5.507,7.364,7.364,0,0,0-5.48-2.149Z" transform="translate(-111 -75)"/><path class="c" d="M826,1027a5.9,5.9,0,0,0,1.346,2.055,6.14,6.14,0,0,0,4.606,1.878,6.252,6.252,0,0,0,4.606-1.878,6.866,6.866,0,0,0,1.347-2.055h-1.63a5.659,5.659,0,0,1-.78,1.1,4.913,4.913,0,0,1-3.543,1.524,5.284,5.284,0,0,1-4.358-2.622Z" transform="translate(-314.851 -593.46)"/><path class="d" d="M889.807,746.764V744H888v2.764Z" transform="translate(-374.653 -320.488)"/><path class="d" d="M1050.807,746.764V744H1049v2.764Z" transform="translate(-529.948 -320.488)"/></g></g></svg>