<svg xmlns="http://www.w3.org/2000/svg" width="208.856" height="186.782" viewBox="0 0 208.856 186.782"><defs><style>.a{fill:#f5f5f5;}.b,.k,.l{fill:none;}.b,.c,.e,.f{stroke:#263238;}.b,.c,.f{stroke-linecap:round;stroke-linejoin:round;}.c{fill:#999;}.d{fill:#263238;}.e{fill:#bfbfbf;stroke-miterlimit:10;}.f,.g{fill:#fff;}.h,.i{fill:#f2f2f2;}.h{opacity:0.46;}.i{opacity:0.35;}.j{opacity:0.7;}.l{opacity:0.5;}.m{fill:#92e3a9;opacity:0.4;}.n{fill:#465165;font-size:13px;font-family:'Inter', sans-serif}</style></defs><g transform="translate(-680.968 -114.103)"><path class="a" d="M105.625.54c57.126-5.068,57.236,27.149,82.984,57.186S219.863,101.357,210.161,136s-42.416,61.76-82.878,46.382-63.64-.608-89.157-14.281-35-40.025-16.318-71.117S35.163,6.815,105.625.54Z" transform="translate(670.089 114.093)"/><path class="b" d="M197.269,160.957l-.47,1.443c-.733-.453-1.437-.934-2.119-1.432l2.209-2.186-.19-2.382s-.4-.884.375-.71a1.711,1.711,0,0,0,1.778-.632c.464-.52.4-.744,1.588-.117s1.264,1.046,1.437,1.521-2.041,3.875-2.041,3.875l.783.414s-.459,1.062.319,1.3Z" transform="translate(569.906 7.998)"/><path class="b" d="M236.536,173.647a35.268,35.268,0,0,1-12.386.66l.431-1.549s-.408-.677,1.23-.559,2.885.313,2.885.313l1.3-2.472h2.287l.749.391.643.945,1.392,1.336a16.522,16.522,0,0,1,1.465.934Z" transform="translate(556.915 1.174)"/><path class="b" d="M372.53,250.37a5.5,5.5,0,0,1,1.633,3.383,5.39,5.39,0,0,1-1.633,3.355" transform="translate(491.509 -34.235)"/><line class="b" y1="7.857" transform="translate(826.143 226.524)"/><line class="b" x1="4.546" transform="translate(855.237 230.45)"/><line class="b" x1="27.764" transform="translate(826.143 230.45)"/><line class="b" x2="28.139" transform="translate(828.184 228.247)"/><line class="b" x1="1.253" transform="translate(864.196 243.591)"/><path class="b" d="M358.19,289.48a4.264,4.264,0,0,1,0,6.71" transform="translate(497.83 -51.475)"/><path class="c" d="M231.94,339.566H69.056c-5.5,0-21.876-2.326-21.876-2.326H253.816S237.442,339.566,231.94,339.566Z" transform="translate(634.924 -72.528)"/><path class="d" d="M88.319,149.06H247.182a2.024,2.024,0,0,1,2.024,2.024v97.228H86.3V151.084a2.024,2.024,0,0,1,2.019-2.024Z" transform="translate(617.68 10.422)"/><path class="e" d="M253.318,332.528H46.682a.643.643,0,0,1-.134-1.269l22.01-4.708H231.442l22.01,4.725a.643.643,0,0,1-.134,1.253Z" transform="translate(635.422 -67.815)"/><rect class="f" width="159.283" height="88.27" transform="translate(705.5 163.5)"/><path class="g" d="M232.046,320.272h-7.035a.811.811,0,0,1-.811-.811h0a.811.811,0,0,1,.811-.811h7.035a.811.811,0,0,1,.811.811h0A.811.811,0,0,1,232.046,320.272Z" transform="translate(556.893 -64.333)"/><path class="g" d="M232.166,151.853A1.163,1.163,0,1,1,231,150.69,1.163,1.163,0,0,1,232.166,151.853Z" transform="translate(554.406 9.703)"/><path class="b" d="M251.1,330.137H70.1l9.506-2.237H241.6Z" transform="translate(624.82 -68.411)"/><path class="h" d="M190.7,158S154.06,207.663,91.72,200.919V158Z" transform="translate(615.291 6.481)"/><path class="i" d="M91.76,240.085s9.68-24.515,60.64-32.26,90.831-28.15,96.138-40.095v80.2H91.76Z" transform="translate(615.272 2.192)"/><line class="b" x2="156.777" transform="translate(707.032 167.534)"/><line class="b" x2="4.546" transform="translate(709.187 165.946)"/><line class="b" x2="4.093" transform="translate(718.703 165.946)"/><line class="b" x2="3.982" transform="translate(728.098 165.946)"/><g class="j" transform="translate(726.79 241.371)"><rect class="k" width="7.521" height="7.521" rx="2.22" transform="translate(0 0)"/><rect class="k" width="7.521" height="7.521" rx="2.22" transform="translate(10.977 0)"/><rect class="k" width="7.521" height="7.521" rx="2.22" transform="translate(21.949 0)"/><rect class="k" width="7.521" height="7.521" rx="2.22" transform="translate(32.926 0)"/><rect class="k" width="7.521" height="7.521" rx="2.22" transform="translate(43.897 0)"/><rect class="k" width="7.521" height="7.521" rx="2.22" transform="translate(54.869 0)"/><rect class="k" width="7.521" height="7.521" rx="2.22" transform="translate(65.846 0)"/><rect class="k" width="7.521" height="7.521" rx="2.22" transform="translate(76.817 0)"/><rect class="k" width="7.521" height="7.521" rx="2.22" transform="translate(87.794 0)"/><rect class="k" width="7.521" height="7.521" rx="2.22" transform="translate(98.766 0)"/><rect class="k" width="7.521" height="7.521" rx="2.22" transform="translate(109.737 0)"/></g><path class="l" d="M245.875,307.663V304.5a1.264,1.264,0,0,0-1.264-1.264h-5.922V305.2a1.236,1.236,0,0,1-1.236,1.236H232.42a1.241,1.241,0,0,1-1.241-1.236V303.24h-3.45V305.2a1.241,1.241,0,0,1-1.241,1.236h-5.033a1.241,1.241,0,0,1-1.241-1.236V303.24h-3.45V305.2a1.241,1.241,0,0,1-1.241,1.236h-5.033a1.236,1.236,0,0,1-1.236-1.236V303.24H205.8V305.2a1.241,1.241,0,0,1-1.264,1.264H199.5a1.241,1.241,0,0,1-1.241-1.236v-1.957h-3.45v1.957a1.241,1.241,0,0,1-1.241,1.236h-5.033a1.241,1.241,0,0,1-1.241-1.236v-1.957h-3.456v1.957a1.236,1.236,0,0,1-1.236,1.236h-5.033a1.241,1.241,0,0,1-1.241-1.236v-1.957h-3.5v1.957a1.241,1.241,0,0,1-1.241,1.236h-5.033a1.241,1.241,0,0,1-1.241-1.236v-1.957h-3.45v1.957a1.241,1.241,0,0,1-1.225,1.236H155.6a1.236,1.236,0,0,1-1.236-1.236v-1.957h-3.456v1.957a1.236,1.236,0,0,1-1.236,1.236h-5.033a1.241,1.241,0,0,1-1.241-1.236v-1.957h-3.45v1.957a1.241,1.241,0,0,1-1.236,1.236h-5.033a1.241,1.241,0,0,1-1.241-1.236v-1.957h-3.456v1.957a1.236,1.236,0,0,1-1.236,1.236h-5.033a1.241,1.241,0,0,1-1.241-1.236v-1.957h-5.961a1.264,1.264,0,0,0-1.264,1.264v3.16" transform="translate(605.359 -57.541)"/><path class="k" d="M301.451,222.943a1.733,1.733,0,1,0-2.768.352,1.8,1.8,0,0,0,2.147.263,1.448,1.448,0,0,0,.352-.263A1.469,1.469,0,0,0,301.451,222.943Z" transform="translate(524.266 -20.995)"/><path class="m" d="M221,368.449v-.559A3.813,3.813,0,0,1,221,368.449Z" transform="translate(558.304 -86.038)"/><g transform="translate(771 182)"><path class="d" d="M134.109,320H128.47a.469.469,0,0,0-.47.47v2.819a.469.469,0,0,0,.47.47h5.639a.469.469,0,0,0,.47-.47V320.47A.469.469,0,0,0,134.109,320Zm-.47,2.819h-4.7v-1.88h4.7Zm0,0" transform="translate(-120.482 -301.204)"/><path class="d" d="M134.109,400H128.47a.469.469,0,0,0-.47.47v2.819a.469.469,0,0,0,.47.47h5.639a.469.469,0,0,0,.47-.47V400.47A.469.469,0,0,0,134.109,400Zm-.47,2.819h-4.7v-1.88h4.7Zm0,0" transform="translate(-120.482 -376.505)"/><path class="d" d="M262.109,320H256.47a.469.469,0,0,0-.47.47v2.819a.469.469,0,0,0,.47.47h5.639a.469.469,0,0,0,.47-.47V320.47A.469.469,0,0,0,262.109,320Zm-.47,2.819h-4.7v-1.88h4.7Zm0,0" transform="translate(-240.963 -301.204)"/><path class="d" d="M262.109,400H256.47a.469.469,0,0,0-.47.47v2.819a.469.469,0,0,0,.47.47h5.639a.469.469,0,0,0,.47-.47V400.47A.469.469,0,0,0,262.109,400Zm-.47,2.819h-4.7v-1.88h4.7Zm0,0" transform="translate(-240.963 -376.505)"/><path class="d" d="M160,208h10.338v.94H160Zm0,0" transform="translate(-150.602 -195.783)"/><path class="d" d="M352,208h.94v.94H352Zm0,0" transform="translate(-331.325 -195.783)"/><path class="d" d="M160,240h10.338v.94H160Zm0,0" transform="translate(-150.602 -225.903)"/><path class="d" d="M352,240h.94v.94H352Zm0,0" transform="translate(-331.325 -225.903)"/><path class="d" d="M160,272h10.338v.94H160Zm0,0" transform="translate(-150.602 -256.024)"/><path class="d" d="M352,272h.94v.94H352Zm0,0" transform="translate(-331.325 -256.024)"/><path class="d" d="M128,208h.94v.94H128Zm0,0" transform="translate(-120.482 -195.783)"/><path class="d" d="M128,240h.94v.94H128Zm0,0" transform="translate(-120.482 -225.903)"/><path class="d" d="M128,272h.94v.94H128Zm0,0" transform="translate(-120.482 -256.024)"/><path class="d" d="M354.819,96A2.822,2.822,0,0,0,352,98.819h.94a1.88,1.88,0,0,1,3.759,0h.94A2.822,2.822,0,0,0,354.819,96Zm0,0" transform="translate(-331.325 -90.361)"/><path class="d" d="M360.7,49.41a.7.7,0,1,0-.7-.7A.706.706,0,0,0,360.7,49.41Zm0-.94a.235.235,0,1,1-.235.235A.235.235,0,0,1,360.7,48.47Zm0,0" transform="translate(-338.855 -45.181)"/><path class="d" d="M416.7,49.41a.7.7,0,1,0-.7-.7A.706.706,0,0,0,416.7,49.41Zm0-.94a.235.235,0,1,1-.235.235A.235.235,0,0,1,416.7,48.47Zm0,0" transform="translate(-391.565 -45.181)"/><path class="d" d="M23.495,0a5.623,5.623,0,0,0-5.31,7.518H10.949a5.635,5.635,0,1,0-5.31,3.759V28.664a.469.469,0,0,0,.47.47H23.025a.469.469,0,0,0,.47-.47V11.278A5.639,5.639,0,0,0,23.495,0ZM15.977,8.458V9.4H13.157v-.94ZM.94,5.639a4.7,4.7,0,1,1,4.7,4.7A4.7,4.7,0,0,1,.94,5.639ZM22.555,28.194H6.579v-17a5.645,5.645,0,0,0,3.936-2.734h1.7v1.41a.47.47,0,0,0,.47.47h3.759a.47.47,0,0,0,.47-.47V8.458h1.7a5.644,5.644,0,0,0,3.936,2.734Zm.94-17.856a4.7,4.7,0,1,1,4.7-4.7A4.7,4.7,0,0,1,23.495,10.338Zm0,0"/><path class="d" d="M65.406,36.781h.94a.471.471,0,0,0,.452-.341l.94-3.289A.469.469,0,0,0,67.5,32.6l-.519-.26a2.5,2.5,0,0,0-2.2,0l-.519.259a.47.47,0,0,0-.242.55l.94,3.289A.471.471,0,0,0,65.406,36.781Zm-.21-3.6a1.548,1.548,0,0,1,1.36,0l.17.086-.735,2.573H65.76l-.735-2.574Zm0,0" transform="translate(-60.237 -30.202)"/><path class="d" d="M81.88,128.94a.94.94,0,1,1-.94-.94A.94.94,0,0,1,81.88,128.94Zm0,0" transform="translate(-75.301 -120.482)"/></g><text class="n" transform="translate(730 233)"><tspan x="0" y="0">No contacts found</tspan></text></g></svg>