<svg xmlns="http://www.w3.org/2000/svg" xmlns:xlink="http://www.w3.org/1999/xlink" width="258.501" height="226.721" viewBox="0 0 258.501 226.721">
  <defs>
    <clipPath id="clip-path">
      <path id="Path_32209" data-name="Path 32209" d="M25.91,266s-7.739-1.118-8.136,3.45,5.033,15.026,12.9,13.549v-2.662s-7.65,1.443-9.708-8.388c-1.118-5.435,6.151-2.511,6.151-2.511Z" transform="translate(-17.753 -265.884)" fill="#fff" stroke="#263238" stroke-linecap="round" stroke-linejoin="round" stroke-width="1"/>
    </clipPath>
    <clipPath id="clip-path-2">
      <path id="Path_32213" data-name="Path 32213" d="M54.221,281.354h0a13.971,13.971,0,0,1-9.16,2.975c-17.335,0-15.356-22.189-15.356-22.189H60.423S61.586,275.3,54.221,281.354Z" transform="translate(-29.638 -262.14)" fill="#fff" stroke="#263238" stroke-linecap="round" stroke-linejoin="round" stroke-width="1"/>
    </clipPath>
  </defs>
  <g id="Group_18759" data-name="Group 18759" transform="translate(-672.5 -341.133)">
    <g id="Group_18757" data-name="Group 18757">
      <path id="Path_32157" data-name="Path 32157" d="M125.642.653C194.983-5.5,195.117,33.607,226.371,70.067s37.936,52.962,26.159,95.014-51.486,74.966-100.6,56.3-77.248-.738-108.222-17.335S1.225,155.462,23.9,117.722,40.112,8.269,125.642.653Z" transform="translate(665.424 341.123)" fill="#f5f5f5"/>
      <path id="Path_32164" data-name="Path 32164" d="M197.269,160.957l-.47,1.443c-.733-.453-1.437-.934-2.119-1.432l2.209-2.186-.19-2.382s-.4-.884.375-.71a1.711,1.711,0,0,0,1.778-.632c.464-.52.4-.744,1.588-.117s1.264,1.046,1.437,1.521-2.041,3.875-2.041,3.875l.783.414s-.459,1.062.319,1.3Z" transform="translate(586.906 254.998)" fill="none" stroke="#263238" stroke-linecap="round" stroke-linejoin="round" stroke-width="1"/>
      <path id="Path_32165" data-name="Path 32165" d="M236.536,173.647a35.268,35.268,0,0,1-12.386.66l.431-1.549s-.408-.677,1.23-.559,2.885.313,2.885.313l1.3-2.472h2.287l.749.391.643.945,1.392,1.336a16.522,16.522,0,0,1,1.465.934Z" transform="translate(573.915 248.174)" fill="none" stroke="#263238" stroke-linecap="round" stroke-linejoin="round" stroke-width="1"/>
      <path id="Path_32189" data-name="Path 32189" d="M372.746,248.231V246.76h-79a5.4,5.4,0,0,0,0,10.8h79v-1.476h-1.9v-7.857Z" transform="translate(545.62 214.356)" fill="#fff"/>
      <path id="Path_32192" data-name="Path 32192" d="M369.117,249.387a3.914,3.914,0,0,0,2.8,6.71h35.33v1.476H371.952a5.4,5.4,0,1,1,0-10.8h35.269v1.471H371.89a3.875,3.875,0,0,0-2.774,1.146Z" transform="translate(511.146 214.352)" fill="none" stroke="#263238" stroke-linecap="round" stroke-linejoin="round" stroke-width="1"/>
      <line id="Line_41" data-name="Line 41" y2="7.857" transform="translate(916.47 462.586)" fill="none" stroke="#263238" stroke-linecap="round" stroke-linejoin="round" stroke-width="1"/>
      <line id="Line_42" data-name="Line 42" x1="18.504" transform="translate(897.967 464.018)" fill="none" stroke="#263238" stroke-linecap="round" stroke-linejoin="round" stroke-width="1"/>
      <line id="Line_43" data-name="Line 43" x1="1.924" transform="translate(894.505 464.018)" fill="none" stroke="#263238" stroke-linecap="round" stroke-linejoin="round" stroke-width="1"/>
      <line id="Line_44" data-name="Line 44" x2="16.938" transform="translate(885.642 466.518)" fill="none" stroke="#263238" stroke-linecap="round" stroke-linejoin="round" stroke-width="1"/>
      <line id="Line_45" data-name="Line 45" x2="4.552" transform="translate(904.694 466.518)" fill="none" stroke="#263238" stroke-linecap="round" stroke-linejoin="round" stroke-width="1"/>
      <line id="Line_46" data-name="Line 46" x2="5.894" transform="translate(910.576 466.518)" fill="none" stroke="#263238" stroke-linecap="round" stroke-linejoin="round" stroke-width="1"/>
      <line id="Line_47" data-name="Line 47" x1="6.274" transform="translate(908.154 468.721)" fill="none" stroke="#263238" stroke-linecap="round" stroke-linejoin="round" stroke-width="1"/>
      <line id="Line_48" data-name="Line 48" x1="1.253" transform="translate(889.215 468.721)" fill="none" stroke="#263238" stroke-linecap="round" stroke-linejoin="round" stroke-width="1"/>
      <path id="Path_32193" data-name="Path 32193" d="M372.53,250.37a5.5,5.5,0,0,1,1.633,3.383,5.39,5.39,0,0,1-1.633,3.355" transform="translate(508.509 212.765)" fill="none" stroke="#263238" stroke-linecap="round" stroke-linejoin="round" stroke-width="1"/>
      <path id="Path_32194" data-name="Path 32194" d="M347.229,257.564H293.742a5.4,5.4,0,0,1,0-10.8h53.493" transform="translate(545.62 214.356)" fill="none" stroke="#263238" stroke-linecap="round" stroke-linejoin="round" stroke-width="1"/>
      <path id="Path_32195" data-name="Path 32195" d="M301.36,275.643v1.471h79.015a5.4,5.4,0,0,0,0-10.8H301.36v1.5h1.9v7.829Z" transform="translate(539.881 205.738)" fill="#fff"/>
      <path id="Path_32197" data-name="Path 32197" d="M431.164,266.31H416.58a5.4,5.4,0,1,1,0,10.8h14.584a5.4,5.4,0,1,0,0-10.8Z" transform="translate(489.093 205.738)" fill="none"/>
      <path id="Path_32198" data-name="Path 32198" d="M368.632,274.487a3.914,3.914,0,0,0-2.8-6.71H301.36V266.3h64.431a5.4,5.4,0,1,1,0,10.8H301.36v-1.465h64.493A3.914,3.914,0,0,0,368.632,274.487Z" transform="translate(539.881 205.742)" fill="none" stroke="#263238" stroke-linecap="round" stroke-linejoin="round" stroke-width="1"/>
      <line id="Line_49" data-name="Line 49" y1="7.857" transform="translate(843.143 473.524)" fill="none" stroke="#263238" stroke-linecap="round" stroke-linejoin="round" stroke-width="1"/>
      <line id="Line_50" data-name="Line 50" x2="47.661" transform="translate(843.143 479.955)" fill="none" stroke="#263238" stroke-linecap="round" stroke-linejoin="round" stroke-width="1"/>
      <line id="Line_51" data-name="Line 51" x2="1.918" transform="translate(892.346 479.955)" fill="none" stroke="#263238" stroke-linecap="round" stroke-linejoin="round" stroke-width="1"/>
      <line id="Line_52" data-name="Line 52" x1="24.225" transform="translate(878.903 477.45)" fill="none" stroke="#263238" stroke-linecap="round" stroke-linejoin="round" stroke-width="1"/>
      <line id="Line_53" data-name="Line 53" x1="4.546" transform="translate(872.237 477.45)" fill="none" stroke="#263238" stroke-linecap="round" stroke-linejoin="round" stroke-width="1"/>
      <line id="Line_54" data-name="Line 54" x1="27.764" transform="translate(843.143 477.45)" fill="none" stroke="#263238" stroke-linecap="round" stroke-linejoin="round" stroke-width="1"/>
      <line id="Line_55" data-name="Line 55" x2="28.139" transform="translate(845.184 475.247)" fill="none" stroke="#263238" stroke-linecap="round" stroke-linejoin="round" stroke-width="1"/>
      <line id="Line_56" data-name="Line 56" x2="1.253" transform="translate(898.302 475.247)" fill="none" stroke="#263238" stroke-linecap="round" stroke-linejoin="round" stroke-width="1"/>
      <path id="Path_32199" data-name="Path 32199" d="M418.978,276.71a4.255,4.255,0,0,1,0-6.71" transform="translate(488.758 204.112)" fill="none" stroke="#263238" stroke-linecap="round" stroke-linejoin="round" stroke-width="1"/>
      <path id="Path_32200" data-name="Path 32200" d="M399.14,266.31h24.336a5.4,5.4,0,0,1,0,10.8H399.14" transform="translate(496.779 205.738)" fill="none" stroke="#263238" stroke-linecap="round" stroke-linejoin="round" stroke-width="1"/>
      <path id="Path_32201" data-name="Path 32201" d="M372.974,287.341V285.87H279.392a5.4,5.4,0,1,0,0,10.8h93.582V295.2h-1.9v-7.862Z" transform="translate(551.946 197.116)" fill="#fff"/>
      <path id="Path_32203" data-name="Path 32203" d="M354.777,288.493a3.914,3.914,0,0,0,2.8,6.71h49.881v1.471H357.612a5.4,5.4,0,1,1,0-10.8h49.842v1.471h-49.9a3.875,3.875,0,0,0-2.774,1.152Z" transform="translate(517.467 197.116)" fill="none" opacity="0.6"/>
      <path id="Path_32204" data-name="Path 32204" d="M354.777,288.493a3.914,3.914,0,0,0,2.8,6.71h49.881v1.471H357.612a5.4,5.4,0,1,1,0-10.8h49.842v1.471h-49.9a3.875,3.875,0,0,0-2.774,1.152Z" transform="translate(517.467 197.116)" fill="none" stroke="#263238" stroke-linecap="round" stroke-linejoin="round" stroke-width="1"/>
      <line id="Line_57" data-name="Line 57" y2="7.862" transform="translate(923.029 484.457)" fill="none" stroke="#263238" stroke-linecap="round" stroke-linejoin="round" stroke-width="1"/>
      <line id="Line_58" data-name="Line 58" x1="33.082" transform="translate(889.948 485.888)" fill="none" stroke="#263238" stroke-linecap="round" stroke-linejoin="round" stroke-width="1"/>
      <line id="Line_59" data-name="Line 59" x1="1.924" transform="translate(886.486 485.888)" fill="none" stroke="#263238" stroke-linecap="round" stroke-linejoin="round" stroke-width="1"/>
      <line id="Line_60" data-name="Line 60" x2="16.938" transform="translate(877.622 488.388)" fill="none" stroke="#263238" stroke-linecap="round" stroke-linejoin="round" stroke-width="1"/>
      <line id="Line_61" data-name="Line 61" x2="11.838" transform="translate(896.675 488.388)" fill="none" stroke="#263238" stroke-linecap="round" stroke-linejoin="round" stroke-width="1"/>
      <line id="Line_62" data-name="Line 62" x2="13.18" transform="translate(909.85 488.388)" fill="none" stroke="#263238" stroke-linecap="round" stroke-linejoin="round" stroke-width="1"/>
      <line id="Line_63" data-name="Line 63" x1="13.561" transform="translate(907.428 490.591)" fill="none" stroke="#263238" stroke-linecap="round" stroke-linejoin="round" stroke-width="1"/>
      <line id="Line_64" data-name="Line 64" x1="1.253" transform="translate(881.196 490.591)" fill="none" stroke="#263238" stroke-linecap="round" stroke-linejoin="round" stroke-width="1"/>
      <path id="Path_32205" data-name="Path 32205" d="M358.19,289.48a4.264,4.264,0,0,1,0,6.71" transform="translate(514.83 195.525)" fill="none" stroke="#263238" stroke-linecap="round" stroke-linejoin="round" stroke-width="1"/>
      <path id="Path_32206" data-name="Path 32206" d="M332.885,296.674H279.392a5.4,5.4,0,1,1,0-10.8h53.493" transform="translate(551.946 197.116)" fill="none" stroke="#263238" stroke-linecap="round" stroke-linejoin="round" stroke-width="1"/>
      <path id="Path_32207" data-name="Path 32207" d="M25.91,266s-7.739-1.118-8.136,3.45,5.033,15.026,12.9,13.549v-2.662s-7.65,1.443-9.708-8.388c-1.118-5.435,6.151-2.511,6.151-2.511Z" transform="translate(664.895 205.926)" fill="#fff"/>
      <g id="Group_18749" data-name="Group 18749" transform="translate(682.648 471.81)" clip-path="url(#clip-path)">
        <path id="Path_32208" data-name="Path 32208" d="M25.91,266s-7.739-1.118-8.136,3.45,5.033,15.026,12.9,13.549v-2.662s-7.65,1.443-9.708-8.388c-1.118-5.435,6.151-2.511,6.151-2.511Z" transform="translate(-17.753 -265.884)" fill="#f2f2f2"/>
      </g>
      <path id="Path_32210" data-name="Path 32210" d="M25.91,266s-7.739-1.118-8.136,3.45,5.033,15.026,12.9,13.549v-2.662s-7.65,1.443-9.708-8.388c-1.118-5.435,6.151-2.511,6.151-2.511Z" transform="translate(664.895 205.926)" fill="none" stroke="#263238" stroke-linecap="round" stroke-linejoin="round" stroke-width="1"/>
      <path id="Path_32211" data-name="Path 32211" d="M54.221,281.354h0a13.971,13.971,0,0,1-9.16,2.975c-17.335,0-15.356-22.189-15.356-22.189H60.423S61.586,275.3,54.221,281.354Z" transform="translate(659.656 207.576)" fill="#fff"/>
      <g id="Group_18750" data-name="Group 18750" transform="translate(689.294 469.716)" clip-path="url(#clip-path-2)">
        <path id="Path_32212" data-name="Path 32212" d="M54.221,281.354h0a13.971,13.971,0,0,1-9.16,2.975c-17.335,0-15.356-22.189-15.356-22.189h5.642s.654,9.758,4.2,14.483S54.132,281.354,54.221,281.354Z" transform="translate(-29.638 -262.14)" fill="#f2f2f2"/>
      </g>
      <path id="Path_32214" data-name="Path 32214" d="M54.221,281.354h0a13.971,13.971,0,0,1-9.16,2.975c-17.335,0-15.356-22.189-15.356-22.189H60.423S61.586,275.3,54.221,281.354Z" transform="translate(659.656 207.576)" fill="none" stroke="#263238" stroke-linecap="round" stroke-linejoin="round" stroke-width="1"/>
      <path id="Path_32215" data-name="Path 32215" d="M53.248,303.176H25.763L18.98,300.62H60.031Z" transform="translate(664.354 190.615)" fill="#fff"/>
      <path id="Path_32218" data-name="Path 32218" d="M53.248,303.176H25.763L18.98,300.62H60.031Z" transform="translate(664.354 190.615)" fill="none" stroke="#263238" stroke-linecap="round" stroke-linejoin="round" stroke-width="1"/>
      <rect id="Rectangle_5933" data-name="Rectangle 5933" width="45.977" height="2.058" rx="1.029" transform="translate(680.874 489.652)" fill="#fff" stroke="#263238" stroke-linecap="round" stroke-linejoin="round" stroke-width="1"/>
      <path id="Path_32219" data-name="Path 32219" d="M53.294,217.33c-7.141,6.039,5.173,15.753,0,19.824,0,0,5.066-1.968,1.912-8.662S53.294,217.33,53.294,217.33Z" transform="translate(650.237 227.328)" fill="none" stroke="#263238" stroke-linecap="round" stroke-linejoin="round" stroke-width="1"/>
      <line id="Line_65" data-name="Line 65" x2="257.501" transform="translate(673 494.103)" fill="none" stroke="#263238" stroke-linecap="round" stroke-linejoin="round" stroke-width="1"/>
      <path id="Path_32220" data-name="Path 32220" d="M231.94,339.566H69.056c-5.5,0-21.876-2.326-21.876-2.326H253.816S237.442,339.566,231.94,339.566Z" transform="translate(651.924 174.472)" fill="#999" stroke="#263238" stroke-linecap="round" stroke-linejoin="round" stroke-width="1"/>
      <path id="Path_32221" data-name="Path 32221" d="M88.319,149.06H247.182a2.024,2.024,0,0,1,2.024,2.024v97.228H86.3V151.084a2.024,2.024,0,0,1,2.019-2.024Z" transform="translate(634.68 257.422)" fill="#263238"/>
      <path id="Path_32222" data-name="Path 32222" d="M253.318,332.528H46.682a.643.643,0,0,1-.134-1.269l22.01-4.708H231.442l22.01,4.725a.643.643,0,0,1-.134,1.253Z" transform="translate(652.422 179.185)" fill="#bfbfbf" stroke="#263238" stroke-miterlimit="10" stroke-width="1"/>
      <rect id="Rectangle_5934" data-name="Rectangle 5934" width="159.283" height="88.27" transform="translate(722.78 410.833)" fill="#fff" stroke="#263238" stroke-linecap="round" stroke-linejoin="round" stroke-width="1"/>
      <path id="Path_32223" data-name="Path 32223" d="M232.046,320.272h-7.035a.811.811,0,0,1-.811-.811h0a.811.811,0,0,1,.811-.811h7.035a.811.811,0,0,1,.811.811h0A.811.811,0,0,1,232.046,320.272Z" transform="translate(573.893 182.667)" fill="#fff"/>
      <path id="Path_32224" data-name="Path 32224" d="M232.166,151.853A1.163,1.163,0,1,1,231,150.69,1.163,1.163,0,0,1,232.166,151.853Z" transform="translate(571.406 256.703)" fill="#fff"/>
      <path id="Path_32225" data-name="Path 32225" d="M251.1,330.137H70.1l9.506-2.237H241.6Z" transform="translate(641.82 178.589)" fill="none" stroke="#263238" stroke-linecap="round" stroke-linejoin="round" stroke-width="1"/>
      <path id="Path_32226" data-name="Path 32226" d="M190.7,158S154.06,207.663,91.72,200.919V158Z" transform="translate(632.291 253.481)" fill="#f2f2f2" opacity="0.46"/>
      <path id="Path_32227" data-name="Path 32227" d="M91.76,240.085s9.68-24.515,60.64-32.26,90.831-28.15,96.138-40.095v80.2H91.76Z" transform="translate(632.272 249.192)" fill="#f2f2f2" opacity="0.35"/>
      <line id="Line_66" data-name="Line 66" x2="156.777" transform="translate(724.032 414.534)" fill="none" stroke="#263238" stroke-linecap="round" stroke-linejoin="round" stroke-width="1"/>
      <line id="Line_67" data-name="Line 67" x2="4.546" transform="translate(726.187 412.946)" fill="none" stroke="#263238" stroke-linecap="round" stroke-linejoin="round" stroke-width="1"/>
      <line id="Line_68" data-name="Line 68" x2="4.093" transform="translate(735.703 412.946)" fill="none" stroke="#263238" stroke-linecap="round" stroke-linejoin="round" stroke-width="1"/>
      <line id="Line_69" data-name="Line 69" x2="3.982" transform="translate(745.098 412.946)" fill="none" stroke="#263238" stroke-linecap="round" stroke-linejoin="round" stroke-width="1"/>
      <g id="Group_18752" data-name="Group 18752" transform="translate(743.79 488.371)" opacity="0.7">
        <rect id="Rectangle_5936" data-name="Rectangle 5936" width="7.521" height="7.521" rx="2.22" transform="translate(0 0)" fill="none"/>
        <rect id="Rectangle_5937" data-name="Rectangle 5937" width="7.521" height="7.521" rx="2.22" transform="translate(10.977 0)" fill="none"/>
        <rect id="Rectangle_5938" data-name="Rectangle 5938" width="7.521" height="7.521" rx="2.22" transform="translate(21.949 0)" fill="none"/>
        <rect id="Rectangle_5939" data-name="Rectangle 5939" width="7.521" height="7.521" rx="2.22" transform="translate(32.926 0)" fill="none"/>
        <rect id="Rectangle_5940" data-name="Rectangle 5940" width="7.521" height="7.521" rx="2.22" transform="translate(43.897 0)" fill="none"/>
        <rect id="Rectangle_5941" data-name="Rectangle 5941" width="7.521" height="7.521" rx="2.22" transform="translate(54.869 0)" fill="none"/>
        <rect id="Rectangle_5942" data-name="Rectangle 5942" width="7.521" height="7.521" rx="2.22" transform="translate(65.846 0)" fill="none"/>
        <rect id="Rectangle_5943" data-name="Rectangle 5943" width="7.521" height="7.521" rx="2.22" transform="translate(76.817 0)" fill="none"/>
        <rect id="Rectangle_5944" data-name="Rectangle 5944" width="7.521" height="7.521" rx="2.22" transform="translate(87.794 0)" fill="none"/>
        <rect id="Rectangle_5945" data-name="Rectangle 5945" width="7.521" height="7.521" rx="2.22" transform="translate(98.766 0)" fill="none"/>
        <rect id="Rectangle_5946" data-name="Rectangle 5946" width="7.521" height="7.521" rx="2.22" transform="translate(109.737 0)" fill="none"/>
      </g>
      <path id="Path_32228" data-name="Path 32228" d="M245.875,307.663V304.5a1.264,1.264,0,0,0-1.264-1.264h-5.922V305.2a1.236,1.236,0,0,1-1.236,1.236H232.42a1.241,1.241,0,0,1-1.241-1.236V303.24h-3.45V305.2a1.241,1.241,0,0,1-1.241,1.236h-5.033a1.241,1.241,0,0,1-1.241-1.236V303.24h-3.45V305.2a1.241,1.241,0,0,1-1.241,1.236h-5.033a1.236,1.236,0,0,1-1.236-1.236V303.24H205.8V305.2a1.241,1.241,0,0,1-1.264,1.264H199.5a1.241,1.241,0,0,1-1.241-1.236v-1.957h-3.45v1.957a1.241,1.241,0,0,1-1.241,1.236h-5.033a1.241,1.241,0,0,1-1.241-1.236v-1.957h-3.456v1.957a1.236,1.236,0,0,1-1.236,1.236h-5.033a1.241,1.241,0,0,1-1.241-1.236v-1.957h-3.5v1.957a1.241,1.241,0,0,1-1.241,1.236h-5.033a1.241,1.241,0,0,1-1.241-1.236v-1.957h-3.45v1.957a1.241,1.241,0,0,1-1.225,1.236H155.6a1.236,1.236,0,0,1-1.236-1.236v-1.957h-3.456v1.957a1.236,1.236,0,0,1-1.236,1.236h-5.033a1.241,1.241,0,0,1-1.241-1.236v-1.957h-3.45v1.957a1.241,1.241,0,0,1-1.236,1.236h-5.033a1.241,1.241,0,0,1-1.241-1.236v-1.957h-3.456v1.957a1.236,1.236,0,0,1-1.236,1.236h-5.033a1.241,1.241,0,0,1-1.241-1.236v-1.957h-5.961a1.264,1.264,0,0,0-1.264,1.264v3.16" transform="translate(622.359 189.459)" fill="none" opacity="0.5"/>
      <path id="Path_32251" data-name="Path 32251" d="M301.451,222.943a1.733,1.733,0,1,0-2.768.352,1.8,1.8,0,0,0,2.147.263,1.448,1.448,0,0,0,.352-.263A1.469,1.469,0,0,0,301.451,222.943Z" transform="translate(541.266 226.005)" fill="none"/>
      <path id="Path_32253" data-name="Path 32253" d="M221,368.449v-.559A3.813,3.813,0,0,1,221,368.449Z" transform="translate(575.304 160.962)" fill="#92e3a9" opacity="0.4"/>
      <g id="Group_18756" data-name="Group 18756" transform="translate(-264 19)">
        <path id="Path_32360" data-name="Path 32360" d="M221.184,124.875a11.062,11.062,0,0,0-2.09.2,14.98,14.98,0,0,0-28.416,5.273,7.87,7.87,0,0,0-1.389-.13,8.188,8.188,0,1,0,0,16.376h31.9a10.862,10.862,0,1,0,0-21.711Z" transform="translate(861.927 305.411)" fill="#fff" stroke="#263238" stroke-linecap="round" stroke-linejoin="round" stroke-width="1"/>
        <g id="Group_18758" data-name="Group 18758" transform="translate(0 23)">
          <path id="Path_32362" data-name="Path 32362" d="M224.944,138.363l-4.773-4.773-4.78,4.773,1.29,1.3,2.531-2.524v5.873h1.918v-5.873l2.524,2.524Z" transform="translate(847.907 300.967)" fill="none" stroke="#263238" stroke-linecap="round" stroke-linejoin="round" stroke-width="1"/>
        </g>
        <path id="Path_32363" data-name="Path 32363" d="M316.191,197.61v1.551H314.64" transform="translate(811.223 274.658)" fill="none" stroke="#263238" stroke-linecap="round" stroke-linejoin="round" stroke-width="1"/>
        <line id="Line_71" data-name="Line 71" x1="110.073" transform="translate(1012.688 473.819)" fill="none" stroke="#263238" stroke-linecap="round" stroke-linejoin="round" stroke-width="1" stroke-dasharray="5 5"/>
        <path id="Path_32364" data-name="Path 32364" d="M128.741,199.161H127.19V197.61" transform="translate(882.396 274.658)" fill="none" stroke="#2647a3" stroke-linecap="round" stroke-linejoin="round" stroke-width="1"/>
        <line id="Line_72" data-name="Line 72" y1="60.722" transform="translate(1009.586 408.433)" fill="none" stroke="#263238" stroke-linecap="round" stroke-linejoin="round" stroke-width="1" stroke-dasharray="5.02 5.02"/>
        <path id="Path_32365" data-name="Path 32365" d="M127.19,91.241V89.69h1.551" transform="translate(882.396 315.635)" fill="none" stroke="#263238" stroke-linecap="round" stroke-linejoin="round" stroke-width="1"/>
        <line id="Line_73" data-name="Line 73" x2="110.073" transform="translate(1014.239 405.325)" fill="none" stroke="#263238" stroke-linecap="round" stroke-linejoin="round" stroke-width="1" stroke-dasharray="5 5"/>
        <path id="Path_32366" data-name="Path 32366" d="M314.64,89.69h1.551v1.551" transform="translate(811.223 315.635)" fill="none" stroke="#000" stroke-linecap="round" stroke-linejoin="round" stroke-width="1"/>
        <line id="Line_74" data-name="Line 74" y2="60.722" transform="translate(1127.414 409.99)" fill="none" stroke="#263238" stroke-linecap="round" stroke-linejoin="round" stroke-width="1" stroke-dasharray="5.02 5.02"/>
      </g>
    </g>
    <g id="csv-file-format-extension" transform="translate(766.377 449.163)">
      <path id="Path_32381" data-name="Path 32381" d="M43.563,5.8h-.353V3.922a.308.308,0,0,0,0-.035.332.332,0,0,0-.068-.206L40.3.109l0,0a.288.288,0,0,0-.057-.053L40.223.041a.288.288,0,0,0-.057-.026L40.151.009A.264.264,0,0,0,40.085,0h-6.97a.609.609,0,0,0-.577.636V5.8h-.353a.87.87,0,0,0-.825.909v4.727a.87.87,0,0,0,.825.909h.353v3.236a.609.609,0,0,0,.577.636h9.518a.609.609,0,0,0,.577-.636V12.345h.353a.87.87,0,0,0,.824-.909V6.709A.87.87,0,0,0,43.563,5.8ZM33.114.636H39.8V3.89a.3.3,0,0,0,.288.318h2.548V5.8H33.114Zm4.342,8.627c-.716-.275-1.182-.711-1.182-1.4A1.46,1.46,0,0,1,37.9,6.431a2.426,2.426,0,0,1,1.1.24l-.217.867a1.891,1.891,0,0,0-.9-.226c-.422,0-.626.211-.626.458,0,.3.243.437.8.669a1.471,1.471,0,0,1,1.118,1.416c0,.8-.556,1.472-1.738,1.472a2.606,2.606,0,0,1-1.221-.289l.2-.888a2.3,2.3,0,0,0,1.08.3c.447,0,.684-.2.684-.515S37.975,9.467,37.457,9.263Zm-5.074-.31a2.306,2.306,0,0,1,2.352-2.522,2.336,2.336,0,0,1,1.061.211l-.2.852a1.943,1.943,0,0,0-.818-.176c-.773,0-1.374.514-1.374,1.57a1.359,1.359,0,0,0,1.38,1.55,2.231,2.231,0,0,0,.811-.155l.147.838a2.546,2.546,0,0,1-1.106.2A2.155,2.155,0,0,1,32.383,8.953Zm10.25,6.456H33.114V12.345h9.518Zm-.644-4.152H40.851L39.47,6.508h1.067l.524,2.008c.147.563.281,1.106.384,1.7h.019c.109-.571.243-1.134.39-1.677l.55-2.029h1.036Z" transform="translate(0)" fill="#263238"/>
    </g>
  </g>
</svg>
