<svg width="400" height="400" viewBox="0 0 400 400" fill="none" xmlns="http://www.w3.org/2000/svg">
<rect width="400" height="400" fill="#EDEFF0"/>
<path d="M0 96H81L120 140.5V225H0V96Z" fill="#B2D9B8"/>
<path d="M180 208H291L207.5 296.5H180V208Z" fill="#D2E8D6"/>
<path d="M240.5 360L256 338L265.5 296.5L295.5 275L305.5 239L290 208H400V400H180V354L204 362L240.5 360Z" fill="#A3BFF4"/>
<path fill-rule="evenodd" clip-rule="evenodd" d="M214.5 0L214.5 76H245V0H255V76H288.358L391.568 0H400V6.20934L295 83.5275V203H400V213H297.991L305.073 227.566C315.21 248.414 307.671 273.551 287.733 285.379L285.267 286.842C271.153 295.214 262.5 310.409 262.5 326.819C262.5 352.611 238.987 372.01 213.665 367.109L185 361.561V400H175V300H124.5V400H114.5V300H74.2015L0 357.116V344.496L70.7985 290H114.5V230H8.58307e-06V220H114.5V141.895L78.7482 101.5H8.58307e-06V91.5H79.3247L200.539 0H214.5ZM88.3267 97.234L124.5 138.105V218.401L179.311 203H204.5V9.53894L88.3267 97.234ZM214.5 203H245V86H214.5V203ZM255 86V203H285V86H255ZM278.561 213H185V290H207.314L278.561 213ZM185 300V351.375L215.565 357.291C234.717 360.998 252.5 346.326 252.5 326.819C252.5 306.878 263.015 288.415 280.165 278.241L282.631 276.778C298.095 267.605 303.942 248.108 296.08 231.939L288.702 216.765L211.686 300H185ZM175 290V214.599L124.5 228.789V290H175Z" fill="white"/>
<path d="M236.469 156.735C236.469 162.73 235.033 168.389 232.487 173.388C226.414 185.306 199.735 240 199.735 240C199.735 240 173.055 185.306 166.983 173.388C164.436 168.389 163 162.73 163 156.735C163 136.447 179.447 120 199.735 120C220.023 120 236.469 136.447 236.469 156.735Z" fill="#D8513F"/>
<circle cx="199.98" cy="156.98" r="18.3673" fill="white"/>
<rect x="306" y="140" width="42" height="51" fill="#D3D7DA"/>
<rect x="192" y="315" width="16" height="21" fill="#D3D7DA"/>
<rect x="131" y="241" width="24" height="36" fill="#D3D7DA"/>
<rect x="48" y="57" width="24" height="21" fill="#D3D7DA"/>
<rect x="93.1941" y="28.3974" width="24" height="21" transform="rotate(-33.6086 93.1941 28.3974)" fill="#D3D7DA"/>
<path d="M40 247C40 244.791 41.7909 243 44 243H91C93.2091 243 95 244.791 95 247V272C95 274.209 93.2091 276 91 276H81C78.7909 276 77 274.209 77 272V270C77 267.791 75.2091 266 73 266H62C59.7909 266 58 267.791 58 270V272C58 274.209 56.2091 276 54 276H44C41.7909 276 40 274.209 40 272V247Z" fill="#D3D7DA"/>
<rect x="306" y="92" width="23" height="35" fill="#D3D7DA"/>
<rect x="334.156" y="71" width="23" height="35" transform="rotate(53.5581 334.156 71)" fill="#D3D7DA"/>
</svg>
