<svg xmlns="http://www.w3.org/2000/svg" xmlns:xlink="http://www.w3.org/1999/xlink" width="258.501" height="226.721" viewBox="0 0 258.501 226.721"><defs><style>.a,.d{fill:#fff;}.a,.c,.j,.l,.q{stroke:#263238;}.a,.c,.j{stroke-linecap:round;stroke-linejoin:round;}.b{fill:#f5f5f5;}.c,.e,.f,.p,.q{fill:none;}.f{opacity:0.6;}.g{clip-path:url(#a);}.h,.m,.n{fill:#f2f2f2;}.i{clip-path:url(#b);}.j{fill:#999;}.k{fill:#263238;}.l{fill:#bfbfbf;}.l,.q{stroke-miterlimit:10;}.m{opacity:0.46;}.n{opacity:0.35;}.o{opacity:0.7;}.p{opacity:0.5;}.r{fill:#92e3a9;opacity:0.4;}.s{fill:#465165;font-size:7px;font-family:'Inter', sans-serif;font-weight:600;}</style><clipPath id="a"><path class="a" d="M25.91,266s-7.739-1.118-8.136,3.45,5.033,15.026,12.9,13.549v-2.662s-7.65,1.443-9.708-8.388c-1.118-5.435,6.151-2.511,6.151-2.511Z" transform="translate(-17.753 -265.884)"/></clipPath><clipPath id="b"><path class="a" d="M54.221,281.354h0a13.971,13.971,0,0,1-9.16,2.975c-17.335,0-15.356-22.189-15.356-22.189H60.423S61.586,275.3,54.221,281.354Z" transform="translate(-29.638 -262.14)"/></clipPath></defs><g transform="translate(9022.5 -2952)"><path class="b" d="M125.642.653C194.983-5.5,195.117,33.607,226.371,70.067s37.936,52.962,26.159,95.014-51.486,74.966-100.6,56.3-77.248-.738-108.222-17.335S1.225,155.462,23.9,117.722,40.112,8.269,125.642.653Z" transform="translate(-9027.576 2951.99)"/><path class="c" d="M235.357,103.721A35.23,35.23,0,0,1,187.7,118.479q-1.169-.615-2.265-1.3c-.733-.453-1.437-.934-2.119-1.432-.828-.6-1.622-1.236-2.382-1.9h0a1.393,1.393,0,0,1-.134-.123h0a35.274,35.274,0,1,1,54.584-9.971Z" transform="translate(-9096.732 2929.061)"/><path class="c" d="M274.379,86.031c-.375.336-.99.442-1.963.14-3.495-1.085-5.312,2.846-4.7,2.891s1.04,1.806-.218,2.662-4.188.559-4,1.437a15.7,15.7,0,0,0,1.633,3.053s1.286-.6,1.678.151.777,2.8-.168,3.165a1.258,1.258,0,0,0-.738,1.4l-2.8-.162-.453,2.086-1.739,1.454-.928-.492s-.822-2.131-1.61-.844l-.777,1.281-.5,1.152s2.03.453,2.539,1.342l.5.878,4.406,1.241.347,1.264.811.431.207,2.2,1.644.867,1.65.129,2.008-2.8a19.851,19.851,0,0,1,.984,2.433,6.869,6.869,0,0,1-.369,2.516,4.474,4.474,0,0,1-1.432,1.65c-.8.414-1.778-.688-1.706.66l.067,1.348-.207,1.487,1.241.654,1.169.615.682.559" transform="translate(-9135.609 2914.094)"/><path class="c" d="M169.55,92.8l.492.1,2.237-2.472,2.013-.816,1.443.761c.6.319,1.2-1.186,1.2-1.186l-.386-.352c-.386-.352.179-2.427.179-2.427a21.252,21.252,0,0,0,3.355.235c.889-.106,1.309-.073,1.678-.816s.1-.906.1-.906A13.377,13.377,0,0,0,182.5,82c0-.967,1.443.761,1.443.761l.7-1.342,1.583-1.253,2.024-1.426s2.992-.861,3.221-.212,1.443,1.174,1.443,1.174l-.514.973s-.66,2.041-1.3,2.466.257,3.551.257,3.551a10.452,10.452,0,0,0-1.555,1.862c-.391.744-.772.738-.772.738l-1.952-.268s-2.237-1.555-2.975-1.946c0,0-1.309,1.4-1.18,2.237s-.459.878-.459.878l2.058,1.873.336,1.169,1.23,1.678-.4.755-.738,1.4.33,1.549,1.337,1.8.749,1.633.816,2.639.257,1.46,2.4,1.079,1.062-.559,2.069-1.118.979,1.946.386.979-1.722,1.555.61,1.275.2,1.437-.173,1.924-.352,1.23,1.437.755,2.55-.369-.089-1.952a14.612,14.612,0,0,1,2.651-1.236c1.09-.313.979-.291,2.315-.7s.928-.3,1.571-.514,1.269-.475,1.269-.475l.05-2.024,1.057-3.685.654.436c.649.431,1.622-1.118,1.622-1.118l.459-2.8-1.292-.682a14.537,14.537,0,0,0-2.332-.274l-1.84-.973-1.538-2.718a8.7,8.7,0,0,1-1.286-1.817l.71-1.342.872-1.678.911.481.839.442.889.47,1.454-.945.811-2.27,1.118-.99c.733-.66,1.236.559,1.236.559l1.2-1.5c1.2-1.5.213-.811-.4-1.583a1.51,1.51,0,0,0-1.292-.677L207.33,84.1l-1.739.57-.24.822c-.246.822,0,0-2.522-1l-.833-2.4.5-.559.123-2.237s-1.454-.71-2.55-1.3a3.26,3.26,0,0,1-1.359-2.108,5.542,5.542,0,0,1,.5-2.416l-.559-1.588-2.063-4.032.352-1.812,1.2-.755.475-2.421-2.159-2.047.867-1.644.615-1.169.721-1.364.559-2.8s-.134-.509-.268-1.085" transform="translate(-9097.017 2928.738)"/><path class="c" d="M186.3,152.15a.7.7,0,0,0-.145-.134h0l.621-1.18-.246-2.237-.822-.431s1-1,.939-1.789a1.331,1.331,0,0,1,.632-1.2l-.268-1.476-.447-.235c-.447-.235-.179-1.476-.179-1.476l-1.912.375-.52,2.013-1.946.5a2.27,2.27,0,0,1-.934-1.633c.039-.934.4-.744.4-.744h1.8l1.118-2.131-.224-1.018-.811-.425" transform="translate(-9102.095 2890.754)"/><path class="c" d="M179.621,135.106h0c.089.045-.486-2.544-.486-2.544s-.716-1.9-1.5-2.237-2.544.911-2.544.911l-1.974.28-.447,2.371" transform="translate(-9098.393 2894.573)"/><path class="c" d="M197.269,160.957l-.47,1.443c-.733-.453-1.437-.934-2.119-1.432l2.209-2.186-.19-2.382s-.4-.884.375-.71a1.711,1.711,0,0,0,1.778-.632c.464-.52.4-.744,1.588-.117s1.264,1.046,1.437,1.521-2.041,3.875-2.041,3.875l.783.414s-.459,1.062.319,1.3Z" transform="translate(-9108.094 2883.864)"/><path class="c" d="M236.536,173.647a35.268,35.268,0,0,1-12.386.66l.431-1.549s-.408-.677,1.23-.559,2.885.313,2.885.313l1.3-2.472h2.287l.749.391.643.945,1.392,1.336a16.522,16.522,0,0,1,1.465.934Z" transform="translate(-9121.085 2877.041)"/><path class="c" d="M243.48,133.976l1.376-.436,1.2,1.213s2.377.308,1.454,1.348a4.014,4.014,0,0,1-2.7,1.023l-.643,1.213-1.118-1.353-.559-1.09.425-.805Z" transform="translate(-9129.17 2893.13)"/><path class="c" d="M245.49,123.576a3.142,3.142,0,0,0-.61,1.152l-.084.526-2.237-1.18,1.213-2.3Z" transform="translate(-9129.2 2898.318)"/><path class="c" d="M375.271,35.145a3.87,3.87,0,1,1-1.133-2.742A3.875,3.875,0,0,1,375.271,35.145Z" transform="translate(-9184.282 2938.21)"/><path class="c" d="M338.377,145.264a2.444,2.444,0,1,1-2.444-2.444A2.444,2.444,0,0,1,338.377,145.264Z" transform="translate(-9169.282 2889.039)"/><path class="c" d="M212.829,6.744A2.449,2.449,0,1,1,210.385,4.3,2.449,2.449,0,0,1,212.829,6.744Z" transform="translate(-9113.936 2950.099)"/><circle class="c" cx="6.073" cy="6.073" r="6.073" transform="translate(-8779.839 3024.601)"/><circle class="c" cx="3.741" cy="3.741" r="3.741" transform="translate(-8986.334 2966.629)"/><circle class="c" cx="6.531" cy="6.531" r="6.531" transform="translate(-9008.551 3039.437)"/><circle class="c" cx="1.885" cy="1.885" r="1.885" transform="translate(-8945.916 2999.56)"/><path class="c" d="M215.87,38.26c.151,1.281.3,2.556.459,3.836" transform="translate(-9117.435 2935.129)"/><path class="c" d="M213.32,17l1.146,9.579" transform="translate(-9116.311 2944.5)"/><path class="c" d="M298.285,74.87c-1.035.464-2.069.917-3.115,1.364" transform="translate(-9152.391 2918.992)"/><path class="c" d="M324.545,55.6c-6.263,3.238-12.509,6.526-18.9,9.506" transform="translate(-9157.01 2927.486)"/><path class="c" d="M350.57,47.16q-3.517,1.728-6.99,3.523" transform="translate(-9173.729 2931.206)"/><path class="c" d="M362.082,43.54l-1.952.923" transform="translate(-9181.025 2932.802)"/><path class="c" d="M308.381,125.743q-3.45-.4-6.9-.833" transform="translate(-9155.172 2896.934)"/><path class="c" d="M349.347,130.381q-15.356-1.678-30.717-3.411" transform="translate(-9162.731 2896.026)"/><path class="c" d="M406.678,136.62q-14.17-1.465-28.318-3.02" transform="translate(-9189.061 2893.104)"/><path class="c" d="M310.744,138.085c-4.132-1.281-8.388-2.237-12.414-3.875" transform="translate(-9153.783 2892.835)"/><path class="c" d="M328.073,143.838q-1.409-.621-2.863-1.118" transform="translate(-9165.632 2889.083)"/><path class="c" d="M147,90.31l10.832,2.9" transform="translate(-9087.077 2912.186)"/><path class="c" d="M138,68.4c5.8,3.232,11.648,6.414,17.632,9.316" transform="translate(-9083.109 2921.844)"/><path class="c" d="M90.52,42.89c8.287,4.009,16.3,8.533,24.336,13.024" transform="translate(-9062.181 2933.088)"/><path class="c" d="M82.06,38.73l2.03.99" transform="translate(-9058.451 2934.922)"/><path class="c" d="M159.27,141.14l2.656-.61" transform="translate(-9092.485 2890.049)"/><path class="c" d="M83.91,151.058c13.136-2.908,26.282-5.832,39.485-8.388" transform="translate(-9059.268 2889.105)"/><path class="c" d="M52.67,161.892q7.611-1.633,15.2-3.322" transform="translate(-9045.496 2882.097)"/><path class="d" d="M372.746,248.231V246.76h-79a5.4,5.4,0,0,0,0,10.8h79v-1.476h-1.9v-7.857Z" transform="translate(-9149.38 2843.223)"/><path class="c" d="M369.117,249.387a3.914,3.914,0,0,0,2.8,6.71h35.33v1.476H371.952a5.4,5.4,0,1,1,0-10.8h35.269v1.471H371.89a3.875,3.875,0,0,0-2.774,1.146Z" transform="translate(-9183.854 2843.218)"/><line class="c" y2="7.857" transform="translate(-8778.53 3091.453)"/><line class="c" x1="18.504" transform="translate(-8797.033 3092.885)"/><line class="c" x1="1.924" transform="translate(-8800.495 3092.885)"/><line class="c" x2="16.938" transform="translate(-8809.358 3095.385)"/><line class="c" x2="4.552" transform="translate(-8790.306 3095.385)"/><line class="c" x2="5.894" transform="translate(-8784.424 3095.385)"/><line class="c" x1="6.274" transform="translate(-8786.846 3097.588)"/><line class="c" x1="1.253" transform="translate(-8805.785 3097.588)"/><path class="c" d="M372.53,250.37a5.5,5.5,0,0,1,1.633,3.383,5.39,5.39,0,0,1-1.633,3.355" transform="translate(-9186.491 2841.631)"/><path class="c" d="M347.229,257.564H293.742a5.4,5.4,0,0,1,0-10.8h53.493" transform="translate(-9149.38 2843.223)"/><path class="d" d="M301.36,275.643v1.471h79.015a5.4,5.4,0,0,0,0-10.8H301.36v1.5h1.9v7.829Z" transform="translate(-9155.119 2834.605)"/><path class="e" d="M431.164,266.31H416.58a5.4,5.4,0,1,1,0,10.8h14.584a5.4,5.4,0,1,0,0-10.8Z" transform="translate(-9205.907 2834.605)"/><path class="c" d="M368.632,274.487a3.914,3.914,0,0,0-2.8-6.71H301.36V266.3h64.431a5.4,5.4,0,1,1,0,10.8H301.36v-1.465h64.493A3.914,3.914,0,0,0,368.632,274.487Z" transform="translate(-9155.119 2834.609)"/><line class="c" y1="7.857" transform="translate(-8851.857 3102.391)"/><line class="c" x2="47.661" transform="translate(-8851.857 3108.822)"/><line class="c" x2="1.918" transform="translate(-8802.654 3108.822)"/><line class="c" x1="24.225" transform="translate(-8816.097 3106.317)"/><line class="c" x1="4.546" transform="translate(-8822.763 3106.317)"/><line class="c" x1="27.764" transform="translate(-8851.857 3106.317)"/><line class="c" x2="28.139" transform="translate(-8849.816 3104.114)"/><line class="c" x2="1.253" transform="translate(-8796.698 3104.114)"/><path class="c" d="M418.978,276.71a4.255,4.255,0,0,1,0-6.71" transform="translate(-9206.242 2832.979)"/><path class="c" d="M399.14,266.31h24.336a5.4,5.4,0,0,1,0,10.8H399.14" transform="translate(-9198.221 2834.605)"/><path class="d" d="M372.974,287.341V285.87H279.392a5.4,5.4,0,1,0,0,10.8h93.582V295.2h-1.9v-7.862Z" transform="translate(-9143.054 2825.983)"/><path class="f" d="M354.777,288.493a3.914,3.914,0,0,0,2.8,6.71h49.881v1.471H357.612a5.4,5.4,0,1,1,0-10.8h49.842v1.471h-49.9a3.875,3.875,0,0,0-2.774,1.152Z" transform="translate(-9177.533 2825.983)"/><path class="c" d="M354.777,288.493a3.914,3.914,0,0,0,2.8,6.71h49.881v1.471H357.612a5.4,5.4,0,1,1,0-10.8h49.842v1.471h-49.9a3.875,3.875,0,0,0-2.774,1.152Z" transform="translate(-9177.533 2825.983)"/><line class="c" y2="7.862" transform="translate(-8771.971 3113.324)"/><line class="c" x1="33.082" transform="translate(-8805.052 3114.755)"/><line class="c" x1="1.924" transform="translate(-8808.514 3114.755)"/><line class="c" x2="16.938" transform="translate(-8817.378 3117.255)"/><line class="c" x2="11.838" transform="translate(-8798.325 3117.255)"/><line class="c" x2="13.18" transform="translate(-8785.15 3117.255)"/><line class="c" x1="13.561" transform="translate(-8787.572 3119.458)"/><line class="c" x1="1.253" transform="translate(-8813.804 3119.458)"/><path class="c" d="M358.19,289.48a4.264,4.264,0,0,1,0,6.71" transform="translate(-9180.17 2824.392)"/><path class="c" d="M332.885,296.674H279.392a5.4,5.4,0,1,1,0-10.8h53.493" transform="translate(-9143.054 2825.983)"/><path class="d" d="M25.91,266s-7.739-1.118-8.136,3.45,5.033,15.026,12.9,13.549v-2.662s-7.65,1.443-9.708-8.388c-1.118-5.435,6.151-2.511,6.151-2.511Z" transform="translate(-9030.105 2834.793)"/><g class="g" transform="translate(-9012.352 3100.677)"><path class="h" d="M25.91,266s-7.739-1.118-8.136,3.45,5.033,15.026,12.9,13.549v-2.662s-7.65,1.443-9.708-8.388c-1.118-5.435,6.151-2.511,6.151-2.511Z" transform="translate(-17.753 -265.884)"/></g><path class="c" d="M25.91,266s-7.739-1.118-8.136,3.45,5.033,15.026,12.9,13.549v-2.662s-7.65,1.443-9.708-8.388c-1.118-5.435,6.151-2.511,6.151-2.511Z" transform="translate(-9030.105 2834.793)"/><path class="d" d="M54.221,281.354h0a13.971,13.971,0,0,1-9.16,2.975c-17.335,0-15.356-22.189-15.356-22.189H60.423S61.586,275.3,54.221,281.354Z" transform="translate(-9035.344 2836.443)"/><g class="i" transform="translate(-9005.706 3098.583)"><path class="h" d="M54.221,281.354h0a13.971,13.971,0,0,1-9.16,2.975c-17.335,0-15.356-22.189-15.356-22.189h5.642s.654,9.758,4.2,14.483S54.132,281.354,54.221,281.354Z" transform="translate(-29.638 -262.14)"/></g><path class="c" d="M54.221,281.354h0a13.971,13.971,0,0,1-9.16,2.975c-17.335,0-15.356-22.189-15.356-22.189H60.423S61.586,275.3,54.221,281.354Z" transform="translate(-9035.344 2836.443)"/><path class="d" d="M53.248,303.176H25.763L18.98,300.62H60.031Z" transform="translate(-9030.646 2819.481)"/><path class="c" d="M53.248,303.176H25.763L18.98,300.62H60.031Z" transform="translate(-9030.646 2819.481)"/><rect class="a" width="45.977" height="2.058" rx="1.029" transform="translate(-9014.126 3118.519)"/><path class="c" d="M53.294,217.33c-7.141,6.039,5.173,15.753,0,19.824,0,0,5.066-1.968,1.912-8.662S53.294,217.33,53.294,217.33Z" transform="translate(-9044.763 2856.195)"/><line class="c" x2="257.501" transform="translate(-9022 3122.97)"/><path class="j" d="M231.94,339.566H69.056c-5.5,0-21.876-2.326-21.876-2.326H253.816S237.442,339.566,231.94,339.566Z" transform="translate(-9043.076 2803.339)"/><path class="k" d="M88.319,149.06H247.182a2.024,2.024,0,0,1,2.024,2.024v97.228H86.3V151.084a2.024,2.024,0,0,1,2.019-2.024Z" transform="translate(-9060.32 2886.289)"/><path class="l" d="M253.318,332.528H46.682a.643.643,0,0,1-.134-1.269l22.01-4.708H231.442l22.01,4.725a.643.643,0,0,1-.134,1.253Z" transform="translate(-9042.578 2808.051)"/><rect class="a" width="159.283" height="88.27" transform="translate(-8972.22 3039.699)"/><path class="d" d="M232.046,320.272h-7.035a.811.811,0,0,1-.811-.811h0a.811.811,0,0,1,.811-.811h7.035a.811.811,0,0,1,.811.811h0A.811.811,0,0,1,232.046,320.272Z" transform="translate(-9121.107 2811.533)"/><path class="d" d="M232.166,151.853A1.163,1.163,0,1,1,231,150.69,1.163,1.163,0,0,1,232.166,151.853Z" transform="translate(-9123.594 2885.57)"/><path class="c" d="M251.1,330.137H70.1l9.506-2.237H241.6Z" transform="translate(-9053.18 2807.456)"/><path class="m" d="M190.7,158S154.06,207.663,91.72,200.919V158Z" transform="translate(-9062.709 2882.348)"/><path class="n" d="M91.76,240.085s9.68-24.515,60.64-32.26,90.831-28.15,96.138-40.095v80.2H91.76Z" transform="translate(-9062.728 2878.059)"/><line class="c" x2="156.777" transform="translate(-8970.968 3043.401)"/><line class="c" x2="4.546" transform="translate(-8968.813 3041.813)"/><line class="c" x2="4.093" transform="translate(-8959.297 3041.813)"/><line class="c" x2="3.982" transform="translate(-8949.902 3041.813)"/><g class="o" transform="translate(-8951.21 3117.238)"><rect class="e" width="7.521" height="7.521" rx="2.22" transform="translate(0 0)"/><rect class="e" width="7.521" height="7.521" rx="2.22" transform="translate(10.977 0)"/><rect class="e" width="7.521" height="7.521" rx="2.22" transform="translate(21.949 0)"/><rect class="e" width="7.521" height="7.521" rx="2.22" transform="translate(32.926 0)"/><rect class="e" width="7.521" height="7.521" rx="2.22" transform="translate(43.897 0)"/><rect class="e" width="7.521" height="7.521" rx="2.22" transform="translate(54.869 0)"/><rect class="e" width="7.521" height="7.521" rx="2.22" transform="translate(65.846 0)"/><rect class="e" width="7.521" height="7.521" rx="2.22" transform="translate(76.817 0)"/><rect class="e" width="7.521" height="7.521" rx="2.22" transform="translate(87.794 0)"/><rect class="e" width="7.521" height="7.521" rx="2.22" transform="translate(98.766 0)"/><rect class="e" width="7.521" height="7.521" rx="2.22" transform="translate(109.737 0)"/></g><path class="p" d="M245.875,307.663V304.5a1.264,1.264,0,0,0-1.264-1.264h-5.922V305.2a1.236,1.236,0,0,1-1.236,1.236H232.42a1.241,1.241,0,0,1-1.241-1.236V303.24h-3.45V305.2a1.241,1.241,0,0,1-1.241,1.236h-5.033a1.241,1.241,0,0,1-1.241-1.236V303.24h-3.45V305.2a1.241,1.241,0,0,1-1.241,1.236h-5.033a1.236,1.236,0,0,1-1.236-1.236V303.24H205.8V305.2a1.241,1.241,0,0,1-1.264,1.264H199.5a1.241,1.241,0,0,1-1.241-1.236v-1.957h-3.45v1.957a1.241,1.241,0,0,1-1.241,1.236h-5.033a1.241,1.241,0,0,1-1.241-1.236v-1.957h-3.456v1.957a1.236,1.236,0,0,1-1.236,1.236h-5.033a1.241,1.241,0,0,1-1.241-1.236v-1.957h-3.5v1.957a1.241,1.241,0,0,1-1.241,1.236h-5.033a1.241,1.241,0,0,1-1.241-1.236v-1.957h-3.45v1.957a1.241,1.241,0,0,1-1.225,1.236H155.6a1.236,1.236,0,0,1-1.236-1.236v-1.957h-3.456v1.957a1.236,1.236,0,0,1-1.236,1.236h-5.033a1.241,1.241,0,0,1-1.241-1.236v-1.957h-3.45v1.957a1.241,1.241,0,0,1-1.236,1.236h-5.033a1.241,1.241,0,0,1-1.241-1.236v-1.957h-3.456v1.957a1.236,1.236,0,0,1-1.236,1.236h-5.033a1.241,1.241,0,0,1-1.241-1.236v-1.957h-5.961a1.264,1.264,0,0,0-1.264,1.264v3.16" transform="translate(-9072.641 2818.326)"/><path class="c" d="M245.875,307.663V304.5a1.264,1.264,0,0,0-1.264-1.264h-5.922V305.2a1.236,1.236,0,0,1-1.236,1.236H232.42a1.241,1.241,0,0,1-1.241-1.236V303.24h-3.45V305.2a1.241,1.241,0,0,1-1.241,1.236h-5.033a1.241,1.241,0,0,1-1.241-1.236V303.24h-3.45V305.2a1.241,1.241,0,0,1-1.241,1.236h-5.033a1.236,1.236,0,0,1-1.236-1.236V303.24H205.8V305.2a1.241,1.241,0,0,1-1.264,1.264H199.5a1.241,1.241,0,0,1-1.241-1.236v-1.957h-3.45v1.957a1.241,1.241,0,0,1-1.241,1.236h-5.033a1.241,1.241,0,0,1-1.241-1.236v-1.957h-3.456v1.957a1.236,1.236,0,0,1-1.236,1.236h-5.033a1.241,1.241,0,0,1-1.241-1.236v-1.957h-3.5v1.957a1.241,1.241,0,0,1-1.241,1.236h-5.033a1.241,1.241,0,0,1-1.241-1.236v-1.957h-3.45v1.957a1.241,1.241,0,0,1-1.225,1.236H155.6a1.236,1.236,0,0,1-1.236-1.236v-1.957h-3.456v1.957a1.236,1.236,0,0,1-1.236,1.236h-5.033a1.241,1.241,0,0,1-1.241-1.236v-1.957h-3.45v1.957a1.241,1.241,0,0,1-1.236,1.236h-5.033a1.241,1.241,0,0,1-1.241-1.236v-1.957h-3.456v1.957a1.236,1.236,0,0,1-1.236,1.236h-5.033a1.241,1.241,0,0,1-1.241-1.236v-1.957h-5.961a1.264,1.264,0,0,0-1.264,1.264v3.16" transform="translate(-9072.641 2818.326)"/><rect class="q" width="7.521" height="7.521" rx="2.22" transform="translate(-8951.21 3117.238)"/><rect class="q" width="7.521" height="7.521" rx="2.22" transform="translate(-8940.233 3117.238)"/><rect class="q" width="7.521" height="7.521" rx="2.22" transform="translate(-8929.263 3117.238)"/><rect class="q" width="7.521" height="7.521" rx="2.22" transform="translate(-8918.285 3117.238)"/><rect class="q" width="7.521" height="7.521" rx="2.22" transform="translate(-8907.313 3117.238)"/><rect class="q" width="7.521" height="7.521" rx="2.22" transform="translate(-8896.342 3117.238)"/><rect class="q" width="7.521" height="7.521" rx="2.22" transform="translate(-8885.365 3117.238)"/><rect class="q" width="7.521" height="7.521" rx="2.22" transform="translate(-8874.394 3117.238)"/><rect class="q" width="7.521" height="7.521" rx="2.22" transform="translate(-8863.416 3117.238)"/><rect class="q" width="7.521" height="7.521" rx="2.22" transform="translate(-8852.445 3117.238)"/><rect class="q" width="7.521" height="7.521" rx="2.22" transform="translate(-8841.474 3117.238)"/><path class="d" d="M236.024,226.221H155.449a5.659,5.659,0,0,1-5.659-5.681h0a5.659,5.659,0,0,1,5.659-5.659h80.575a5.659,5.659,0,0,1,5.642,5.659h0a5.659,5.659,0,0,1-5.642,5.681Z" transform="translate(-9088.307 2857.275)"/><path class="c" d="M236.024,226.221H155.449a5.659,5.659,0,0,1-5.659-5.681h0a5.659,5.659,0,0,1,5.659-5.659h80.575a5.659,5.659,0,0,1,5.642,5.659h0a5.659,5.659,0,0,1-5.642,5.681Z" transform="translate(-9088.189 2857.069)"/><path class="e" d="M301.451,222.943a1.733,1.733,0,1,0-2.768.352,1.8,1.8,0,0,0,2.147.263,1.448,1.448,0,0,0,.352-.263A1.469,1.469,0,0,0,301.451,222.943Z" transform="translate(-9153.734 2854.871)"/><path class="r" d="M221,368.449v-.559A3.813,3.813,0,0,1,221,368.449Z" transform="translate(-9119.696 2789.828)"/><text class="s" transform="translate(-8913.608 3079.867)"><tspan x="0" y="0">No domain</tspan></text></g></svg>