<svg xmlns="http://www.w3.org/2000/svg" width="179.739" height="132.265" viewBox="0 0 179.739 132.265"><defs><style>.a,.d{fill:none;stroke-miterlimit:10;}.a{stroke:#7c7c7c;stroke-width:2px;}.b{fill:#0c4474;}.c{fill:#337ab7;}.d{stroke:#337ab7;stroke-width:3px;}.e{fill:#7c7c7c;}</style></defs><g transform="translate(-604 -176)"><path class="a" d="M1902.32,680.11c-14.2,0-28.41.023-42.614-.011-5.585-.013-10.766-1.378-14.915-5.346-5.469-5.23-6.887-11.934-6.384-19.138.543-7.758,4.886-12.849,11.964-15.631a32.244,32.244,0,0,1,7.5-1.964c1.7-.225,1.883-1.077,2.259-2.357a60.774,60.774,0,0,1,3.246-9.684,24.133,24.133,0,0,1,18.783-13.894c9.1-1.465,17.256.268,24.08,6.752a29.364,29.364,0,0,1,3.485,3.982,1.777,1.777,0,0,0,2.58.694,24.659,24.659,0,0,1,18.729-.649c9.122,3.371,14.1,10.732,14.3,20.982a1.749,1.749,0,0,0,1.584,2c9.905,2.6,14.255,10.19,13.084,20.067a20.576,20.576,0,0,1-1.842,6.312,12.927,12.927,0,0,1-12.4,7.877Q1924.042,680.144,1902.32,680.11Z" transform="translate(-1196.276 -405.816)"/><rect class="b" width="12.633" height="4.111" transform="matrix(0.702, -0.713, 0.713, 0.702, 698.004, 257.524)"/><rect class="c" width="47.38" height="9.914" rx="2.881" transform="matrix(0.702, -0.713, 0.713, 0.702, 663.38, 288.562)"/><path class="d" d="M1939.156,587.132a37.918,37.918,0,1,0,38.216,37.619A37.919,37.919,0,0,0,1939.156,587.132Zm.543,68.884a30.968,30.968,0,1,1,30.722-31.21A30.968,30.968,0,0,1,1939.7,656.016Z" transform="translate(-1204.68 -402.563)"/><g transform="translate(740.622 200.06)"><path class="c" d="M1952.53,605a4.613,4.613,0,0,1-.518,1.547,22.814,22.814,0,0,1,12.409,9.9,3.717,3.717,0,0,1,1.235-1.11A24.462,24.462,0,0,0,1952.53,605Z" transform="translate(-1952.012 -604.999)"/></g><rect class="c" width="4.263" height="4.263" transform="translate(657.229 262.057)"/><rect class="c" width="4.263" height="4.263" transform="translate(664.415 262.057)"/><rect class="e" width="6.141" height="4.263" transform="translate(761.559 295.277)"/><rect class="e" width="6.141" height="4.263" transform="translate(746.212 304.002)"/><rect class="e" width="4.263" height="4.263" transform="translate(707.665 295.277)"/><rect class="c" width="7.87" height="4.263" transform="translate(724.438 285.938)"/><rect class="c" width="7.87" height="4.263" transform="translate(716.568 295.277)"/><rect class="c" width="29.11" height="4.263" transform="translate(728.815 295.277)"/><rect class="c" width="29.11" height="4.263" transform="translate(754.628 304.002)"/><rect class="c" width="6.141" height="4.263" transform="translate(657.894 185.339)"/><rect class="e" width="6.141" height="4.263" transform="translate(642.547 194.064)"/><rect class="c" width="4.263" height="4.263" transform="translate(604 185.339)"/><rect class="e" width="7.87" height="4.263" transform="translate(620.773 176)"/><rect class="e" width="7.87" height="4.263" transform="translate(612.903 185.339)"/><rect class="c" width="29.11" height="4.263" transform="translate(625.15 185.339)"/><rect class="c" width="29.11" height="4.263" transform="translate(650.964 194.064)"/></g></svg>