<svg width="349" height="42" viewBox="0 0 349 42" fill="none" xmlns="http://www.w3.org/2000/svg">
<rect width="93" height="42" rx="5" fill="#D5D9DC"/>
<path d="M12.4167 14.25C12.4167 12.248 14.0396 10.625 16.0417 10.625H32.9583C34.9604 10.625 36.5833 12.248 36.5833 14.25V28.75C36.5833 30.752 34.9604 32.375 32.9583 32.375H16.0417C14.0396 32.375 12.4167 30.752 12.4167 28.75V14.25Z" fill="#5D6164"/>
<path d="M12.4167 14.25C12.4167 12.2479 14.0397 10.625 16.0417 10.625L19.6667 10.625V32.375H16.0417C14.0397 32.375 12.4167 30.752 12.4167 28.75L12.4167 14.25Z" fill="#8F9396"/>
<path d="M19.6667 10.625L20.875 10.625V32.375H19.6667L19.6667 10.625Z" fill="black" fill-opacity="0.2"/>
<path d="M28.8983 25.85H23.7267C23.5736 25.85 23.4608 25.8178 23.3883 25.7533C23.3239 25.6808 23.2917 25.568 23.2917 25.415V23.9529C23.2917 23.7998 23.3239 23.6911 23.3883 23.6266C23.4608 23.5541 23.5736 23.5179 23.7267 23.5179H25.08V19.4821H23.9683C23.8153 19.4821 23.7025 19.4498 23.63 19.3854C23.5655 19.3129 23.5333 19.2001 23.5333 19.0471V17.585C23.5333 17.4319 23.5655 17.3232 23.63 17.2587C23.7025 17.1862 23.8153 17.15 23.9683 17.15H27.4725C27.6255 17.15 27.7343 17.1862 27.7987 17.2587C27.8712 17.3232 27.9075 17.4319 27.9075 17.585V23.5179H28.8983C29.0514 23.5179 29.1601 23.5541 29.2246 23.6266C29.2971 23.6911 29.3333 23.7998 29.3333 23.9529V25.415C29.3333 25.568 29.2971 25.6808 29.2246 25.7533C29.1601 25.8178 29.0514 25.85 28.8983 25.85Z" fill="white"/>
<path d="M49.7666 20.7861V21.2139C49.7666 21.8021 49.6863 22.3298 49.5257 22.7968C49.3651 23.2638 49.1355 23.6613 48.8367 23.9893C48.5417 24.3173 48.1869 24.5686 47.7724 24.7433C47.3579 24.9144 46.8986 25 46.3945 25C45.8941 25 45.4366 24.9144 45.0221 24.7433C44.6114 24.5686 44.2547 24.3173 43.9522 23.9893C43.6498 23.6613 43.4145 23.2638 43.2465 22.7968C43.0822 22.3298 43 21.8021 43 21.2139V20.7861C43 20.1979 43.0822 19.672 43.2465 19.2086C43.4108 18.7415 43.6423 18.344 43.941 18.016C44.2435 17.6845 44.6001 17.4332 45.0109 17.262C45.4254 17.0873 45.8829 17 46.3833 17C46.8874 17 47.3467 17.0873 47.7612 17.262C48.1757 17.4332 48.5324 17.6845 48.8311 18.016C49.1299 18.344 49.3595 18.7415 49.5201 19.2086C49.6844 19.672 49.7666 20.1979 49.7666 20.7861ZM48.3606 21.2139V20.7754C48.3606 20.3405 48.3158 19.9572 48.2262 19.6257C48.1403 19.2906 48.0114 19.0107 47.8397 18.7861C47.6716 18.5579 47.4644 18.3868 47.2179 18.2727C46.9714 18.1551 46.6932 18.0963 46.3833 18.0963C46.0733 18.0963 45.797 18.1551 45.5543 18.2727C45.3115 18.3868 45.1043 18.5579 44.9325 18.7861C44.7645 19.0107 44.6356 19.2906 44.546 19.6257C44.4564 19.9572 44.4116 20.3405 44.4116 20.7754V21.2139C44.4116 21.6488 44.4564 22.0339 44.546 22.369C44.6356 22.7041 44.7663 22.9875 44.9381 23.2193C45.1136 23.4474 45.3227 23.6203 45.5655 23.738C45.8082 23.8521 46.0845 23.9091 46.3945 23.9091C46.7082 23.9091 46.9864 23.8521 47.2291 23.738C47.4718 23.6203 47.6772 23.4474 47.8453 23.2193C48.0133 22.9875 48.1403 22.7041 48.2262 22.369C48.3158 22.0339 48.3606 21.6488 48.3606 21.2139Z" fill="#3F4346"/>
<path d="M52.3768 20.3422V24.893H51.0269V19.107H52.2984L52.3768 20.3422ZM52.136 21.7861L51.6991 21.7807C51.7028 21.3708 51.7625 20.9947 51.8783 20.6524C51.9978 20.3102 52.1621 20.016 52.3712 19.7701C52.5841 19.5241 52.838 19.3351 53.133 19.2032C53.428 19.0677 53.7567 19 54.1189 19C54.4102 19 54.6734 19.0392 54.9087 19.1176C55.1477 19.1925 55.3512 19.3155 55.5193 19.4866C55.691 19.6578 55.8217 19.8806 55.9114 20.1551C56.001 20.426 56.0458 20.7594 56.0458 21.1551V24.893H54.6902V21.1497C54.6902 20.8717 54.6473 20.6524 54.5614 20.492C54.4793 20.328 54.3579 20.2121 54.1973 20.1444C54.0405 20.0731 53.8444 20.0374 53.6092 20.0374C53.3776 20.0374 53.1704 20.0838 52.9874 20.1765C52.8044 20.2692 52.6494 20.3957 52.5225 20.5561C52.3992 20.7166 52.304 20.902 52.2368 21.1123C52.1696 21.3226 52.136 21.5472 52.136 21.7861Z" fill="#3F4346"/>
<path d="M60.0956 25C59.6475 25 59.2424 24.9305 58.8801 24.7914C58.5216 24.6488 58.2154 24.451 57.9615 24.1979C57.7113 23.9447 57.519 23.6471 57.3845 23.3048C57.2501 22.9626 57.1829 22.5936 57.1829 22.1979V21.984C57.1829 21.5312 57.252 21.1212 57.3901 20.754C57.5283 20.3868 57.7206 20.0731 57.9671 19.8128C58.2136 19.549 58.5048 19.3476 58.8409 19.2086C59.177 19.0695 59.5411 19 59.9332 19C60.3664 19 60.7454 19.0695 61.0703 19.2086C61.3952 19.3476 61.6641 19.5437 61.8769 19.7968C62.0935 20.0463 62.2541 20.344 62.3586 20.6898C62.4669 21.0357 62.5211 21.4171 62.5211 21.8342V22.385H57.8383V21.4599H61.1879V21.3583C61.1805 21.1266 61.1319 20.9091 61.0423 20.7059C60.9564 20.5027 60.8238 20.3387 60.6446 20.2139C60.4653 20.0891 60.2263 20.0267 59.9276 20.0267C59.7035 20.0267 59.5038 20.0731 59.3282 20.1658C59.1565 20.2549 59.0127 20.385 58.8969 20.5561C58.7812 20.7273 58.6915 20.934 58.6281 21.1765C58.5683 21.4153 58.5384 21.6845 58.5384 21.984V22.1979C58.5384 22.451 58.5739 22.6863 58.6449 22.9037C58.7196 23.1176 58.8278 23.3048 58.9698 23.4652C59.1117 23.6257 59.2834 23.7522 59.4851 23.8449C59.6867 23.934 59.9164 23.9786 60.1741 23.9786C60.4989 23.9786 60.7884 23.9162 61.0423 23.7914C61.2962 23.6667 61.5165 23.4902 61.7033 23.262L62.4146 23.9198C62.2839 24.1016 62.114 24.2763 61.9049 24.4439C61.6958 24.6078 61.44 24.7415 61.1375 24.8449C60.8388 24.9483 60.4915 25 60.0956 25Z" fill="#3F4346"/>
<path d="M69.7414 18.1444L67.3047 24.893H65.8315L68.9011 17.107H69.8422L69.7414 18.1444ZM71.7803 24.893L69.338 18.1444L69.2316 17.107H70.1783L73.2591 24.893H71.7803ZM71.6627 22.0053V23.0695H67.2263V22.0053H71.6627Z" fill="#3F4346"/>
<path d="M77.2697 21.9893H75.1468V20.9251H77.2697C77.6394 20.9251 77.9382 20.8681 78.1659 20.754C78.3937 20.6399 78.5599 20.4831 78.6645 20.2834C78.7728 20.0802 78.8269 19.8485 78.8269 19.5882C78.8269 19.3422 78.7728 19.1123 78.6645 18.8984C78.5599 18.6809 78.3937 18.5062 78.1659 18.3743C77.9382 18.2424 77.6394 18.1765 77.2697 18.1765H75.5781V24.893H74.1721V17.107H77.2697C77.9008 17.107 78.4367 17.2139 78.8773 17.4278C79.3217 17.6381 79.6597 17.9305 79.8912 18.3048C80.1227 18.6756 80.2385 19.0998 80.2385 19.5775C80.2385 20.0802 80.1227 20.5116 79.8912 20.8717C79.6597 21.2317 79.3217 21.508 78.8773 21.7005C78.4367 21.893 77.9008 21.9893 77.2697 21.9893Z" fill="#3F4346"/>
<path d="M83 17.107V24.893H81.594V17.107H83Z" fill="#3F4346"/>
<rect x="271" width="78" height="42" rx="5" fill="#4DA0FF" fill-opacity="0.16"/>
<path d="M283.502 14.25C283.502 12.248 285.182 10.625 287.255 10.625H304.769C306.842 10.625 308.522 12.248 308.522 14.25V23.9167C308.522 25.9187 306.842 27.5417 304.769 27.5417H283.502V14.25Z" fill="#0D4680"/>
<path d="M283.502 14.25C283.502 12.248 285.182 10.625 287.255 10.625H304.9C305.228 10.625 305.553 10.676 305.864 10.776L283.502 32.375V14.25Z" fill="#66BDFF"/>
<path d="M320.908 20.8877C320.908 20.7273 320.883 20.5847 320.833 20.4599C320.787 20.3351 320.703 20.221 320.582 20.1176C320.461 20.0143 320.29 19.9144 320.069 19.8182C319.851 19.7184 319.573 19.6168 319.235 19.5134C318.864 19.3993 318.522 19.2727 318.208 19.1337C317.898 18.9911 317.627 18.8271 317.395 18.6417C317.163 18.4528 316.983 18.2371 316.855 17.9947C316.727 17.7487 316.662 17.4652 316.662 17.1444C316.662 16.8271 316.728 16.5383 316.86 16.2781C316.996 16.0178 317.186 15.7932 317.432 15.6043C317.682 15.4118 317.976 15.2638 318.315 15.1604C318.653 15.0535 319.028 15 319.438 15C320.015 15 320.513 15.107 320.93 15.3209C321.35 15.5348 321.673 15.8217 321.898 16.1818C322.126 16.5419 322.24 16.9394 322.24 17.3743H320.908C320.908 17.1176 320.853 16.8913 320.743 16.6952C320.636 16.4955 320.472 16.3387 320.251 16.2246C320.033 16.1105 319.757 16.0535 319.422 16.0535C319.104 16.0535 318.841 16.1016 318.63 16.1979C318.42 16.2941 318.263 16.4242 318.16 16.5882C318.056 16.7522 318.005 16.9376 318.005 17.1444C318.005 17.2906 318.038 17.4242 318.106 17.5455C318.174 17.6631 318.277 17.7736 318.416 17.877C318.555 17.9768 318.73 18.0713 318.94 18.1604C319.151 18.2496 319.399 18.3351 319.684 18.4171C320.115 18.5455 320.491 18.6881 320.812 18.8449C321.133 18.9982 321.4 19.1729 321.614 19.369C321.828 19.5651 321.989 19.7879 322.095 20.0374C322.202 20.2834 322.256 20.5633 322.256 20.877C322.256 21.205 322.19 21.5009 322.058 21.7647C321.926 22.025 321.737 22.2478 321.491 22.4332C321.249 22.615 320.956 22.7558 320.614 22.8556C320.276 22.9519 319.898 23 319.481 23C319.106 23 318.737 22.9501 318.374 22.8503C318.013 22.7504 317.686 22.5989 317.39 22.3957C317.094 22.1889 316.858 21.9323 316.684 21.6257C316.509 21.3155 316.422 20.9537 316.422 20.5401H317.764C317.764 20.7932 317.807 21.0089 317.892 21.1872C317.981 21.3654 318.104 21.5116 318.261 21.6257C318.418 21.7362 318.6 21.8182 318.807 21.8717C319.017 21.9251 319.242 21.9519 319.481 21.9519C319.794 21.9519 320.056 21.9073 320.267 21.8182C320.481 21.7291 320.641 21.6043 320.748 21.4439C320.855 21.2834 320.908 21.098 320.908 20.8877Z" fill="#3F4346"/>
<path d="M323.989 15.107H325.186L327.438 21.1123L329.684 15.107H330.882L327.908 22.893H326.956L323.989 15.107ZM323.443 15.107H324.582L324.78 20.3048V22.893H323.443V15.107ZM330.288 15.107H331.432V22.893H330.09V20.3048L330.288 15.107Z" fill="#3F4346"/>
<path d="M337.122 20.8877C337.122 20.7273 337.097 20.5847 337.047 20.4599C337.001 20.3351 336.917 20.221 336.796 20.1176C336.675 20.0143 336.504 19.9144 336.283 19.8182C336.065 19.7184 335.787 19.6168 335.448 19.5134C335.078 19.3993 334.735 19.2727 334.422 19.1337C334.112 18.9911 333.841 18.8271 333.609 18.6417C333.377 18.4528 333.197 18.2371 333.069 17.9947C332.94 17.7487 332.876 17.4652 332.876 17.1444C332.876 16.8271 332.942 16.5383 333.074 16.2781C333.21 16.0178 333.4 15.7932 333.646 15.6043C333.896 15.4118 334.19 15.2638 334.529 15.1604C334.867 15.0535 335.242 15 335.652 15C336.229 15 336.727 15.107 337.144 15.3209C337.564 15.5348 337.887 15.8217 338.112 16.1818C338.34 16.5419 338.454 16.9394 338.454 17.3743H337.122C337.122 17.1176 337.067 16.8913 336.956 16.6952C336.85 16.4955 336.686 16.3387 336.464 16.2246C336.247 16.1105 335.971 16.0535 335.636 16.0535C335.318 16.0535 335.054 16.1016 334.844 16.1979C334.634 16.2941 334.477 16.4242 334.374 16.5882C334.27 16.7522 334.218 16.9376 334.218 17.1444C334.218 17.2906 334.252 17.4242 334.32 17.5455C334.388 17.6631 334.491 17.7736 334.63 17.877C334.769 17.9768 334.944 18.0713 335.154 18.1604C335.365 18.2496 335.612 18.3351 335.898 18.4171C336.329 18.5455 336.705 18.6881 337.026 18.8449C337.347 18.9982 337.614 19.1729 337.828 19.369C338.042 19.5651 338.202 19.7879 338.309 20.0374C338.416 20.2834 338.47 20.5633 338.47 20.877C338.47 21.205 338.404 21.5009 338.272 21.7647C338.14 22.025 337.951 22.2478 337.705 22.4332C337.463 22.615 337.17 22.7558 336.828 22.8556C336.489 22.9519 336.112 23 335.694 23C335.32 23 334.951 22.9501 334.587 22.8503C334.227 22.7504 333.899 22.5989 333.604 22.3957C333.308 22.1889 333.072 21.9323 332.898 21.6257C332.723 21.3155 332.636 20.9537 332.636 20.5401H333.978C333.978 20.7932 334.021 21.0089 334.106 21.1872C334.195 21.3654 334.318 21.5116 334.475 21.6257C334.632 21.7362 334.814 21.8182 335.021 21.8717C335.231 21.9251 335.456 21.9519 335.694 21.9519C336.008 21.9519 336.27 21.9073 336.481 21.8182C336.694 21.7291 336.855 21.6043 336.962 21.4439C337.069 21.2834 337.122 21.098 337.122 20.8877Z" fill="#3F4346"/>
<path d="M117.486 20.5668L114 17.0732L115.073 16L119.64 20.5668L115.073 25.1336L114 24.0604L117.486 20.5668Z" fill="url(#paint0_linear_8634_28623)"/>
<path d="M127.486 20.5668L124 17.0732L125.073 16L129.64 20.5668L125.073 25.1336L124 24.0604L127.486 20.5668Z" fill="url(#paint1_linear_8634_28623)"/>
<path d="M134 17.0732L137.486 20.5668L134 24.0604L135.073 25.1336L139.64 20.5668L135.073 16L134 17.0732Z" fill="url(#paint2_linear_8634_28623)"/>
<path d="M147.486 20.5668L144 17.0732L145.073 16L149.64 20.5668L145.073 25.1336L144 24.0604L147.486 20.5668Z" fill="url(#paint3_linear_8634_28623)"/>
<path d="M154 17.0732L157.486 20.5668L154 24.0604L155.073 25.1336L159.64 20.5668L155.073 16L154 17.0732Z" fill="url(#paint4_linear_8634_28623)"/>
<path d="M167.486 20.5668L164 17.0732L165.073 16L169.64 20.5668L165.073 25.1336L164 24.0604L167.486 20.5668Z" fill="url(#paint5_linear_8634_28623)"/>
<path d="M174 17.0732L177.486 20.5668L174 24.0604L175.073 25.1336L179.64 20.5668L175.073 16L174 17.0732Z" fill="url(#paint6_linear_8634_28623)"/>
<path d="M187.486 20.5668L184 17.0732L185.073 16L189.64 20.5668L185.073 25.1336L184 24.0604L187.486 20.5668Z" fill="url(#paint7_linear_8634_28623)"/>
<path d="M194 17.0732L197.486 20.5668L194 24.0604L195.073 25.1336L199.64 20.5668L195.073 16L194 17.0732Z" fill="url(#paint8_linear_8634_28623)"/>
<path d="M207.486 20.5668L204 17.0732L205.073 16L209.64 20.5668L205.073 25.1336L204 24.0604L207.486 20.5668Z" fill="url(#paint9_linear_8634_28623)"/>
<path d="M214 17.0732L217.486 20.5668L214 24.0604L215.073 25.1336L219.64 20.5668L215.073 16L214 17.0732Z" fill="url(#paint10_linear_8634_28623)"/>
<path d="M227.486 20.5668L224 17.0732L225.073 16L229.64 20.5668L225.073 25.1336L224 24.0604L227.486 20.5668Z" fill="url(#paint11_linear_8634_28623)"/>
<path d="M234 17.0732L237.486 20.5668L234 24.0604L235.073 25.1336L239.64 20.5668L235.073 16L234 17.0732Z" fill="url(#paint12_linear_8634_28623)"/>
<path d="M247.486 20.5668L244 17.0732L245.073 16L249.64 20.5668L245.073 25.1336L244 24.0604L247.486 20.5668Z" fill="url(#paint13_linear_8634_28623)"/>
<defs>
<linearGradient id="paint0_linear_8634_28623" x1="250" y1="20.1336" x2="7.5" y2="20.1335" gradientUnits="userSpaceOnUse">
<stop stop-color="#010101"/>
<stop offset="1" stop-color="#D9D9D9" stop-opacity="0"/>
</linearGradient>
<linearGradient id="paint1_linear_8634_28623" x1="250" y1="20.1336" x2="7.5" y2="20.1335" gradientUnits="userSpaceOnUse">
<stop stop-color="#010101"/>
<stop offset="1" stop-color="#D9D9D9" stop-opacity="0"/>
</linearGradient>
<linearGradient id="paint2_linear_8634_28623" x1="250" y1="20.1336" x2="7.5" y2="20.1335" gradientUnits="userSpaceOnUse">
<stop stop-color="#010101"/>
<stop offset="1" stop-color="#D9D9D9" stop-opacity="0"/>
</linearGradient>
<linearGradient id="paint3_linear_8634_28623" x1="250" y1="20.1336" x2="7.5" y2="20.1335" gradientUnits="userSpaceOnUse">
<stop stop-color="#010101"/>
<stop offset="1" stop-color="#D9D9D9" stop-opacity="0"/>
</linearGradient>
<linearGradient id="paint4_linear_8634_28623" x1="250" y1="20.1336" x2="7.5" y2="20.1335" gradientUnits="userSpaceOnUse">
<stop stop-color="#010101"/>
<stop offset="1" stop-color="#D9D9D9" stop-opacity="0"/>
</linearGradient>
<linearGradient id="paint5_linear_8634_28623" x1="250" y1="20.1336" x2="7.5" y2="20.1335" gradientUnits="userSpaceOnUse">
<stop stop-color="#010101"/>
<stop offset="1" stop-color="#D9D9D9" stop-opacity="0"/>
</linearGradient>
<linearGradient id="paint6_linear_8634_28623" x1="250" y1="20.1336" x2="7.5" y2="20.1335" gradientUnits="userSpaceOnUse">
<stop stop-color="#010101"/>
<stop offset="1" stop-color="#D9D9D9" stop-opacity="0"/>
</linearGradient>
<linearGradient id="paint7_linear_8634_28623" x1="250" y1="20.1336" x2="7.5" y2="20.1335" gradientUnits="userSpaceOnUse">
<stop stop-color="#010101"/>
<stop offset="1" stop-color="#D9D9D9" stop-opacity="0"/>
</linearGradient>
<linearGradient id="paint8_linear_8634_28623" x1="250" y1="20.1336" x2="7.5" y2="20.1335" gradientUnits="userSpaceOnUse">
<stop stop-color="#010101"/>
<stop offset="1" stop-color="#D9D9D9" stop-opacity="0"/>
</linearGradient>
<linearGradient id="paint9_linear_8634_28623" x1="250" y1="20.1336" x2="7.5" y2="20.1335" gradientUnits="userSpaceOnUse">
<stop stop-color="#010101"/>
<stop offset="1" stop-color="#D9D9D9" stop-opacity="0"/>
</linearGradient>
<linearGradient id="paint10_linear_8634_28623" x1="250" y1="20.1336" x2="7.5" y2="20.1335" gradientUnits="userSpaceOnUse">
<stop stop-color="#010101"/>
<stop offset="1" stop-color="#D9D9D9" stop-opacity="0"/>
</linearGradient>
<linearGradient id="paint11_linear_8634_28623" x1="250" y1="20.1336" x2="7.5" y2="20.1335" gradientUnits="userSpaceOnUse">
<stop stop-color="#010101"/>
<stop offset="1" stop-color="#D9D9D9" stop-opacity="0"/>
</linearGradient>
<linearGradient id="paint12_linear_8634_28623" x1="250" y1="20.1336" x2="7.5" y2="20.1335" gradientUnits="userSpaceOnUse">
<stop stop-color="#010101"/>
<stop offset="1" stop-color="#D9D9D9" stop-opacity="0"/>
</linearGradient>
<linearGradient id="paint13_linear_8634_28623" x1="250" y1="20.1336" x2="7.5" y2="20.1335" gradientUnits="userSpaceOnUse">
<stop stop-color="#010101"/>
<stop offset="1" stop-color="#D9D9D9" stop-opacity="0"/>
</linearGradient>
</defs>
</svg>
