<svg width="20" height="21" viewBox="0 0 20 21" fill="none" xmlns="http://www.w3.org/2000/svg">
<path d="M1.95455 10.7091L2.72727 9.36364L3.5 10.7091L4.68182 10.0273L3.90909 8.68182H5.45455V7.31819H3.90909L4.68182 5.98182L3.5 5.3L2.72727 6.63637L1.95455 5.3L0.772727 5.98182L1.54545 7.31819H0V8.68182H1.54545L0.772727 10.0273L1.95455 10.7091ZM8.04545 10.0273L9.22727 10.7091L10 9.36364L10.7727 10.7091L11.9545 10.0273L11.1818 8.68182H12.7273V7.31819H11.1818L11.9545 5.98182L10.7727 5.3L10 6.63637L9.22727 5.3L8.04545 5.98182L8.81818 7.31819H7.27273V8.68182H8.81818L8.04545 10.0273ZM20 7.31819H18.4545L19.2273 5.98182L18.0455 5.3L17.2727 6.63637L16.5 5.3L15.3182 5.98182L16.0909 7.31819H14.5455V8.68182H16.0909L15.3182 10.0273L16.5 10.7091L17.2727 9.36364L18.0455 10.7091L19.2273 10.0273L18.4545 8.68182H20V7.31819Z" fill="#212528"/>
<path fill-rule="evenodd" clip-rule="evenodd" d="M0 2C0 0.89543 0.895431 0 2 0H18C19.1046 0 20 0.89543 20 2V3.5H18V2H2V3.5H0V2ZM2 15.4768V12.5H0V20.0232L4.38898 16H18C19.1046 16 20 15.1046 20 14V12.5H18V14H3.61102L2 15.4768Z" fill="#212528"/>
</svg>
