<svg width="166" height="172" viewBox="0 0 166 172" fill="none" xmlns="http://www.w3.org/2000/svg">
<g clip-path="url(#clip0_626_60196)">
<g filter="url(#filter0_d_626_60196)">
<g clip-path="url(#clip1_626_60196)">
<rect x="8" y="8" width="150" height="268" rx="4" fill="white"/>
<path d="M8 11.5C8 9.29086 9.79086 7.5 12 7.5H154C156.209 7.5 158 9.29086 158 11.5V59.0872C158 67.9238 150.837 75.0872 142 75.0872H24C15.1634 75.0872 8 67.9238 8 59.0872V11.5Z" fill="#1E75BA"/>
<path d="M18.3642 28.8662V19.7838H19.7345V23.7307H24.2624V19.7838H25.6372V28.8662H24.2624V24.9059H19.7345V28.8662H18.3642ZM27.5264 28.8662V22.0544H28.8524V28.8662H27.5264ZM28.1961 21.0033C27.9655 21.0033 27.7674 20.9265 27.6018 20.7727C27.4392 20.616 27.3579 20.4298 27.3579 20.2139C27.3579 19.9952 27.4392 19.8089 27.6018 19.6551C27.7674 19.4985 27.9655 19.4201 28.1961 19.4201C28.4267 19.4201 28.6233 19.4985 28.7859 19.6551C28.9515 19.8089 29.0343 19.9952 29.0343 20.2139C29.0343 20.4298 28.9515 20.616 28.7859 20.7727C28.6233 20.9265 28.4267 21.0033 28.1961 21.0033ZM37.1211 22.0544V23.1187H33.4003V22.0544H37.1211ZM34.3981 20.4224H35.7241V26.8661C35.7241 27.1233 35.7626 27.317 35.8395 27.4471C35.9163 27.5742 36.0154 27.6614 36.1366 27.7087C36.2608 27.7531 36.3953 27.7753 36.5402 27.7753C36.6466 27.7753 36.7397 27.7679 36.8195 27.7531C36.8994 27.7383 36.9615 27.7265 37.0058 27.7176L37.2453 28.813C37.1684 28.8426 37.059 28.8721 36.9171 28.9017C36.7752 28.9342 36.5978 28.952 36.3849 28.9549C36.0361 28.9608 35.7108 28.8987 35.4093 28.7686C35.1077 28.6386 34.8638 28.4375 34.6775 28.1655C34.4913 27.8935 34.3981 27.552 34.3981 27.1411V20.4224ZM40.0603 24.8217V28.8662H38.7343V19.7838H40.0425V23.1631H40.1268C40.2864 22.7965 40.5304 22.5052 40.8585 22.2894C41.1867 22.0736 41.6154 21.9657 42.1446 21.9657C42.6117 21.9657 43.0197 22.0618 43.3686 22.2539C43.7204 22.4461 43.9924 22.7329 44.1846 23.1143C44.3798 23.4927 44.4773 23.9658 44.4773 24.5334V28.8662H43.1513V24.6931C43.1513 24.1934 43.0227 23.8061 42.7655 23.5312C42.5083 23.2532 42.1505 23.1143 41.6923 23.1143C41.3789 23.1143 41.098 23.1808 40.8497 23.3139C40.6043 23.4469 40.4106 23.642 40.2687 23.8992C40.1297 24.1535 40.0603 24.461 40.0603 24.8217ZM49.1826 29.0037C48.5115 29.0037 47.9335 28.8603 47.4486 28.5735C46.9667 28.2838 46.5942 27.8773 46.3311 27.3539C46.0709 26.8277 45.9408 26.2112 45.9408 25.5046C45.9408 24.8069 46.0709 24.1919 46.3311 23.6598C46.5942 23.1276 46.9608 22.7122 47.4309 22.4136C47.9039 22.115 48.4568 21.9657 49.0895 21.9657C49.4739 21.9657 49.8464 22.0292 50.2071 22.1564C50.5678 22.2835 50.8915 22.4831 51.1783 22.7551C51.4651 23.0271 51.6912 23.3804 51.8568 23.815C52.0224 24.2466 52.1052 24.7714 52.1052 25.3893V25.8594H46.6903V24.866H50.8058C50.8058 24.5172 50.7348 24.2082 50.5929 23.9392C50.451 23.6672 50.2514 23.4528 49.9942 23.2961C49.7399 23.1394 49.4413 23.0611 49.0984 23.0611C48.7258 23.0611 48.4006 23.1527 48.1227 23.336C47.8478 23.5164 47.6349 23.7529 47.4841 24.0456C47.3363 24.3353 47.2624 24.6502 47.2624 24.9902V25.7663C47.2624 26.2216 47.3422 26.6089 47.5018 26.9282C47.6645 27.2475 47.8906 27.4914 48.1804 27.6599C48.4701 27.8255 48.8086 27.9083 49.1959 27.9083C49.4472 27.9083 49.6764 27.8728 49.8833 27.8019C50.0903 27.7279 50.2692 27.6186 50.4199 27.4737C50.5707 27.3288 50.686 27.1499 50.7659 26.9371L52.0209 27.1633C51.9204 27.5328 51.74 27.8566 51.4799 28.1345C51.2226 28.4094 50.8989 28.6238 50.5086 28.7775C50.1213 28.9283 49.6793 29.0037 49.1826 29.0037ZM53.5764 28.8662V22.0544H54.8581V23.1365H54.929C55.0532 22.7699 55.272 22.4816 55.5854 22.2717C55.9017 22.0588 56.2594 21.9524 56.6586 21.9524C56.7414 21.9524 56.8389 21.9553 56.9513 21.9612C57.0666 21.9672 57.1568 21.9745 57.2218 21.9834V23.2518C57.1686 23.237 57.074 23.2207 56.938 23.203C56.802 23.1823 56.666 23.1719 56.53 23.1719C56.2166 23.1719 55.9372 23.2385 55.6918 23.3715C55.4494 23.5016 55.2572 23.6834 55.1153 23.917C54.9734 24.1476 54.9024 24.4107 54.9024 24.7064V28.8662H53.5764ZM61.0612 29.0037C60.3901 29.0037 59.8121 28.8603 59.3272 28.5735C58.8453 28.2838 58.4728 27.8773 58.2096 27.3539C57.9495 26.8277 57.8194 26.2112 57.8194 25.5046C57.8194 24.8069 57.9495 24.1919 58.2096 23.6598C58.4728 23.1276 58.8394 22.7122 59.3095 22.4136C59.7825 22.115 60.3354 21.9657 60.9681 21.9657C61.3524 21.9657 61.725 22.0292 62.0857 22.1564C62.4464 22.2835 62.7701 22.4831 63.0569 22.7551C63.3437 23.0271 63.5698 23.3804 63.7354 23.815C63.901 24.2466 63.9837 24.7714 63.9837 25.3893V25.8594H58.5689V24.866H62.6844C62.6844 24.5172 62.6134 24.2082 62.4715 23.9392C62.3296 23.6672 62.13 23.4528 61.8728 23.2961C61.6185 23.1394 61.3199 23.0611 60.977 23.0611C60.6044 23.0611 60.2792 23.1527 60.0013 23.336C59.7263 23.5164 59.5135 23.7529 59.3627 24.0456C59.2149 24.3353 59.141 24.6502 59.141 24.9902V25.7663C59.141 26.2216 59.2208 26.6089 59.3804 26.9282C59.543 27.2475 59.7692 27.4914 60.059 27.6599C60.3487 27.8255 60.6872 27.9083 61.0745 27.9083C61.3258 27.9083 61.555 27.8728 61.7619 27.8019C61.9689 27.7279 62.1477 27.6186 62.2985 27.4737C62.4493 27.3288 62.5646 27.1499 62.6444 26.9371L63.8995 27.1633C63.799 27.5328 63.6186 27.8566 63.3584 28.1345C63.1012 28.4094 62.7775 28.6238 62.3872 28.7775C61.9999 28.9283 61.5579 29.0037 61.0612 29.0037ZM67.1269 19.7838L67.0116 26.2541H65.7832L65.6679 19.7838H67.1269ZM66.3996 28.9505C66.1542 28.9505 65.9443 28.8647 65.7699 28.6933C65.5954 28.5188 65.5097 28.3089 65.5126 28.0635C65.5097 27.8211 65.5954 27.6141 65.7699 27.4426C65.9443 27.2682 66.1542 27.181 66.3996 27.181C66.6391 27.181 66.846 27.2682 67.0205 27.4426C67.1949 27.6141 67.2836 27.8211 67.2866 28.0635C67.2836 28.2261 67.2407 28.3754 67.1579 28.5114C67.0781 28.6445 66.9717 28.7509 66.8386 28.8307C66.7056 28.9106 66.5593 28.9505 66.3996 28.9505Z" fill="white"/>
<path d="M18.4705 41.8662H17.6058L20.107 35.0544H20.9585L23.4597 41.8662H22.5949L20.5593 36.132H20.5061L18.4705 41.8662ZM18.7898 39.2053H22.2756V39.9371H18.7898V39.2053ZM26.316 36.7573V37.4226H23.6684V36.7573H26.316ZM24.44 35.5333H25.225V40.4027C25.225 40.6245 25.2572 40.7908 25.3215 40.9016C25.388 41.0103 25.4722 41.0835 25.5742 41.1212C25.6785 41.1566 25.7882 41.1744 25.9035 41.1744C25.99 41.1744 26.061 41.1699 26.1164 41.1611C26.1718 41.15 26.2162 41.1411 26.2494 41.1345L26.4091 41.8396C26.3559 41.8596 26.2816 41.8795 26.1862 41.8995C26.0909 41.9216 25.97 41.9327 25.8237 41.9327C25.602 41.9327 25.3847 41.8851 25.1718 41.7897C24.9611 41.6944 24.786 41.5491 24.6463 41.354C24.5088 41.1589 24.44 40.9127 24.44 40.6156V35.5333ZM30.6366 43.782C30.5035 43.782 30.3849 43.771 30.2807 43.7488C30.1764 43.7288 30.1044 43.7089 30.0645 43.6889L30.264 42.9971C30.4547 43.0459 30.6232 43.0636 30.7696 43.0503C30.9159 43.037 31.0457 42.9716 31.1587 42.8541C31.2741 42.7388 31.3794 42.5514 31.4747 42.292L31.6211 41.8928L29.7319 36.7573H30.5833L31.9936 40.8285H32.0468L33.4571 36.7573H34.3086L32.1399 42.6113C32.0424 42.8751 31.9215 43.0935 31.7774 43.2665C31.6333 43.4417 31.4659 43.5714 31.2752 43.6556C31.0867 43.7399 30.8738 43.782 30.6366 43.782ZM37.2372 41.9726C36.776 41.9726 36.3713 41.8629 36.0232 41.6434C35.6772 41.4238 35.4067 41.1167 35.2116 40.722C35.0187 40.3273 34.9222 39.8661 34.9222 39.3384C34.9222 38.8062 35.0187 38.3417 35.2116 37.9447C35.4067 37.5478 35.6772 37.2396 36.0232 37.0201C36.3713 36.8006 36.776 36.6908 37.2372 36.6908C37.6984 36.6908 38.102 36.8006 38.4479 37.0201C38.796 37.2396 39.0665 37.5478 39.2594 37.9447C39.4546 38.3417 39.5521 38.8062 39.5521 39.3384C39.5521 39.8661 39.4546 40.3273 39.2594 40.722C39.0665 41.1167 38.796 41.4238 38.4479 41.6434C38.102 41.8629 37.6984 41.9726 37.2372 41.9726ZM37.2372 41.2675C37.5875 41.2675 37.8758 41.1777 38.102 40.9981C38.3281 40.8185 38.4956 40.5823 38.6042 40.2896C38.7129 39.9969 38.7672 39.6799 38.7672 39.3384C38.7672 38.9969 38.7129 38.6787 38.6042 38.3838C38.4956 38.0889 38.3281 37.8505 38.102 37.6687C37.8758 37.4869 37.5875 37.3959 37.2372 37.3959C36.8868 37.3959 36.5986 37.4869 36.3724 37.6687C36.1462 37.8505 35.9788 38.0889 35.8702 38.3838C35.7615 38.6787 35.7072 38.9969 35.7072 39.3384C35.7072 39.6799 35.7615 39.9969 35.8702 40.2896C35.9788 40.5823 36.1462 40.8185 36.3724 40.9981C36.5986 41.1777 36.8868 41.2675 37.2372 41.2675ZM43.97 39.7774V36.7573H44.755V41.8662H43.97V41.0014H43.9168C43.7971 41.2609 43.6108 41.4815 43.358 41.6633C43.1052 41.8429 42.7859 41.9327 42.4001 41.9327C42.0808 41.9327 41.797 41.8629 41.5486 41.7232C41.3003 41.5813 41.1052 41.3684 40.9632 41.0846C40.8213 40.7985 40.7504 40.4382 40.7504 40.0036V36.7573H41.5353V39.9504C41.5353 40.3229 41.6395 40.62 41.848 40.8418C42.0586 41.0635 42.3269 41.1744 42.6529 41.1744C42.848 41.1744 43.0465 41.1245 43.2483 41.0247C43.4523 40.9249 43.623 40.7719 43.7605 40.5657C43.9002 40.3595 43.97 40.0967 43.97 39.7774ZM46.1927 41.8662V36.7573H46.951V37.529H47.0043C47.0974 37.2762 47.2659 37.0711 47.5098 36.9137C47.7537 36.7562 48.0287 36.6775 48.3347 36.6775C48.3923 36.6775 48.4644 36.6786 48.5509 36.6808C48.6374 36.683 48.7028 36.6864 48.7471 36.6908V37.4891C48.7205 37.4824 48.6595 37.4724 48.5642 37.4591C48.4711 37.4436 48.3724 37.4359 48.2682 37.4359C48.0198 37.4359 47.7981 37.488 47.603 37.5922C47.41 37.6942 47.257 37.8361 47.144 38.0179C47.0331 38.1975 46.9776 38.4026 46.9776 38.6332V41.8662H46.1927ZM55.9307 37.9015L55.2255 38.1011C55.1812 37.9836 55.1158 37.8694 55.0293 37.7585C54.945 37.6454 54.8297 37.5523 54.6834 37.4791C54.537 37.4059 54.3497 37.3693 54.1213 37.3693C53.8086 37.3693 53.5481 37.4414 53.3396 37.5855C53.1334 37.7274 53.0303 37.9082 53.0303 38.1277C53.0303 38.3228 53.1013 38.4769 53.2432 38.59C53.3851 38.7031 53.6068 38.7973 53.9084 38.8727L54.6667 39.059C55.1235 39.1699 55.4639 39.3395 55.6879 39.5679C55.9118 39.7941 56.0238 40.0856 56.0238 40.4426C56.0238 40.7353 55.9395 40.997 55.771 41.2276C55.6047 41.4582 55.3719 41.64 55.0725 41.7731C54.7732 41.9061 54.425 41.9726 54.0281 41.9726C53.507 41.9726 53.0758 41.8596 52.7343 41.6334C52.3928 41.4072 52.1766 41.0768 52.0857 40.6422L52.8307 40.4559C52.9017 40.7309 53.0358 40.9371 53.2332 41.0746C53.4328 41.2121 53.6933 41.2808 54.0148 41.2808C54.3807 41.2808 54.6712 41.2032 54.8863 41.048C55.1036 40.8906 55.2122 40.7021 55.2122 40.4826C55.2122 40.3052 55.1501 40.1566 55.026 40.0369C54.9018 39.9149 54.7111 39.824 54.4539 39.7641L53.6024 39.5646C53.1345 39.4537 52.7908 39.2818 52.5713 39.049C52.354 38.814 52.2453 38.5202 52.2453 38.1676C52.2453 37.8793 52.3263 37.6243 52.4882 37.4026C52.6522 37.1809 52.8751 37.0068 53.1567 36.8804C53.4405 36.754 53.762 36.6908 54.1213 36.6908C54.6268 36.6908 55.0237 36.8017 55.312 37.0234C55.6025 37.2452 55.8087 37.5379 55.9307 37.9015ZM59.3474 41.9726C58.8551 41.9726 58.4305 41.864 58.0735 41.6467C57.7187 41.4272 57.4449 41.1212 57.252 40.7287C57.0613 40.334 56.9659 39.875 56.9659 39.3517C56.9659 38.8284 57.0613 38.3672 57.252 37.968C57.4449 37.5667 57.7132 37.254 58.0569 37.0301C58.4028 36.8039 58.8063 36.6908 59.2676 36.6908C59.5337 36.6908 59.7964 36.7352 60.0558 36.8239C60.3153 36.9125 60.5514 37.0567 60.7643 37.2562C60.9772 37.4536 61.1468 37.7152 61.2732 38.0412C61.3996 38.3672 61.4628 38.7685 61.4628 39.2452V39.5779H57.5247V38.8993H60.6645C60.6645 38.6111 60.6069 38.3539 60.4916 38.1277C60.3785 37.9015 60.2166 37.723 60.006 37.5922C59.7975 37.4614 59.5514 37.3959 59.2676 37.3959C58.9549 37.3959 58.6844 37.4736 58.456 37.6288C58.2298 37.7818 58.0558 37.9813 57.9338 38.2275C57.8118 38.4736 57.7509 38.7375 57.7509 39.0191V39.4714C57.7509 39.8573 57.8174 40.1843 57.9504 40.4526C58.0857 40.7187 58.2731 40.9216 58.5125 41.0613C58.752 41.1988 59.0303 41.2675 59.3474 41.2675C59.5536 41.2675 59.7399 41.2387 59.9062 41.181C60.0747 41.1212 60.2199 41.0325 60.3419 40.9149C60.4638 40.7952 60.5581 40.6466 60.6246 40.4693L61.383 40.6821C61.3031 40.9393 61.169 41.1655 60.9805 41.3606C60.792 41.5536 60.5592 41.7043 60.282 41.813C60.0048 41.9194 59.6933 41.9726 59.3474 41.9726ZM62.6569 41.8662V36.7573H63.4152V37.529H63.4684C63.5615 37.2762 63.7301 37.0711 63.974 36.9137C64.2179 36.7562 64.4929 36.6775 64.7989 36.6775C64.8565 36.6775 64.9286 36.6786 65.0151 36.6808C65.1015 36.683 65.1669 36.6864 65.2113 36.6908V37.4891C65.1847 37.4824 65.1237 37.4724 65.0284 37.4591C64.9352 37.4436 64.8366 37.4359 64.7323 37.4359C64.484 37.4359 64.2622 37.488 64.0671 37.5922C63.8742 37.6942 63.7212 37.8361 63.6081 38.0179C63.4972 38.1975 63.4418 38.4026 63.4418 38.6332V41.8662H62.6569ZM70.4748 36.7573L68.5856 41.8662H67.7874L65.8981 36.7573H66.7496L68.1599 40.8285H68.2131L69.6234 36.7573H70.4748ZM71.5109 41.8662V36.7573H72.2959V41.8662H71.5109ZM71.91 35.9059C71.757 35.9059 71.6251 35.8537 71.5142 35.7495C71.4056 35.6453 71.3513 35.52 71.3513 35.3737C71.3513 35.2273 71.4056 35.102 71.5142 34.9978C71.6251 34.8936 71.757 34.8415 71.91 34.8415C72.063 34.8415 72.1939 34.8936 72.3025 34.9978C72.4134 35.102 72.4688 35.2273 72.4688 35.3737C72.4688 35.52 72.4134 35.6453 72.3025 35.7495C72.1939 35.8537 72.063 35.9059 71.91 35.9059ZM75.8091 41.9726C75.3301 41.9726 74.9177 41.8596 74.5717 41.6334C74.2258 41.4072 73.9597 41.0957 73.7735 40.6988C73.5872 40.3018 73.4941 39.8484 73.4941 39.3384C73.4941 38.8195 73.5894 38.3616 73.7801 37.9647C73.9731 37.5656 74.2414 37.254 74.5851 37.0301C74.931 36.8039 75.3345 36.6908 75.7958 36.6908C76.155 36.6908 76.4787 36.7573 76.767 36.8904C77.0552 37.0234 77.2914 37.2097 77.4754 37.4492C77.6595 37.6886 77.7737 37.968 77.818 38.2873H77.0331C76.9732 38.0545 76.8401 37.8483 76.6339 37.6687C76.4299 37.4869 76.155 37.3959 75.8091 37.3959C75.5031 37.3959 75.2347 37.4758 75.0041 37.6354C74.7757 37.7929 74.5972 38.0157 74.4686 38.304C74.3422 38.59 74.2791 38.9259 74.2791 39.3118C74.2791 39.7065 74.3411 40.0502 74.4653 40.3429C74.5917 40.6356 74.7691 40.8628 74.9975 41.0247C75.2281 41.1866 75.4986 41.2675 75.8091 41.2675C76.0131 41.2675 76.1982 41.232 76.3645 41.1611C76.5308 41.0901 76.6716 40.9881 76.7869 40.8551C76.9022 40.722 76.9843 40.5624 77.0331 40.3761H77.818C77.7737 40.6777 77.6639 40.9493 77.4887 41.191C77.3158 41.4305 77.0863 41.6212 76.8002 41.7631C76.5164 41.9028 76.186 41.9726 75.8091 41.9726ZM81.1075 41.9726C80.6153 41.9726 80.1906 41.864 79.8336 41.6467C79.4788 41.4272 79.205 41.1212 79.0121 40.7287C78.8214 40.334 78.726 39.875 78.726 39.3517C78.726 38.8284 78.8214 38.3672 79.0121 37.968C79.205 37.5667 79.4733 37.254 79.817 37.0301C80.1629 36.8039 80.5665 36.6908 81.0277 36.6908C81.2938 36.6908 81.5565 36.7352 81.816 36.8239C82.0754 36.9125 82.3116 37.0567 82.5244 37.2562C82.7373 37.4536 82.9069 37.7152 83.0333 38.0412C83.1597 38.3672 83.2229 38.7685 83.2229 39.2452V39.5779H79.2848V38.8993H82.4247C82.4247 38.6111 82.367 38.3539 82.2517 38.1277C82.1386 37.9015 81.9767 37.723 81.7661 37.5922C81.5577 37.4614 81.3115 37.3959 81.0277 37.3959C80.715 37.3959 80.4445 37.4736 80.2161 37.6288C79.99 37.7818 79.8159 37.9813 79.6939 38.2275C79.572 38.4736 79.511 38.7375 79.511 39.0191V39.4714C79.511 39.8573 79.5775 40.1843 79.7106 40.4526C79.8458 40.7187 80.0332 40.9216 80.2727 41.0613C80.5122 41.1988 80.7904 41.2675 81.1075 41.2675C81.3137 41.2675 81.5 41.2387 81.6663 41.181C81.8348 41.1212 81.9801 41.0325 82.102 40.9149C82.224 40.7952 82.3182 40.6466 82.3847 40.4693L83.1431 40.6821C83.0633 40.9393 82.9291 41.1655 82.7406 41.3606C82.5522 41.5536 82.3193 41.7043 82.0422 41.813C81.765 41.9194 81.4534 41.9726 81.1075 41.9726ZM87.0379 41.8662V41.2675L89.2864 38.8062C89.5503 38.5179 89.7676 38.2674 89.9383 38.0545C90.109 37.8394 90.2354 37.6376 90.3175 37.4492C90.4017 37.2585 90.4439 37.0589 90.4439 36.8505C90.4439 36.611 90.3862 36.4037 90.2709 36.2285C90.1578 36.0533 90.0026 35.918 89.8053 35.8227C89.6079 35.7274 89.3862 35.6797 89.14 35.6797C88.8784 35.6797 88.65 35.734 88.4549 35.8427C88.262 35.9491 88.1123 36.0988 88.0058 36.2917C87.9016 36.4846 87.8495 36.7108 87.8495 36.9702H87.0646C87.0646 36.5711 87.1566 36.2207 87.3406 35.9192C87.5247 35.6176 87.7752 35.3825 88.0923 35.214C88.4116 35.0455 88.7697 34.9612 89.1666 34.9612C89.5658 34.9612 89.9195 35.0455 90.2277 35.214C90.5359 35.3825 90.7776 35.6098 90.9528 35.8959C91.1279 36.1819 91.2155 36.5001 91.2155 36.8505C91.2155 37.101 91.1701 37.3461 91.0792 37.5855C90.9905 37.8228 90.8352 38.0878 90.6135 38.3805C90.394 38.6709 90.0891 39.0257 89.6988 39.4448L88.1688 41.0813V41.1345H91.3353V41.8662H87.0379ZM92.4029 40.4693V39.7907L95.3964 35.0544H95.8887V36.1054H95.5561L93.2943 39.6843V39.7375H97.3256V40.4693H92.4029ZM95.6093 41.8662V40.263V39.9471V35.0544H96.3943V41.8662H95.6093ZM100.993 34.7351L98.7982 42.8906H98.0797L100.275 34.7351H100.993ZM102.123 41.8662L105.17 35.8393V35.7861H101.658V35.0544H106.022V35.826L102.988 41.8662H102.123Z" fill="white"/>
<rect x="16.25" y="50.25" width="133.5" height="225.5" rx="3.75" fill="white"/>
<path d="M20.0001 82.5C20.0001 80.2909 21.7909 78.5 24.0001 78.5H86C88.2092 78.5 90 80.2909 90 82.5V92.5C90 94.7091 88.2092 96.5 86 96.5H20.0001V82.5Z" fill="#E2F0FF"/>
<path d="M20.0001 134.5C20.0001 132.291 21.7909 130.5 24.0001 130.5H96C98.2092 130.5 100 132.291 100 134.5V144.5C100 146.709 98.2092 148.5 96 148.5H20.0001V134.5Z" fill="#E2F0FF"/>
<path d="M20.0001 160.5C20.0001 158.291 21.7909 156.5 24.0001 156.5H60C62.2092 156.5 64 158.291 64 160.5V170.5C64 172.709 62.2092 174.5 60 174.5H20.0001V160.5Z" fill="#E2F0FF"/>
<path d="M66 108.5C66 106.291 67.7909 104.5 70 104.5H142C144.209 104.5 146 106.291 146 108.5V122.5H70C67.7909 122.5 66 120.709 66 118.5V108.5Z" fill="#D5D9DC"/>
<rect x="16.25" y="50.25" width="133.5" height="225.5" rx="3.75" stroke="url(#paint0_linear_626_60196)" stroke-width="0.5"/>
</g>
</g>
</g>
<defs>
<filter id="filter0_d_626_60196" x="0.500001" y="2.5" width="165" height="283" filterUnits="userSpaceOnUse" color-interpolation-filters="sRGB">
<feFlood flood-opacity="0" result="BackgroundImageFix"/>
<feColorMatrix in="SourceAlpha" type="matrix" values="0 0 0 0 0 0 0 0 0 0 0 0 0 0 0 0 0 0 127 0" result="hardAlpha"/>
<feOffset dy="2"/>
<feGaussianBlur stdDeviation="3.75"/>
<feComposite in2="hardAlpha" operator="out"/>
<feColorMatrix type="matrix" values="0 0 0 0 0 0 0 0 0 0 0 0 0 0 0 0 0 0 0.15 0"/>
<feBlend mode="normal" in2="BackgroundImageFix" result="effect1_dropShadow_626_60196"/>
<feBlend mode="normal" in="SourceGraphic" in2="effect1_dropShadow_626_60196" result="shape"/>
</filter>
<linearGradient id="paint0_linear_626_60196" x1="83" y1="50" x2="83" y2="276" gradientUnits="userSpaceOnUse">
<stop stop-color="#D5D9DC"/>
<stop offset="1" stop-color="#D5D9DC" stop-opacity="0"/>
</linearGradient>
<clipPath id="clip0_626_60196">
<rect width="166" height="172" fill="white"/>
</clipPath>
<clipPath id="clip1_626_60196">
<rect x="8" y="8" width="150" height="268" rx="4" fill="white"/>
</clipPath>
</defs>
</svg>
