<svg width="24" height="24" viewBox="0 0 24 24" fill="none" xmlns="http://www.w3.org/2000/svg">
<path d="M2.89237 13.2C1.86629 14.7769 1.81222 16.7963 2.75246 18.4258L4.37258 21.2337C4.86951 22.0949 5.99052 22.3575 6.81823 21.8065C7.58136 21.2985 7.8127 20.2817 7.34444 19.4936L6.01755 17.2602L18.9609 18.1765C19.7605 18.2331 20.2983 17.3732 19.8976 16.679L11.6536 2.40003C11.2806 1.75388 10.3569 1.72907 9.94966 2.35426L2.89237 13.2Z" fill="#683D99"/>
<path d="M3.2795 12.6004C2.03203 14.5167 3.30107 17.0683 5.58192 17.2297L18.9609 18.1765C19.7605 18.2331 20.2983 17.3732 19.8976 16.679L11.6536 2.40003C11.2806 1.75388 10.3569 1.72907 9.94965 2.35426L3.2795 12.6004Z" fill="#9C5CE6"/>
<path fill-rule="evenodd" clip-rule="evenodd" d="M17.5709 8.64921C17.2948 8.17092 17.4586 7.55933 17.9369 7.28319L20.535 5.78319C21.0133 5.50705 21.6249 5.67092 21.901 6.14921C22.1772 6.62751 22.0133 7.2391 21.535 7.51524L18.9369 9.01524C18.4586 9.29138 17.8471 9.12751 17.5709 8.64921Z" fill="#683D99"/>
<path fill-rule="evenodd" clip-rule="evenodd" d="M22.3009 11.1776C22.2654 11.7287 21.7898 12.1467 21.2386 12.1112L19.4396 11.9952C18.8884 11.9596 18.4705 11.484 18.506 10.9329C18.5416 10.3817 19.0172 9.96376 19.5683 9.9993L21.3673 10.1153C21.9185 10.1509 22.3364 10.6265 22.3009 11.1776Z" fill="#683D99"/>
<path fill-rule="evenodd" clip-rule="evenodd" d="M17.7462 3.28863C18.2413 3.53342 18.4442 4.1332 18.1994 4.62827L17.4003 6.24433C17.1555 6.7394 16.5557 6.94229 16.0606 6.6975C15.5656 6.45271 15.3627 5.85293 15.6075 5.35786L16.4066 3.7418C16.6513 3.24673 17.2511 3.04384 17.7462 3.28863Z" fill="#683D99"/>
</svg>
