<svg width="24" height="24" viewBox="0 0 24 24" fill="none" xmlns="http://www.w3.org/2000/svg">
<path d="M12 13.15C10.8126 13.15 9.85 12.1874 9.85 11H8.15C8.15 13.1263 9.8737 14.85 12 14.85C14.1263 14.85 15.85 13.1263 15.85 11H14.15C14.15 12.1874 13.1874 13.15 12 13.15Z" fill="#5D6164"/>
<path d="M9.15 9V6.5H10.85V9H9.15Z" fill="#5D6164"/>
<path d="M13.15 9V6.5H14.85V9H13.15Z" fill="#5D6164"/>
<path fill-rule="evenodd" clip-rule="evenodd" d="M2 5C2 3.34315 3.34315 2 5 2H19C20.6569 2 22 3.34315 22 5V16C22 17.6569 20.6569 19 19 19H14V22L10 19H5C3.34315 19 2 17.6569 2 16V5ZM5 4H19C19.5523 4 20 4.44771 20 5V16C20 16.5523 19.5523 17 19 17H5C4.44772 17 4 16.5523 4 16V5C4 4.44772 4.44772 4 5 4Z" fill="#5D6164"/>
</svg>
