<svg width="24" height="24" viewBox="0 0 24 24" fill="none" xmlns="http://www.w3.org/2000/svg">
<path d="M2 7.14286C2 5.95939 2.89543 5 4 5H20C21.1046 5 22 5.95939 22 7.14286V17.8571C22 19.0406 21.1046 20 20 20H4C2.89543 20 2 19.0406 2 17.8571V7.14286Z" fill="#80290D"/>
<path d="M2 6.14929C2 4.96227 2.83011 4 3.8541 4H20.1459C21.1699 4 22 4.96227 22 6.14929C22 6.96338 21.6032 7.7076 20.9751 8.07167L12.8944 12.7552C12.3314 13.0816 11.6686 13.0816 11.1056 12.7552L3.02492 8.07167C2.39678 7.7076 2 6.96338 2 6.14929Z" fill="#CC5229"/>
</svg>
