<svg width="18" height="18" viewBox="0 0 18 18" fill="none" xmlns="http://www.w3.org/2000/svg">
<g id="Channel">
<path id="Ellipse 3 (Stroke)" fill-rule="evenodd" clip-rule="evenodd" d="M9 15C12.3137 15 15 12.3137 15 9C15 5.68629 12.3137 3 9 3C5.68629 3 3 5.68629 3 9C3 12.3137 5.68629 15 9 15ZM9 16.5C13.1421 16.5 16.5 13.1421 16.5 9C16.5 4.85786 13.1421 1.5 9 1.5C4.85786 1.5 1.5 4.85786 1.5 9C1.5 13.1421 4.85786 16.5 9 16.5Z" fill="#5D6164"/>
<path id="Vector" d="M7.5 15V11.25H6V9H7.5V7.125C7.5 5.6775 8.6775 4.5 10.125 4.5H12V6.75H10.5C10.0875 6.75 9.75 7.0875 9.75 7.5V9H12V11.25H9.75L9.75 15H7.5Z" fill="#5D6164"/>
</g>
</svg>
