<svg width="32" height="32" viewBox="0 0 32 32" fill="none" xmlns="http://www.w3.org/2000/svg">
<path d="M2.82309 17.9942C3.2141 20.8876 4.62172 23.4683 6.57676 25.4233L11.1124 20.8876C11.1124 16.2738 13.5367 11.8163 17.7595 9.31384L2.82309 17.9942Z" fill="#9B65C3"/>
<path d="M11.1124 20.8873C8.84459 20.8873 6.57676 20.3399 4.46532 19.0887C3.91791 18.7759 3.3705 18.3849 2.82309 17.9939C3.2141 20.8873 4.62172 23.468 6.57676 25.423L11.1124 20.8873Z" fill="#9B65C3"/>
<path d="M11.1124 20.8878L6.57675 25.4235C8.53179 27.3785 11.1124 28.7861 14.0059 29.1771L22.6862 14.2407C20.1838 18.4635 15.7263 20.8878 11.1124 20.8878Z" fill="#BE63C5"/>
<path d="M12.9111 27.5349C11.6598 25.4235 11.1124 23.1557 11.1124 20.8878L6.57675 25.4235C8.53179 27.3785 11.1124 28.7862 14.0059 29.1772C13.6149 28.708 13.2239 28.1605 12.9111 27.5349Z" fill="#BF63C6"/>
<path d="M28.0821 3.37061L17.7595 9.31391C13.4584 11.8164 8.45356 11.5817 4.46529 9.31391C3.29227 11.2689 2.66666 13.5368 2.66666 16.0392C2.66666 16.743 2.74486 17.3687 2.82306 17.9943C3.37047 18.3853 3.91788 18.7763 4.46529 19.0891C6.57673 20.3403 8.84456 20.8877 11.1124 20.8877L28.3167 3.68341C28.2385 3.52701 28.1603 3.44881 28.0821 3.37061Z" fill="#3278B1"/>
<path d="M4.46532 19.089C6.57676 20.3402 8.84459 20.8876 11.1124 20.8876C11.1124 16.2738 13.5367 11.8163 17.7595 9.31384L2.82309 17.9942C3.2923 18.3852 3.83971 18.7762 4.46532 19.089Z" fill="#3278B2"/>
<path d="M4.46529 9.31384C3.29227 11.2689 2.66666 13.5367 2.66666 16.0392C2.66666 16.743 2.74486 17.3686 2.82306 17.9942L17.7595 9.31384C13.5366 11.8163 8.45356 11.6599 4.46529 9.31384Z" fill="#45A4EC"/>
<path d="M28.3167 3.6833C28.2385 3.6051 28.1603 3.5269 28.0039 3.4487C27.8475 3.3705 27.7693 3.2141 27.6129 3.1359C27.1437 2.82309 26.5181 2.66669 25.9707 2.66669H15.9609C11.0342 2.66669 6.73313 5.32553 4.38708 9.3138C8.37535 11.5816 13.4584 11.8162 17.6813 9.3138C13.3802 11.8162 11.0342 16.2737 11.0342 20.8876C15.6481 20.8876 20.1056 18.4634 22.608 14.2405L28.5513 3.91791C28.5513 3.83971 28.4731 3.76151 28.3167 3.6833Z" fill="#19BB7D"/>
<path d="M17.7595 9.31391L28.0821 3.37061C27.9257 3.2924 27.8475 3.136 27.6911 3.0578L4.4653 9.31391C8.45357 11.66 13.5367 11.8164 17.7595 9.31391Z" fill="#08C7FB"/>
<path d="M25.9707 2.66669H15.9609C11.0342 2.66669 6.73313 5.32553 4.38708 9.3138L27.6129 3.05769C27.1437 2.82309 26.5963 2.66669 25.9707 2.66669Z" fill="#59F2F6"/>
<path d="M22.6862 14.2407L28.6295 3.91809C28.5513 3.83989 28.4731 3.76169 28.3949 3.60529L11.1906 20.8096C11.1906 23.0774 11.738 25.3453 12.9892 27.4567C13.302 28.0041 13.6931 28.5515 14.0841 29.0989C14.7097 29.1771 15.4135 29.2553 16.0391 29.2553C18.4633 29.2553 20.7312 28.6297 22.6862 27.4567C20.3402 23.5466 20.1838 18.4635 22.6862 14.2407Z" fill="#DA3757"/>
<path d="M11.1124 20.8878C11.1124 23.1556 11.6598 25.4235 12.9111 27.5349C13.2239 28.0823 13.6149 28.6297 14.0059 29.1771L22.6862 14.2407C20.1838 18.4635 15.7263 20.8878 11.1124 20.8878Z" fill="#D33C4E"/>
<path d="M22.6862 14.2407L14.0059 29.1771C14.6315 29.2553 15.3353 29.3335 15.9609 29.3335C18.3851 29.3335 20.653 28.7079 22.608 27.5349C20.3402 23.5466 20.1838 18.4635 22.6862 14.2407Z" fill="#EE5A24"/>
<path d="M28.8641 4.30902C28.7859 4.15262 28.7077 3.99622 28.5513 3.91801C28.4731 3.83981 28.3949 3.76161 28.3167 3.60521C28.2385 3.52701 28.1603 3.44881 28.0039 3.37061L17.6813 9.31391C13.3803 11.8164 11.0342 16.2738 11.0342 20.8877C15.6481 20.8877 20.1056 18.4635 22.608 14.2406C20.1056 18.5417 20.3402 23.5466 22.608 27.5348C26.5963 25.267 29.2551 20.8877 29.2551 15.961V6.02945C29.3333 5.40384 29.1769 4.85643 28.8641 4.30902Z" fill="#8BDF55"/>
<path d="M28.0821 3.37061L17.7595 9.31391C13.4585 11.8164 11.1124 16.2738 11.1124 20.8877L28.3167 3.68341C28.2385 3.52701 28.1603 3.44881 28.0821 3.37061Z" fill="#25C16F"/>
<path d="M11.1124 20.8878C15.7263 20.8878 20.1838 18.4635 22.6862 14.2407L28.6295 3.91809C28.5513 3.83989 28.4731 3.76169 28.3949 3.60529L11.1124 20.8878Z" fill="#8BDF55"/>
<path d="M28.6295 3.91809L22.6862 14.2407C20.1838 18.5417 20.4184 23.5466 22.6862 27.5349L28.9423 4.3091C28.7859 4.2309 28.7077 4.07449 28.6295 3.91809Z" fill="#FFBB00"/>
<path d="M22.6862 27.5346C26.6745 25.2667 29.3333 20.8875 29.3333 15.9608V6.02919C29.3333 5.40358 29.1769 4.85617 28.8641 4.38696L22.6862 27.5346Z" fill="#FFA800"/>
</svg>
