<svg width="24" height="24" viewBox="0 0 24 24" fill="none" xmlns="http://www.w3.org/2000/svg">
<path d="M2 4C2 2.89543 2.89543 2 4 2H20C21.1046 2 22 2.89543 22 4V20C22 21.1046 21.1046 22 20 22H4C2.89543 22 2 21.1046 2 20V4Z" fill="#F2CA55"/>
<path fill-rule="evenodd" clip-rule="evenodd" d="M11.4017 18.6339C11.8898 18.1457 11.8898 17.3543 11.4017 16.8661L8.53553 14L11.4017 11.1339C11.8898 10.6457 11.8898 9.85427 11.4017 9.36612C10.9135 8.87796 10.122 8.87796 9.63388 9.36612L5 14L9.63388 18.6339C10.122 19.122 10.9135 19.122 11.4017 18.6339Z" fill="#8C5D00"/>
<path d="M2 4C2 2.89543 2.89543 2 4 2H5V22H4C2.89543 22 2 21.1046 2 20V4Z" fill="#8C5D00"/>
<path fill-rule="evenodd" clip-rule="evenodd" d="M13.9 9C13.4029 9 13 9.40294 13 9.9V18.1C13 18.5971 13.4029 19 13.9 19C14.1865 19 14.4418 18.8661 14.6066 18.6575C15.023 18.8762 15.497 19 16 19C17.6569 19 19 17.6569 19 16C19 14.3431 17.6569 13 16 13C15.5733 13 15.1675 13.0891 14.8 13.2496V9.9C14.8 9.40294 14.3971 9 13.9 9ZM14.8 16.1058V15.8942C14.8536 15.2785 15.3704 14.7954 16 14.7954C16.6653 14.7954 17.2046 15.3347 17.2046 16C17.2046 16.6653 16.6653 17.2046 16 17.2046C15.3704 17.2046 14.8536 16.7215 14.8 16.1058Z" fill="#8C5D00"/>
</svg>
