<svg width="24" height="24" viewBox="0 0 24 24" fill="none" xmlns="http://www.w3.org/2000/svg">
<path d="M2.92785 5.47898C2.92785 4.03794 4.09249 2.86975 5.52916 2.86975H17.6686C19.1053 2.86975 20.2699 4.03794 20.2699 5.47898V17.6554C20.2699 19.0964 19.1053 20.2646 17.6686 20.2646H5.52916C4.09249 20.2646 2.92785 19.0964 2.92785 17.6554V5.47898Z" fill="#24B3B3"/>
<path d="M7.01888 11.8195H4.22679C4.07302 11.8195 3.95972 11.787 3.88688 11.722C3.82214 11.649 3.78977 11.5353 3.78977 11.3811V9.94428C3.78977 9.79004 3.82214 9.68046 3.88688 9.61551C3.95972 9.54246 4.07302 9.50593 4.22679 9.50593H6.49688C6.79632 9.50593 6.99864 9.46128 7.10385 9.37199C7.20906 9.27457 7.26167 9.07569 7.26167 8.77534V8.50746C7.06744 8.56428 6.84083 8.60893 6.58186 8.6414C6.33097 8.67387 6.04367 8.6901 5.71995 8.6901C4.62739 8.6901 3.87879 8.50746 3.47414 8.14216C3.06949 7.76875 2.86716 7.22081 2.86716 6.49834V5.3294C2.86716 4.95599 2.91572 4.6191 3.01284 4.31875C3.11805 4.0184 3.30014 3.76269 3.55912 3.55163C3.82619 3.33246 4.18632 3.16604 4.63953 3.0524C5.09274 2.93063 5.66734 2.86975 6.36334 2.86975C7.1079 2.86975 7.71488 2.93063 8.18427 3.0524C8.66176 3.16604 9.03404 3.33246 9.30111 3.55163C9.56817 3.76269 9.75027 4.0184 9.84738 4.31875C9.95259 4.6191 10.0052 4.95599 10.0052 5.3294V9.32328C10.0052 10.062 9.79073 10.6627 9.3618 11.1254C8.94097 11.5881 8.15999 11.8195 7.01888 11.8195ZM7.26167 6.24263V5.52422C7.26167 5.39434 7.21311 5.28881 7.11599 5.20763C7.01888 5.11834 6.79632 5.07369 6.44832 5.07369C6.08413 5.07369 5.85348 5.11834 5.75637 5.20763C5.65925 5.28881 5.61069 5.39434 5.61069 5.52422V6.24263C5.61069 6.3644 5.65925 6.46993 5.75637 6.55922C5.85348 6.6404 6.08413 6.68099 6.44832 6.68099C6.79632 6.68099 7.01888 6.6404 7.11599 6.55922C7.21311 6.46993 7.26167 6.3644 7.26167 6.24263Z" fill="#268080"/>
<path d="M17.099 11.8195H11.7334C11.5796 11.8195 11.4663 11.787 11.3935 11.722C11.3287 11.649 11.2963 11.5353 11.2963 11.3811V9.90775C11.2963 9.75352 11.3287 9.64393 11.3935 9.57899C11.4663 9.50593 11.5796 9.4694 11.7334 9.4694H13.093V5.40246H11.9762C11.8224 5.40246 11.7091 5.36999 11.6363 5.30504C11.5715 5.23199 11.5391 5.11834 11.5391 4.9641V3.49075C11.5391 3.33652 11.5715 3.22693 11.6363 3.16199C11.7091 3.08893 11.8224 3.0524 11.9762 3.0524H15.4966C15.6504 3.0524 15.7596 3.08893 15.8244 3.16199C15.8972 3.22693 15.9336 3.33652 15.9336 3.49075V9.4694H17.099C17.2528 9.4694 17.3621 9.50593 17.4268 9.57899C17.4996 9.64393 17.5361 9.75352 17.5361 9.90775V11.3811C17.5361 11.5353 17.4996 11.649 17.4268 11.722C17.3621 11.787 17.2528 11.8195 17.099 11.8195Z" fill="#268080"/>
<path d="M13.5968 19.516C13.5968 19.8894 13.5442 20.2304 13.439 20.5388C13.3338 20.8392 13.1436 21.099 12.8684 21.3181C12.5933 21.5292 12.2129 21.6956 11.7273 21.8174C11.2498 21.9391 10.6388 22 9.89424 22C9.14968 22 8.53461 21.9391 8.04903 21.8174C7.57154 21.6956 7.19522 21.5292 6.92006 21.3181C6.64489 21.099 6.45066 20.8392 6.33736 20.5388C6.23215 20.2304 6.17955 19.8894 6.17955 19.516V15.3638C6.17955 14.9904 6.23215 14.6535 6.33736 14.3532C6.45066 14.0447 6.64489 13.7809 6.92006 13.5617C7.19522 13.3425 7.57154 13.1721 8.04903 13.0503C8.53461 12.9285 9.14968 12.8677 9.89424 12.8677C10.6388 12.8677 11.2498 12.9285 11.7273 13.0503C12.2129 13.1721 12.5933 13.3425 12.8684 13.5617C13.1436 13.7809 13.3338 14.0447 13.439 14.3532C13.5442 14.6535 13.5968 14.9904 13.5968 15.3638V19.516ZM8.92307 19.0777C8.92307 19.24 8.97973 19.378 9.09303 19.4917C9.21442 19.5972 9.48149 19.65 9.89424 19.65C10.307 19.65 10.57 19.5972 10.6833 19.4917C10.8047 19.378 10.8654 19.24 10.8654 19.0777V15.8022C10.8654 15.648 10.8047 15.5181 10.6833 15.4125C10.57 15.2989 10.307 15.2421 9.89424 15.2421C9.48149 15.2421 9.21442 15.2989 9.09303 15.4125C8.97973 15.5181 8.92307 15.648 8.92307 15.8022V19.0777Z" fill="#268080"/>
<path d="M19.0178 21.8174H16.2257C16.072 21.8174 15.9587 21.7849 15.8858 21.72C15.8211 21.6469 15.7887 21.5332 15.7887 21.379V19.9422C15.7887 19.788 15.8211 19.6784 15.8858 19.6134C15.9587 19.5404 16.072 19.5038 16.2257 19.5038H18.4958C18.7953 19.5038 18.9976 19.4592 19.1028 19.3699C19.208 19.2725 19.2606 19.0736 19.2606 18.7732V18.5054C19.0664 18.5622 18.8398 18.6068 18.5808 18.6393C18.3299 18.6718 18.0426 18.688 17.7189 18.688C16.6264 18.688 15.8778 18.5054 15.4731 18.1401C15.0684 17.7667 14.8661 17.2187 14.8661 16.4962V15.3273C14.8661 14.9539 14.9147 14.617 15.0118 14.3167C15.117 14.0163 15.2991 13.7606 15.5581 13.5495C15.8251 13.3304 16.1853 13.164 16.6385 13.0503C17.0917 12.9285 17.6663 12.8677 18.3623 12.8677C19.1069 12.8677 19.7138 12.9285 20.1832 13.0503C20.6607 13.164 21.033 13.3304 21.3001 13.5495C21.5671 13.7606 21.7492 14.0163 21.8463 14.3167C21.9516 14.617 22.0042 14.9539 22.0042 15.3273V19.3212C22.0042 20.0599 21.7897 20.6606 21.3608 21.1233C20.9399 21.586 20.159 21.8174 19.0178 21.8174ZM19.2606 16.2405V15.5221C19.2606 15.3922 19.2121 15.2867 19.115 15.2055C19.0178 15.1162 18.7953 15.0716 18.4473 15.0716C18.0831 15.0716 17.8524 15.1162 17.7553 15.2055C17.6582 15.2867 17.6097 15.3922 17.6097 15.5221V16.2405C17.6097 16.3623 17.6582 16.4678 17.7553 16.5571C17.8524 16.6383 18.0831 16.6789 18.4473 16.6789C18.7953 16.6789 19.0178 16.6383 19.115 16.5571C19.2121 16.4678 19.2606 16.3623 19.2606 16.2405Z" fill="#268080"/>
<path d="M6.15171 10.9497H3.35963C3.20586 10.9497 3.09256 10.9172 3.01972 10.8523C2.95497 10.7792 2.9226 10.6656 2.9226 10.5114V9.07453C2.9226 8.92029 2.95497 8.8107 3.01972 8.74576C3.09256 8.6727 3.20586 8.63618 3.35963 8.63618H5.62971C5.92916 8.63618 6.13148 8.59153 6.23669 8.50223C6.3419 8.40482 6.3945 8.20594 6.3945 7.90559V7.6377C6.20027 7.69453 5.97367 7.73918 5.71469 7.77165C5.46381 7.80412 5.17651 7.82035 4.85278 7.82035C3.76023 7.82035 3.01163 7.63771 2.60698 7.27241C2.20233 6.899 2 6.35106 2 5.62859V4.45965C2 4.08623 2.04856 3.74935 2.14567 3.449C2.25088 3.14865 2.43298 2.89294 2.69195 2.68188C2.95902 2.46271 3.31916 2.29629 3.77237 2.18265C4.22558 2.06088 4.80018 2 5.49618 2C6.24074 2 6.84771 2.06088 7.31711 2.18265C7.79459 2.29629 8.16687 2.46271 8.43394 2.68188C8.70101 2.89294 8.8831 3.14865 8.98022 3.449C9.08543 3.74935 9.13803 4.08623 9.13803 4.45965V8.45353C9.13803 9.19223 8.92357 9.79294 8.49464 10.2556C8.0738 10.7184 7.29283 10.9497 6.15171 10.9497ZM6.3945 5.37288V4.65447C6.3945 4.52459 6.34594 4.41906 6.24883 4.33788C6.15171 4.24859 5.92915 4.20394 5.58116 4.20394C5.21697 4.20394 4.98632 4.24859 4.8892 4.33788C4.79209 4.41906 4.74353 4.52459 4.74353 4.65447V5.37288C4.74353 5.49465 4.79209 5.60018 4.8892 5.68947C4.98632 5.77065 5.21697 5.81123 5.58116 5.81123C5.92915 5.81123 6.15171 5.77065 6.24883 5.68947C6.34594 5.60018 6.3945 5.49465 6.3945 5.37288Z" fill="white"/>
<path d="M16.2319 10.9497H10.8662C10.7124 10.9497 10.5991 10.9172 10.5263 10.8523C10.4616 10.7792 10.4292 10.6656 10.4292 10.5114V9.038C10.4292 8.88376 10.4616 8.77418 10.5263 8.70923C10.5991 8.63618 10.7124 8.59965 10.8662 8.59965H12.2258V4.53271H11.109C10.9552 4.53271 10.8419 4.50023 10.7691 4.43529C10.7043 4.36223 10.672 4.24859 10.672 4.09435V2.621C10.672 2.46676 10.7043 2.35718 10.7691 2.29224C10.8419 2.21918 10.9552 2.18265 11.109 2.18265H14.6295C14.7832 2.18265 14.8925 2.21918 14.9572 2.29224C15.0301 2.35718 15.0665 2.46676 15.0665 2.621V8.59965H16.2319C16.3856 8.59965 16.4949 8.63618 16.5596 8.70923C16.6325 8.77418 16.6689 8.88376 16.6689 9.038V10.5114C16.6689 10.6656 16.6325 10.7792 16.5596 10.8523C16.4949 10.9172 16.3856 10.9497 16.2319 10.9497Z" fill="white"/>
<path d="M12.7296 18.6463C12.7296 19.0197 12.677 19.3606 12.5718 19.6691C12.4666 19.9694 12.2764 20.2292 12.0013 20.4484C11.7261 20.6594 11.3457 20.8258 10.8601 20.9476C10.3827 21.0694 9.77163 21.1303 9.02707 21.1303C8.28251 21.1303 7.66745 21.0694 7.18187 20.9476C6.70438 20.8258 6.32805 20.6594 6.05289 20.4484C5.77773 20.2292 5.5835 19.9694 5.47019 19.6691C5.36499 19.3606 5.31238 19.0197 5.31238 18.6463V14.4941C5.31238 14.1207 5.36499 13.7838 5.47019 13.4834C5.5835 13.175 5.77773 12.9111 6.05289 12.692C6.32805 12.4728 6.70438 12.3023 7.18187 12.1806C7.66745 12.0588 8.28251 11.9979 9.02707 11.9979C9.77163 11.9979 10.3827 12.0588 10.8601 12.1806C11.3457 12.3023 11.7261 12.4728 12.0013 12.692C12.2764 12.9111 12.4666 13.175 12.5718 13.4834C12.677 13.7838 12.7296 14.1207 12.7296 14.4941V18.6463ZM8.05591 18.2079C8.05591 18.3703 8.11256 18.5083 8.22586 18.6219C8.34726 18.7274 8.61433 18.7802 9.02707 18.7802C9.43982 18.7802 9.70284 18.7274 9.81614 18.6219C9.93753 18.5083 9.99823 18.3703 9.99823 18.2079V14.9324C9.99823 14.7782 9.93753 14.6483 9.81614 14.5428C9.70284 14.4291 9.43982 14.3723 9.02707 14.3723C8.61433 14.3723 8.34726 14.4291 8.22586 14.5428C8.11256 14.6483 8.05591 14.7782 8.05591 14.9324V18.2079Z" fill="white"/>
<path d="M18.1507 20.9476H15.3586C15.2048 20.9476 15.0915 20.9151 15.0187 20.8502C14.9539 20.7771 14.9216 20.6635 14.9216 20.5093V19.0724C14.9216 18.9182 14.9539 18.8086 15.0187 18.7437C15.0915 18.6706 15.2048 18.6341 15.3586 18.6341H17.6287C17.9281 18.6341 18.1304 18.5894 18.2356 18.5001C18.3409 18.4027 18.3935 18.2038 18.3935 17.9035V17.6356C18.1992 17.6924 17.9726 17.7371 17.7136 17.7696C17.4628 17.802 17.1755 17.8183 16.8517 17.8183C15.7592 17.8183 15.0106 17.6356 14.6059 17.2703C14.2013 16.8969 13.999 16.349 13.999 15.6265V14.4576C13.999 14.0841 14.0475 13.7473 14.1446 13.4469C14.2498 13.1466 14.4319 12.8908 14.6909 12.6798C14.958 12.4606 15.3181 12.2942 15.7713 12.1806C16.2245 12.0588 16.7991 11.9979 17.4951 11.9979C18.2397 11.9979 18.8467 12.0588 19.3161 12.1806C19.7936 12.2942 20.1658 12.4606 20.4329 12.6798C20.7 12.8908 20.8821 13.1466 20.9792 13.4469C21.0844 13.7473 21.137 14.0841 21.137 14.4576V18.4514C21.137 19.1901 20.9225 19.7908 20.4936 20.2536C20.0728 20.7163 19.2918 20.9476 18.1507 20.9476ZM18.3935 15.3708V14.6524C18.3935 14.5225 18.3449 14.417 18.2478 14.3358C18.1507 14.2465 17.9281 14.2018 17.5801 14.2018C17.2159 14.2018 16.9853 14.2465 16.8882 14.3358C16.791 14.417 16.7425 14.5225 16.7425 14.6524V15.3708C16.7425 15.4926 16.791 15.5981 16.8882 15.6874C16.9853 15.7686 17.2159 15.8091 17.5801 15.8091C17.9281 15.8091 18.1507 15.7686 18.2478 15.6874C18.3449 15.5981 18.3935 15.4926 18.3935 15.3708Z" fill="white"/>
<path fill-rule="evenodd" clip-rule="evenodd" d="M2.92786 7.48896C2.8039 7.42581 2.69694 7.35362 2.60698 7.27241C2.20233 6.899 2 6.35106 2 5.62859V4.45965C2 4.08623 2.04856 3.74935 2.14567 3.449C2.25088 3.14865 2.43298 2.89294 2.69195 2.68188C2.95902 2.46271 3.31916 2.29629 3.77237 2.18265C4.22558 2.06088 4.80018 2 5.49618 2C6.24074 2 6.84771 2.06088 7.31711 2.18265C7.79459 2.29629 8.16687 2.46271 8.43394 2.68188C8.50875 2.741 8.57689 2.80362 8.63836 2.86974H5.52917C4.09251 2.86974 2.92786 4.03793 2.92786 5.47897V7.48896ZM5.85025 20.2646C5.91206 20.3287 5.9796 20.39 6.05289 20.4484C6.32805 20.6594 6.70438 20.8258 7.18187 20.9476C7.66745 21.0694 8.28252 21.1303 9.02707 21.1303C9.77163 21.1303 10.3827 21.0694 10.8601 20.9476C11.3457 20.8258 11.7261 20.6594 12.0013 20.4484C12.0745 20.39 12.1418 20.3287 12.203 20.2646H5.85025ZM14.9216 20.2646V20.5093C14.9216 20.6635 14.9539 20.7771 15.0187 20.8502C15.0915 20.9151 15.2048 20.9476 15.3586 20.9476H18.1507C19.2918 20.9476 20.0728 20.7163 20.4936 20.2536C20.9225 19.7908 21.137 19.1901 21.137 18.4514V14.4576C21.137 14.0841 21.0844 13.7473 20.9792 13.4469C20.8821 13.1466 20.7 12.8908 20.4329 12.6798C20.3823 12.6383 20.328 12.5987 20.2699 12.561V17.6554C20.2699 19.0964 19.1053 20.2646 17.6686 20.2646H14.9216ZM15.0665 2.86974V2.621C15.0665 2.46676 15.0301 2.35718 14.9572 2.29224C14.8925 2.21918 14.7832 2.18265 14.6295 2.18265H11.109C10.9552 2.18265 10.8419 2.21918 10.7691 2.29224C10.7043 2.35718 10.672 2.46676 10.672 2.621V2.86974H15.0665Z" fill="#7B7F82" fill-opacity="0.1"/>
</svg>
