<svg width="24" height="24" viewBox="0 0 24 24" fill="none" xmlns="http://www.w3.org/2000/svg">
<path d="M23 12C23 18.0751 18.0751 23 12 23C5.92487 23 1 18.0751 1 12C1 5.92487 5.92487 1 12 1C18.0751 1 23 5.92487 23 12Z" fill="#1C73E8"/>
<g filter="url(#filter0_d)">
<path d="M19 8.90036C19 7.74035 18.0596 6.79999 16.8996 6.79999H5.70109C5.17287 6.79999 4.8349 7.36261 5.08299 7.82894L6.39791 10.3006V15.2015C6.39791 16.3615 7.33828 17.3018 8.49828 17.3018H16.8996C18.0596 17.3018 19 16.3615 19 15.2015V8.90036Z" fill="white"/>
</g>
<path fill-rule="evenodd" clip-rule="evenodd" d="M7.90314 9.60051C7.90314 9.27184 8.16957 9.0054 8.49824 9.0054H16.8997C17.2284 9.0054 17.4948 9.27184 17.4948 9.60051C17.4948 9.92917 17.2284 10.1956 16.8997 10.1956H8.49824C8.16957 10.1956 7.90314 9.92917 7.90314 9.60051Z" fill="#1C73E8"/>
<path fill-rule="evenodd" clip-rule="evenodd" d="M7.90314 12.0509C7.90314 11.7222 8.16957 11.4558 8.49824 11.4558H16.8997C17.2284 11.4558 17.4948 11.7222 17.4948 12.0509C17.4948 12.3796 17.2284 12.646 16.8997 12.646H8.49824C8.16957 12.646 7.90314 12.3796 7.90314 12.0509Z" fill="#1C73E8"/>
<path fill-rule="evenodd" clip-rule="evenodd" d="M7.90314 14.5014C7.90314 14.1727 8.16957 13.9062 8.49824 13.9062L14.0992 13.9062C14.4279 13.9062 14.6943 14.1727 14.6943 14.5014C14.6943 14.83 14.4279 15.0965 14.0992 15.0965L8.49824 15.0965C8.16957 15.0965 7.90314 14.83 7.90314 14.5014Z" fill="#1C73E8"/>
<defs>
<filter id="filter0_d" x="5" y="6.79999" width="14" height="11.5018" filterUnits="userSpaceOnUse" color-interpolation-filters="sRGB">
<feFlood flood-opacity="0" result="BackgroundImageFix"/>
<feColorMatrix in="SourceAlpha" type="matrix" values="0 0 0 0 0 0 0 0 0 0 0 0 0 0 0 0 0 0 127 0" result="hardAlpha"/>
<feOffset dy="1"/>
<feComposite in2="hardAlpha" operator="out"/>
<feColorMatrix type="matrix" values="0 0 0 0 0 0 0 0 0 0 0 0 0 0 0 0 0 0 0.25 0"/>
<feBlend mode="normal" in2="BackgroundImageFix" result="effect1_dropShadow"/>
<feBlend mode="normal" in="SourceGraphic" in2="effect1_dropShadow" result="shape"/>
</filter>
</defs>
</svg>
