<svg width="24" height="24" viewBox="0 0 24 24" fill="none" xmlns="http://www.w3.org/2000/svg">
<path d="M11 1.57735C11.6188 1.22008 12.3812 1.22008 13 1.57735L20.5263 5.92265C21.1451 6.27992 21.5263 6.94017 21.5263 7.6547V16.3453C21.5263 17.0598 21.1451 17.7201 20.5263 18.0774L13 22.4226C12.3812 22.7799 11.6188 22.7799 11 22.4226L3.47372 18.0774C2.85492 17.7201 2.47372 17.0598 2.47372 16.3453V7.6547C2.47372 6.94017 2.85492 6.27992 3.47372 5.92265L11 1.57735Z" fill="#1D6EC0"/>
<path d="M17.199 1.69055L23.5292 5.34525V12.6547L17.199 16.3094L10.8689 12.6547V5.34525L17.199 1.69055Z" fill="white"/>
<path d="M17.3301 4L21.6603 6.5V11.5L17.3301 14L13 11.5V6.5L17.3301 4Z" fill="#E65CA1"/>
</svg>
