<svg width="24" height="24" viewBox="0 0 24 24" fill="none" xmlns="http://www.w3.org/2000/svg">
<path d="M10 1.57735C10.6188 1.22008 11.3812 1.22008 12 1.57735L19.5263 5.92265C20.1451 6.27992 20.5263 6.94017 20.5263 7.6547V16.3453C20.5263 17.0598 20.1451 17.7201 19.5263 18.0774L12 22.4226C11.3812 22.7799 10.6188 22.7799 10 22.4226L2.47372 18.0774C1.85492 17.7201 1.47372 17.0598 1.47372 16.3453V7.6547C1.47372 6.94017 1.85492 6.27992 2.47372 5.92265L10 1.57735Z" fill="#66BDFF"/>
<path d="M16.199 4L20.5291 6.5V11.5L16.199 14L11.8689 11.5V6.5L16.199 4Z" fill="white"/>
<path fill-rule="evenodd" clip-rule="evenodd" d="M16.199 1.69061L22.5291 5.34531V12.6547L16.199 16.3094L9.86885 12.6547V5.34531L16.199 1.69061ZM20.5291 6.50001L16.199 4.00001L11.8689 6.50001V11.5L16.199 14L20.5291 11.5V6.50001Z" fill="#373B3D"/>
</svg>
