<svg width="32" height="32" viewBox="0 0 32 32" fill="none" xmlns="http://www.w3.org/2000/svg">
<path fill-rule="evenodd" clip-rule="evenodd" d="M22.3147 31.1684L22.2434 3.74901C22.0587 3.56432 21.6984 3.62009 21.5576 3.66123L20.6196 3.95198C20.5038 3.57096 20.3535 3.20128 20.1707 2.84752C19.5051 1.57666 18.5323 0.904663 17.3547 0.902834H17.351C17.2724 0.902834 17.1947 0.910148 17.116 0.916548L17.1069 0.917463C17.0728 0.875517 17.0375 0.834659 17.0008 0.794948C16.4888 0.246377 15.8306 -0.0215088 15.0424 0.00134832C13.5229 0.045234 12.0098 1.14421 10.7819 3.09621C9.91786 4.47038 9.26232 6.19563 9.07489 7.53141L6.08244 8.4594C5.20198 8.73643 5.17455 8.76386 5.05844 9.59495C4.97158 10.224 2.66666 28.0699 2.66666 28.0699L21.9837 31.4144L22.3147 31.1675V31.1684ZM15.986 1.25483C15.7291 1.08569 15.4283 1.00706 15.0717 1.01438C12.7256 1.08203 10.6795 4.75106 10.1574 7.19586L12.4047 6.49918L12.8061 6.37483C13.1005 4.82238 13.8392 3.21141 14.8056 2.17461C15.1435 1.80309 15.5424 1.49203 15.9851 1.25483H15.986ZM13.917 6.03015L17.1426 5.02992C17.1526 4.18878 17.0612 2.94535 16.6406 2.06763C16.1926 2.25232 15.8159 2.57598 15.5453 2.86581C14.8203 3.64569 14.2287 4.83518 13.9179 6.03015H13.917ZM18.1528 4.71723L19.6523 4.25186C19.4127 3.47289 18.844 2.16729 17.6911 1.94786C18.0495 2.87403 18.1419 3.94649 18.1528 4.71723Z" fill="#95BF47"/>
<path d="M26.6429 5.78881C26.5277 5.77967 24.295 5.74492 24.295 5.74492C24.295 5.74492 22.4271 3.92915 22.2425 3.74355C22.171 3.67756 22.0804 3.63594 21.9837 3.62469V31.4098L30.354 29.3262C30.354 29.3262 26.9382 6.20298 26.9163 6.04481C26.9057 5.97764 26.873 5.91593 26.8233 5.86954C26.7736 5.82314 26.7097 5.79472 26.642 5.78881H26.6429Z" fill="#5E8E3E"/>
<path d="M17.3446 10.1033L16.3718 13.7458C16.3718 13.7458 15.2874 13.2512 14.001 13.3326C12.1158 13.4514 12.0957 14.6427 12.1149 14.9417C12.2173 16.5691 16.497 16.9257 16.7375 20.741C16.9267 23.7426 15.1475 25.797 12.5839 25.9579C9.50732 26.1527 7.81315 24.3351 7.81315 24.3351L8.46503 21.5575C8.46503 21.5575 10.1702 22.8457 11.5343 22.7588C12.4266 22.7031 12.7448 21.9771 12.7128 21.4633C12.5784 19.3394 9.09315 19.4638 8.87281 15.973C8.68812 13.0336 10.6145 10.0576 14.8669 9.78879C16.5053 9.68456 17.3446 10.1042 17.3446 10.1042" fill="white"/>
</svg>
