<svg width="32" height="32" viewBox="0 0 32 32" fill="none" xmlns="http://www.w3.org/2000/svg">
<g clip-path="url(#clip0_200_21921)">
<path d="M19.3333 1.18518L26.6666 8.51851L23 9.18518L19.3333 8.51851L18.6666 4.85185L19.3333 1.18518Z" fill="#188038"/>
<path d="M19.3333 8.51851V1.18518H7.33331C6.22831 1.18518 5.33331 2.08018 5.33331 3.18518V28.5185C5.33331 29.6235 6.22831 30.5185 7.33331 30.5185H24.6666C25.7716 30.5185 26.6666 29.6235 26.6666 28.5185V8.51851H19.3333Z" fill="#34A853"/>
<path d="M9.33331 12.5185V22.1852H22.6666V12.5185H9.33331ZM15.1666 20.5185H11V18.1852H15.1666V20.5185ZM15.1666 16.5185H11V14.1852H15.1666V16.5185ZM21 20.5185H16.8333V18.1852H21V20.5185ZM21 16.5185H16.8333V14.1852H21V16.5185Z" fill="white"/>
</g>
<defs>
<clipPath id="clip0_200_21921">
<rect width="32" height="32" fill="white"/>
</clipPath>
</defs>
</svg>
