<svg width="24" height="24" viewBox="0 0 24 24" fill="none" xmlns="http://www.w3.org/2000/svg">
<path d="M7 2.24995L8.26678 1.69432C8.89719 1.41782 9.62549 1.48494 10.1947 1.87202L11.78 2.94995L7 2.24995Z" fill="#E8983E"/>
<path d="M17.2443 9.49995H10.4396C9.17752 9.49995 8.23093 10.6546 8.47845 11.8922L8.67845 12.8922C8.86542 13.827 9.68625 14.5 10.6396 14.5H15.586C17.0706 14.5 18.4331 15.3222 19.125 16.6357L19.2241 16.8239C19.8362 17.9858 19.1813 19.4123 17.9011 19.7055L10.9238 21.3034C10.3562 21.4334 9.77025 21.4633 9.19239 21.3916L2 20.4999V6.45828L5.75127 3.11731C6.19087 2.72579 6.78062 2.54782 7.36341 2.63082L20.7676 4.53963C22.1517 4.73675 22.7597 6.3953 21.8308 7.44028C20.6663 8.75038 18.9971 9.49995 17.2443 9.49995Z" fill="#E8983E"/>
<path d="M11.75 12C11.75 9.79086 13.5409 8 15.75 8H18.75C20.9591 8 22.75 9.79086 22.75 12C22.75 14.2091 20.9591 16 18.75 16H15.75C13.5409 16 11.75 14.2091 11.75 12Z" fill="white"/>
<path fill-rule="evenodd" clip-rule="evenodd" d="M18.8333 8.75C20.5822 8.75 22 10.2051 22 12C22 13.7949 20.5822 15.25 18.8333 15.25H17.5667V12.65L18.8333 12.65C19.1831 12.65 19.4667 12.359 19.4667 12C19.4667 11.641 19.1831 11.35 18.8333 11.35L17.5667 11.35V8.75L18.8333 8.75Z" fill="#1D6EC0"/>
<path fill-rule="evenodd" clip-rule="evenodd" d="M15.6667 8.75C13.9178 8.75 12.5 10.2051 12.5 12C12.5 13.7949 13.9178 15.25 15.6667 15.25H16.9333L16.9333 12.65H15.6667C15.3169 12.65 15.0333 12.359 15.0333 12C15.0333 11.641 15.3169 11.35 15.6667 11.35H16.9333V8.75L15.6667 8.75Z" fill="#1D6EC0"/>
</svg>
