<svg width="140" height="140" viewBox="0 0 140 140" fill="none" xmlns="http://www.w3.org/2000/svg">
<path d="M128.263 125.03H119.729V117.835H128.263C129.792 117.835 131 116.534 131 114.887C131 113.24 129.792 111.94 128.263 111.94H119.729V110.899C119.729 109.252 118.522 107.952 116.992 107.952C110.149 107.952 105.238 111.246 103.467 116.708C103.226 116.621 102.984 116.534 102.662 116.534H19.1776V15.8831H120.051V85.2379C120.051 87.9254 122.144 90.1794 124.64 90.1794C127.136 90.1794 129.229 88.0121 129.229 85.2379V10.9415C129.229 8.25403 127.136 6 124.64 6H14.5888C12.0931 6 10 8.16734 10 10.9415V121.476C10 124.163 12.0126 126.417 14.5888 126.417H102.662C102.904 126.417 103.145 126.331 103.387 126.244C105.399 132.573 111.357 135 116.992 135C118.522 135 119.729 133.7 119.729 132.052V131.012H128.263C129.792 131.012 131 129.712 131 128.065C131 126.417 129.792 125.03 128.263 125.03Z" fill="black"/>
<path d="M56 43.5C56 39.3791 52.6209 36 48.5 36C44.3791 36 41 39.3791 41 43.5C41 47.6209 44.3791 51 48.5 51C52.6209 51 56 47.6209 56 43.5Z" fill="black"/>
<path d="M100 43.5C100 39.3791 96.6209 36 92.5 36C88.3791 36 85 39.3791 85 43.5C85 47.6209 88.3791 51 92.5 51C96.6209 51 100 47.6209 100 43.5Z" fill="black"/>
<path d="M72.1165 87C63.6503 87 56.6929 85.6989 56.2738 85.6989C53.4237 85.1785 51.5796 82.4028 52.0826 79.4537C52.5855 76.5045 55.1841 74.5963 58.1179 75.1167C58.2855 75.1167 72.5356 77.7189 83.6842 75.1167C86.5343 74.5095 89.3004 76.3311 89.8872 79.1935C90.474 82.1426 88.7137 85.005 85.9475 85.6122C81.3372 86.653 76.5592 87 72.1165 87Z" fill="black"/>
</svg>