<svg width="24" height="24" viewBox="0 0 24 24" fill="none" xmlns="http://www.w3.org/2000/svg">
<path d="M23 12C23 18.0751 18.0751 23 12 23C5.92487 23 1 18.0751 1 12C1 5.92487 5.92487 1 12 1C18.0751 1 23 5.92487 23 12Z" fill="#696BEF"/>
<path d="M23 12C23 18.0751 18.0751 23 12 23C5.92487 23 1 18.0751 1 12C1 5.92487 5.92487 1 12 1C18.0751 1 23 5.92487 23 12Z" fill="#696BEF"/>
<path d="M19.5 14.5C19.5 15.0253 19.3965 15.5454 19.1955 16.0307C18.9945 16.516 18.6999 16.957 18.3284 17.3284C17.957 17.6999 17.516 17.9945 17.0307 18.1955C16.5454 18.3965 16.0253 18.5 15.5 18.5L15.5 14.5H19.5Z" fill="white"/>
<path d="M15.3238 10.8486L14 2.19995L9 6.99994L12 11.9999H14.3353C14.9479 11.9999 15.4165 11.4542 15.3238 10.8486Z" fill="#3A3BA6"/>
<path d="M14.1138 18.2873L13 22L11 17H13.156C13.8258 17 14.3063 17.6457 14.1138 18.2873Z" fill="#3A3BA6"/>
<path fill-rule="evenodd" clip-rule="evenodd" d="M12 17C9.23858 17 7 14.7614 7 12H13C13.5523 12 14 11.5564 14 11.0041V2.20004C13.3538 2.06886 12.6849 2 12 2C6.47715 2 2 6.47715 2 12C2 17.5228 6.47715 22 12 22C12.3375 22 12.6711 21.9833 13 21.9506V18C13 17.4477 12.5523 17 12 17ZM12 7C12 7.55229 11.5523 8 11 8C10.4477 8 10 7.55229 10 7C10 6.44772 10.4477 6 11 6C11.5523 6 12 6.44772 12 7Z" fill="white"/>
</svg>
