<svg width="40" height="40" viewBox="0 0 40 40" fill="none" xmlns="http://www.w3.org/2000/svg">
<path fill-rule="evenodd" clip-rule="evenodd" d="M5.92105 28.9482L3.58313 37.5L12.3002 35.1985C14.703 36.5243 17.4032 37.2182 20.1475 37.2146C29.1983 37.2146 36.5611 29.8045 36.5611 20.6984C36.5611 16.2798 34.8585 12.1303 31.7525 9.0052C28.6465 5.88013 24.5225 4.16669 20.1311 4.16669C11.0805 4.16669 3.71673 11.5758 3.73404 20.6984C3.7296 23.5922 4.48368 26.4367 5.92105 28.9482ZM13.1856 32.5269L12.6847 32.2242L12.6829 32.2252L7.48991 33.6032L8.87614 28.5292L8.5589 28.0075C7.1891 25.8242 6.47097 23.2872 6.47097 20.6993C6.47097 13.1392 12.5993 6.97275 20.1302 6.97275C23.7707 6.97275 27.2104 8.418 29.7836 11.004C32.3551 13.5919 33.7741 17.0525 33.7741 20.7157C33.7741 28.2756 27.6458 34.4422 20.1321 34.4422C17.6865 34.4403 15.2866 33.7786 13.1856 32.5269Z" fill="#C1C5C8"/>
<path fill-rule="evenodd" clip-rule="evenodd" d="M5.92105 27.2815L3.58313 35.8333L12.3002 33.5318C14.703 34.8577 17.4032 35.5515 20.1475 35.5479C29.1983 35.5479 36.5611 28.1378 36.5611 19.0317C36.5611 14.6132 34.8585 10.4636 31.7525 7.33851C28.6465 4.21344 24.5225 2.5 20.1311 2.5C11.0805 2.5 3.71673 9.90912 3.73404 19.0317C3.7296 21.9255 4.48368 24.77 5.92105 27.2815ZM13.1856 30.8602L12.6847 30.5575L12.6829 30.5585L7.48991 31.9365L8.87614 26.8626L8.5589 26.3408C7.1891 24.1575 6.47097 21.6205 6.47097 19.0326C6.47097 11.4725 12.5993 5.30606 20.1302 5.30606C23.7707 5.30606 27.2104 6.75132 29.7836 9.33734C32.3551 11.9253 33.7741 15.3858 33.7741 19.049C33.7741 26.6089 27.6458 32.7755 20.1321 32.7755C17.6865 32.7736 15.2866 32.112 13.1856 30.8602Z" fill="url(#paint0_linear_7633_533)"/>
<path d="M12.6851 30.5574L13.1859 30.8601C15.287 32.1119 17.6868 32.7735 20.1325 32.7754C27.6461 32.7754 33.7744 26.6088 33.7744 19.0489C33.7744 15.3857 32.3555 11.9252 29.784 9.33725C27.2107 6.75122 23.7711 5.30597 20.1306 5.30597C12.5996 5.30597 6.47131 11.4725 6.47131 19.0325C6.47131 21.6204 7.18945 24.1574 8.55924 26.3407L8.87648 26.8625L7.49026 31.9364L12.6833 30.5584L12.6851 30.5574Z" fill="url(#paint1_linear_7633_533)"/>
<path fill-rule="evenodd" clip-rule="evenodd" d="M16.0399 12.1097C15.7399 11.4207 15.4054 11.4044 15.1218 11.4044C14.871 11.3871 14.6037 11.3871 14.3201 11.3871C14.0529 11.3871 13.602 11.488 13.2184 11.9079C12.8339 12.3279 11.7822 13.3196 11.7822 15.353C11.7822 17.3855 13.2521 19.3516 13.452 19.6197C13.652 19.8888 16.2908 24.1901 20.4648 25.8535C23.9381 27.2307 24.6398 26.9625 25.3915 26.878C26.1423 26.7943 27.8121 25.8872 28.163 24.9118C28.4966 23.9547 28.4966 23.1148 28.3966 22.9466C28.2966 22.7785 28.0121 22.6776 27.6113 22.4594C27.194 22.2576 25.1906 21.2505 24.8061 21.115C24.4225 20.9805 24.1553 20.9132 23.8881 21.3168C23.6208 21.7368 22.8364 22.6612 22.5855 22.9294C22.3519 23.1984 22.1019 23.232 21.701 23.0302C21.2829 22.8294 19.9649 22.3921 18.3942 20.9805C17.1761 19.8888 16.358 18.5281 16.1072 18.1245C15.8736 17.7045 16.0735 17.4864 16.2908 17.2846C16.4744 17.1 16.7089 16.7974 16.9089 16.5619C17.1089 16.3265 17.1752 16.142 17.3261 15.8729C17.4597 15.6048 17.3925 15.3521 17.2925 15.1512C17.1925 14.9658 16.4071 12.9333 16.0399 12.1097Z" fill="white"/>
<defs>
<linearGradient id="paint0_linear_7633_533" x1="20.0694" y1="35.8369" x2="20.0694" y2="2.50455" gradientUnits="userSpaceOnUse">
<stop stop-color="#F9F9F9"/>
<stop offset="1" stop-color="white"/>
</linearGradient>
<linearGradient id="paint1_linear_7633_533" x1="20.0689" y1="35.2598" x2="20.0689" y2="3.08179" gradientUnits="userSpaceOnUse">
<stop stop-color="#20B038"/>
<stop offset="1" stop-color="#60D66A"/>
</linearGradient>
</defs>
</svg>
