<svg width="21" height="18" viewBox="0 0 21 18" fill="none" xmlns="http://www.w3.org/2000/svg">
<path fill-rule="evenodd" clip-rule="evenodd" d="M0.0889146 6.91851L19.8714 0.00562784C19.8991 -0.00349607 19.9292 -0.0014406 19.9554 0.0113553C19.9816 0.0241512 20.0017 0.0466733 20.0115 0.0741118C20.0156 0.0859854 20.0177 0.0984587 20.0177 0.111022V17.8884C20.0177 17.918 20.006 17.9464 19.9851 17.9673C19.9641 17.9883 19.9357 18 19.9061 18H19.8915L0.105813 17.035C0.0772231 17.0335 0.0502956 17.0211 0.0305973 17.0003C0.010899 16.9796 -6.4071e-05 16.952 -2.56486e-05 16.9234V7.02746C-1.21811e-05 7.00188 0.00885392 6.9771 0.0250668 6.95732C0.0412796 6.93754 0.0638395 6.92354 0.0889146 6.91851ZM2.24883 8.82227C2.15092 8.8035 2.04954 8.82195 1.96451 8.874C1.87949 8.92605 1.81696 9.00795 1.78914 9.10369C1.76133 9.19942 1.77025 9.30208 1.81414 9.39158C1.85804 9.48108 1.93376 9.55099 2.02648 9.5876L9.2542 11.6777L9.41563 11.5443L16.6131 5.60619C16.6596 5.57514 16.6991 5.53469 16.7291 5.48744C16.759 5.44019 16.7787 5.3872 16.7868 5.33187C16.795 5.27655 16.7915 5.22012 16.7766 5.16623C16.7616 5.11234 16.7355 5.06219 16.7 5.019C16.6644 4.97581 16.6202 4.94055 16.5702 4.9155C16.5203 4.89044 16.4656 4.87614 16.4097 4.87351C16.3538 4.87089 16.298 4.88001 16.2459 4.90027C16.1938 4.92054 16.1465 4.9515 16.107 4.99117L9.07188 10.7972L2.24883 8.82227Z" fill="#1E75BA"/>
</svg>
