<svg width="134" height="134" viewBox="0 0 134 134" fill="none" xmlns="http://www.w3.org/2000/svg">
<path d="M133.903 66.762C133.903 103.635 103.927 133.524 66.9516 133.524C55.3582 133.524 44.4531 130.587 34.9447 125.416C14.1255 114.095 0 92.074 0 66.762C0 29.8908 29.9752 0 66.951 0C103.927 0 133.903 29.8908 133.903 66.762Z" fill="#20B276"/>
<path d="M93.6738 85.751C86.5894 93.0312 77.9918 96.6739 67.8831 96.6739C61.7135 96.6739 55.9813 95.6325 50.6076 92.6075L50.5429 131.374L50.0337 131.237L49.7186 131.156L49.3465 130.955L49.1711 130.638L49.0096 130.281L49.1887 130.057L31.4609 108.979L31.4661 59.153C31.4661 48.7709 35.0078 39.9534 42.0928 32.699C49.1762 25.4441 57.7733 21.8174 67.8831 21.8174C77.9918 21.8174 86.5889 25.457 93.6738 32.7387C100.758 40.0195 104.301 48.8555 104.301 59.2454C104.301 69.6362 100.758 78.4707 93.6738 85.751ZM80.1512 46.6257C76.7875 43.1657 72.6983 41.4365 67.8831 41.4365C63.0668 41.4365 58.9775 43.1657 55.6149 46.6257C52.2512 50.0857 50.5693 54.2914 50.5693 59.2464C50.5693 64.1998 52.2507 68.4055 55.6149 71.8655C58.9775 75.326 63.0668 77.0563 67.8831 77.0563C72.6983 77.0563 76.7875 75.326 80.1512 71.8655C83.5144 68.4055 85.1963 64.1998 85.1963 59.2464C85.1963 54.2914 83.5144 50.0852 80.1512 46.6257Z" fill="#147F52"/>
<path d="M92.2799 84.3747C85.1954 91.6559 76.5989 95.2976 66.4897 95.2976C60.3201 95.2976 54.5496 93.7851 49.1765 90.7601L49.1708 131.145C49.1708 131.145 47.8631 130.786 46.161 130.238C45.7413 130.103 45.3175 129.958 44.8735 129.802C44.6624 129.727 44.5594 129.683 44.342 129.621C43.7852 129.461 43.0794 129.152 42.5355 128.941C40.7077 128.231 39.2266 127.555 39.1909 127.538C39.1552 127.521 33.9234 125.033 33.3334 124.665C32.8051 124.336 32.3347 124.078 31.9316 123.789C31.8027 123.698 31.7054 123.632 31.5833 123.548C30.6249 122.891 30.0893 122.514 30.0893 122.514L30.0732 57.7777C30.0732 47.3951 33.615 38.5777 40.6999 31.3238C47.7839 24.0683 56.3805 20.4421 66.4902 20.4421C76.5994 20.4421 85.196 24.0817 92.2804 31.3635C99.3644 38.6442 102.908 47.4803 102.908 57.8696C102.907 68.2594 99.3639 77.0939 92.2799 84.3747ZM78.7578 45.2495C75.3936 41.7894 71.3049 40.0602 66.4892 40.0602C61.6729 40.0602 57.5836 41.7894 54.221 45.2495C50.8573 48.7095 49.1759 52.9152 49.1759 57.8696C49.1759 62.8235 50.8573 67.0292 54.221 70.4887C57.5836 73.9503 61.6729 75.68 66.4892 75.68C71.3044 75.68 75.3936 73.9503 78.7578 70.4887C82.1205 67.0292 83.8029 62.8235 83.8029 57.8696C83.8029 52.9152 82.1205 48.7095 78.7578 45.2495Z" fill="white"/>
</svg>
