<svg width="28" height="28" viewBox="0 0 28 28" fill="none" xmlns="http://www.w3.org/2000/svg">
<path d="M23.7006 23.1653H7.55308C5.25677 23.1653 3.25363 21.4308 3.25363 19.1345V19.1101V20.4536C3.25363 22.7501 5.25677 24.7532 7.55298 24.7532H23.7006C26.0212 24.7532 28 22.7256 28 20.4536V19.1102C28 21.4064 25.9969 23.1653 23.7006 23.1653ZM3.22916 11.5861V9.75382L0.224445 4.79482C0.0534382 4.52612 -0.0198768 4.2818 0.00459256 4.03748V6.13831C0.00459256 6.33378 0.0778145 6.52926 0.199975 6.74911L3.22916 11.5861Z" fill="#8AB4F8"/>
<path d="M23.7 3.23077H1.07885C0.174975 3.23077 -0.337952 4.01249 0.272759 4.84306L3.22863 9.97307V19.1339C3.22863 21.4791 4.93869 23.4334 7.25938 23.4334H23.6755C25.9963 23.4334 27.975 21.4547 27.975 19.1339V7.55469C27.9995 5.20945 26.0207 3.23077 23.7 3.23077Z" fill="#1C73E8"/>
<path d="M23.4318 9.70433H7.8216C7.13758 9.70433 6.47802 9.2891 6.47802 8.62945C6.47802 7.96989 7.13767 7.55466 7.8216 7.55466H23.4316C24.1156 7.55466 24.7753 7.96989 24.7753 8.62945C24.7753 9.2891 24.1156 9.70433 23.4316 9.70433H23.4318ZM23.4318 14.0039H7.8216C7.13758 14.0039 6.47802 13.5885 6.47802 12.929C6.47802 12.2693 7.13767 11.8541 7.8216 11.8541H23.4316C24.1156 11.8541 24.7753 12.2694 24.7753 12.929C24.7753 13.5885 24.1156 14.0039 23.4316 14.0039H23.4318ZM19.1079 18.3277H7.79723C7.11329 18.3277 6.45374 17.9125 6.45374 17.2529C6.45374 16.5934 7.11329 16.178 7.79723 16.178H19.1079C19.7918 16.178 20.4513 16.5933 20.4513 17.2529C20.4513 17.9126 19.7918 18.3277 19.1079 18.3277Z" fill="white"/>
</svg>
