<svg xmlns="http://www.w3.org/2000/svg" width="32" height="24" fill="none"><path fill="red" d="M31.251 3.792c-.361-1.386-1.428-2.481-2.777-2.854C26.038.256 16.235.256 16.235.256S6.434.276 4 .959c-1.35.372-2.416 1.468-2.778 2.853-.645 2.503-.645 7.734-.645 7.734s0 5.231.664 7.753c.363 1.386 1.43 2.482 2.778 2.854 2.436.682 12.238.682 12.238.682s9.802 0 12.238-.682c1.349-.372 2.415-1.468 2.778-2.854.664-2.502.664-7.753.664-7.753s-.02-5.232-.685-7.754Z"/><path fill="#fff" d="m13.116 16.384 8.132-4.838-8.132-4.839v9.677Z"/></svg>